%TF.GenerationSoftware,KiCad,Pcbnew,7.0.7*%
%TF.CreationDate,2023-11-29T15:56:53-06:00*%
%TF.ProjectId,MDCM,4d44434d-2e6b-4696-9361-645f70636258,rev?*%
%TF.SameCoordinates,Original*%
%TF.FileFunction,Other,User*%
%FSLAX46Y46*%
G04 Gerber Fmt 4.6, Leading zero omitted, Abs format (unit mm)*
G04 Created by KiCad (PCBNEW 7.0.7) date 2023-11-29 15:56:53*
%MOMM*%
%LPD*%
G01*
G04 APERTURE LIST*
%ADD10C,0.152400*%
%ADD11C,0.050000*%
%ADD12C,0.025400*%
G04 APERTURE END LIST*
D10*
%TO.C,C7*%
X231834000Y-134590000D02*
X231834000Y-126970000D01*
X233180200Y-134590000D02*
X231834000Y-134590000D01*
X233180200Y-134590000D02*
X233180200Y-134590000D01*
X235059800Y-134590000D02*
X233180200Y-134590000D01*
X235059800Y-134590000D02*
X235059800Y-134590000D01*
X236406000Y-134590000D02*
X235059800Y-134590000D01*
X231834000Y-126970000D02*
X233180200Y-126970000D01*
X233180200Y-126970000D02*
X233180200Y-126970000D01*
X233180200Y-126970000D02*
X235059800Y-126970000D01*
X235059800Y-126970000D02*
X235059800Y-126970000D01*
X235059800Y-126970000D02*
X236406000Y-126970000D01*
X236406000Y-126970000D02*
X236406000Y-134590000D01*
D11*
%TO.C,Zone 6*%
X201155000Y-134935000D02*
X192505000Y-134935000D01*
X192505000Y-134935000D02*
X192505000Y-147285000D01*
X201155000Y-147285000D02*
X201155000Y-134935000D01*
X192505000Y-147285000D02*
X201155000Y-147285000D01*
D10*
%TO.C,C10*%
X204196000Y-126810000D02*
X204196000Y-134430000D01*
X202849800Y-126810000D02*
X204196000Y-126810000D01*
X202849800Y-126810000D02*
X202849800Y-126810000D01*
X200970200Y-126810000D02*
X202849800Y-126810000D01*
X200970200Y-126810000D02*
X200970200Y-126810000D01*
X199624000Y-126810000D02*
X200970200Y-126810000D01*
X204196000Y-134430000D02*
X202849800Y-134430000D01*
X202849800Y-134430000D02*
X202849800Y-134430000D01*
X202849800Y-134430000D02*
X200970200Y-134430000D01*
X200970200Y-134430000D02*
X200970200Y-134430000D01*
X200970200Y-134430000D02*
X199624000Y-134430000D01*
X199624000Y-134430000D02*
X199624000Y-126810000D01*
%TO.C,C11*%
X225366000Y-126980000D02*
X225366000Y-134600000D01*
X224019800Y-126980000D02*
X225366000Y-126980000D01*
X224019800Y-126980000D02*
X224019800Y-126980000D01*
X222140200Y-126980000D02*
X224019800Y-126980000D01*
X222140200Y-126980000D02*
X222140200Y-126980000D01*
X220794000Y-126980000D02*
X222140200Y-126980000D01*
X225366000Y-134600000D02*
X224019800Y-134600000D01*
X224019800Y-134600000D02*
X224019800Y-134600000D01*
X224019800Y-134600000D02*
X222140200Y-134600000D01*
X222140200Y-134600000D02*
X222140200Y-134600000D01*
X222140200Y-134600000D02*
X220794000Y-134600000D01*
X220794000Y-134600000D02*
X220794000Y-126980000D01*
D11*
%TO.C,Airflow sensor 8*%
X215310000Y-61310000D02*
X230760000Y-61310000D01*
X215310000Y-73710000D02*
X215310000Y-61310000D01*
X230760000Y-61310000D02*
X230760000Y-73710000D01*
X230760000Y-73710000D02*
X215310000Y-73710000D01*
%TO.C,Zone 4*%
X180210000Y-134900000D02*
X171560000Y-134900000D01*
X171560000Y-134900000D02*
X171560000Y-147250000D01*
X180210000Y-147250000D02*
X180210000Y-134900000D01*
X171560000Y-147250000D02*
X180210000Y-147250000D01*
%TO.C,Airflow sensor 7*%
X215330000Y-75870000D02*
X230780000Y-75870000D01*
X215330000Y-88270000D02*
X215330000Y-75870000D01*
X230780000Y-75870000D02*
X230780000Y-88270000D01*
X230780000Y-88270000D02*
X215330000Y-88270000D01*
%TO.C,Zone 8*%
X222085000Y-134935000D02*
X213435000Y-134935000D01*
X213435000Y-134935000D02*
X213435000Y-147285000D01*
X222085000Y-147285000D02*
X222085000Y-134935000D01*
X213435000Y-147285000D02*
X222085000Y-147285000D01*
D10*
%TO.C,U4*%
X224168000Y-123229900D02*
X224168000Y-117895900D01*
X224168000Y-117895900D02*
X212992000Y-117895900D01*
X212992000Y-123229900D02*
X224168000Y-123229900D01*
X212992000Y-117895900D02*
X212992000Y-123229900D01*
%TO.C,C8*%
X162346000Y-126949900D02*
X162346000Y-134569900D01*
X160999800Y-126949900D02*
X162346000Y-126949900D01*
X160999800Y-126949900D02*
X160999800Y-126949900D01*
X159120200Y-126949900D02*
X160999800Y-126949900D01*
X159120200Y-126949900D02*
X159120200Y-126949900D01*
X157774000Y-126949900D02*
X159120200Y-126949900D01*
X162346000Y-134569900D02*
X160999800Y-134569900D01*
X160999800Y-134569900D02*
X160999800Y-134569900D01*
X160999800Y-134569900D02*
X159120200Y-134569900D01*
X159120200Y-134569900D02*
X159120200Y-134569900D01*
X159120200Y-134569900D02*
X157774000Y-134569900D01*
X157774000Y-134569900D02*
X157774000Y-126949900D01*
D11*
%TO.C,Zone 3*%
X169870000Y-134930000D02*
X161220000Y-134930000D01*
X161220000Y-134930000D02*
X161220000Y-147280000D01*
X169870000Y-147280000D02*
X169870000Y-134930000D01*
X161220000Y-147280000D02*
X169870000Y-147280000D01*
%TO.C,H1*%
X80530000Y-39550000D02*
G75*
G03*
X80530000Y-39550000I-3750000J0D01*
G01*
%TO.C,Airflow sensor 1*%
X151370000Y-44000000D02*
X166820000Y-44000000D01*
X151370000Y-56400000D02*
X151370000Y-44000000D01*
X166820000Y-44000000D02*
X166820000Y-56400000D01*
X166820000Y-56400000D02*
X151370000Y-56400000D01*
%TO.C,R4*%
X87040000Y-127950000D02*
X87040000Y-130950000D01*
X87040000Y-130950000D02*
X99300000Y-130950000D01*
X99300000Y-127950000D02*
X87040000Y-127950000D01*
X99300000Y-130950000D02*
X99300000Y-127950000D01*
D10*
%TO.C,C1*%
X233210000Y-109474000D02*
X240830000Y-109474000D01*
X233210000Y-110820200D02*
X233210000Y-109474000D01*
X233210000Y-110820200D02*
X233210000Y-110820200D01*
X233210000Y-112699800D02*
X233210000Y-110820200D01*
X233210000Y-112699800D02*
X233210000Y-112699800D01*
X233210000Y-114046000D02*
X233210000Y-112699800D01*
X240830000Y-109474000D02*
X240830000Y-110820200D01*
X240830000Y-110820200D02*
X240830000Y-110820200D01*
X240830000Y-110820200D02*
X240830000Y-112699800D01*
X240830000Y-112699800D02*
X240830000Y-112699800D01*
X240830000Y-112699800D02*
X240830000Y-114046000D01*
X240830000Y-114046000D02*
X233210000Y-114046000D01*
D11*
%TO.C,H3*%
X242020000Y-143840000D02*
G75*
G03*
X242020000Y-143840000I-3750000J0D01*
G01*
%TO.C,Airflow sensor 5*%
X215340000Y-103850000D02*
X230790000Y-103850000D01*
X215340000Y-116250000D02*
X215340000Y-103850000D01*
X230790000Y-103850000D02*
X230790000Y-116250000D01*
X230790000Y-116250000D02*
X215340000Y-116250000D01*
%TO.C,SW1*%
X105460000Y-58310000D02*
X105460000Y-68410000D01*
X103360000Y-58310000D02*
X105460000Y-58310000D01*
X100760000Y-58310000D02*
X100760000Y-60110000D01*
X98660000Y-58310000D02*
X100760000Y-58310000D01*
X103360000Y-60110000D02*
X103360000Y-58310000D01*
X100760000Y-60110000D02*
X103360000Y-60110000D01*
X103360000Y-66610000D02*
X100760000Y-66610000D01*
X100760000Y-66610000D02*
X100760000Y-68410000D01*
X105460000Y-68410000D02*
X103360000Y-68410000D01*
X103360000Y-68410000D02*
X103360000Y-66610000D01*
X100760000Y-68410000D02*
X98660000Y-68410000D01*
X98660000Y-68410000D02*
X98660000Y-58310000D01*
%TO.C,Airflow sensor 4*%
X199050000Y-44020000D02*
X214500000Y-44020000D01*
X199050000Y-56420000D02*
X199050000Y-44020000D01*
X214500000Y-44020000D02*
X214500000Y-56420000D01*
X214500000Y-56420000D02*
X199050000Y-56420000D01*
%TO.C,H2*%
X80530000Y-143830000D02*
G75*
G03*
X80530000Y-143830000I-3750000J0D01*
G01*
%TO.C,Zone 1*%
X147690000Y-135070000D02*
X139040000Y-135070000D01*
X139040000Y-135070000D02*
X139040000Y-147420000D01*
X147690000Y-147420000D02*
X147690000Y-135070000D01*
X139040000Y-147420000D02*
X147690000Y-147420000D01*
%TO.C,D1*%
X89315000Y-106920000D02*
X89315000Y-111420000D01*
X89315000Y-111420000D02*
X94165000Y-111420000D01*
X94165000Y-106920000D02*
X89315000Y-106920000D01*
X94165000Y-111420000D02*
X94165000Y-106920000D01*
D12*
%TO.C,C2*%
X232082400Y-103213929D02*
X234233929Y-101062400D01*
X232082400Y-106226071D02*
X232082400Y-103213929D01*
X234233929Y-101062400D02*
X237246071Y-101062400D01*
X234233929Y-108377600D02*
X232082400Y-106226071D01*
X237246071Y-101062400D02*
X239397600Y-103213929D01*
X237246071Y-108377600D02*
X234233929Y-108377600D01*
X239397600Y-103213929D02*
X239397600Y-106226071D01*
X239397600Y-106226071D02*
X237246071Y-108377600D01*
D10*
%TO.C,C16*%
X212290100Y-122936000D02*
X204670100Y-122936000D01*
X212290100Y-121589800D02*
X212290100Y-122936000D01*
X212290100Y-121589800D02*
X212290100Y-121589800D01*
X212290100Y-119710200D02*
X212290100Y-121589800D01*
X212290100Y-119710200D02*
X212290100Y-119710200D01*
X212290100Y-118364000D02*
X212290100Y-119710200D01*
X204670100Y-122936000D02*
X204670100Y-121589800D01*
X204670100Y-121589800D02*
X204670100Y-121589800D01*
X204670100Y-121589800D02*
X204670100Y-119710200D01*
X204670100Y-119710200D02*
X204670100Y-119710200D01*
X204670100Y-119710200D02*
X204670100Y-118364000D01*
X204670100Y-118364000D02*
X212290100Y-118364000D01*
D12*
%TO.C,C15*%
X211073929Y-134307600D02*
X208922400Y-132156071D01*
X214086071Y-134307600D02*
X211073929Y-134307600D01*
X208922400Y-132156071D02*
X208922400Y-129143929D01*
X216237600Y-132156071D02*
X214086071Y-134307600D01*
X208922400Y-129143929D02*
X211073929Y-126992400D01*
X216237600Y-129143929D02*
X216237600Y-132156071D01*
X211073929Y-126992400D02*
X214086071Y-126992400D01*
X214086071Y-126992400D02*
X216237600Y-129143929D01*
D11*
%TO.C,Airflow sensor 6*%
X215360000Y-89510000D02*
X230810000Y-89510000D01*
X215360000Y-101910000D02*
X215360000Y-89510000D01*
X230810000Y-89510000D02*
X230810000Y-101910000D01*
X230810000Y-101910000D02*
X215360000Y-101910000D01*
D10*
%TO.C,C9*%
X183216000Y-126940000D02*
X183216000Y-134560000D01*
X181869800Y-126940000D02*
X183216000Y-126940000D01*
X181869800Y-126940000D02*
X181869800Y-126940000D01*
X179990200Y-126940000D02*
X181869800Y-126940000D01*
X179990200Y-126940000D02*
X179990200Y-126940000D01*
X178644000Y-126940000D02*
X179990200Y-126940000D01*
X183216000Y-134560000D02*
X181869800Y-134560000D01*
X181869800Y-134560000D02*
X181869800Y-134560000D01*
X181869800Y-134560000D02*
X179990200Y-134560000D01*
X179990200Y-134560000D02*
X179990200Y-134560000D01*
X179990200Y-134560000D02*
X178644000Y-134560000D01*
X178644000Y-134560000D02*
X178644000Y-126940000D01*
D11*
%TO.C,Plenum*%
X232755000Y-134925000D02*
X224105000Y-134925000D01*
X224105000Y-134925000D02*
X224105000Y-147275000D01*
X232755000Y-147275000D02*
X232755000Y-134925000D01*
X224105000Y-147275000D02*
X232755000Y-147275000D01*
D12*
%TO.C,C12*%
X147623929Y-134267600D02*
X145472400Y-132116071D01*
X150636071Y-134267600D02*
X147623929Y-134267600D01*
X145472400Y-132116071D02*
X145472400Y-129103929D01*
X152787600Y-132116071D02*
X150636071Y-134267600D01*
X145472400Y-129103929D02*
X147623929Y-126952400D01*
X152787600Y-129103929D02*
X152787600Y-132116071D01*
X147623929Y-126952400D02*
X150636071Y-126952400D01*
X150636071Y-126952400D02*
X152787600Y-129103929D01*
D11*
%TO.C,U7*%
X102766600Y-71734800D02*
X99083600Y-71734800D01*
X99083600Y-71734800D02*
X99010000Y-86889200D01*
X102764000Y-86889200D02*
X102766600Y-71734800D01*
X99010000Y-86889200D02*
X99010000Y-121909200D01*
X102764000Y-121909200D02*
X102764000Y-86889200D01*
X102510000Y-121909200D02*
X102764000Y-121909200D01*
X99010000Y-121909200D02*
X102510000Y-121909200D01*
%TO.C,Zone 2*%
X159090000Y-135000000D02*
X150440000Y-135000000D01*
X150440000Y-135000000D02*
X150440000Y-147350000D01*
X159090000Y-147350000D02*
X159090000Y-135000000D01*
X150440000Y-147350000D02*
X159090000Y-147350000D01*
%TO.C,J8*%
X244120000Y-116780000D02*
X244120000Y-126280000D01*
X235120000Y-116780000D02*
X244120000Y-116780000D01*
X235120000Y-114780000D02*
X235120000Y-116780000D01*
X231120000Y-116780000D02*
X231120000Y-114780000D01*
X231120000Y-114780000D02*
X235120000Y-114780000D01*
X229120000Y-126280000D02*
X244120000Y-126280000D01*
X229120000Y-126030000D02*
X229120000Y-126280000D01*
X229120000Y-126030000D02*
X229120000Y-123530000D01*
X229120000Y-123530000D02*
X228120000Y-123530000D01*
X229120000Y-119530000D02*
X229120000Y-116780000D01*
X229120000Y-116780000D02*
X231120000Y-116780000D01*
X228120000Y-123530000D02*
X228120000Y-119530000D01*
X228120000Y-119530000D02*
X229120000Y-119530000D01*
%TO.C,Zone 7*%
X211635000Y-134945000D02*
X202985000Y-134945000D01*
X202985000Y-134945000D02*
X202985000Y-147295000D01*
X211635000Y-147295000D02*
X211635000Y-134945000D01*
X202985000Y-147295000D02*
X211635000Y-147295000D01*
%TO.C,Airflow sensor 2*%
X167230000Y-44000000D02*
X182680000Y-44000000D01*
X167230000Y-56400000D02*
X167230000Y-44000000D01*
X182680000Y-44000000D02*
X182680000Y-56400000D01*
X182680000Y-56400000D02*
X167230000Y-56400000D01*
D10*
%TO.C,C5*%
X194490000Y-124586000D02*
X186870000Y-124586000D01*
X194490000Y-123239800D02*
X194490000Y-124586000D01*
X194490000Y-123239800D02*
X194490000Y-123239800D01*
X194490000Y-121360200D02*
X194490000Y-123239800D01*
X194490000Y-121360200D02*
X194490000Y-121360200D01*
X194490000Y-120014000D02*
X194490000Y-121360200D01*
X186870000Y-124586000D02*
X186870000Y-123239800D01*
X186870000Y-123239800D02*
X186870000Y-123239800D01*
X186870000Y-123239800D02*
X186870000Y-121360200D01*
X186870000Y-121360200D02*
X186870000Y-121360200D01*
X186870000Y-121360200D02*
X186870000Y-120014000D01*
X186870000Y-120014000D02*
X194490000Y-120014000D01*
D11*
%TO.C,Zone 5*%
X190625000Y-134935000D02*
X181975000Y-134935000D01*
X181975000Y-134935000D02*
X181975000Y-147285000D01*
X190625000Y-147285000D02*
X190625000Y-134935000D01*
X181975000Y-147285000D02*
X190625000Y-147285000D01*
%TO.C,R5*%
X87040000Y-123800000D02*
X87040000Y-126800000D01*
X87040000Y-126800000D02*
X99300000Y-126800000D01*
X99300000Y-123800000D02*
X87040000Y-123800000D01*
X99300000Y-126800000D02*
X99300000Y-123800000D01*
D12*
%TO.C,C18*%
X87912400Y-65753929D02*
X90063929Y-63602400D01*
X87912400Y-68766071D02*
X87912400Y-65753929D01*
X90063929Y-63602400D02*
X93076071Y-63602400D01*
X90063929Y-70917600D02*
X87912400Y-68766071D01*
X93076071Y-63602400D02*
X95227600Y-65753929D01*
X93076071Y-70917600D02*
X90063929Y-70917600D01*
X95227600Y-65753929D02*
X95227600Y-68766071D01*
X95227600Y-68766071D02*
X93076071Y-70917600D01*
%TO.C,C14*%
X190083929Y-134377600D02*
X187932400Y-132226071D01*
X193096071Y-134377600D02*
X190083929Y-134377600D01*
X187932400Y-132226071D02*
X187932400Y-129213929D01*
X195247600Y-132226071D02*
X193096071Y-134377600D01*
X187932400Y-129213929D02*
X190083929Y-127062400D01*
X195247600Y-129213929D02*
X195247600Y-132226071D01*
X190083929Y-127062400D02*
X193096071Y-127062400D01*
X193096071Y-127062400D02*
X195247600Y-129213929D01*
%TO.C,C13*%
X169223929Y-134047600D02*
X167072400Y-131896071D01*
X172236071Y-134047600D02*
X169223929Y-134047600D01*
X167072400Y-131896071D02*
X167072400Y-128883929D01*
X174387600Y-131896071D02*
X172236071Y-134047600D01*
X167072400Y-128883929D02*
X169223929Y-126732400D01*
X174387600Y-128883929D02*
X174387600Y-131896071D01*
X169223929Y-126732400D02*
X172236071Y-126732400D01*
X172236071Y-126732400D02*
X174387600Y-128883929D01*
D11*
%TO.C,Airflow sensor 3*%
X183090000Y-44010000D02*
X198540000Y-44010000D01*
X183090000Y-56410000D02*
X183090000Y-44010000D01*
X198540000Y-44010000D02*
X198540000Y-56410000D01*
X198540000Y-56410000D02*
X183090000Y-56410000D01*
%TO.C,H4*%
X242030000Y-39620000D02*
G75*
G03*
X242030000Y-39620000I-3750000J0D01*
G01*
D10*
%TO.C,C4*%
X172040000Y-116076000D02*
X164420000Y-116076000D01*
X172040000Y-114729800D02*
X172040000Y-116076000D01*
X172040000Y-114729800D02*
X172040000Y-114729800D01*
X172040000Y-112850200D02*
X172040000Y-114729800D01*
X172040000Y-112850200D02*
X172040000Y-112850200D01*
X172040000Y-111504000D02*
X172040000Y-112850200D01*
X164420000Y-116076000D02*
X164420000Y-114729800D01*
X164420000Y-114729800D02*
X164420000Y-114729800D01*
X164420000Y-114729800D02*
X164420000Y-112850200D01*
X164420000Y-112850200D02*
X164420000Y-112850200D01*
X164420000Y-112850200D02*
X164420000Y-111504000D01*
X164420000Y-111504000D02*
X172040000Y-111504000D01*
D11*
%TO.C,D2*%
X89330000Y-114670000D02*
X89330000Y-119170000D01*
X89330000Y-119170000D02*
X94180000Y-119170000D01*
X94180000Y-114670000D02*
X89330000Y-114670000D01*
X94180000Y-119170000D02*
X94180000Y-114670000D01*
D10*
%TO.C,C3*%
X138334000Y-131630000D02*
X138334000Y-124010000D01*
X139680200Y-131630000D02*
X138334000Y-131630000D01*
X139680200Y-131630000D02*
X139680200Y-131630000D01*
X141559800Y-131630000D02*
X139680200Y-131630000D01*
X141559800Y-131630000D02*
X141559800Y-131630000D01*
X142906000Y-131630000D02*
X141559800Y-131630000D01*
X138334000Y-124010000D02*
X139680200Y-124010000D01*
X139680200Y-124010000D02*
X139680200Y-124010000D01*
X139680200Y-124010000D02*
X141559800Y-124010000D01*
X141559800Y-124010000D02*
X141559800Y-124010000D01*
X141559800Y-124010000D02*
X142906000Y-124010000D01*
X142906000Y-124010000D02*
X142906000Y-131630000D01*
%TO.C,C17*%
X87582200Y-57945900D02*
X95202200Y-57945900D01*
X87582200Y-59292100D02*
X87582200Y-57945900D01*
X87582200Y-59292100D02*
X87582200Y-59292100D01*
X87582200Y-61171700D02*
X87582200Y-59292100D01*
X87582200Y-61171700D02*
X87582200Y-61171700D01*
X87582200Y-62517900D02*
X87582200Y-61171700D01*
X95202200Y-57945900D02*
X95202200Y-59292100D01*
X95202200Y-59292100D02*
X95202200Y-59292100D01*
X95202200Y-59292100D02*
X95202200Y-61171700D01*
X95202200Y-61171700D02*
X95202200Y-61171700D01*
X95202200Y-61171700D02*
X95202200Y-62517900D01*
X95202200Y-62517900D02*
X87582200Y-62517900D01*
%TD*%
M02*
