%TF.GenerationSoftware,KiCad,Pcbnew,7.0.7*%
%TF.CreationDate,2023-11-29T15:56:53-06:00*%
%TF.ProjectId,MDCM,4d44434d-2e6b-4696-9361-645f70636258,rev?*%
%TF.SameCoordinates,Original*%
%TF.FileFunction,Legend,Top*%
%TF.FilePolarity,Positive*%
%FSLAX46Y46*%
G04 Gerber Fmt 4.6, Leading zero omitted, Abs format (unit mm)*
G04 Created by KiCad (PCBNEW 7.0.7) date 2023-11-29 15:56:53*
%MOMM*%
%LPD*%
G01*
G04 APERTURE LIST*
%ADD10C,0.150000*%
%ADD11C,0.203200*%
%ADD12C,0.152400*%
%ADD13C,0.120000*%
%ADD14C,0.381000*%
%ADD15C,0.127000*%
%ADD16C,0.200000*%
%ADD17C,3.197860*%
%ADD18O,2.199640X1.524000*%
%ADD19O,2.197100X1.524000*%
%ADD20O,1.539240X1.998980*%
%ADD21O,1.536700X1.998980*%
G04 APERTURE END LIST*
D10*
X235839580Y-130936666D02*
X235887200Y-130984285D01*
X235887200Y-130984285D02*
X235934819Y-131127142D01*
X235934819Y-131127142D02*
X235934819Y-131222380D01*
X235934819Y-131222380D02*
X235887200Y-131365237D01*
X235887200Y-131365237D02*
X235791961Y-131460475D01*
X235791961Y-131460475D02*
X235696723Y-131508094D01*
X235696723Y-131508094D02*
X235506247Y-131555713D01*
X235506247Y-131555713D02*
X235363390Y-131555713D01*
X235363390Y-131555713D02*
X235172914Y-131508094D01*
X235172914Y-131508094D02*
X235077676Y-131460475D01*
X235077676Y-131460475D02*
X234982438Y-131365237D01*
X234982438Y-131365237D02*
X234934819Y-131222380D01*
X234934819Y-131222380D02*
X234934819Y-131127142D01*
X234934819Y-131127142D02*
X234982438Y-130984285D01*
X234982438Y-130984285D02*
X235030057Y-130936666D01*
X234934819Y-130603332D02*
X234934819Y-129936666D01*
X234934819Y-129936666D02*
X235934819Y-130365237D01*
X201079819Y-143643809D02*
X201079819Y-142977143D01*
X201079819Y-142977143D02*
X202079819Y-143643809D01*
X202079819Y-143643809D02*
X202079819Y-142977143D01*
X202079819Y-142453333D02*
X202032200Y-142548571D01*
X202032200Y-142548571D02*
X201984580Y-142596190D01*
X201984580Y-142596190D02*
X201889342Y-142643809D01*
X201889342Y-142643809D02*
X201603628Y-142643809D01*
X201603628Y-142643809D02*
X201508390Y-142596190D01*
X201508390Y-142596190D02*
X201460771Y-142548571D01*
X201460771Y-142548571D02*
X201413152Y-142453333D01*
X201413152Y-142453333D02*
X201413152Y-142310476D01*
X201413152Y-142310476D02*
X201460771Y-142215238D01*
X201460771Y-142215238D02*
X201508390Y-142167619D01*
X201508390Y-142167619D02*
X201603628Y-142120000D01*
X201603628Y-142120000D02*
X201889342Y-142120000D01*
X201889342Y-142120000D02*
X201984580Y-142167619D01*
X201984580Y-142167619D02*
X202032200Y-142215238D01*
X202032200Y-142215238D02*
X202079819Y-142310476D01*
X202079819Y-142310476D02*
X202079819Y-142453333D01*
X201413152Y-141691428D02*
X202079819Y-141691428D01*
X201508390Y-141691428D02*
X201460771Y-141643809D01*
X201460771Y-141643809D02*
X201413152Y-141548571D01*
X201413152Y-141548571D02*
X201413152Y-141405714D01*
X201413152Y-141405714D02*
X201460771Y-141310476D01*
X201460771Y-141310476D02*
X201556009Y-141262857D01*
X201556009Y-141262857D02*
X202079819Y-141262857D01*
X202032200Y-140405714D02*
X202079819Y-140500952D01*
X202079819Y-140500952D02*
X202079819Y-140691428D01*
X202079819Y-140691428D02*
X202032200Y-140786666D01*
X202032200Y-140786666D02*
X201936961Y-140834285D01*
X201936961Y-140834285D02*
X201556009Y-140834285D01*
X201556009Y-140834285D02*
X201460771Y-140786666D01*
X201460771Y-140786666D02*
X201413152Y-140691428D01*
X201413152Y-140691428D02*
X201413152Y-140500952D01*
X201413152Y-140500952D02*
X201460771Y-140405714D01*
X201460771Y-140405714D02*
X201556009Y-140358095D01*
X201556009Y-140358095D02*
X201651247Y-140358095D01*
X201651247Y-140358095D02*
X201746485Y-140834285D01*
X201079819Y-138739047D02*
X201079819Y-138929523D01*
X201079819Y-138929523D02*
X201127438Y-139024761D01*
X201127438Y-139024761D02*
X201175057Y-139072380D01*
X201175057Y-139072380D02*
X201317914Y-139167618D01*
X201317914Y-139167618D02*
X201508390Y-139215237D01*
X201508390Y-139215237D02*
X201889342Y-139215237D01*
X201889342Y-139215237D02*
X201984580Y-139167618D01*
X201984580Y-139167618D02*
X202032200Y-139119999D01*
X202032200Y-139119999D02*
X202079819Y-139024761D01*
X202079819Y-139024761D02*
X202079819Y-138834285D01*
X202079819Y-138834285D02*
X202032200Y-138739047D01*
X202032200Y-138739047D02*
X201984580Y-138691428D01*
X201984580Y-138691428D02*
X201889342Y-138643809D01*
X201889342Y-138643809D02*
X201651247Y-138643809D01*
X201651247Y-138643809D02*
X201556009Y-138691428D01*
X201556009Y-138691428D02*
X201508390Y-138739047D01*
X201508390Y-138739047D02*
X201460771Y-138834285D01*
X201460771Y-138834285D02*
X201460771Y-139024761D01*
X201460771Y-139024761D02*
X201508390Y-139119999D01*
X201508390Y-139119999D02*
X201556009Y-139167618D01*
X201556009Y-139167618D02*
X201651247Y-139215237D01*
X202870419Y-130037142D02*
X202822800Y-129989523D01*
X202822800Y-129989523D02*
X202775180Y-129846666D01*
X202775180Y-129846666D02*
X202775180Y-129751428D01*
X202775180Y-129751428D02*
X202822800Y-129608571D01*
X202822800Y-129608571D02*
X202918038Y-129513333D01*
X202918038Y-129513333D02*
X203013276Y-129465714D01*
X203013276Y-129465714D02*
X203203752Y-129418095D01*
X203203752Y-129418095D02*
X203346609Y-129418095D01*
X203346609Y-129418095D02*
X203537085Y-129465714D01*
X203537085Y-129465714D02*
X203632323Y-129513333D01*
X203632323Y-129513333D02*
X203727561Y-129608571D01*
X203727561Y-129608571D02*
X203775180Y-129751428D01*
X203775180Y-129751428D02*
X203775180Y-129846666D01*
X203775180Y-129846666D02*
X203727561Y-129989523D01*
X203727561Y-129989523D02*
X203679942Y-130037142D01*
X202775180Y-130989523D02*
X202775180Y-130418095D01*
X202775180Y-130703809D02*
X203775180Y-130703809D01*
X203775180Y-130703809D02*
X203632323Y-130608571D01*
X203632323Y-130608571D02*
X203537085Y-130513333D01*
X203537085Y-130513333D02*
X203489466Y-130418095D01*
X203775180Y-131608571D02*
X203775180Y-131703809D01*
X203775180Y-131703809D02*
X203727561Y-131799047D01*
X203727561Y-131799047D02*
X203679942Y-131846666D01*
X203679942Y-131846666D02*
X203584704Y-131894285D01*
X203584704Y-131894285D02*
X203394228Y-131941904D01*
X203394228Y-131941904D02*
X203156133Y-131941904D01*
X203156133Y-131941904D02*
X202965657Y-131894285D01*
X202965657Y-131894285D02*
X202870419Y-131846666D01*
X202870419Y-131846666D02*
X202822800Y-131799047D01*
X202822800Y-131799047D02*
X202775180Y-131703809D01*
X202775180Y-131703809D02*
X202775180Y-131608571D01*
X202775180Y-131608571D02*
X202822800Y-131513333D01*
X202822800Y-131513333D02*
X202870419Y-131465714D01*
X202870419Y-131465714D02*
X202965657Y-131418095D01*
X202965657Y-131418095D02*
X203156133Y-131370476D01*
X203156133Y-131370476D02*
X203394228Y-131370476D01*
X203394228Y-131370476D02*
X203584704Y-131418095D01*
X203584704Y-131418095D02*
X203679942Y-131465714D01*
X203679942Y-131465714D02*
X203727561Y-131513333D01*
X203727561Y-131513333D02*
X203775180Y-131608571D01*
D11*
X107343453Y-91578666D02*
X108069168Y-91578666D01*
X108069168Y-91578666D02*
X108214311Y-91627047D01*
X108214311Y-91627047D02*
X108311073Y-91723809D01*
X108311073Y-91723809D02*
X108359453Y-91868952D01*
X108359453Y-91868952D02*
X108359453Y-91965714D01*
X108359453Y-90562666D02*
X108359453Y-91143238D01*
X108359453Y-90852952D02*
X107343453Y-90852952D01*
X107343453Y-90852952D02*
X107488596Y-90949714D01*
X107488596Y-90949714D02*
X107585358Y-91046476D01*
X107585358Y-91046476D02*
X107633739Y-91143238D01*
D10*
X224060419Y-130197142D02*
X224012800Y-130149523D01*
X224012800Y-130149523D02*
X223965180Y-130006666D01*
X223965180Y-130006666D02*
X223965180Y-129911428D01*
X223965180Y-129911428D02*
X224012800Y-129768571D01*
X224012800Y-129768571D02*
X224108038Y-129673333D01*
X224108038Y-129673333D02*
X224203276Y-129625714D01*
X224203276Y-129625714D02*
X224393752Y-129578095D01*
X224393752Y-129578095D02*
X224536609Y-129578095D01*
X224536609Y-129578095D02*
X224727085Y-129625714D01*
X224727085Y-129625714D02*
X224822323Y-129673333D01*
X224822323Y-129673333D02*
X224917561Y-129768571D01*
X224917561Y-129768571D02*
X224965180Y-129911428D01*
X224965180Y-129911428D02*
X224965180Y-130006666D01*
X224965180Y-130006666D02*
X224917561Y-130149523D01*
X224917561Y-130149523D02*
X224869942Y-130197142D01*
X223965180Y-131149523D02*
X223965180Y-130578095D01*
X223965180Y-130863809D02*
X224965180Y-130863809D01*
X224965180Y-130863809D02*
X224822323Y-130768571D01*
X224822323Y-130768571D02*
X224727085Y-130673333D01*
X224727085Y-130673333D02*
X224679466Y-130578095D01*
X223965180Y-132101904D02*
X223965180Y-131530476D01*
X223965180Y-131816190D02*
X224965180Y-131816190D01*
X224965180Y-131816190D02*
X224822323Y-131720952D01*
X224822323Y-131720952D02*
X224727085Y-131625714D01*
X224727085Y-131625714D02*
X224679466Y-131530476D01*
X214648901Y-59860194D02*
X215316448Y-59860194D01*
X214515391Y-60260722D02*
X214982674Y-58858872D01*
X214982674Y-58858872D02*
X215449958Y-60260722D01*
X215917241Y-60260722D02*
X215917241Y-59326156D01*
X215917241Y-58858872D02*
X215850487Y-58925627D01*
X215850487Y-58925627D02*
X215917241Y-58992382D01*
X215917241Y-58992382D02*
X215983996Y-58925627D01*
X215983996Y-58925627D02*
X215917241Y-58858872D01*
X215917241Y-58858872D02*
X215917241Y-58992382D01*
X216584789Y-60260722D02*
X216584789Y-59326156D01*
X216584789Y-59593175D02*
X216651544Y-59459665D01*
X216651544Y-59459665D02*
X216718299Y-59392910D01*
X216718299Y-59392910D02*
X216851808Y-59326156D01*
X216851808Y-59326156D02*
X216985318Y-59326156D01*
X217252337Y-59326156D02*
X217786375Y-59326156D01*
X217452601Y-60260722D02*
X217452601Y-59059137D01*
X217452601Y-59059137D02*
X217519356Y-58925627D01*
X217519356Y-58925627D02*
X217652866Y-58858872D01*
X217652866Y-58858872D02*
X217786375Y-58858872D01*
X218453923Y-60260722D02*
X218320413Y-60193968D01*
X218320413Y-60193968D02*
X218253658Y-60060458D01*
X218253658Y-60060458D02*
X218253658Y-58858872D01*
X219188225Y-60260722D02*
X219054715Y-60193968D01*
X219054715Y-60193968D02*
X218987960Y-60127213D01*
X218987960Y-60127213D02*
X218921206Y-59993703D01*
X218921206Y-59993703D02*
X218921206Y-59593175D01*
X218921206Y-59593175D02*
X218987960Y-59459665D01*
X218987960Y-59459665D02*
X219054715Y-59392910D01*
X219054715Y-59392910D02*
X219188225Y-59326156D01*
X219188225Y-59326156D02*
X219388489Y-59326156D01*
X219388489Y-59326156D02*
X219521998Y-59392910D01*
X219521998Y-59392910D02*
X219588753Y-59459665D01*
X219588753Y-59459665D02*
X219655508Y-59593175D01*
X219655508Y-59593175D02*
X219655508Y-59993703D01*
X219655508Y-59993703D02*
X219588753Y-60127213D01*
X219588753Y-60127213D02*
X219521998Y-60193968D01*
X219521998Y-60193968D02*
X219388489Y-60260722D01*
X219388489Y-60260722D02*
X219188225Y-60260722D01*
X220122791Y-59326156D02*
X220389810Y-60260722D01*
X220389810Y-60260722D02*
X220656829Y-59593175D01*
X220656829Y-59593175D02*
X220923848Y-60260722D01*
X220923848Y-60260722D02*
X221190867Y-59326156D01*
X222726227Y-60193968D02*
X222859736Y-60260722D01*
X222859736Y-60260722D02*
X223126755Y-60260722D01*
X223126755Y-60260722D02*
X223260265Y-60193968D01*
X223260265Y-60193968D02*
X223327019Y-60060458D01*
X223327019Y-60060458D02*
X223327019Y-59993703D01*
X223327019Y-59993703D02*
X223260265Y-59860194D01*
X223260265Y-59860194D02*
X223126755Y-59793439D01*
X223126755Y-59793439D02*
X222926491Y-59793439D01*
X222926491Y-59793439D02*
X222792981Y-59726684D01*
X222792981Y-59726684D02*
X222726227Y-59593175D01*
X222726227Y-59593175D02*
X222726227Y-59526420D01*
X222726227Y-59526420D02*
X222792981Y-59392910D01*
X222792981Y-59392910D02*
X222926491Y-59326156D01*
X222926491Y-59326156D02*
X223126755Y-59326156D01*
X223126755Y-59326156D02*
X223260265Y-59392910D01*
X224461850Y-60193968D02*
X224328341Y-60260722D01*
X224328341Y-60260722D02*
X224061322Y-60260722D01*
X224061322Y-60260722D02*
X223927812Y-60193968D01*
X223927812Y-60193968D02*
X223861058Y-60060458D01*
X223861058Y-60060458D02*
X223861058Y-59526420D01*
X223861058Y-59526420D02*
X223927812Y-59392910D01*
X223927812Y-59392910D02*
X224061322Y-59326156D01*
X224061322Y-59326156D02*
X224328341Y-59326156D01*
X224328341Y-59326156D02*
X224461850Y-59392910D01*
X224461850Y-59392910D02*
X224528605Y-59526420D01*
X224528605Y-59526420D02*
X224528605Y-59659929D01*
X224528605Y-59659929D02*
X223861058Y-59793439D01*
X225129398Y-59326156D02*
X225129398Y-60260722D01*
X225129398Y-59459665D02*
X225196153Y-59392910D01*
X225196153Y-59392910D02*
X225329663Y-59326156D01*
X225329663Y-59326156D02*
X225529927Y-59326156D01*
X225529927Y-59326156D02*
X225663436Y-59392910D01*
X225663436Y-59392910D02*
X225730191Y-59526420D01*
X225730191Y-59526420D02*
X225730191Y-60260722D01*
X226330984Y-60193968D02*
X226464493Y-60260722D01*
X226464493Y-60260722D02*
X226731512Y-60260722D01*
X226731512Y-60260722D02*
X226865022Y-60193968D01*
X226865022Y-60193968D02*
X226931776Y-60060458D01*
X226931776Y-60060458D02*
X226931776Y-59993703D01*
X226931776Y-59993703D02*
X226865022Y-59860194D01*
X226865022Y-59860194D02*
X226731512Y-59793439D01*
X226731512Y-59793439D02*
X226531248Y-59793439D01*
X226531248Y-59793439D02*
X226397738Y-59726684D01*
X226397738Y-59726684D02*
X226330984Y-59593175D01*
X226330984Y-59593175D02*
X226330984Y-59526420D01*
X226330984Y-59526420D02*
X226397738Y-59392910D01*
X226397738Y-59392910D02*
X226531248Y-59326156D01*
X226531248Y-59326156D02*
X226731512Y-59326156D01*
X226731512Y-59326156D02*
X226865022Y-59392910D01*
X227732834Y-60260722D02*
X227599324Y-60193968D01*
X227599324Y-60193968D02*
X227532569Y-60127213D01*
X227532569Y-60127213D02*
X227465815Y-59993703D01*
X227465815Y-59993703D02*
X227465815Y-59593175D01*
X227465815Y-59593175D02*
X227532569Y-59459665D01*
X227532569Y-59459665D02*
X227599324Y-59392910D01*
X227599324Y-59392910D02*
X227732834Y-59326156D01*
X227732834Y-59326156D02*
X227933098Y-59326156D01*
X227933098Y-59326156D02*
X228066607Y-59392910D01*
X228066607Y-59392910D02*
X228133362Y-59459665D01*
X228133362Y-59459665D02*
X228200117Y-59593175D01*
X228200117Y-59593175D02*
X228200117Y-59993703D01*
X228200117Y-59993703D02*
X228133362Y-60127213D01*
X228133362Y-60127213D02*
X228066607Y-60193968D01*
X228066607Y-60193968D02*
X227933098Y-60260722D01*
X227933098Y-60260722D02*
X227732834Y-60260722D01*
X228800909Y-60260722D02*
X228800909Y-59326156D01*
X228800909Y-59593175D02*
X228867664Y-59459665D01*
X228867664Y-59459665D02*
X228934419Y-59392910D01*
X228934419Y-59392910D02*
X229067928Y-59326156D01*
X229067928Y-59326156D02*
X229201438Y-59326156D01*
X230937062Y-59459665D02*
X230803552Y-59392910D01*
X230803552Y-59392910D02*
X230736797Y-59326156D01*
X230736797Y-59326156D02*
X230670043Y-59192646D01*
X230670043Y-59192646D02*
X230670043Y-59125891D01*
X230670043Y-59125891D02*
X230736797Y-58992382D01*
X230736797Y-58992382D02*
X230803552Y-58925627D01*
X230803552Y-58925627D02*
X230937062Y-58858872D01*
X230937062Y-58858872D02*
X231204081Y-58858872D01*
X231204081Y-58858872D02*
X231337590Y-58925627D01*
X231337590Y-58925627D02*
X231404345Y-58992382D01*
X231404345Y-58992382D02*
X231471100Y-59125891D01*
X231471100Y-59125891D02*
X231471100Y-59192646D01*
X231471100Y-59192646D02*
X231404345Y-59326156D01*
X231404345Y-59326156D02*
X231337590Y-59392910D01*
X231337590Y-59392910D02*
X231204081Y-59459665D01*
X231204081Y-59459665D02*
X230937062Y-59459665D01*
X230937062Y-59459665D02*
X230803552Y-59526420D01*
X230803552Y-59526420D02*
X230736797Y-59593175D01*
X230736797Y-59593175D02*
X230670043Y-59726684D01*
X230670043Y-59726684D02*
X230670043Y-59993703D01*
X230670043Y-59993703D02*
X230736797Y-60127213D01*
X230736797Y-60127213D02*
X230803552Y-60193968D01*
X230803552Y-60193968D02*
X230937062Y-60260722D01*
X230937062Y-60260722D02*
X231204081Y-60260722D01*
X231204081Y-60260722D02*
X231337590Y-60193968D01*
X231337590Y-60193968D02*
X231404345Y-60127213D01*
X231404345Y-60127213D02*
X231471100Y-59993703D01*
X231471100Y-59993703D02*
X231471100Y-59726684D01*
X231471100Y-59726684D02*
X231404345Y-59593175D01*
X231404345Y-59593175D02*
X231337590Y-59526420D01*
X231337590Y-59526420D02*
X231204081Y-59459665D01*
X180134819Y-143608809D02*
X180134819Y-142942143D01*
X180134819Y-142942143D02*
X181134819Y-143608809D01*
X181134819Y-143608809D02*
X181134819Y-142942143D01*
X181134819Y-142418333D02*
X181087200Y-142513571D01*
X181087200Y-142513571D02*
X181039580Y-142561190D01*
X181039580Y-142561190D02*
X180944342Y-142608809D01*
X180944342Y-142608809D02*
X180658628Y-142608809D01*
X180658628Y-142608809D02*
X180563390Y-142561190D01*
X180563390Y-142561190D02*
X180515771Y-142513571D01*
X180515771Y-142513571D02*
X180468152Y-142418333D01*
X180468152Y-142418333D02*
X180468152Y-142275476D01*
X180468152Y-142275476D02*
X180515771Y-142180238D01*
X180515771Y-142180238D02*
X180563390Y-142132619D01*
X180563390Y-142132619D02*
X180658628Y-142085000D01*
X180658628Y-142085000D02*
X180944342Y-142085000D01*
X180944342Y-142085000D02*
X181039580Y-142132619D01*
X181039580Y-142132619D02*
X181087200Y-142180238D01*
X181087200Y-142180238D02*
X181134819Y-142275476D01*
X181134819Y-142275476D02*
X181134819Y-142418333D01*
X180468152Y-141656428D02*
X181134819Y-141656428D01*
X180563390Y-141656428D02*
X180515771Y-141608809D01*
X180515771Y-141608809D02*
X180468152Y-141513571D01*
X180468152Y-141513571D02*
X180468152Y-141370714D01*
X180468152Y-141370714D02*
X180515771Y-141275476D01*
X180515771Y-141275476D02*
X180611009Y-141227857D01*
X180611009Y-141227857D02*
X181134819Y-141227857D01*
X181087200Y-140370714D02*
X181134819Y-140465952D01*
X181134819Y-140465952D02*
X181134819Y-140656428D01*
X181134819Y-140656428D02*
X181087200Y-140751666D01*
X181087200Y-140751666D02*
X180991961Y-140799285D01*
X180991961Y-140799285D02*
X180611009Y-140799285D01*
X180611009Y-140799285D02*
X180515771Y-140751666D01*
X180515771Y-140751666D02*
X180468152Y-140656428D01*
X180468152Y-140656428D02*
X180468152Y-140465952D01*
X180468152Y-140465952D02*
X180515771Y-140370714D01*
X180515771Y-140370714D02*
X180611009Y-140323095D01*
X180611009Y-140323095D02*
X180706247Y-140323095D01*
X180706247Y-140323095D02*
X180801485Y-140799285D01*
X180468152Y-138704047D02*
X181134819Y-138704047D01*
X180087200Y-138942142D02*
X180801485Y-139180237D01*
X180801485Y-139180237D02*
X180801485Y-138561190D01*
X214618901Y-75290194D02*
X215286448Y-75290194D01*
X214485391Y-75690722D02*
X214952674Y-74288872D01*
X214952674Y-74288872D02*
X215419958Y-75690722D01*
X215887241Y-75690722D02*
X215887241Y-74756156D01*
X215887241Y-74288872D02*
X215820487Y-74355627D01*
X215820487Y-74355627D02*
X215887241Y-74422382D01*
X215887241Y-74422382D02*
X215953996Y-74355627D01*
X215953996Y-74355627D02*
X215887241Y-74288872D01*
X215887241Y-74288872D02*
X215887241Y-74422382D01*
X216554789Y-75690722D02*
X216554789Y-74756156D01*
X216554789Y-75023175D02*
X216621544Y-74889665D01*
X216621544Y-74889665D02*
X216688299Y-74822910D01*
X216688299Y-74822910D02*
X216821808Y-74756156D01*
X216821808Y-74756156D02*
X216955318Y-74756156D01*
X217222337Y-74756156D02*
X217756375Y-74756156D01*
X217422601Y-75690722D02*
X217422601Y-74489137D01*
X217422601Y-74489137D02*
X217489356Y-74355627D01*
X217489356Y-74355627D02*
X217622866Y-74288872D01*
X217622866Y-74288872D02*
X217756375Y-74288872D01*
X218423923Y-75690722D02*
X218290413Y-75623968D01*
X218290413Y-75623968D02*
X218223658Y-75490458D01*
X218223658Y-75490458D02*
X218223658Y-74288872D01*
X219158225Y-75690722D02*
X219024715Y-75623968D01*
X219024715Y-75623968D02*
X218957960Y-75557213D01*
X218957960Y-75557213D02*
X218891206Y-75423703D01*
X218891206Y-75423703D02*
X218891206Y-75023175D01*
X218891206Y-75023175D02*
X218957960Y-74889665D01*
X218957960Y-74889665D02*
X219024715Y-74822910D01*
X219024715Y-74822910D02*
X219158225Y-74756156D01*
X219158225Y-74756156D02*
X219358489Y-74756156D01*
X219358489Y-74756156D02*
X219491998Y-74822910D01*
X219491998Y-74822910D02*
X219558753Y-74889665D01*
X219558753Y-74889665D02*
X219625508Y-75023175D01*
X219625508Y-75023175D02*
X219625508Y-75423703D01*
X219625508Y-75423703D02*
X219558753Y-75557213D01*
X219558753Y-75557213D02*
X219491998Y-75623968D01*
X219491998Y-75623968D02*
X219358489Y-75690722D01*
X219358489Y-75690722D02*
X219158225Y-75690722D01*
X220092791Y-74756156D02*
X220359810Y-75690722D01*
X220359810Y-75690722D02*
X220626829Y-75023175D01*
X220626829Y-75023175D02*
X220893848Y-75690722D01*
X220893848Y-75690722D02*
X221160867Y-74756156D01*
X222696227Y-75623968D02*
X222829736Y-75690722D01*
X222829736Y-75690722D02*
X223096755Y-75690722D01*
X223096755Y-75690722D02*
X223230265Y-75623968D01*
X223230265Y-75623968D02*
X223297019Y-75490458D01*
X223297019Y-75490458D02*
X223297019Y-75423703D01*
X223297019Y-75423703D02*
X223230265Y-75290194D01*
X223230265Y-75290194D02*
X223096755Y-75223439D01*
X223096755Y-75223439D02*
X222896491Y-75223439D01*
X222896491Y-75223439D02*
X222762981Y-75156684D01*
X222762981Y-75156684D02*
X222696227Y-75023175D01*
X222696227Y-75023175D02*
X222696227Y-74956420D01*
X222696227Y-74956420D02*
X222762981Y-74822910D01*
X222762981Y-74822910D02*
X222896491Y-74756156D01*
X222896491Y-74756156D02*
X223096755Y-74756156D01*
X223096755Y-74756156D02*
X223230265Y-74822910D01*
X224431850Y-75623968D02*
X224298341Y-75690722D01*
X224298341Y-75690722D02*
X224031322Y-75690722D01*
X224031322Y-75690722D02*
X223897812Y-75623968D01*
X223897812Y-75623968D02*
X223831058Y-75490458D01*
X223831058Y-75490458D02*
X223831058Y-74956420D01*
X223831058Y-74956420D02*
X223897812Y-74822910D01*
X223897812Y-74822910D02*
X224031322Y-74756156D01*
X224031322Y-74756156D02*
X224298341Y-74756156D01*
X224298341Y-74756156D02*
X224431850Y-74822910D01*
X224431850Y-74822910D02*
X224498605Y-74956420D01*
X224498605Y-74956420D02*
X224498605Y-75089929D01*
X224498605Y-75089929D02*
X223831058Y-75223439D01*
X225099398Y-74756156D02*
X225099398Y-75690722D01*
X225099398Y-74889665D02*
X225166153Y-74822910D01*
X225166153Y-74822910D02*
X225299663Y-74756156D01*
X225299663Y-74756156D02*
X225499927Y-74756156D01*
X225499927Y-74756156D02*
X225633436Y-74822910D01*
X225633436Y-74822910D02*
X225700191Y-74956420D01*
X225700191Y-74956420D02*
X225700191Y-75690722D01*
X226300984Y-75623968D02*
X226434493Y-75690722D01*
X226434493Y-75690722D02*
X226701512Y-75690722D01*
X226701512Y-75690722D02*
X226835022Y-75623968D01*
X226835022Y-75623968D02*
X226901776Y-75490458D01*
X226901776Y-75490458D02*
X226901776Y-75423703D01*
X226901776Y-75423703D02*
X226835022Y-75290194D01*
X226835022Y-75290194D02*
X226701512Y-75223439D01*
X226701512Y-75223439D02*
X226501248Y-75223439D01*
X226501248Y-75223439D02*
X226367738Y-75156684D01*
X226367738Y-75156684D02*
X226300984Y-75023175D01*
X226300984Y-75023175D02*
X226300984Y-74956420D01*
X226300984Y-74956420D02*
X226367738Y-74822910D01*
X226367738Y-74822910D02*
X226501248Y-74756156D01*
X226501248Y-74756156D02*
X226701512Y-74756156D01*
X226701512Y-74756156D02*
X226835022Y-74822910D01*
X227702834Y-75690722D02*
X227569324Y-75623968D01*
X227569324Y-75623968D02*
X227502569Y-75557213D01*
X227502569Y-75557213D02*
X227435815Y-75423703D01*
X227435815Y-75423703D02*
X227435815Y-75023175D01*
X227435815Y-75023175D02*
X227502569Y-74889665D01*
X227502569Y-74889665D02*
X227569324Y-74822910D01*
X227569324Y-74822910D02*
X227702834Y-74756156D01*
X227702834Y-74756156D02*
X227903098Y-74756156D01*
X227903098Y-74756156D02*
X228036607Y-74822910D01*
X228036607Y-74822910D02*
X228103362Y-74889665D01*
X228103362Y-74889665D02*
X228170117Y-75023175D01*
X228170117Y-75023175D02*
X228170117Y-75423703D01*
X228170117Y-75423703D02*
X228103362Y-75557213D01*
X228103362Y-75557213D02*
X228036607Y-75623968D01*
X228036607Y-75623968D02*
X227903098Y-75690722D01*
X227903098Y-75690722D02*
X227702834Y-75690722D01*
X228770909Y-75690722D02*
X228770909Y-74756156D01*
X228770909Y-75023175D02*
X228837664Y-74889665D01*
X228837664Y-74889665D02*
X228904419Y-74822910D01*
X228904419Y-74822910D02*
X229037928Y-74756156D01*
X229037928Y-74756156D02*
X229171438Y-74756156D01*
X230573288Y-74288872D02*
X231507854Y-74288872D01*
X231507854Y-74288872D02*
X230907062Y-75690722D01*
X222009819Y-143643809D02*
X222009819Y-142977143D01*
X222009819Y-142977143D02*
X223009819Y-143643809D01*
X223009819Y-143643809D02*
X223009819Y-142977143D01*
X223009819Y-142453333D02*
X222962200Y-142548571D01*
X222962200Y-142548571D02*
X222914580Y-142596190D01*
X222914580Y-142596190D02*
X222819342Y-142643809D01*
X222819342Y-142643809D02*
X222533628Y-142643809D01*
X222533628Y-142643809D02*
X222438390Y-142596190D01*
X222438390Y-142596190D02*
X222390771Y-142548571D01*
X222390771Y-142548571D02*
X222343152Y-142453333D01*
X222343152Y-142453333D02*
X222343152Y-142310476D01*
X222343152Y-142310476D02*
X222390771Y-142215238D01*
X222390771Y-142215238D02*
X222438390Y-142167619D01*
X222438390Y-142167619D02*
X222533628Y-142120000D01*
X222533628Y-142120000D02*
X222819342Y-142120000D01*
X222819342Y-142120000D02*
X222914580Y-142167619D01*
X222914580Y-142167619D02*
X222962200Y-142215238D01*
X222962200Y-142215238D02*
X223009819Y-142310476D01*
X223009819Y-142310476D02*
X223009819Y-142453333D01*
X222343152Y-141691428D02*
X223009819Y-141691428D01*
X222438390Y-141691428D02*
X222390771Y-141643809D01*
X222390771Y-141643809D02*
X222343152Y-141548571D01*
X222343152Y-141548571D02*
X222343152Y-141405714D01*
X222343152Y-141405714D02*
X222390771Y-141310476D01*
X222390771Y-141310476D02*
X222486009Y-141262857D01*
X222486009Y-141262857D02*
X223009819Y-141262857D01*
X222962200Y-140405714D02*
X223009819Y-140500952D01*
X223009819Y-140500952D02*
X223009819Y-140691428D01*
X223009819Y-140691428D02*
X222962200Y-140786666D01*
X222962200Y-140786666D02*
X222866961Y-140834285D01*
X222866961Y-140834285D02*
X222486009Y-140834285D01*
X222486009Y-140834285D02*
X222390771Y-140786666D01*
X222390771Y-140786666D02*
X222343152Y-140691428D01*
X222343152Y-140691428D02*
X222343152Y-140500952D01*
X222343152Y-140500952D02*
X222390771Y-140405714D01*
X222390771Y-140405714D02*
X222486009Y-140358095D01*
X222486009Y-140358095D02*
X222581247Y-140358095D01*
X222581247Y-140358095D02*
X222676485Y-140834285D01*
X222438390Y-139024761D02*
X222390771Y-139119999D01*
X222390771Y-139119999D02*
X222343152Y-139167618D01*
X222343152Y-139167618D02*
X222247914Y-139215237D01*
X222247914Y-139215237D02*
X222200295Y-139215237D01*
X222200295Y-139215237D02*
X222105057Y-139167618D01*
X222105057Y-139167618D02*
X222057438Y-139119999D01*
X222057438Y-139119999D02*
X222009819Y-139024761D01*
X222009819Y-139024761D02*
X222009819Y-138834285D01*
X222009819Y-138834285D02*
X222057438Y-138739047D01*
X222057438Y-138739047D02*
X222105057Y-138691428D01*
X222105057Y-138691428D02*
X222200295Y-138643809D01*
X222200295Y-138643809D02*
X222247914Y-138643809D01*
X222247914Y-138643809D02*
X222343152Y-138691428D01*
X222343152Y-138691428D02*
X222390771Y-138739047D01*
X222390771Y-138739047D02*
X222438390Y-138834285D01*
X222438390Y-138834285D02*
X222438390Y-139024761D01*
X222438390Y-139024761D02*
X222486009Y-139119999D01*
X222486009Y-139119999D02*
X222533628Y-139167618D01*
X222533628Y-139167618D02*
X222628866Y-139215237D01*
X222628866Y-139215237D02*
X222819342Y-139215237D01*
X222819342Y-139215237D02*
X222914580Y-139167618D01*
X222914580Y-139167618D02*
X222962200Y-139119999D01*
X222962200Y-139119999D02*
X223009819Y-139024761D01*
X223009819Y-139024761D02*
X223009819Y-138834285D01*
X223009819Y-138834285D02*
X222962200Y-138739047D01*
X222962200Y-138739047D02*
X222914580Y-138691428D01*
X222914580Y-138691428D02*
X222819342Y-138643809D01*
X222819342Y-138643809D02*
X222628866Y-138643809D01*
X222628866Y-138643809D02*
X222533628Y-138691428D01*
X222533628Y-138691428D02*
X222486009Y-138739047D01*
X222486009Y-138739047D02*
X222438390Y-138834285D01*
X219341904Y-121108080D02*
X219341904Y-120298557D01*
X219341904Y-120298557D02*
X219294285Y-120203319D01*
X219294285Y-120203319D02*
X219246666Y-120155700D01*
X219246666Y-120155700D02*
X219151428Y-120108080D01*
X219151428Y-120108080D02*
X218960952Y-120108080D01*
X218960952Y-120108080D02*
X218865714Y-120155700D01*
X218865714Y-120155700D02*
X218818095Y-120203319D01*
X218818095Y-120203319D02*
X218770476Y-120298557D01*
X218770476Y-120298557D02*
X218770476Y-121108080D01*
X217865714Y-120774747D02*
X217865714Y-120108080D01*
X218103809Y-121155700D02*
X218341904Y-120441414D01*
X218341904Y-120441414D02*
X217722857Y-120441414D01*
X161050419Y-130673333D02*
X161002800Y-130625714D01*
X161002800Y-130625714D02*
X160955180Y-130482857D01*
X160955180Y-130482857D02*
X160955180Y-130387619D01*
X160955180Y-130387619D02*
X161002800Y-130244762D01*
X161002800Y-130244762D02*
X161098038Y-130149524D01*
X161098038Y-130149524D02*
X161193276Y-130101905D01*
X161193276Y-130101905D02*
X161383752Y-130054286D01*
X161383752Y-130054286D02*
X161526609Y-130054286D01*
X161526609Y-130054286D02*
X161717085Y-130101905D01*
X161717085Y-130101905D02*
X161812323Y-130149524D01*
X161812323Y-130149524D02*
X161907561Y-130244762D01*
X161907561Y-130244762D02*
X161955180Y-130387619D01*
X161955180Y-130387619D02*
X161955180Y-130482857D01*
X161955180Y-130482857D02*
X161907561Y-130625714D01*
X161907561Y-130625714D02*
X161859942Y-130673333D01*
X161526609Y-131244762D02*
X161574228Y-131149524D01*
X161574228Y-131149524D02*
X161621847Y-131101905D01*
X161621847Y-131101905D02*
X161717085Y-131054286D01*
X161717085Y-131054286D02*
X161764704Y-131054286D01*
X161764704Y-131054286D02*
X161859942Y-131101905D01*
X161859942Y-131101905D02*
X161907561Y-131149524D01*
X161907561Y-131149524D02*
X161955180Y-131244762D01*
X161955180Y-131244762D02*
X161955180Y-131435238D01*
X161955180Y-131435238D02*
X161907561Y-131530476D01*
X161907561Y-131530476D02*
X161859942Y-131578095D01*
X161859942Y-131578095D02*
X161764704Y-131625714D01*
X161764704Y-131625714D02*
X161717085Y-131625714D01*
X161717085Y-131625714D02*
X161621847Y-131578095D01*
X161621847Y-131578095D02*
X161574228Y-131530476D01*
X161574228Y-131530476D02*
X161526609Y-131435238D01*
X161526609Y-131435238D02*
X161526609Y-131244762D01*
X161526609Y-131244762D02*
X161478990Y-131149524D01*
X161478990Y-131149524D02*
X161431371Y-131101905D01*
X161431371Y-131101905D02*
X161336133Y-131054286D01*
X161336133Y-131054286D02*
X161145657Y-131054286D01*
X161145657Y-131054286D02*
X161050419Y-131101905D01*
X161050419Y-131101905D02*
X161002800Y-131149524D01*
X161002800Y-131149524D02*
X160955180Y-131244762D01*
X160955180Y-131244762D02*
X160955180Y-131435238D01*
X160955180Y-131435238D02*
X161002800Y-131530476D01*
X161002800Y-131530476D02*
X161050419Y-131578095D01*
X161050419Y-131578095D02*
X161145657Y-131625714D01*
X161145657Y-131625714D02*
X161336133Y-131625714D01*
X161336133Y-131625714D02*
X161431371Y-131578095D01*
X161431371Y-131578095D02*
X161478990Y-131530476D01*
X161478990Y-131530476D02*
X161526609Y-131435238D01*
X169794819Y-143638809D02*
X169794819Y-142972143D01*
X169794819Y-142972143D02*
X170794819Y-143638809D01*
X170794819Y-143638809D02*
X170794819Y-142972143D01*
X170794819Y-142448333D02*
X170747200Y-142543571D01*
X170747200Y-142543571D02*
X170699580Y-142591190D01*
X170699580Y-142591190D02*
X170604342Y-142638809D01*
X170604342Y-142638809D02*
X170318628Y-142638809D01*
X170318628Y-142638809D02*
X170223390Y-142591190D01*
X170223390Y-142591190D02*
X170175771Y-142543571D01*
X170175771Y-142543571D02*
X170128152Y-142448333D01*
X170128152Y-142448333D02*
X170128152Y-142305476D01*
X170128152Y-142305476D02*
X170175771Y-142210238D01*
X170175771Y-142210238D02*
X170223390Y-142162619D01*
X170223390Y-142162619D02*
X170318628Y-142115000D01*
X170318628Y-142115000D02*
X170604342Y-142115000D01*
X170604342Y-142115000D02*
X170699580Y-142162619D01*
X170699580Y-142162619D02*
X170747200Y-142210238D01*
X170747200Y-142210238D02*
X170794819Y-142305476D01*
X170794819Y-142305476D02*
X170794819Y-142448333D01*
X170128152Y-141686428D02*
X170794819Y-141686428D01*
X170223390Y-141686428D02*
X170175771Y-141638809D01*
X170175771Y-141638809D02*
X170128152Y-141543571D01*
X170128152Y-141543571D02*
X170128152Y-141400714D01*
X170128152Y-141400714D02*
X170175771Y-141305476D01*
X170175771Y-141305476D02*
X170271009Y-141257857D01*
X170271009Y-141257857D02*
X170794819Y-141257857D01*
X170747200Y-140400714D02*
X170794819Y-140495952D01*
X170794819Y-140495952D02*
X170794819Y-140686428D01*
X170794819Y-140686428D02*
X170747200Y-140781666D01*
X170747200Y-140781666D02*
X170651961Y-140829285D01*
X170651961Y-140829285D02*
X170271009Y-140829285D01*
X170271009Y-140829285D02*
X170175771Y-140781666D01*
X170175771Y-140781666D02*
X170128152Y-140686428D01*
X170128152Y-140686428D02*
X170128152Y-140495952D01*
X170128152Y-140495952D02*
X170175771Y-140400714D01*
X170175771Y-140400714D02*
X170271009Y-140353095D01*
X170271009Y-140353095D02*
X170366247Y-140353095D01*
X170366247Y-140353095D02*
X170461485Y-140829285D01*
X169794819Y-139257856D02*
X169794819Y-138638809D01*
X169794819Y-138638809D02*
X170175771Y-138972142D01*
X170175771Y-138972142D02*
X170175771Y-138829285D01*
X170175771Y-138829285D02*
X170223390Y-138734047D01*
X170223390Y-138734047D02*
X170271009Y-138686428D01*
X170271009Y-138686428D02*
X170366247Y-138638809D01*
X170366247Y-138638809D02*
X170604342Y-138638809D01*
X170604342Y-138638809D02*
X170699580Y-138686428D01*
X170699580Y-138686428D02*
X170747200Y-138734047D01*
X170747200Y-138734047D02*
X170794819Y-138829285D01*
X170794819Y-138829285D02*
X170794819Y-139114999D01*
X170794819Y-139114999D02*
X170747200Y-139210237D01*
X170747200Y-139210237D02*
X170699580Y-139257856D01*
X76018095Y-35504819D02*
X76018095Y-34504819D01*
X76018095Y-34981009D02*
X76589523Y-34981009D01*
X76589523Y-35504819D02*
X76589523Y-34504819D01*
X77589523Y-35504819D02*
X77018095Y-35504819D01*
X77303809Y-35504819D02*
X77303809Y-34504819D01*
X77303809Y-34504819D02*
X77208571Y-34647676D01*
X77208571Y-34647676D02*
X77113333Y-34742914D01*
X77113333Y-34742914D02*
X77018095Y-34790533D01*
X150858901Y-41480194D02*
X151526448Y-41480194D01*
X150725391Y-41880722D02*
X151192674Y-40478872D01*
X151192674Y-40478872D02*
X151659958Y-41880722D01*
X152127241Y-41880722D02*
X152127241Y-40946156D01*
X152127241Y-40478872D02*
X152060487Y-40545627D01*
X152060487Y-40545627D02*
X152127241Y-40612382D01*
X152127241Y-40612382D02*
X152193996Y-40545627D01*
X152193996Y-40545627D02*
X152127241Y-40478872D01*
X152127241Y-40478872D02*
X152127241Y-40612382D01*
X152794789Y-41880722D02*
X152794789Y-40946156D01*
X152794789Y-41213175D02*
X152861544Y-41079665D01*
X152861544Y-41079665D02*
X152928299Y-41012910D01*
X152928299Y-41012910D02*
X153061808Y-40946156D01*
X153061808Y-40946156D02*
X153195318Y-40946156D01*
X153462337Y-40946156D02*
X153996375Y-40946156D01*
X153662601Y-41880722D02*
X153662601Y-40679137D01*
X153662601Y-40679137D02*
X153729356Y-40545627D01*
X153729356Y-40545627D02*
X153862866Y-40478872D01*
X153862866Y-40478872D02*
X153996375Y-40478872D01*
X154663923Y-41880722D02*
X154530413Y-41813968D01*
X154530413Y-41813968D02*
X154463658Y-41680458D01*
X154463658Y-41680458D02*
X154463658Y-40478872D01*
X155398225Y-41880722D02*
X155264715Y-41813968D01*
X155264715Y-41813968D02*
X155197960Y-41747213D01*
X155197960Y-41747213D02*
X155131206Y-41613703D01*
X155131206Y-41613703D02*
X155131206Y-41213175D01*
X155131206Y-41213175D02*
X155197960Y-41079665D01*
X155197960Y-41079665D02*
X155264715Y-41012910D01*
X155264715Y-41012910D02*
X155398225Y-40946156D01*
X155398225Y-40946156D02*
X155598489Y-40946156D01*
X155598489Y-40946156D02*
X155731998Y-41012910D01*
X155731998Y-41012910D02*
X155798753Y-41079665D01*
X155798753Y-41079665D02*
X155865508Y-41213175D01*
X155865508Y-41213175D02*
X155865508Y-41613703D01*
X155865508Y-41613703D02*
X155798753Y-41747213D01*
X155798753Y-41747213D02*
X155731998Y-41813968D01*
X155731998Y-41813968D02*
X155598489Y-41880722D01*
X155598489Y-41880722D02*
X155398225Y-41880722D01*
X156332791Y-40946156D02*
X156599810Y-41880722D01*
X156599810Y-41880722D02*
X156866829Y-41213175D01*
X156866829Y-41213175D02*
X157133848Y-41880722D01*
X157133848Y-41880722D02*
X157400867Y-40946156D01*
X158936227Y-41813968D02*
X159069736Y-41880722D01*
X159069736Y-41880722D02*
X159336755Y-41880722D01*
X159336755Y-41880722D02*
X159470265Y-41813968D01*
X159470265Y-41813968D02*
X159537019Y-41680458D01*
X159537019Y-41680458D02*
X159537019Y-41613703D01*
X159537019Y-41613703D02*
X159470265Y-41480194D01*
X159470265Y-41480194D02*
X159336755Y-41413439D01*
X159336755Y-41413439D02*
X159136491Y-41413439D01*
X159136491Y-41413439D02*
X159002981Y-41346684D01*
X159002981Y-41346684D02*
X158936227Y-41213175D01*
X158936227Y-41213175D02*
X158936227Y-41146420D01*
X158936227Y-41146420D02*
X159002981Y-41012910D01*
X159002981Y-41012910D02*
X159136491Y-40946156D01*
X159136491Y-40946156D02*
X159336755Y-40946156D01*
X159336755Y-40946156D02*
X159470265Y-41012910D01*
X160671850Y-41813968D02*
X160538341Y-41880722D01*
X160538341Y-41880722D02*
X160271322Y-41880722D01*
X160271322Y-41880722D02*
X160137812Y-41813968D01*
X160137812Y-41813968D02*
X160071058Y-41680458D01*
X160071058Y-41680458D02*
X160071058Y-41146420D01*
X160071058Y-41146420D02*
X160137812Y-41012910D01*
X160137812Y-41012910D02*
X160271322Y-40946156D01*
X160271322Y-40946156D02*
X160538341Y-40946156D01*
X160538341Y-40946156D02*
X160671850Y-41012910D01*
X160671850Y-41012910D02*
X160738605Y-41146420D01*
X160738605Y-41146420D02*
X160738605Y-41279929D01*
X160738605Y-41279929D02*
X160071058Y-41413439D01*
X161339398Y-40946156D02*
X161339398Y-41880722D01*
X161339398Y-41079665D02*
X161406153Y-41012910D01*
X161406153Y-41012910D02*
X161539663Y-40946156D01*
X161539663Y-40946156D02*
X161739927Y-40946156D01*
X161739927Y-40946156D02*
X161873436Y-41012910D01*
X161873436Y-41012910D02*
X161940191Y-41146420D01*
X161940191Y-41146420D02*
X161940191Y-41880722D01*
X162540984Y-41813968D02*
X162674493Y-41880722D01*
X162674493Y-41880722D02*
X162941512Y-41880722D01*
X162941512Y-41880722D02*
X163075022Y-41813968D01*
X163075022Y-41813968D02*
X163141776Y-41680458D01*
X163141776Y-41680458D02*
X163141776Y-41613703D01*
X163141776Y-41613703D02*
X163075022Y-41480194D01*
X163075022Y-41480194D02*
X162941512Y-41413439D01*
X162941512Y-41413439D02*
X162741248Y-41413439D01*
X162741248Y-41413439D02*
X162607738Y-41346684D01*
X162607738Y-41346684D02*
X162540984Y-41213175D01*
X162540984Y-41213175D02*
X162540984Y-41146420D01*
X162540984Y-41146420D02*
X162607738Y-41012910D01*
X162607738Y-41012910D02*
X162741248Y-40946156D01*
X162741248Y-40946156D02*
X162941512Y-40946156D01*
X162941512Y-40946156D02*
X163075022Y-41012910D01*
X163942834Y-41880722D02*
X163809324Y-41813968D01*
X163809324Y-41813968D02*
X163742569Y-41747213D01*
X163742569Y-41747213D02*
X163675815Y-41613703D01*
X163675815Y-41613703D02*
X163675815Y-41213175D01*
X163675815Y-41213175D02*
X163742569Y-41079665D01*
X163742569Y-41079665D02*
X163809324Y-41012910D01*
X163809324Y-41012910D02*
X163942834Y-40946156D01*
X163942834Y-40946156D02*
X164143098Y-40946156D01*
X164143098Y-40946156D02*
X164276607Y-41012910D01*
X164276607Y-41012910D02*
X164343362Y-41079665D01*
X164343362Y-41079665D02*
X164410117Y-41213175D01*
X164410117Y-41213175D02*
X164410117Y-41613703D01*
X164410117Y-41613703D02*
X164343362Y-41747213D01*
X164343362Y-41747213D02*
X164276607Y-41813968D01*
X164276607Y-41813968D02*
X164143098Y-41880722D01*
X164143098Y-41880722D02*
X163942834Y-41880722D01*
X165010909Y-41880722D02*
X165010909Y-40946156D01*
X165010909Y-41213175D02*
X165077664Y-41079665D01*
X165077664Y-41079665D02*
X165144419Y-41012910D01*
X165144419Y-41012910D02*
X165277928Y-40946156D01*
X165277928Y-40946156D02*
X165411438Y-40946156D01*
X167681100Y-41880722D02*
X166880043Y-41880722D01*
X167280571Y-41880722D02*
X167280571Y-40478872D01*
X167280571Y-40478872D02*
X167147062Y-40679137D01*
X167147062Y-40679137D02*
X167013552Y-40812646D01*
X167013552Y-40812646D02*
X166880043Y-40879401D01*
X93003333Y-127534819D02*
X92670000Y-127058628D01*
X92431905Y-127534819D02*
X92431905Y-126534819D01*
X92431905Y-126534819D02*
X92812857Y-126534819D01*
X92812857Y-126534819D02*
X92908095Y-126582438D01*
X92908095Y-126582438D02*
X92955714Y-126630057D01*
X92955714Y-126630057D02*
X93003333Y-126725295D01*
X93003333Y-126725295D02*
X93003333Y-126868152D01*
X93003333Y-126868152D02*
X92955714Y-126963390D01*
X92955714Y-126963390D02*
X92908095Y-127011009D01*
X92908095Y-127011009D02*
X92812857Y-127058628D01*
X92812857Y-127058628D02*
X92431905Y-127058628D01*
X93860476Y-126868152D02*
X93860476Y-127534819D01*
X93622381Y-126487200D02*
X93384286Y-127201485D01*
X93384286Y-127201485D02*
X94003333Y-127201485D01*
X237023333Y-110749580D02*
X236975714Y-110797200D01*
X236975714Y-110797200D02*
X236832857Y-110844819D01*
X236832857Y-110844819D02*
X236737619Y-110844819D01*
X236737619Y-110844819D02*
X236594762Y-110797200D01*
X236594762Y-110797200D02*
X236499524Y-110701961D01*
X236499524Y-110701961D02*
X236451905Y-110606723D01*
X236451905Y-110606723D02*
X236404286Y-110416247D01*
X236404286Y-110416247D02*
X236404286Y-110273390D01*
X236404286Y-110273390D02*
X236451905Y-110082914D01*
X236451905Y-110082914D02*
X236499524Y-109987676D01*
X236499524Y-109987676D02*
X236594762Y-109892438D01*
X236594762Y-109892438D02*
X236737619Y-109844819D01*
X236737619Y-109844819D02*
X236832857Y-109844819D01*
X236832857Y-109844819D02*
X236975714Y-109892438D01*
X236975714Y-109892438D02*
X237023333Y-109940057D01*
X237975714Y-110844819D02*
X237404286Y-110844819D01*
X237690000Y-110844819D02*
X237690000Y-109844819D01*
X237690000Y-109844819D02*
X237594762Y-109987676D01*
X237594762Y-109987676D02*
X237499524Y-110082914D01*
X237499524Y-110082914D02*
X237404286Y-110130533D01*
X201118095Y-67094819D02*
X201118095Y-67904342D01*
X201118095Y-67904342D02*
X201165714Y-67999580D01*
X201165714Y-67999580D02*
X201213333Y-68047200D01*
X201213333Y-68047200D02*
X201308571Y-68094819D01*
X201308571Y-68094819D02*
X201499047Y-68094819D01*
X201499047Y-68094819D02*
X201594285Y-68047200D01*
X201594285Y-68047200D02*
X201641904Y-67999580D01*
X201641904Y-67999580D02*
X201689523Y-67904342D01*
X201689523Y-67904342D02*
X201689523Y-67094819D01*
X202641904Y-67094819D02*
X202165714Y-67094819D01*
X202165714Y-67094819D02*
X202118095Y-67571009D01*
X202118095Y-67571009D02*
X202165714Y-67523390D01*
X202165714Y-67523390D02*
X202260952Y-67475771D01*
X202260952Y-67475771D02*
X202499047Y-67475771D01*
X202499047Y-67475771D02*
X202594285Y-67523390D01*
X202594285Y-67523390D02*
X202641904Y-67571009D01*
X202641904Y-67571009D02*
X202689523Y-67666247D01*
X202689523Y-67666247D02*
X202689523Y-67904342D01*
X202689523Y-67904342D02*
X202641904Y-67999580D01*
X202641904Y-67999580D02*
X202594285Y-68047200D01*
X202594285Y-68047200D02*
X202499047Y-68094819D01*
X202499047Y-68094819D02*
X202260952Y-68094819D01*
X202260952Y-68094819D02*
X202165714Y-68047200D01*
X202165714Y-68047200D02*
X202118095Y-67999580D01*
X195565160Y-68470200D02*
X195708017Y-68517819D01*
X195708017Y-68517819D02*
X195946112Y-68517819D01*
X195946112Y-68517819D02*
X196041350Y-68470200D01*
X196041350Y-68470200D02*
X196088969Y-68422580D01*
X196088969Y-68422580D02*
X196136588Y-68327342D01*
X196136588Y-68327342D02*
X196136588Y-68232104D01*
X196136588Y-68232104D02*
X196088969Y-68136866D01*
X196088969Y-68136866D02*
X196041350Y-68089247D01*
X196041350Y-68089247D02*
X195946112Y-68041628D01*
X195946112Y-68041628D02*
X195755636Y-67994009D01*
X195755636Y-67994009D02*
X195660398Y-67946390D01*
X195660398Y-67946390D02*
X195612779Y-67898771D01*
X195612779Y-67898771D02*
X195565160Y-67803533D01*
X195565160Y-67803533D02*
X195565160Y-67708295D01*
X195565160Y-67708295D02*
X195612779Y-67613057D01*
X195612779Y-67613057D02*
X195660398Y-67565438D01*
X195660398Y-67565438D02*
X195755636Y-67517819D01*
X195755636Y-67517819D02*
X195993731Y-67517819D01*
X195993731Y-67517819D02*
X196136588Y-67565438D01*
X197136588Y-68422580D02*
X197088969Y-68470200D01*
X197088969Y-68470200D02*
X196946112Y-68517819D01*
X196946112Y-68517819D02*
X196850874Y-68517819D01*
X196850874Y-68517819D02*
X196708017Y-68470200D01*
X196708017Y-68470200D02*
X196612779Y-68374961D01*
X196612779Y-68374961D02*
X196565160Y-68279723D01*
X196565160Y-68279723D02*
X196517541Y-68089247D01*
X196517541Y-68089247D02*
X196517541Y-67946390D01*
X196517541Y-67946390D02*
X196565160Y-67755914D01*
X196565160Y-67755914D02*
X196612779Y-67660676D01*
X196612779Y-67660676D02*
X196708017Y-67565438D01*
X196708017Y-67565438D02*
X196850874Y-67517819D01*
X196850874Y-67517819D02*
X196946112Y-67517819D01*
X196946112Y-67517819D02*
X197088969Y-67565438D01*
X197088969Y-67565438D02*
X197136588Y-67613057D01*
X198041350Y-68517819D02*
X197565160Y-68517819D01*
X197565160Y-68517819D02*
X197565160Y-67517819D01*
X195469922Y-62437819D02*
X195803255Y-63437819D01*
X195803255Y-63437819D02*
X196136588Y-62437819D01*
X196469922Y-63437819D02*
X196469922Y-62771152D01*
X196469922Y-62437819D02*
X196422303Y-62485438D01*
X196422303Y-62485438D02*
X196469922Y-62533057D01*
X196469922Y-62533057D02*
X196517541Y-62485438D01*
X196517541Y-62485438D02*
X196469922Y-62437819D01*
X196469922Y-62437819D02*
X196469922Y-62533057D01*
X196946112Y-62771152D02*
X196946112Y-63437819D01*
X196946112Y-62866390D02*
X196993731Y-62818771D01*
X196993731Y-62818771D02*
X197088969Y-62771152D01*
X197088969Y-62771152D02*
X197231826Y-62771152D01*
X197231826Y-62771152D02*
X197327064Y-62818771D01*
X197327064Y-62818771D02*
X197374683Y-62914009D01*
X197374683Y-62914009D02*
X197374683Y-63437819D01*
X204023360Y-68359104D02*
X204499550Y-68359104D01*
X203928122Y-68644819D02*
X204261455Y-67644819D01*
X204261455Y-67644819D02*
X204594788Y-68644819D01*
X204880503Y-67740057D02*
X204928122Y-67692438D01*
X204928122Y-67692438D02*
X205023360Y-67644819D01*
X205023360Y-67644819D02*
X205261455Y-67644819D01*
X205261455Y-67644819D02*
X205356693Y-67692438D01*
X205356693Y-67692438D02*
X205404312Y-67740057D01*
X205404312Y-67740057D02*
X205451931Y-67835295D01*
X205451931Y-67835295D02*
X205451931Y-67930533D01*
X205451931Y-67930533D02*
X205404312Y-68073390D01*
X205404312Y-68073390D02*
X204832884Y-68644819D01*
X204832884Y-68644819D02*
X205451931Y-68644819D01*
X204023360Y-70899104D02*
X204499550Y-70899104D01*
X203928122Y-71184819D02*
X204261455Y-70184819D01*
X204261455Y-70184819D02*
X204594788Y-71184819D01*
X205451931Y-71184819D02*
X204880503Y-71184819D01*
X205166217Y-71184819D02*
X205166217Y-70184819D01*
X205166217Y-70184819D02*
X205070979Y-70327676D01*
X205070979Y-70327676D02*
X204975741Y-70422914D01*
X204975741Y-70422914D02*
X204880503Y-70470533D01*
X196136588Y-65025438D02*
X196041350Y-64977819D01*
X196041350Y-64977819D02*
X195898493Y-64977819D01*
X195898493Y-64977819D02*
X195755636Y-65025438D01*
X195755636Y-65025438D02*
X195660398Y-65120676D01*
X195660398Y-65120676D02*
X195612779Y-65215914D01*
X195612779Y-65215914D02*
X195565160Y-65406390D01*
X195565160Y-65406390D02*
X195565160Y-65549247D01*
X195565160Y-65549247D02*
X195612779Y-65739723D01*
X195612779Y-65739723D02*
X195660398Y-65834961D01*
X195660398Y-65834961D02*
X195755636Y-65930200D01*
X195755636Y-65930200D02*
X195898493Y-65977819D01*
X195898493Y-65977819D02*
X195993731Y-65977819D01*
X195993731Y-65977819D02*
X196136588Y-65930200D01*
X196136588Y-65930200D02*
X196184207Y-65882580D01*
X196184207Y-65882580D02*
X196184207Y-65549247D01*
X196184207Y-65549247D02*
X195993731Y-65549247D01*
X196612779Y-65977819D02*
X196612779Y-64977819D01*
X196612779Y-64977819D02*
X197184207Y-65977819D01*
X197184207Y-65977819D02*
X197184207Y-64977819D01*
X197660398Y-65977819D02*
X197660398Y-64977819D01*
X197660398Y-64977819D02*
X197898493Y-64977819D01*
X197898493Y-64977819D02*
X198041350Y-65025438D01*
X198041350Y-65025438D02*
X198136588Y-65120676D01*
X198136588Y-65120676D02*
X198184207Y-65215914D01*
X198184207Y-65215914D02*
X198231826Y-65406390D01*
X198231826Y-65406390D02*
X198231826Y-65549247D01*
X198231826Y-65549247D02*
X198184207Y-65739723D01*
X198184207Y-65739723D02*
X198136588Y-65834961D01*
X198136588Y-65834961D02*
X198041350Y-65930200D01*
X198041350Y-65930200D02*
X197898493Y-65977819D01*
X197898493Y-65977819D02*
X197660398Y-65977819D01*
X195565160Y-73312104D02*
X196041350Y-73312104D01*
X195469922Y-73597819D02*
X195803255Y-72597819D01*
X195803255Y-72597819D02*
X196136588Y-73597819D01*
X196469922Y-73597819D02*
X196469922Y-72597819D01*
X196469922Y-72597819D02*
X196708017Y-72597819D01*
X196708017Y-72597819D02*
X196850874Y-72645438D01*
X196850874Y-72645438D02*
X196946112Y-72740676D01*
X196946112Y-72740676D02*
X196993731Y-72835914D01*
X196993731Y-72835914D02*
X197041350Y-73026390D01*
X197041350Y-73026390D02*
X197041350Y-73169247D01*
X197041350Y-73169247D02*
X196993731Y-73359723D01*
X196993731Y-73359723D02*
X196946112Y-73454961D01*
X196946112Y-73454961D02*
X196850874Y-73550200D01*
X196850874Y-73550200D02*
X196708017Y-73597819D01*
X196708017Y-73597819D02*
X196469922Y-73597819D01*
X197469922Y-73597819D02*
X197469922Y-72597819D01*
X197469922Y-72597819D02*
X197708017Y-72597819D01*
X197708017Y-72597819D02*
X197850874Y-72645438D01*
X197850874Y-72645438D02*
X197946112Y-72740676D01*
X197946112Y-72740676D02*
X197993731Y-72835914D01*
X197993731Y-72835914D02*
X198041350Y-73026390D01*
X198041350Y-73026390D02*
X198041350Y-73169247D01*
X198041350Y-73169247D02*
X197993731Y-73359723D01*
X197993731Y-73359723D02*
X197946112Y-73454961D01*
X197946112Y-73454961D02*
X197850874Y-73550200D01*
X197850874Y-73550200D02*
X197708017Y-73597819D01*
X197708017Y-73597819D02*
X197469922Y-73597819D01*
X199041350Y-73597819D02*
X198708017Y-73121628D01*
X198469922Y-73597819D02*
X198469922Y-72597819D01*
X198469922Y-72597819D02*
X198850874Y-72597819D01*
X198850874Y-72597819D02*
X198946112Y-72645438D01*
X198946112Y-72645438D02*
X198993731Y-72693057D01*
X198993731Y-72693057D02*
X199041350Y-72788295D01*
X199041350Y-72788295D02*
X199041350Y-72931152D01*
X199041350Y-72931152D02*
X198993731Y-73026390D01*
X198993731Y-73026390D02*
X198946112Y-73074009D01*
X198946112Y-73074009D02*
X198850874Y-73121628D01*
X198850874Y-73121628D02*
X198469922Y-73121628D01*
X204023360Y-75979104D02*
X204499550Y-75979104D01*
X203928122Y-76264819D02*
X204261455Y-75264819D01*
X204261455Y-75264819D02*
X204594788Y-76264819D01*
X204928122Y-75883866D02*
X205690027Y-75883866D01*
X204023360Y-63279104D02*
X204499550Y-63279104D01*
X203928122Y-63564819D02*
X204261455Y-62564819D01*
X204261455Y-62564819D02*
X204594788Y-63564819D01*
X204928122Y-63183866D02*
X205690027Y-63183866D01*
X205309074Y-63564819D02*
X205309074Y-62802914D01*
X195565160Y-75852104D02*
X196041350Y-75852104D01*
X195469922Y-76137819D02*
X195803255Y-75137819D01*
X195803255Y-75137819D02*
X196136588Y-76137819D01*
X196946112Y-76137819D02*
X196469922Y-76137819D01*
X196469922Y-76137819D02*
X196469922Y-75137819D01*
X197850874Y-76137819D02*
X197517541Y-75661628D01*
X197279446Y-76137819D02*
X197279446Y-75137819D01*
X197279446Y-75137819D02*
X197660398Y-75137819D01*
X197660398Y-75137819D02*
X197755636Y-75185438D01*
X197755636Y-75185438D02*
X197803255Y-75233057D01*
X197803255Y-75233057D02*
X197850874Y-75328295D01*
X197850874Y-75328295D02*
X197850874Y-75471152D01*
X197850874Y-75471152D02*
X197803255Y-75566390D01*
X197803255Y-75566390D02*
X197755636Y-75614009D01*
X197755636Y-75614009D02*
X197660398Y-75661628D01*
X197660398Y-75661628D02*
X197279446Y-75661628D01*
X198136589Y-75137819D02*
X198708017Y-75137819D01*
X198422303Y-76137819D02*
X198422303Y-75137819D01*
X204023360Y-65819104D02*
X204499550Y-65819104D01*
X203928122Y-66104819D02*
X204261455Y-65104819D01*
X204261455Y-65104819D02*
X204594788Y-66104819D01*
X204832884Y-65104819D02*
X205451931Y-65104819D01*
X205451931Y-65104819D02*
X205118598Y-65485771D01*
X205118598Y-65485771D02*
X205261455Y-65485771D01*
X205261455Y-65485771D02*
X205356693Y-65533390D01*
X205356693Y-65533390D02*
X205404312Y-65581009D01*
X205404312Y-65581009D02*
X205451931Y-65676247D01*
X205451931Y-65676247D02*
X205451931Y-65914342D01*
X205451931Y-65914342D02*
X205404312Y-66009580D01*
X205404312Y-66009580D02*
X205356693Y-66057200D01*
X205356693Y-66057200D02*
X205261455Y-66104819D01*
X205261455Y-66104819D02*
X204975741Y-66104819D01*
X204975741Y-66104819D02*
X204880503Y-66057200D01*
X204880503Y-66057200D02*
X204832884Y-66009580D01*
X210709922Y-61929819D02*
X211043255Y-62929819D01*
X211043255Y-62929819D02*
X211376588Y-61929819D01*
X212281350Y-62834580D02*
X212233731Y-62882200D01*
X212233731Y-62882200D02*
X212090874Y-62929819D01*
X212090874Y-62929819D02*
X211995636Y-62929819D01*
X211995636Y-62929819D02*
X211852779Y-62882200D01*
X211852779Y-62882200D02*
X211757541Y-62786961D01*
X211757541Y-62786961D02*
X211709922Y-62691723D01*
X211709922Y-62691723D02*
X211662303Y-62501247D01*
X211662303Y-62501247D02*
X211662303Y-62358390D01*
X211662303Y-62358390D02*
X211709922Y-62167914D01*
X211709922Y-62167914D02*
X211757541Y-62072676D01*
X211757541Y-62072676D02*
X211852779Y-61977438D01*
X211852779Y-61977438D02*
X211995636Y-61929819D01*
X211995636Y-61929819D02*
X212090874Y-61929819D01*
X212090874Y-61929819D02*
X212233731Y-61977438D01*
X212233731Y-61977438D02*
X212281350Y-62025057D01*
X213281350Y-62834580D02*
X213233731Y-62882200D01*
X213233731Y-62882200D02*
X213090874Y-62929819D01*
X213090874Y-62929819D02*
X212995636Y-62929819D01*
X212995636Y-62929819D02*
X212852779Y-62882200D01*
X212852779Y-62882200D02*
X212757541Y-62786961D01*
X212757541Y-62786961D02*
X212709922Y-62691723D01*
X212709922Y-62691723D02*
X212662303Y-62501247D01*
X212662303Y-62501247D02*
X212662303Y-62358390D01*
X212662303Y-62358390D02*
X212709922Y-62167914D01*
X212709922Y-62167914D02*
X212757541Y-62072676D01*
X212757541Y-62072676D02*
X212852779Y-61977438D01*
X212852779Y-61977438D02*
X212995636Y-61929819D01*
X212995636Y-61929819D02*
X213090874Y-61929819D01*
X213090874Y-61929819D02*
X213233731Y-61977438D01*
X213233731Y-61977438D02*
X213281350Y-62025057D01*
X195565160Y-71010200D02*
X195708017Y-71057819D01*
X195708017Y-71057819D02*
X195946112Y-71057819D01*
X195946112Y-71057819D02*
X196041350Y-71010200D01*
X196041350Y-71010200D02*
X196088969Y-70962580D01*
X196088969Y-70962580D02*
X196136588Y-70867342D01*
X196136588Y-70867342D02*
X196136588Y-70772104D01*
X196136588Y-70772104D02*
X196088969Y-70676866D01*
X196088969Y-70676866D02*
X196041350Y-70629247D01*
X196041350Y-70629247D02*
X195946112Y-70581628D01*
X195946112Y-70581628D02*
X195755636Y-70534009D01*
X195755636Y-70534009D02*
X195660398Y-70486390D01*
X195660398Y-70486390D02*
X195612779Y-70438771D01*
X195612779Y-70438771D02*
X195565160Y-70343533D01*
X195565160Y-70343533D02*
X195565160Y-70248295D01*
X195565160Y-70248295D02*
X195612779Y-70153057D01*
X195612779Y-70153057D02*
X195660398Y-70105438D01*
X195660398Y-70105438D02*
X195755636Y-70057819D01*
X195755636Y-70057819D02*
X195993731Y-70057819D01*
X195993731Y-70057819D02*
X196136588Y-70105438D01*
X196565160Y-71057819D02*
X196565160Y-70057819D01*
X196565160Y-70057819D02*
X196803255Y-70057819D01*
X196803255Y-70057819D02*
X196946112Y-70105438D01*
X196946112Y-70105438D02*
X197041350Y-70200676D01*
X197041350Y-70200676D02*
X197088969Y-70295914D01*
X197088969Y-70295914D02*
X197136588Y-70486390D01*
X197136588Y-70486390D02*
X197136588Y-70629247D01*
X197136588Y-70629247D02*
X197088969Y-70819723D01*
X197088969Y-70819723D02*
X197041350Y-70914961D01*
X197041350Y-70914961D02*
X196946112Y-71010200D01*
X196946112Y-71010200D02*
X196803255Y-71057819D01*
X196803255Y-71057819D02*
X196565160Y-71057819D01*
X197517541Y-70772104D02*
X197993731Y-70772104D01*
X197422303Y-71057819D02*
X197755636Y-70057819D01*
X197755636Y-70057819D02*
X198088969Y-71057819D01*
X204023360Y-73439104D02*
X204499550Y-73439104D01*
X203928122Y-73724819D02*
X204261455Y-72724819D01*
X204261455Y-72724819D02*
X204594788Y-73724819D01*
X205118598Y-72724819D02*
X205213836Y-72724819D01*
X205213836Y-72724819D02*
X205309074Y-72772438D01*
X205309074Y-72772438D02*
X205356693Y-72820057D01*
X205356693Y-72820057D02*
X205404312Y-72915295D01*
X205404312Y-72915295D02*
X205451931Y-73105771D01*
X205451931Y-73105771D02*
X205451931Y-73343866D01*
X205451931Y-73343866D02*
X205404312Y-73534342D01*
X205404312Y-73534342D02*
X205356693Y-73629580D01*
X205356693Y-73629580D02*
X205309074Y-73677200D01*
X205309074Y-73677200D02*
X205213836Y-73724819D01*
X205213836Y-73724819D02*
X205118598Y-73724819D01*
X205118598Y-73724819D02*
X205023360Y-73677200D01*
X205023360Y-73677200D02*
X204975741Y-73629580D01*
X204975741Y-73629580D02*
X204928122Y-73534342D01*
X204928122Y-73534342D02*
X204880503Y-73343866D01*
X204880503Y-73343866D02*
X204880503Y-73105771D01*
X204880503Y-73105771D02*
X204928122Y-72915295D01*
X204928122Y-72915295D02*
X204975741Y-72820057D01*
X204975741Y-72820057D02*
X205023360Y-72772438D01*
X205023360Y-72772438D02*
X205118598Y-72724819D01*
X237508095Y-139794819D02*
X237508095Y-138794819D01*
X237508095Y-139271009D02*
X238079523Y-139271009D01*
X238079523Y-139794819D02*
X238079523Y-138794819D01*
X238460476Y-138794819D02*
X239079523Y-138794819D01*
X239079523Y-138794819D02*
X238746190Y-139175771D01*
X238746190Y-139175771D02*
X238889047Y-139175771D01*
X238889047Y-139175771D02*
X238984285Y-139223390D01*
X238984285Y-139223390D02*
X239031904Y-139271009D01*
X239031904Y-139271009D02*
X239079523Y-139366247D01*
X239079523Y-139366247D02*
X239079523Y-139604342D01*
X239079523Y-139604342D02*
X239031904Y-139699580D01*
X239031904Y-139699580D02*
X238984285Y-139747200D01*
X238984285Y-139747200D02*
X238889047Y-139794819D01*
X238889047Y-139794819D02*
X238603333Y-139794819D01*
X238603333Y-139794819D02*
X238508095Y-139747200D01*
X238508095Y-139747200D02*
X238460476Y-139699580D01*
X215028901Y-103090194D02*
X215696448Y-103090194D01*
X214895391Y-103490722D02*
X215362674Y-102088872D01*
X215362674Y-102088872D02*
X215829958Y-103490722D01*
X216297241Y-103490722D02*
X216297241Y-102556156D01*
X216297241Y-102088872D02*
X216230487Y-102155627D01*
X216230487Y-102155627D02*
X216297241Y-102222382D01*
X216297241Y-102222382D02*
X216363996Y-102155627D01*
X216363996Y-102155627D02*
X216297241Y-102088872D01*
X216297241Y-102088872D02*
X216297241Y-102222382D01*
X216964789Y-103490722D02*
X216964789Y-102556156D01*
X216964789Y-102823175D02*
X217031544Y-102689665D01*
X217031544Y-102689665D02*
X217098299Y-102622910D01*
X217098299Y-102622910D02*
X217231808Y-102556156D01*
X217231808Y-102556156D02*
X217365318Y-102556156D01*
X217632337Y-102556156D02*
X218166375Y-102556156D01*
X217832601Y-103490722D02*
X217832601Y-102289137D01*
X217832601Y-102289137D02*
X217899356Y-102155627D01*
X217899356Y-102155627D02*
X218032866Y-102088872D01*
X218032866Y-102088872D02*
X218166375Y-102088872D01*
X218833923Y-103490722D02*
X218700413Y-103423968D01*
X218700413Y-103423968D02*
X218633658Y-103290458D01*
X218633658Y-103290458D02*
X218633658Y-102088872D01*
X219568225Y-103490722D02*
X219434715Y-103423968D01*
X219434715Y-103423968D02*
X219367960Y-103357213D01*
X219367960Y-103357213D02*
X219301206Y-103223703D01*
X219301206Y-103223703D02*
X219301206Y-102823175D01*
X219301206Y-102823175D02*
X219367960Y-102689665D01*
X219367960Y-102689665D02*
X219434715Y-102622910D01*
X219434715Y-102622910D02*
X219568225Y-102556156D01*
X219568225Y-102556156D02*
X219768489Y-102556156D01*
X219768489Y-102556156D02*
X219901998Y-102622910D01*
X219901998Y-102622910D02*
X219968753Y-102689665D01*
X219968753Y-102689665D02*
X220035508Y-102823175D01*
X220035508Y-102823175D02*
X220035508Y-103223703D01*
X220035508Y-103223703D02*
X219968753Y-103357213D01*
X219968753Y-103357213D02*
X219901998Y-103423968D01*
X219901998Y-103423968D02*
X219768489Y-103490722D01*
X219768489Y-103490722D02*
X219568225Y-103490722D01*
X220502791Y-102556156D02*
X220769810Y-103490722D01*
X220769810Y-103490722D02*
X221036829Y-102823175D01*
X221036829Y-102823175D02*
X221303848Y-103490722D01*
X221303848Y-103490722D02*
X221570867Y-102556156D01*
X223106227Y-103423968D02*
X223239736Y-103490722D01*
X223239736Y-103490722D02*
X223506755Y-103490722D01*
X223506755Y-103490722D02*
X223640265Y-103423968D01*
X223640265Y-103423968D02*
X223707019Y-103290458D01*
X223707019Y-103290458D02*
X223707019Y-103223703D01*
X223707019Y-103223703D02*
X223640265Y-103090194D01*
X223640265Y-103090194D02*
X223506755Y-103023439D01*
X223506755Y-103023439D02*
X223306491Y-103023439D01*
X223306491Y-103023439D02*
X223172981Y-102956684D01*
X223172981Y-102956684D02*
X223106227Y-102823175D01*
X223106227Y-102823175D02*
X223106227Y-102756420D01*
X223106227Y-102756420D02*
X223172981Y-102622910D01*
X223172981Y-102622910D02*
X223306491Y-102556156D01*
X223306491Y-102556156D02*
X223506755Y-102556156D01*
X223506755Y-102556156D02*
X223640265Y-102622910D01*
X224841850Y-103423968D02*
X224708341Y-103490722D01*
X224708341Y-103490722D02*
X224441322Y-103490722D01*
X224441322Y-103490722D02*
X224307812Y-103423968D01*
X224307812Y-103423968D02*
X224241058Y-103290458D01*
X224241058Y-103290458D02*
X224241058Y-102756420D01*
X224241058Y-102756420D02*
X224307812Y-102622910D01*
X224307812Y-102622910D02*
X224441322Y-102556156D01*
X224441322Y-102556156D02*
X224708341Y-102556156D01*
X224708341Y-102556156D02*
X224841850Y-102622910D01*
X224841850Y-102622910D02*
X224908605Y-102756420D01*
X224908605Y-102756420D02*
X224908605Y-102889929D01*
X224908605Y-102889929D02*
X224241058Y-103023439D01*
X225509398Y-102556156D02*
X225509398Y-103490722D01*
X225509398Y-102689665D02*
X225576153Y-102622910D01*
X225576153Y-102622910D02*
X225709663Y-102556156D01*
X225709663Y-102556156D02*
X225909927Y-102556156D01*
X225909927Y-102556156D02*
X226043436Y-102622910D01*
X226043436Y-102622910D02*
X226110191Y-102756420D01*
X226110191Y-102756420D02*
X226110191Y-103490722D01*
X226710984Y-103423968D02*
X226844493Y-103490722D01*
X226844493Y-103490722D02*
X227111512Y-103490722D01*
X227111512Y-103490722D02*
X227245022Y-103423968D01*
X227245022Y-103423968D02*
X227311776Y-103290458D01*
X227311776Y-103290458D02*
X227311776Y-103223703D01*
X227311776Y-103223703D02*
X227245022Y-103090194D01*
X227245022Y-103090194D02*
X227111512Y-103023439D01*
X227111512Y-103023439D02*
X226911248Y-103023439D01*
X226911248Y-103023439D02*
X226777738Y-102956684D01*
X226777738Y-102956684D02*
X226710984Y-102823175D01*
X226710984Y-102823175D02*
X226710984Y-102756420D01*
X226710984Y-102756420D02*
X226777738Y-102622910D01*
X226777738Y-102622910D02*
X226911248Y-102556156D01*
X226911248Y-102556156D02*
X227111512Y-102556156D01*
X227111512Y-102556156D02*
X227245022Y-102622910D01*
X228112834Y-103490722D02*
X227979324Y-103423968D01*
X227979324Y-103423968D02*
X227912569Y-103357213D01*
X227912569Y-103357213D02*
X227845815Y-103223703D01*
X227845815Y-103223703D02*
X227845815Y-102823175D01*
X227845815Y-102823175D02*
X227912569Y-102689665D01*
X227912569Y-102689665D02*
X227979324Y-102622910D01*
X227979324Y-102622910D02*
X228112834Y-102556156D01*
X228112834Y-102556156D02*
X228313098Y-102556156D01*
X228313098Y-102556156D02*
X228446607Y-102622910D01*
X228446607Y-102622910D02*
X228513362Y-102689665D01*
X228513362Y-102689665D02*
X228580117Y-102823175D01*
X228580117Y-102823175D02*
X228580117Y-103223703D01*
X228580117Y-103223703D02*
X228513362Y-103357213D01*
X228513362Y-103357213D02*
X228446607Y-103423968D01*
X228446607Y-103423968D02*
X228313098Y-103490722D01*
X228313098Y-103490722D02*
X228112834Y-103490722D01*
X229180909Y-103490722D02*
X229180909Y-102556156D01*
X229180909Y-102823175D02*
X229247664Y-102689665D01*
X229247664Y-102689665D02*
X229314419Y-102622910D01*
X229314419Y-102622910D02*
X229447928Y-102556156D01*
X229447928Y-102556156D02*
X229581438Y-102556156D01*
X231784345Y-102088872D02*
X231116797Y-102088872D01*
X231116797Y-102088872D02*
X231050043Y-102756420D01*
X231050043Y-102756420D02*
X231116797Y-102689665D01*
X231116797Y-102689665D02*
X231250307Y-102622910D01*
X231250307Y-102622910D02*
X231584081Y-102622910D01*
X231584081Y-102622910D02*
X231717590Y-102689665D01*
X231717590Y-102689665D02*
X231784345Y-102756420D01*
X231784345Y-102756420D02*
X231851100Y-102889929D01*
X231851100Y-102889929D02*
X231851100Y-103223703D01*
X231851100Y-103223703D02*
X231784345Y-103357213D01*
X231784345Y-103357213D02*
X231717590Y-103423968D01*
X231717590Y-103423968D02*
X231584081Y-103490722D01*
X231584081Y-103490722D02*
X231250307Y-103490722D01*
X231250307Y-103490722D02*
X231116797Y-103423968D01*
X231116797Y-103423968D02*
X231050043Y-103357213D01*
X106767200Y-64693332D02*
X106814819Y-64550475D01*
X106814819Y-64550475D02*
X106814819Y-64312380D01*
X106814819Y-64312380D02*
X106767200Y-64217142D01*
X106767200Y-64217142D02*
X106719580Y-64169523D01*
X106719580Y-64169523D02*
X106624342Y-64121904D01*
X106624342Y-64121904D02*
X106529104Y-64121904D01*
X106529104Y-64121904D02*
X106433866Y-64169523D01*
X106433866Y-64169523D02*
X106386247Y-64217142D01*
X106386247Y-64217142D02*
X106338628Y-64312380D01*
X106338628Y-64312380D02*
X106291009Y-64502856D01*
X106291009Y-64502856D02*
X106243390Y-64598094D01*
X106243390Y-64598094D02*
X106195771Y-64645713D01*
X106195771Y-64645713D02*
X106100533Y-64693332D01*
X106100533Y-64693332D02*
X106005295Y-64693332D01*
X106005295Y-64693332D02*
X105910057Y-64645713D01*
X105910057Y-64645713D02*
X105862438Y-64598094D01*
X105862438Y-64598094D02*
X105814819Y-64502856D01*
X105814819Y-64502856D02*
X105814819Y-64264761D01*
X105814819Y-64264761D02*
X105862438Y-64121904D01*
X105814819Y-63788570D02*
X106814819Y-63550475D01*
X106814819Y-63550475D02*
X106100533Y-63359999D01*
X106100533Y-63359999D02*
X106814819Y-63169523D01*
X106814819Y-63169523D02*
X105814819Y-62931428D01*
X106814819Y-62026666D02*
X106814819Y-62598094D01*
X106814819Y-62312380D02*
X105814819Y-62312380D01*
X105814819Y-62312380D02*
X105957676Y-62407618D01*
X105957676Y-62407618D02*
X106052914Y-62502856D01*
X106052914Y-62502856D02*
X106100533Y-62598094D01*
X198278901Y-58390194D02*
X198946448Y-58390194D01*
X198145391Y-58790722D02*
X198612674Y-57388872D01*
X198612674Y-57388872D02*
X199079958Y-58790722D01*
X199547241Y-58790722D02*
X199547241Y-57856156D01*
X199547241Y-57388872D02*
X199480487Y-57455627D01*
X199480487Y-57455627D02*
X199547241Y-57522382D01*
X199547241Y-57522382D02*
X199613996Y-57455627D01*
X199613996Y-57455627D02*
X199547241Y-57388872D01*
X199547241Y-57388872D02*
X199547241Y-57522382D01*
X200214789Y-58790722D02*
X200214789Y-57856156D01*
X200214789Y-58123175D02*
X200281544Y-57989665D01*
X200281544Y-57989665D02*
X200348299Y-57922910D01*
X200348299Y-57922910D02*
X200481808Y-57856156D01*
X200481808Y-57856156D02*
X200615318Y-57856156D01*
X200882337Y-57856156D02*
X201416375Y-57856156D01*
X201082601Y-58790722D02*
X201082601Y-57589137D01*
X201082601Y-57589137D02*
X201149356Y-57455627D01*
X201149356Y-57455627D02*
X201282866Y-57388872D01*
X201282866Y-57388872D02*
X201416375Y-57388872D01*
X202083923Y-58790722D02*
X201950413Y-58723968D01*
X201950413Y-58723968D02*
X201883658Y-58590458D01*
X201883658Y-58590458D02*
X201883658Y-57388872D01*
X202818225Y-58790722D02*
X202684715Y-58723968D01*
X202684715Y-58723968D02*
X202617960Y-58657213D01*
X202617960Y-58657213D02*
X202551206Y-58523703D01*
X202551206Y-58523703D02*
X202551206Y-58123175D01*
X202551206Y-58123175D02*
X202617960Y-57989665D01*
X202617960Y-57989665D02*
X202684715Y-57922910D01*
X202684715Y-57922910D02*
X202818225Y-57856156D01*
X202818225Y-57856156D02*
X203018489Y-57856156D01*
X203018489Y-57856156D02*
X203151998Y-57922910D01*
X203151998Y-57922910D02*
X203218753Y-57989665D01*
X203218753Y-57989665D02*
X203285508Y-58123175D01*
X203285508Y-58123175D02*
X203285508Y-58523703D01*
X203285508Y-58523703D02*
X203218753Y-58657213D01*
X203218753Y-58657213D02*
X203151998Y-58723968D01*
X203151998Y-58723968D02*
X203018489Y-58790722D01*
X203018489Y-58790722D02*
X202818225Y-58790722D01*
X203752791Y-57856156D02*
X204019810Y-58790722D01*
X204019810Y-58790722D02*
X204286829Y-58123175D01*
X204286829Y-58123175D02*
X204553848Y-58790722D01*
X204553848Y-58790722D02*
X204820867Y-57856156D01*
X206356227Y-58723968D02*
X206489736Y-58790722D01*
X206489736Y-58790722D02*
X206756755Y-58790722D01*
X206756755Y-58790722D02*
X206890265Y-58723968D01*
X206890265Y-58723968D02*
X206957019Y-58590458D01*
X206957019Y-58590458D02*
X206957019Y-58523703D01*
X206957019Y-58523703D02*
X206890265Y-58390194D01*
X206890265Y-58390194D02*
X206756755Y-58323439D01*
X206756755Y-58323439D02*
X206556491Y-58323439D01*
X206556491Y-58323439D02*
X206422981Y-58256684D01*
X206422981Y-58256684D02*
X206356227Y-58123175D01*
X206356227Y-58123175D02*
X206356227Y-58056420D01*
X206356227Y-58056420D02*
X206422981Y-57922910D01*
X206422981Y-57922910D02*
X206556491Y-57856156D01*
X206556491Y-57856156D02*
X206756755Y-57856156D01*
X206756755Y-57856156D02*
X206890265Y-57922910D01*
X208091850Y-58723968D02*
X207958341Y-58790722D01*
X207958341Y-58790722D02*
X207691322Y-58790722D01*
X207691322Y-58790722D02*
X207557812Y-58723968D01*
X207557812Y-58723968D02*
X207491058Y-58590458D01*
X207491058Y-58590458D02*
X207491058Y-58056420D01*
X207491058Y-58056420D02*
X207557812Y-57922910D01*
X207557812Y-57922910D02*
X207691322Y-57856156D01*
X207691322Y-57856156D02*
X207958341Y-57856156D01*
X207958341Y-57856156D02*
X208091850Y-57922910D01*
X208091850Y-57922910D02*
X208158605Y-58056420D01*
X208158605Y-58056420D02*
X208158605Y-58189929D01*
X208158605Y-58189929D02*
X207491058Y-58323439D01*
X208759398Y-57856156D02*
X208759398Y-58790722D01*
X208759398Y-57989665D02*
X208826153Y-57922910D01*
X208826153Y-57922910D02*
X208959663Y-57856156D01*
X208959663Y-57856156D02*
X209159927Y-57856156D01*
X209159927Y-57856156D02*
X209293436Y-57922910D01*
X209293436Y-57922910D02*
X209360191Y-58056420D01*
X209360191Y-58056420D02*
X209360191Y-58790722D01*
X209960984Y-58723968D02*
X210094493Y-58790722D01*
X210094493Y-58790722D02*
X210361512Y-58790722D01*
X210361512Y-58790722D02*
X210495022Y-58723968D01*
X210495022Y-58723968D02*
X210561776Y-58590458D01*
X210561776Y-58590458D02*
X210561776Y-58523703D01*
X210561776Y-58523703D02*
X210495022Y-58390194D01*
X210495022Y-58390194D02*
X210361512Y-58323439D01*
X210361512Y-58323439D02*
X210161248Y-58323439D01*
X210161248Y-58323439D02*
X210027738Y-58256684D01*
X210027738Y-58256684D02*
X209960984Y-58123175D01*
X209960984Y-58123175D02*
X209960984Y-58056420D01*
X209960984Y-58056420D02*
X210027738Y-57922910D01*
X210027738Y-57922910D02*
X210161248Y-57856156D01*
X210161248Y-57856156D02*
X210361512Y-57856156D01*
X210361512Y-57856156D02*
X210495022Y-57922910D01*
X211362834Y-58790722D02*
X211229324Y-58723968D01*
X211229324Y-58723968D02*
X211162569Y-58657213D01*
X211162569Y-58657213D02*
X211095815Y-58523703D01*
X211095815Y-58523703D02*
X211095815Y-58123175D01*
X211095815Y-58123175D02*
X211162569Y-57989665D01*
X211162569Y-57989665D02*
X211229324Y-57922910D01*
X211229324Y-57922910D02*
X211362834Y-57856156D01*
X211362834Y-57856156D02*
X211563098Y-57856156D01*
X211563098Y-57856156D02*
X211696607Y-57922910D01*
X211696607Y-57922910D02*
X211763362Y-57989665D01*
X211763362Y-57989665D02*
X211830117Y-58123175D01*
X211830117Y-58123175D02*
X211830117Y-58523703D01*
X211830117Y-58523703D02*
X211763362Y-58657213D01*
X211763362Y-58657213D02*
X211696607Y-58723968D01*
X211696607Y-58723968D02*
X211563098Y-58790722D01*
X211563098Y-58790722D02*
X211362834Y-58790722D01*
X212430909Y-58790722D02*
X212430909Y-57856156D01*
X212430909Y-58123175D02*
X212497664Y-57989665D01*
X212497664Y-57989665D02*
X212564419Y-57922910D01*
X212564419Y-57922910D02*
X212697928Y-57856156D01*
X212697928Y-57856156D02*
X212831438Y-57856156D01*
X214967590Y-57856156D02*
X214967590Y-58790722D01*
X214633816Y-57322118D02*
X214300043Y-58323439D01*
X214300043Y-58323439D02*
X215167854Y-58323439D01*
X76018095Y-139784819D02*
X76018095Y-138784819D01*
X76018095Y-139261009D02*
X76589523Y-139261009D01*
X76589523Y-139784819D02*
X76589523Y-138784819D01*
X77018095Y-138880057D02*
X77065714Y-138832438D01*
X77065714Y-138832438D02*
X77160952Y-138784819D01*
X77160952Y-138784819D02*
X77399047Y-138784819D01*
X77399047Y-138784819D02*
X77494285Y-138832438D01*
X77494285Y-138832438D02*
X77541904Y-138880057D01*
X77541904Y-138880057D02*
X77589523Y-138975295D01*
X77589523Y-138975295D02*
X77589523Y-139070533D01*
X77589523Y-139070533D02*
X77541904Y-139213390D01*
X77541904Y-139213390D02*
X76970476Y-139784819D01*
X76970476Y-139784819D02*
X77589523Y-139784819D01*
X147614819Y-143778809D02*
X147614819Y-143112143D01*
X147614819Y-143112143D02*
X148614819Y-143778809D01*
X148614819Y-143778809D02*
X148614819Y-143112143D01*
X148614819Y-142588333D02*
X148567200Y-142683571D01*
X148567200Y-142683571D02*
X148519580Y-142731190D01*
X148519580Y-142731190D02*
X148424342Y-142778809D01*
X148424342Y-142778809D02*
X148138628Y-142778809D01*
X148138628Y-142778809D02*
X148043390Y-142731190D01*
X148043390Y-142731190D02*
X147995771Y-142683571D01*
X147995771Y-142683571D02*
X147948152Y-142588333D01*
X147948152Y-142588333D02*
X147948152Y-142445476D01*
X147948152Y-142445476D02*
X147995771Y-142350238D01*
X147995771Y-142350238D02*
X148043390Y-142302619D01*
X148043390Y-142302619D02*
X148138628Y-142255000D01*
X148138628Y-142255000D02*
X148424342Y-142255000D01*
X148424342Y-142255000D02*
X148519580Y-142302619D01*
X148519580Y-142302619D02*
X148567200Y-142350238D01*
X148567200Y-142350238D02*
X148614819Y-142445476D01*
X148614819Y-142445476D02*
X148614819Y-142588333D01*
X147948152Y-141826428D02*
X148614819Y-141826428D01*
X148043390Y-141826428D02*
X147995771Y-141778809D01*
X147995771Y-141778809D02*
X147948152Y-141683571D01*
X147948152Y-141683571D02*
X147948152Y-141540714D01*
X147948152Y-141540714D02*
X147995771Y-141445476D01*
X147995771Y-141445476D02*
X148091009Y-141397857D01*
X148091009Y-141397857D02*
X148614819Y-141397857D01*
X148567200Y-140540714D02*
X148614819Y-140635952D01*
X148614819Y-140635952D02*
X148614819Y-140826428D01*
X148614819Y-140826428D02*
X148567200Y-140921666D01*
X148567200Y-140921666D02*
X148471961Y-140969285D01*
X148471961Y-140969285D02*
X148091009Y-140969285D01*
X148091009Y-140969285D02*
X147995771Y-140921666D01*
X147995771Y-140921666D02*
X147948152Y-140826428D01*
X147948152Y-140826428D02*
X147948152Y-140635952D01*
X147948152Y-140635952D02*
X147995771Y-140540714D01*
X147995771Y-140540714D02*
X148091009Y-140493095D01*
X148091009Y-140493095D02*
X148186247Y-140493095D01*
X148186247Y-140493095D02*
X148281485Y-140969285D01*
X148614819Y-138778809D02*
X148614819Y-139350237D01*
X148614819Y-139064523D02*
X147614819Y-139064523D01*
X147614819Y-139064523D02*
X147757676Y-139159761D01*
X147757676Y-139159761D02*
X147852914Y-139254999D01*
X147852914Y-139254999D02*
X147900533Y-139350237D01*
X90996905Y-106664819D02*
X90996905Y-105664819D01*
X90996905Y-105664819D02*
X91235000Y-105664819D01*
X91235000Y-105664819D02*
X91377857Y-105712438D01*
X91377857Y-105712438D02*
X91473095Y-105807676D01*
X91473095Y-105807676D02*
X91520714Y-105902914D01*
X91520714Y-105902914D02*
X91568333Y-106093390D01*
X91568333Y-106093390D02*
X91568333Y-106236247D01*
X91568333Y-106236247D02*
X91520714Y-106426723D01*
X91520714Y-106426723D02*
X91473095Y-106521961D01*
X91473095Y-106521961D02*
X91377857Y-106617200D01*
X91377857Y-106617200D02*
X91235000Y-106664819D01*
X91235000Y-106664819D02*
X90996905Y-106664819D01*
X92520714Y-106664819D02*
X91949286Y-106664819D01*
X92235000Y-106664819D02*
X92235000Y-105664819D01*
X92235000Y-105664819D02*
X92139762Y-105807676D01*
X92139762Y-105807676D02*
X92044524Y-105902914D01*
X92044524Y-105902914D02*
X91949286Y-105950533D01*
X235553333Y-103089580D02*
X235505714Y-103137200D01*
X235505714Y-103137200D02*
X235362857Y-103184819D01*
X235362857Y-103184819D02*
X235267619Y-103184819D01*
X235267619Y-103184819D02*
X235124762Y-103137200D01*
X235124762Y-103137200D02*
X235029524Y-103041961D01*
X235029524Y-103041961D02*
X234981905Y-102946723D01*
X234981905Y-102946723D02*
X234934286Y-102756247D01*
X234934286Y-102756247D02*
X234934286Y-102613390D01*
X234934286Y-102613390D02*
X234981905Y-102422914D01*
X234981905Y-102422914D02*
X235029524Y-102327676D01*
X235029524Y-102327676D02*
X235124762Y-102232438D01*
X235124762Y-102232438D02*
X235267619Y-102184819D01*
X235267619Y-102184819D02*
X235362857Y-102184819D01*
X235362857Y-102184819D02*
X235505714Y-102232438D01*
X235505714Y-102232438D02*
X235553333Y-102280057D01*
X235934286Y-102280057D02*
X235981905Y-102232438D01*
X235981905Y-102232438D02*
X236077143Y-102184819D01*
X236077143Y-102184819D02*
X236315238Y-102184819D01*
X236315238Y-102184819D02*
X236410476Y-102232438D01*
X236410476Y-102232438D02*
X236458095Y-102280057D01*
X236458095Y-102280057D02*
X236505714Y-102375295D01*
X236505714Y-102375295D02*
X236505714Y-102470533D01*
X236505714Y-102470533D02*
X236458095Y-102613390D01*
X236458095Y-102613390D02*
X235886667Y-103184819D01*
X235886667Y-103184819D02*
X236505714Y-103184819D01*
X209122957Y-120290419D02*
X209170576Y-120242800D01*
X209170576Y-120242800D02*
X209313433Y-120195180D01*
X209313433Y-120195180D02*
X209408671Y-120195180D01*
X209408671Y-120195180D02*
X209551528Y-120242800D01*
X209551528Y-120242800D02*
X209646766Y-120338038D01*
X209646766Y-120338038D02*
X209694385Y-120433276D01*
X209694385Y-120433276D02*
X209742004Y-120623752D01*
X209742004Y-120623752D02*
X209742004Y-120766609D01*
X209742004Y-120766609D02*
X209694385Y-120957085D01*
X209694385Y-120957085D02*
X209646766Y-121052323D01*
X209646766Y-121052323D02*
X209551528Y-121147561D01*
X209551528Y-121147561D02*
X209408671Y-121195180D01*
X209408671Y-121195180D02*
X209313433Y-121195180D01*
X209313433Y-121195180D02*
X209170576Y-121147561D01*
X209170576Y-121147561D02*
X209122957Y-121099942D01*
X208170576Y-120195180D02*
X208742004Y-120195180D01*
X208456290Y-120195180D02*
X208456290Y-121195180D01*
X208456290Y-121195180D02*
X208551528Y-121052323D01*
X208551528Y-121052323D02*
X208646766Y-120957085D01*
X208646766Y-120957085D02*
X208742004Y-120909466D01*
X207313433Y-121195180D02*
X207503909Y-121195180D01*
X207503909Y-121195180D02*
X207599147Y-121147561D01*
X207599147Y-121147561D02*
X207646766Y-121099942D01*
X207646766Y-121099942D02*
X207742004Y-120957085D01*
X207742004Y-120957085D02*
X207789623Y-120766609D01*
X207789623Y-120766609D02*
X207789623Y-120385657D01*
X207789623Y-120385657D02*
X207742004Y-120290419D01*
X207742004Y-120290419D02*
X207694385Y-120242800D01*
X207694385Y-120242800D02*
X207599147Y-120195180D01*
X207599147Y-120195180D02*
X207408671Y-120195180D01*
X207408671Y-120195180D02*
X207313433Y-120242800D01*
X207313433Y-120242800D02*
X207265814Y-120290419D01*
X207265814Y-120290419D02*
X207218195Y-120385657D01*
X207218195Y-120385657D02*
X207218195Y-120623752D01*
X207218195Y-120623752D02*
X207265814Y-120718990D01*
X207265814Y-120718990D02*
X207313433Y-120766609D01*
X207313433Y-120766609D02*
X207408671Y-120814228D01*
X207408671Y-120814228D02*
X207599147Y-120814228D01*
X207599147Y-120814228D02*
X207694385Y-120766609D01*
X207694385Y-120766609D02*
X207742004Y-120718990D01*
X207742004Y-120718990D02*
X207789623Y-120623752D01*
X200708095Y-106934819D02*
X200708095Y-107744342D01*
X200708095Y-107744342D02*
X200755714Y-107839580D01*
X200755714Y-107839580D02*
X200803333Y-107887200D01*
X200803333Y-107887200D02*
X200898571Y-107934819D01*
X200898571Y-107934819D02*
X201089047Y-107934819D01*
X201089047Y-107934819D02*
X201184285Y-107887200D01*
X201184285Y-107887200D02*
X201231904Y-107839580D01*
X201231904Y-107839580D02*
X201279523Y-107744342D01*
X201279523Y-107744342D02*
X201279523Y-106934819D01*
X202184285Y-106934819D02*
X201993809Y-106934819D01*
X201993809Y-106934819D02*
X201898571Y-106982438D01*
X201898571Y-106982438D02*
X201850952Y-107030057D01*
X201850952Y-107030057D02*
X201755714Y-107172914D01*
X201755714Y-107172914D02*
X201708095Y-107363390D01*
X201708095Y-107363390D02*
X201708095Y-107744342D01*
X201708095Y-107744342D02*
X201755714Y-107839580D01*
X201755714Y-107839580D02*
X201803333Y-107887200D01*
X201803333Y-107887200D02*
X201898571Y-107934819D01*
X201898571Y-107934819D02*
X202089047Y-107934819D01*
X202089047Y-107934819D02*
X202184285Y-107887200D01*
X202184285Y-107887200D02*
X202231904Y-107839580D01*
X202231904Y-107839580D02*
X202279523Y-107744342D01*
X202279523Y-107744342D02*
X202279523Y-107506247D01*
X202279523Y-107506247D02*
X202231904Y-107411009D01*
X202231904Y-107411009D02*
X202184285Y-107363390D01*
X202184285Y-107363390D02*
X202089047Y-107315771D01*
X202089047Y-107315771D02*
X201898571Y-107315771D01*
X201898571Y-107315771D02*
X201803333Y-107363390D01*
X201803333Y-107363390D02*
X201755714Y-107411009D01*
X201755714Y-107411009D02*
X201708095Y-107506247D01*
X203180588Y-109657438D02*
X203085350Y-109609819D01*
X203085350Y-109609819D02*
X202942493Y-109609819D01*
X202942493Y-109609819D02*
X202799636Y-109657438D01*
X202799636Y-109657438D02*
X202704398Y-109752676D01*
X202704398Y-109752676D02*
X202656779Y-109847914D01*
X202656779Y-109847914D02*
X202609160Y-110038390D01*
X202609160Y-110038390D02*
X202609160Y-110181247D01*
X202609160Y-110181247D02*
X202656779Y-110371723D01*
X202656779Y-110371723D02*
X202704398Y-110466961D01*
X202704398Y-110466961D02*
X202799636Y-110562200D01*
X202799636Y-110562200D02*
X202942493Y-110609819D01*
X202942493Y-110609819D02*
X203037731Y-110609819D01*
X203037731Y-110609819D02*
X203180588Y-110562200D01*
X203180588Y-110562200D02*
X203228207Y-110514580D01*
X203228207Y-110514580D02*
X203228207Y-110181247D01*
X203228207Y-110181247D02*
X203037731Y-110181247D01*
X203656779Y-110609819D02*
X203656779Y-109609819D01*
X203656779Y-109609819D02*
X204228207Y-110609819D01*
X204228207Y-110609819D02*
X204228207Y-109609819D01*
X204704398Y-110609819D02*
X204704398Y-109609819D01*
X204704398Y-109609819D02*
X204942493Y-109609819D01*
X204942493Y-109609819D02*
X205085350Y-109657438D01*
X205085350Y-109657438D02*
X205180588Y-109752676D01*
X205180588Y-109752676D02*
X205228207Y-109847914D01*
X205228207Y-109847914D02*
X205275826Y-110038390D01*
X205275826Y-110038390D02*
X205275826Y-110181247D01*
X205275826Y-110181247D02*
X205228207Y-110371723D01*
X205228207Y-110371723D02*
X205180588Y-110466961D01*
X205180588Y-110466961D02*
X205085350Y-110562200D01*
X205085350Y-110562200D02*
X204942493Y-110609819D01*
X204942493Y-110609819D02*
X204704398Y-110609819D01*
X197623922Y-109589819D02*
X197957255Y-110589819D01*
X197957255Y-110589819D02*
X198290588Y-109589819D01*
X199195350Y-110494580D02*
X199147731Y-110542200D01*
X199147731Y-110542200D02*
X199004874Y-110589819D01*
X199004874Y-110589819D02*
X198909636Y-110589819D01*
X198909636Y-110589819D02*
X198766779Y-110542200D01*
X198766779Y-110542200D02*
X198671541Y-110446961D01*
X198671541Y-110446961D02*
X198623922Y-110351723D01*
X198623922Y-110351723D02*
X198576303Y-110161247D01*
X198576303Y-110161247D02*
X198576303Y-110018390D01*
X198576303Y-110018390D02*
X198623922Y-109827914D01*
X198623922Y-109827914D02*
X198671541Y-109732676D01*
X198671541Y-109732676D02*
X198766779Y-109637438D01*
X198766779Y-109637438D02*
X198909636Y-109589819D01*
X198909636Y-109589819D02*
X199004874Y-109589819D01*
X199004874Y-109589819D02*
X199147731Y-109637438D01*
X199147731Y-109637438D02*
X199195350Y-109685057D01*
X200195350Y-110494580D02*
X200147731Y-110542200D01*
X200147731Y-110542200D02*
X200004874Y-110589819D01*
X200004874Y-110589819D02*
X199909636Y-110589819D01*
X199909636Y-110589819D02*
X199766779Y-110542200D01*
X199766779Y-110542200D02*
X199671541Y-110446961D01*
X199671541Y-110446961D02*
X199623922Y-110351723D01*
X199623922Y-110351723D02*
X199576303Y-110161247D01*
X199576303Y-110161247D02*
X199576303Y-110018390D01*
X199576303Y-110018390D02*
X199623922Y-109827914D01*
X199623922Y-109827914D02*
X199671541Y-109732676D01*
X199671541Y-109732676D02*
X199766779Y-109637438D01*
X199766779Y-109637438D02*
X199909636Y-109589819D01*
X199909636Y-109589819D02*
X200004874Y-109589819D01*
X200004874Y-109589819D02*
X200147731Y-109637438D01*
X200147731Y-109637438D02*
X200195350Y-109685057D01*
X197896779Y-108069819D02*
X197896779Y-107069819D01*
X197896779Y-107069819D02*
X198468207Y-108069819D01*
X198468207Y-108069819D02*
X198468207Y-107069819D01*
X199515826Y-107974580D02*
X199468207Y-108022200D01*
X199468207Y-108022200D02*
X199325350Y-108069819D01*
X199325350Y-108069819D02*
X199230112Y-108069819D01*
X199230112Y-108069819D02*
X199087255Y-108022200D01*
X199087255Y-108022200D02*
X198992017Y-107926961D01*
X198992017Y-107926961D02*
X198944398Y-107831723D01*
X198944398Y-107831723D02*
X198896779Y-107641247D01*
X198896779Y-107641247D02*
X198896779Y-107498390D01*
X198896779Y-107498390D02*
X198944398Y-107307914D01*
X198944398Y-107307914D02*
X198992017Y-107212676D01*
X198992017Y-107212676D02*
X199087255Y-107117438D01*
X199087255Y-107117438D02*
X199230112Y-107069819D01*
X199230112Y-107069819D02*
X199325350Y-107069819D01*
X199325350Y-107069819D02*
X199468207Y-107117438D01*
X199468207Y-107117438D02*
X199515826Y-107165057D01*
X197786779Y-105459819D02*
X197786779Y-104459819D01*
X197786779Y-104459819D02*
X198358207Y-105459819D01*
X198358207Y-105459819D02*
X198358207Y-104459819D01*
X199405826Y-105364580D02*
X199358207Y-105412200D01*
X199358207Y-105412200D02*
X199215350Y-105459819D01*
X199215350Y-105459819D02*
X199120112Y-105459819D01*
X199120112Y-105459819D02*
X198977255Y-105412200D01*
X198977255Y-105412200D02*
X198882017Y-105316961D01*
X198882017Y-105316961D02*
X198834398Y-105221723D01*
X198834398Y-105221723D02*
X198786779Y-105031247D01*
X198786779Y-105031247D02*
X198786779Y-104888390D01*
X198786779Y-104888390D02*
X198834398Y-104697914D01*
X198834398Y-104697914D02*
X198882017Y-104602676D01*
X198882017Y-104602676D02*
X198977255Y-104507438D01*
X198977255Y-104507438D02*
X199120112Y-104459819D01*
X199120112Y-104459819D02*
X199215350Y-104459819D01*
X199215350Y-104459819D02*
X199358207Y-104507438D01*
X199358207Y-104507438D02*
X199405826Y-104555057D01*
X202403922Y-104449819D02*
X202737255Y-105449819D01*
X202737255Y-105449819D02*
X203070588Y-104449819D01*
X203546779Y-105449819D02*
X203451541Y-105402200D01*
X203451541Y-105402200D02*
X203403922Y-105354580D01*
X203403922Y-105354580D02*
X203356303Y-105259342D01*
X203356303Y-105259342D02*
X203356303Y-104973628D01*
X203356303Y-104973628D02*
X203403922Y-104878390D01*
X203403922Y-104878390D02*
X203451541Y-104830771D01*
X203451541Y-104830771D02*
X203546779Y-104783152D01*
X203546779Y-104783152D02*
X203689636Y-104783152D01*
X203689636Y-104783152D02*
X203784874Y-104830771D01*
X203784874Y-104830771D02*
X203832493Y-104878390D01*
X203832493Y-104878390D02*
X203880112Y-104973628D01*
X203880112Y-104973628D02*
X203880112Y-105259342D01*
X203880112Y-105259342D02*
X203832493Y-105354580D01*
X203832493Y-105354580D02*
X203784874Y-105402200D01*
X203784874Y-105402200D02*
X203689636Y-105449819D01*
X203689636Y-105449819D02*
X203546779Y-105449819D01*
X204737255Y-104783152D02*
X204737255Y-105449819D01*
X204308684Y-104783152D02*
X204308684Y-105306961D01*
X204308684Y-105306961D02*
X204356303Y-105402200D01*
X204356303Y-105402200D02*
X204451541Y-105449819D01*
X204451541Y-105449819D02*
X204594398Y-105449819D01*
X204594398Y-105449819D02*
X204689636Y-105402200D01*
X204689636Y-105402200D02*
X204737255Y-105354580D01*
X205070589Y-104783152D02*
X205451541Y-104783152D01*
X205213446Y-104449819D02*
X205213446Y-105306961D01*
X205213446Y-105306961D02*
X205261065Y-105402200D01*
X205261065Y-105402200D02*
X205356303Y-105449819D01*
X205356303Y-105449819D02*
X205451541Y-105449819D01*
X203656779Y-108019819D02*
X203656779Y-107019819D01*
X203656779Y-107019819D02*
X204228207Y-108019819D01*
X204228207Y-108019819D02*
X204228207Y-107019819D01*
X205275826Y-107924580D02*
X205228207Y-107972200D01*
X205228207Y-107972200D02*
X205085350Y-108019819D01*
X205085350Y-108019819D02*
X204990112Y-108019819D01*
X204990112Y-108019819D02*
X204847255Y-107972200D01*
X204847255Y-107972200D02*
X204752017Y-107876961D01*
X204752017Y-107876961D02*
X204704398Y-107781723D01*
X204704398Y-107781723D02*
X204656779Y-107591247D01*
X204656779Y-107591247D02*
X204656779Y-107448390D01*
X204656779Y-107448390D02*
X204704398Y-107257914D01*
X204704398Y-107257914D02*
X204752017Y-107162676D01*
X204752017Y-107162676D02*
X204847255Y-107067438D01*
X204847255Y-107067438D02*
X204990112Y-107019819D01*
X204990112Y-107019819D02*
X205085350Y-107019819D01*
X205085350Y-107019819D02*
X205228207Y-107067438D01*
X205228207Y-107067438D02*
X205275826Y-107115057D01*
X193055122Y-92650119D02*
X193388455Y-93650119D01*
X193388455Y-93650119D02*
X193721788Y-92650119D01*
X194626550Y-93650119D02*
X194293217Y-93173928D01*
X194055122Y-93650119D02*
X194055122Y-92650119D01*
X194055122Y-92650119D02*
X194436074Y-92650119D01*
X194436074Y-92650119D02*
X194531312Y-92697738D01*
X194531312Y-92697738D02*
X194578931Y-92745357D01*
X194578931Y-92745357D02*
X194626550Y-92840595D01*
X194626550Y-92840595D02*
X194626550Y-92983452D01*
X194626550Y-92983452D02*
X194578931Y-93078690D01*
X194578931Y-93078690D02*
X194531312Y-93126309D01*
X194531312Y-93126309D02*
X194436074Y-93173928D01*
X194436074Y-93173928D02*
X194055122Y-93173928D01*
X195055122Y-93126309D02*
X195388455Y-93126309D01*
X195531312Y-93650119D02*
X195055122Y-93650119D01*
X195055122Y-93650119D02*
X195055122Y-92650119D01*
X195055122Y-92650119D02*
X195531312Y-92650119D01*
X196293217Y-93126309D02*
X195959884Y-93126309D01*
X195959884Y-93650119D02*
X195959884Y-92650119D01*
X195959884Y-92650119D02*
X196436074Y-92650119D01*
X197340836Y-93650119D02*
X196769408Y-93650119D01*
X197055122Y-93650119D02*
X197055122Y-92650119D01*
X197055122Y-92650119D02*
X196959884Y-92792976D01*
X196959884Y-92792976D02*
X196864646Y-92888214D01*
X196864646Y-92888214D02*
X196769408Y-92935833D01*
X205717979Y-85526309D02*
X206051312Y-85526309D01*
X206194169Y-86050119D02*
X205717979Y-86050119D01*
X205717979Y-86050119D02*
X205717979Y-85050119D01*
X205717979Y-85050119D02*
X206194169Y-85050119D01*
X206622741Y-86050119D02*
X206622741Y-85050119D01*
X206622741Y-85050119D02*
X207194169Y-86050119D01*
X207194169Y-86050119D02*
X207194169Y-85050119D01*
X193200360Y-88522500D02*
X193343217Y-88570119D01*
X193343217Y-88570119D02*
X193581312Y-88570119D01*
X193581312Y-88570119D02*
X193676550Y-88522500D01*
X193676550Y-88522500D02*
X193724169Y-88474880D01*
X193724169Y-88474880D02*
X193771788Y-88379642D01*
X193771788Y-88379642D02*
X193771788Y-88284404D01*
X193771788Y-88284404D02*
X193724169Y-88189166D01*
X193724169Y-88189166D02*
X193676550Y-88141547D01*
X193676550Y-88141547D02*
X193581312Y-88093928D01*
X193581312Y-88093928D02*
X193390836Y-88046309D01*
X193390836Y-88046309D02*
X193295598Y-87998690D01*
X193295598Y-87998690D02*
X193247979Y-87951071D01*
X193247979Y-87951071D02*
X193200360Y-87855833D01*
X193200360Y-87855833D02*
X193200360Y-87760595D01*
X193200360Y-87760595D02*
X193247979Y-87665357D01*
X193247979Y-87665357D02*
X193295598Y-87617738D01*
X193295598Y-87617738D02*
X193390836Y-87570119D01*
X193390836Y-87570119D02*
X193628931Y-87570119D01*
X193628931Y-87570119D02*
X193771788Y-87617738D01*
X194771788Y-88474880D02*
X194724169Y-88522500D01*
X194724169Y-88522500D02*
X194581312Y-88570119D01*
X194581312Y-88570119D02*
X194486074Y-88570119D01*
X194486074Y-88570119D02*
X194343217Y-88522500D01*
X194343217Y-88522500D02*
X194247979Y-88427261D01*
X194247979Y-88427261D02*
X194200360Y-88332023D01*
X194200360Y-88332023D02*
X194152741Y-88141547D01*
X194152741Y-88141547D02*
X194152741Y-87998690D01*
X194152741Y-87998690D02*
X194200360Y-87808214D01*
X194200360Y-87808214D02*
X194247979Y-87712976D01*
X194247979Y-87712976D02*
X194343217Y-87617738D01*
X194343217Y-87617738D02*
X194486074Y-87570119D01*
X194486074Y-87570119D02*
X194581312Y-87570119D01*
X194581312Y-87570119D02*
X194724169Y-87617738D01*
X194724169Y-87617738D02*
X194771788Y-87665357D01*
X195676550Y-88570119D02*
X195200360Y-88570119D01*
X195200360Y-88570119D02*
X195200360Y-87570119D01*
X196533693Y-88570119D02*
X195962265Y-88570119D01*
X196247979Y-88570119D02*
X196247979Y-87570119D01*
X196247979Y-87570119D02*
X196152741Y-87712976D01*
X196152741Y-87712976D02*
X196057503Y-87808214D01*
X196057503Y-87808214D02*
X195962265Y-87855833D01*
X203930360Y-91052500D02*
X204073217Y-91100119D01*
X204073217Y-91100119D02*
X204311312Y-91100119D01*
X204311312Y-91100119D02*
X204406550Y-91052500D01*
X204406550Y-91052500D02*
X204454169Y-91004880D01*
X204454169Y-91004880D02*
X204501788Y-90909642D01*
X204501788Y-90909642D02*
X204501788Y-90814404D01*
X204501788Y-90814404D02*
X204454169Y-90719166D01*
X204454169Y-90719166D02*
X204406550Y-90671547D01*
X204406550Y-90671547D02*
X204311312Y-90623928D01*
X204311312Y-90623928D02*
X204120836Y-90576309D01*
X204120836Y-90576309D02*
X204025598Y-90528690D01*
X204025598Y-90528690D02*
X203977979Y-90481071D01*
X203977979Y-90481071D02*
X203930360Y-90385833D01*
X203930360Y-90385833D02*
X203930360Y-90290595D01*
X203930360Y-90290595D02*
X203977979Y-90195357D01*
X203977979Y-90195357D02*
X204025598Y-90147738D01*
X204025598Y-90147738D02*
X204120836Y-90100119D01*
X204120836Y-90100119D02*
X204358931Y-90100119D01*
X204358931Y-90100119D02*
X204501788Y-90147738D01*
X204930360Y-91100119D02*
X204930360Y-90100119D01*
X204930360Y-90100119D02*
X205168455Y-90100119D01*
X205168455Y-90100119D02*
X205311312Y-90147738D01*
X205311312Y-90147738D02*
X205406550Y-90242976D01*
X205406550Y-90242976D02*
X205454169Y-90338214D01*
X205454169Y-90338214D02*
X205501788Y-90528690D01*
X205501788Y-90528690D02*
X205501788Y-90671547D01*
X205501788Y-90671547D02*
X205454169Y-90862023D01*
X205454169Y-90862023D02*
X205406550Y-90957261D01*
X205406550Y-90957261D02*
X205311312Y-91052500D01*
X205311312Y-91052500D02*
X205168455Y-91100119D01*
X205168455Y-91100119D02*
X204930360Y-91100119D01*
X205882741Y-90814404D02*
X206358931Y-90814404D01*
X205787503Y-91100119D02*
X206120836Y-90100119D01*
X206120836Y-90100119D02*
X206454169Y-91100119D01*
X206739884Y-90195357D02*
X206787503Y-90147738D01*
X206787503Y-90147738D02*
X206882741Y-90100119D01*
X206882741Y-90100119D02*
X207120836Y-90100119D01*
X207120836Y-90100119D02*
X207216074Y-90147738D01*
X207216074Y-90147738D02*
X207263693Y-90195357D01*
X207263693Y-90195357D02*
X207311312Y-90290595D01*
X207311312Y-90290595D02*
X207311312Y-90385833D01*
X207311312Y-90385833D02*
X207263693Y-90528690D01*
X207263693Y-90528690D02*
X206692265Y-91100119D01*
X206692265Y-91100119D02*
X207311312Y-91100119D01*
X193801788Y-95087738D02*
X193706550Y-95040119D01*
X193706550Y-95040119D02*
X193563693Y-95040119D01*
X193563693Y-95040119D02*
X193420836Y-95087738D01*
X193420836Y-95087738D02*
X193325598Y-95182976D01*
X193325598Y-95182976D02*
X193277979Y-95278214D01*
X193277979Y-95278214D02*
X193230360Y-95468690D01*
X193230360Y-95468690D02*
X193230360Y-95611547D01*
X193230360Y-95611547D02*
X193277979Y-95802023D01*
X193277979Y-95802023D02*
X193325598Y-95897261D01*
X193325598Y-95897261D02*
X193420836Y-95992500D01*
X193420836Y-95992500D02*
X193563693Y-96040119D01*
X193563693Y-96040119D02*
X193658931Y-96040119D01*
X193658931Y-96040119D02*
X193801788Y-95992500D01*
X193801788Y-95992500D02*
X193849407Y-95944880D01*
X193849407Y-95944880D02*
X193849407Y-95611547D01*
X193849407Y-95611547D02*
X193658931Y-95611547D01*
X194277979Y-96040119D02*
X194277979Y-95040119D01*
X194277979Y-95040119D02*
X194849407Y-96040119D01*
X194849407Y-96040119D02*
X194849407Y-95040119D01*
X195325598Y-96040119D02*
X195325598Y-95040119D01*
X195325598Y-95040119D02*
X195563693Y-95040119D01*
X195563693Y-95040119D02*
X195706550Y-95087738D01*
X195706550Y-95087738D02*
X195801788Y-95182976D01*
X195801788Y-95182976D02*
X195849407Y-95278214D01*
X195849407Y-95278214D02*
X195897026Y-95468690D01*
X195897026Y-95468690D02*
X195897026Y-95611547D01*
X195897026Y-95611547D02*
X195849407Y-95802023D01*
X195849407Y-95802023D02*
X195801788Y-95897261D01*
X195801788Y-95897261D02*
X195706550Y-95992500D01*
X195706550Y-95992500D02*
X195563693Y-96040119D01*
X195563693Y-96040119D02*
X195325598Y-96040119D01*
X203015122Y-92630119D02*
X203348455Y-93630119D01*
X203348455Y-93630119D02*
X203681788Y-92630119D01*
X204586550Y-93630119D02*
X204253217Y-93153928D01*
X204015122Y-93630119D02*
X204015122Y-92630119D01*
X204015122Y-92630119D02*
X204396074Y-92630119D01*
X204396074Y-92630119D02*
X204491312Y-92677738D01*
X204491312Y-92677738D02*
X204538931Y-92725357D01*
X204538931Y-92725357D02*
X204586550Y-92820595D01*
X204586550Y-92820595D02*
X204586550Y-92963452D01*
X204586550Y-92963452D02*
X204538931Y-93058690D01*
X204538931Y-93058690D02*
X204491312Y-93106309D01*
X204491312Y-93106309D02*
X204396074Y-93153928D01*
X204396074Y-93153928D02*
X204015122Y-93153928D01*
X205015122Y-93106309D02*
X205348455Y-93106309D01*
X205491312Y-93630119D02*
X205015122Y-93630119D01*
X205015122Y-93630119D02*
X205015122Y-92630119D01*
X205015122Y-92630119D02*
X205491312Y-92630119D01*
X206253217Y-93106309D02*
X205919884Y-93106309D01*
X205919884Y-93630119D02*
X205919884Y-92630119D01*
X205919884Y-92630119D02*
X206396074Y-92630119D01*
X206729408Y-92725357D02*
X206777027Y-92677738D01*
X206777027Y-92677738D02*
X206872265Y-92630119D01*
X206872265Y-92630119D02*
X207110360Y-92630119D01*
X207110360Y-92630119D02*
X207205598Y-92677738D01*
X207205598Y-92677738D02*
X207253217Y-92725357D01*
X207253217Y-92725357D02*
X207300836Y-92820595D01*
X207300836Y-92820595D02*
X207300836Y-92915833D01*
X207300836Y-92915833D02*
X207253217Y-93058690D01*
X207253217Y-93058690D02*
X206681789Y-93630119D01*
X206681789Y-93630119D02*
X207300836Y-93630119D01*
X193230360Y-91032500D02*
X193373217Y-91080119D01*
X193373217Y-91080119D02*
X193611312Y-91080119D01*
X193611312Y-91080119D02*
X193706550Y-91032500D01*
X193706550Y-91032500D02*
X193754169Y-90984880D01*
X193754169Y-90984880D02*
X193801788Y-90889642D01*
X193801788Y-90889642D02*
X193801788Y-90794404D01*
X193801788Y-90794404D02*
X193754169Y-90699166D01*
X193754169Y-90699166D02*
X193706550Y-90651547D01*
X193706550Y-90651547D02*
X193611312Y-90603928D01*
X193611312Y-90603928D02*
X193420836Y-90556309D01*
X193420836Y-90556309D02*
X193325598Y-90508690D01*
X193325598Y-90508690D02*
X193277979Y-90461071D01*
X193277979Y-90461071D02*
X193230360Y-90365833D01*
X193230360Y-90365833D02*
X193230360Y-90270595D01*
X193230360Y-90270595D02*
X193277979Y-90175357D01*
X193277979Y-90175357D02*
X193325598Y-90127738D01*
X193325598Y-90127738D02*
X193420836Y-90080119D01*
X193420836Y-90080119D02*
X193658931Y-90080119D01*
X193658931Y-90080119D02*
X193801788Y-90127738D01*
X194230360Y-91080119D02*
X194230360Y-90080119D01*
X194230360Y-90080119D02*
X194468455Y-90080119D01*
X194468455Y-90080119D02*
X194611312Y-90127738D01*
X194611312Y-90127738D02*
X194706550Y-90222976D01*
X194706550Y-90222976D02*
X194754169Y-90318214D01*
X194754169Y-90318214D02*
X194801788Y-90508690D01*
X194801788Y-90508690D02*
X194801788Y-90651547D01*
X194801788Y-90651547D02*
X194754169Y-90842023D01*
X194754169Y-90842023D02*
X194706550Y-90937261D01*
X194706550Y-90937261D02*
X194611312Y-91032500D01*
X194611312Y-91032500D02*
X194468455Y-91080119D01*
X194468455Y-91080119D02*
X194230360Y-91080119D01*
X195182741Y-90794404D02*
X195658931Y-90794404D01*
X195087503Y-91080119D02*
X195420836Y-90080119D01*
X195420836Y-90080119D02*
X195754169Y-91080119D01*
X196611312Y-91080119D02*
X196039884Y-91080119D01*
X196325598Y-91080119D02*
X196325598Y-90080119D01*
X196325598Y-90080119D02*
X196230360Y-90222976D01*
X196230360Y-90222976D02*
X196135122Y-90318214D01*
X196135122Y-90318214D02*
X196039884Y-90365833D01*
X203980360Y-88362500D02*
X204123217Y-88410119D01*
X204123217Y-88410119D02*
X204361312Y-88410119D01*
X204361312Y-88410119D02*
X204456550Y-88362500D01*
X204456550Y-88362500D02*
X204504169Y-88314880D01*
X204504169Y-88314880D02*
X204551788Y-88219642D01*
X204551788Y-88219642D02*
X204551788Y-88124404D01*
X204551788Y-88124404D02*
X204504169Y-88029166D01*
X204504169Y-88029166D02*
X204456550Y-87981547D01*
X204456550Y-87981547D02*
X204361312Y-87933928D01*
X204361312Y-87933928D02*
X204170836Y-87886309D01*
X204170836Y-87886309D02*
X204075598Y-87838690D01*
X204075598Y-87838690D02*
X204027979Y-87791071D01*
X204027979Y-87791071D02*
X203980360Y-87695833D01*
X203980360Y-87695833D02*
X203980360Y-87600595D01*
X203980360Y-87600595D02*
X204027979Y-87505357D01*
X204027979Y-87505357D02*
X204075598Y-87457738D01*
X204075598Y-87457738D02*
X204170836Y-87410119D01*
X204170836Y-87410119D02*
X204408931Y-87410119D01*
X204408931Y-87410119D02*
X204551788Y-87457738D01*
X205551788Y-88314880D02*
X205504169Y-88362500D01*
X205504169Y-88362500D02*
X205361312Y-88410119D01*
X205361312Y-88410119D02*
X205266074Y-88410119D01*
X205266074Y-88410119D02*
X205123217Y-88362500D01*
X205123217Y-88362500D02*
X205027979Y-88267261D01*
X205027979Y-88267261D02*
X204980360Y-88172023D01*
X204980360Y-88172023D02*
X204932741Y-87981547D01*
X204932741Y-87981547D02*
X204932741Y-87838690D01*
X204932741Y-87838690D02*
X204980360Y-87648214D01*
X204980360Y-87648214D02*
X205027979Y-87552976D01*
X205027979Y-87552976D02*
X205123217Y-87457738D01*
X205123217Y-87457738D02*
X205266074Y-87410119D01*
X205266074Y-87410119D02*
X205361312Y-87410119D01*
X205361312Y-87410119D02*
X205504169Y-87457738D01*
X205504169Y-87457738D02*
X205551788Y-87505357D01*
X206456550Y-88410119D02*
X205980360Y-88410119D01*
X205980360Y-88410119D02*
X205980360Y-87410119D01*
X206742265Y-87505357D02*
X206789884Y-87457738D01*
X206789884Y-87457738D02*
X206885122Y-87410119D01*
X206885122Y-87410119D02*
X207123217Y-87410119D01*
X207123217Y-87410119D02*
X207218455Y-87457738D01*
X207218455Y-87457738D02*
X207266074Y-87505357D01*
X207266074Y-87505357D02*
X207313693Y-87600595D01*
X207313693Y-87600595D02*
X207313693Y-87695833D01*
X207313693Y-87695833D02*
X207266074Y-87838690D01*
X207266074Y-87838690D02*
X206694646Y-88410119D01*
X206694646Y-88410119D02*
X207313693Y-88410119D01*
X205131788Y-95207738D02*
X205036550Y-95160119D01*
X205036550Y-95160119D02*
X204893693Y-95160119D01*
X204893693Y-95160119D02*
X204750836Y-95207738D01*
X204750836Y-95207738D02*
X204655598Y-95302976D01*
X204655598Y-95302976D02*
X204607979Y-95398214D01*
X204607979Y-95398214D02*
X204560360Y-95588690D01*
X204560360Y-95588690D02*
X204560360Y-95731547D01*
X204560360Y-95731547D02*
X204607979Y-95922023D01*
X204607979Y-95922023D02*
X204655598Y-96017261D01*
X204655598Y-96017261D02*
X204750836Y-96112500D01*
X204750836Y-96112500D02*
X204893693Y-96160119D01*
X204893693Y-96160119D02*
X204988931Y-96160119D01*
X204988931Y-96160119D02*
X205131788Y-96112500D01*
X205131788Y-96112500D02*
X205179407Y-96064880D01*
X205179407Y-96064880D02*
X205179407Y-95731547D01*
X205179407Y-95731547D02*
X204988931Y-95731547D01*
X205607979Y-96160119D02*
X205607979Y-95160119D01*
X205607979Y-95160119D02*
X206179407Y-96160119D01*
X206179407Y-96160119D02*
X206179407Y-95160119D01*
X206655598Y-96160119D02*
X206655598Y-95160119D01*
X206655598Y-95160119D02*
X206893693Y-95160119D01*
X206893693Y-95160119D02*
X207036550Y-95207738D01*
X207036550Y-95207738D02*
X207131788Y-95302976D01*
X207131788Y-95302976D02*
X207179407Y-95398214D01*
X207179407Y-95398214D02*
X207227026Y-95588690D01*
X207227026Y-95588690D02*
X207227026Y-95731547D01*
X207227026Y-95731547D02*
X207179407Y-95922023D01*
X207179407Y-95922023D02*
X207131788Y-96017261D01*
X207131788Y-96017261D02*
X207036550Y-96112500D01*
X207036550Y-96112500D02*
X206893693Y-96160119D01*
X206893693Y-96160119D02*
X206655598Y-96160119D01*
X214829580Y-131372857D02*
X214877200Y-131420476D01*
X214877200Y-131420476D02*
X214924819Y-131563333D01*
X214924819Y-131563333D02*
X214924819Y-131658571D01*
X214924819Y-131658571D02*
X214877200Y-131801428D01*
X214877200Y-131801428D02*
X214781961Y-131896666D01*
X214781961Y-131896666D02*
X214686723Y-131944285D01*
X214686723Y-131944285D02*
X214496247Y-131991904D01*
X214496247Y-131991904D02*
X214353390Y-131991904D01*
X214353390Y-131991904D02*
X214162914Y-131944285D01*
X214162914Y-131944285D02*
X214067676Y-131896666D01*
X214067676Y-131896666D02*
X213972438Y-131801428D01*
X213972438Y-131801428D02*
X213924819Y-131658571D01*
X213924819Y-131658571D02*
X213924819Y-131563333D01*
X213924819Y-131563333D02*
X213972438Y-131420476D01*
X213972438Y-131420476D02*
X214020057Y-131372857D01*
X214924819Y-130420476D02*
X214924819Y-130991904D01*
X214924819Y-130706190D02*
X213924819Y-130706190D01*
X213924819Y-130706190D02*
X214067676Y-130801428D01*
X214067676Y-130801428D02*
X214162914Y-130896666D01*
X214162914Y-130896666D02*
X214210533Y-130991904D01*
X213924819Y-129515714D02*
X213924819Y-129991904D01*
X213924819Y-129991904D02*
X214401009Y-130039523D01*
X214401009Y-130039523D02*
X214353390Y-129991904D01*
X214353390Y-129991904D02*
X214305771Y-129896666D01*
X214305771Y-129896666D02*
X214305771Y-129658571D01*
X214305771Y-129658571D02*
X214353390Y-129563333D01*
X214353390Y-129563333D02*
X214401009Y-129515714D01*
X214401009Y-129515714D02*
X214496247Y-129468095D01*
X214496247Y-129468095D02*
X214734342Y-129468095D01*
X214734342Y-129468095D02*
X214829580Y-129515714D01*
X214829580Y-129515714D02*
X214877200Y-129563333D01*
X214877200Y-129563333D02*
X214924819Y-129658571D01*
X214924819Y-129658571D02*
X214924819Y-129896666D01*
X214924819Y-129896666D02*
X214877200Y-129991904D01*
X214877200Y-129991904D02*
X214829580Y-130039523D01*
X214488901Y-91240194D02*
X215156448Y-91240194D01*
X214355391Y-91640722D02*
X214822674Y-90238872D01*
X214822674Y-90238872D02*
X215289958Y-91640722D01*
X215757241Y-91640722D02*
X215757241Y-90706156D01*
X215757241Y-90238872D02*
X215690487Y-90305627D01*
X215690487Y-90305627D02*
X215757241Y-90372382D01*
X215757241Y-90372382D02*
X215823996Y-90305627D01*
X215823996Y-90305627D02*
X215757241Y-90238872D01*
X215757241Y-90238872D02*
X215757241Y-90372382D01*
X216424789Y-91640722D02*
X216424789Y-90706156D01*
X216424789Y-90973175D02*
X216491544Y-90839665D01*
X216491544Y-90839665D02*
X216558299Y-90772910D01*
X216558299Y-90772910D02*
X216691808Y-90706156D01*
X216691808Y-90706156D02*
X216825318Y-90706156D01*
X217092337Y-90706156D02*
X217626375Y-90706156D01*
X217292601Y-91640722D02*
X217292601Y-90439137D01*
X217292601Y-90439137D02*
X217359356Y-90305627D01*
X217359356Y-90305627D02*
X217492866Y-90238872D01*
X217492866Y-90238872D02*
X217626375Y-90238872D01*
X218293923Y-91640722D02*
X218160413Y-91573968D01*
X218160413Y-91573968D02*
X218093658Y-91440458D01*
X218093658Y-91440458D02*
X218093658Y-90238872D01*
X219028225Y-91640722D02*
X218894715Y-91573968D01*
X218894715Y-91573968D02*
X218827960Y-91507213D01*
X218827960Y-91507213D02*
X218761206Y-91373703D01*
X218761206Y-91373703D02*
X218761206Y-90973175D01*
X218761206Y-90973175D02*
X218827960Y-90839665D01*
X218827960Y-90839665D02*
X218894715Y-90772910D01*
X218894715Y-90772910D02*
X219028225Y-90706156D01*
X219028225Y-90706156D02*
X219228489Y-90706156D01*
X219228489Y-90706156D02*
X219361998Y-90772910D01*
X219361998Y-90772910D02*
X219428753Y-90839665D01*
X219428753Y-90839665D02*
X219495508Y-90973175D01*
X219495508Y-90973175D02*
X219495508Y-91373703D01*
X219495508Y-91373703D02*
X219428753Y-91507213D01*
X219428753Y-91507213D02*
X219361998Y-91573968D01*
X219361998Y-91573968D02*
X219228489Y-91640722D01*
X219228489Y-91640722D02*
X219028225Y-91640722D01*
X219962791Y-90706156D02*
X220229810Y-91640722D01*
X220229810Y-91640722D02*
X220496829Y-90973175D01*
X220496829Y-90973175D02*
X220763848Y-91640722D01*
X220763848Y-91640722D02*
X221030867Y-90706156D01*
X222566227Y-91573968D02*
X222699736Y-91640722D01*
X222699736Y-91640722D02*
X222966755Y-91640722D01*
X222966755Y-91640722D02*
X223100265Y-91573968D01*
X223100265Y-91573968D02*
X223167019Y-91440458D01*
X223167019Y-91440458D02*
X223167019Y-91373703D01*
X223167019Y-91373703D02*
X223100265Y-91240194D01*
X223100265Y-91240194D02*
X222966755Y-91173439D01*
X222966755Y-91173439D02*
X222766491Y-91173439D01*
X222766491Y-91173439D02*
X222632981Y-91106684D01*
X222632981Y-91106684D02*
X222566227Y-90973175D01*
X222566227Y-90973175D02*
X222566227Y-90906420D01*
X222566227Y-90906420D02*
X222632981Y-90772910D01*
X222632981Y-90772910D02*
X222766491Y-90706156D01*
X222766491Y-90706156D02*
X222966755Y-90706156D01*
X222966755Y-90706156D02*
X223100265Y-90772910D01*
X224301850Y-91573968D02*
X224168341Y-91640722D01*
X224168341Y-91640722D02*
X223901322Y-91640722D01*
X223901322Y-91640722D02*
X223767812Y-91573968D01*
X223767812Y-91573968D02*
X223701058Y-91440458D01*
X223701058Y-91440458D02*
X223701058Y-90906420D01*
X223701058Y-90906420D02*
X223767812Y-90772910D01*
X223767812Y-90772910D02*
X223901322Y-90706156D01*
X223901322Y-90706156D02*
X224168341Y-90706156D01*
X224168341Y-90706156D02*
X224301850Y-90772910D01*
X224301850Y-90772910D02*
X224368605Y-90906420D01*
X224368605Y-90906420D02*
X224368605Y-91039929D01*
X224368605Y-91039929D02*
X223701058Y-91173439D01*
X224969398Y-90706156D02*
X224969398Y-91640722D01*
X224969398Y-90839665D02*
X225036153Y-90772910D01*
X225036153Y-90772910D02*
X225169663Y-90706156D01*
X225169663Y-90706156D02*
X225369927Y-90706156D01*
X225369927Y-90706156D02*
X225503436Y-90772910D01*
X225503436Y-90772910D02*
X225570191Y-90906420D01*
X225570191Y-90906420D02*
X225570191Y-91640722D01*
X226170984Y-91573968D02*
X226304493Y-91640722D01*
X226304493Y-91640722D02*
X226571512Y-91640722D01*
X226571512Y-91640722D02*
X226705022Y-91573968D01*
X226705022Y-91573968D02*
X226771776Y-91440458D01*
X226771776Y-91440458D02*
X226771776Y-91373703D01*
X226771776Y-91373703D02*
X226705022Y-91240194D01*
X226705022Y-91240194D02*
X226571512Y-91173439D01*
X226571512Y-91173439D02*
X226371248Y-91173439D01*
X226371248Y-91173439D02*
X226237738Y-91106684D01*
X226237738Y-91106684D02*
X226170984Y-90973175D01*
X226170984Y-90973175D02*
X226170984Y-90906420D01*
X226170984Y-90906420D02*
X226237738Y-90772910D01*
X226237738Y-90772910D02*
X226371248Y-90706156D01*
X226371248Y-90706156D02*
X226571512Y-90706156D01*
X226571512Y-90706156D02*
X226705022Y-90772910D01*
X227572834Y-91640722D02*
X227439324Y-91573968D01*
X227439324Y-91573968D02*
X227372569Y-91507213D01*
X227372569Y-91507213D02*
X227305815Y-91373703D01*
X227305815Y-91373703D02*
X227305815Y-90973175D01*
X227305815Y-90973175D02*
X227372569Y-90839665D01*
X227372569Y-90839665D02*
X227439324Y-90772910D01*
X227439324Y-90772910D02*
X227572834Y-90706156D01*
X227572834Y-90706156D02*
X227773098Y-90706156D01*
X227773098Y-90706156D02*
X227906607Y-90772910D01*
X227906607Y-90772910D02*
X227973362Y-90839665D01*
X227973362Y-90839665D02*
X228040117Y-90973175D01*
X228040117Y-90973175D02*
X228040117Y-91373703D01*
X228040117Y-91373703D02*
X227973362Y-91507213D01*
X227973362Y-91507213D02*
X227906607Y-91573968D01*
X227906607Y-91573968D02*
X227773098Y-91640722D01*
X227773098Y-91640722D02*
X227572834Y-91640722D01*
X228640909Y-91640722D02*
X228640909Y-90706156D01*
X228640909Y-90973175D02*
X228707664Y-90839665D01*
X228707664Y-90839665D02*
X228774419Y-90772910D01*
X228774419Y-90772910D02*
X228907928Y-90706156D01*
X228907928Y-90706156D02*
X229041438Y-90706156D01*
X231177590Y-90238872D02*
X230910571Y-90238872D01*
X230910571Y-90238872D02*
X230777062Y-90305627D01*
X230777062Y-90305627D02*
X230710307Y-90372382D01*
X230710307Y-90372382D02*
X230576797Y-90572646D01*
X230576797Y-90572646D02*
X230510043Y-90839665D01*
X230510043Y-90839665D02*
X230510043Y-91373703D01*
X230510043Y-91373703D02*
X230576797Y-91507213D01*
X230576797Y-91507213D02*
X230643552Y-91573968D01*
X230643552Y-91573968D02*
X230777062Y-91640722D01*
X230777062Y-91640722D02*
X231044081Y-91640722D01*
X231044081Y-91640722D02*
X231177590Y-91573968D01*
X231177590Y-91573968D02*
X231244345Y-91507213D01*
X231244345Y-91507213D02*
X231311100Y-91373703D01*
X231311100Y-91373703D02*
X231311100Y-91039929D01*
X231311100Y-91039929D02*
X231244345Y-90906420D01*
X231244345Y-90906420D02*
X231177590Y-90839665D01*
X231177590Y-90839665D02*
X231044081Y-90772910D01*
X231044081Y-90772910D02*
X230777062Y-90772910D01*
X230777062Y-90772910D02*
X230643552Y-90839665D01*
X230643552Y-90839665D02*
X230576797Y-90906420D01*
X230576797Y-90906420D02*
X230510043Y-91039929D01*
X181880419Y-130593333D02*
X181832800Y-130545714D01*
X181832800Y-130545714D02*
X181785180Y-130402857D01*
X181785180Y-130402857D02*
X181785180Y-130307619D01*
X181785180Y-130307619D02*
X181832800Y-130164762D01*
X181832800Y-130164762D02*
X181928038Y-130069524D01*
X181928038Y-130069524D02*
X182023276Y-130021905D01*
X182023276Y-130021905D02*
X182213752Y-129974286D01*
X182213752Y-129974286D02*
X182356609Y-129974286D01*
X182356609Y-129974286D02*
X182547085Y-130021905D01*
X182547085Y-130021905D02*
X182642323Y-130069524D01*
X182642323Y-130069524D02*
X182737561Y-130164762D01*
X182737561Y-130164762D02*
X182785180Y-130307619D01*
X182785180Y-130307619D02*
X182785180Y-130402857D01*
X182785180Y-130402857D02*
X182737561Y-130545714D01*
X182737561Y-130545714D02*
X182689942Y-130593333D01*
X181785180Y-131069524D02*
X181785180Y-131260000D01*
X181785180Y-131260000D02*
X181832800Y-131355238D01*
X181832800Y-131355238D02*
X181880419Y-131402857D01*
X181880419Y-131402857D02*
X182023276Y-131498095D01*
X182023276Y-131498095D02*
X182213752Y-131545714D01*
X182213752Y-131545714D02*
X182594704Y-131545714D01*
X182594704Y-131545714D02*
X182689942Y-131498095D01*
X182689942Y-131498095D02*
X182737561Y-131450476D01*
X182737561Y-131450476D02*
X182785180Y-131355238D01*
X182785180Y-131355238D02*
X182785180Y-131164762D01*
X182785180Y-131164762D02*
X182737561Y-131069524D01*
X182737561Y-131069524D02*
X182689942Y-131021905D01*
X182689942Y-131021905D02*
X182594704Y-130974286D01*
X182594704Y-130974286D02*
X182356609Y-130974286D01*
X182356609Y-130974286D02*
X182261371Y-131021905D01*
X182261371Y-131021905D02*
X182213752Y-131069524D01*
X182213752Y-131069524D02*
X182166133Y-131164762D01*
X182166133Y-131164762D02*
X182166133Y-131355238D01*
X182166133Y-131355238D02*
X182213752Y-131450476D01*
X182213752Y-131450476D02*
X182261371Y-131498095D01*
X182261371Y-131498095D02*
X182356609Y-131545714D01*
X233679819Y-143633809D02*
X232679819Y-143633809D01*
X232679819Y-143633809D02*
X232679819Y-143252857D01*
X232679819Y-143252857D02*
X232727438Y-143157619D01*
X232727438Y-143157619D02*
X232775057Y-143110000D01*
X232775057Y-143110000D02*
X232870295Y-143062381D01*
X232870295Y-143062381D02*
X233013152Y-143062381D01*
X233013152Y-143062381D02*
X233108390Y-143110000D01*
X233108390Y-143110000D02*
X233156009Y-143157619D01*
X233156009Y-143157619D02*
X233203628Y-143252857D01*
X233203628Y-143252857D02*
X233203628Y-143633809D01*
X233679819Y-142490952D02*
X233632200Y-142586190D01*
X233632200Y-142586190D02*
X233536961Y-142633809D01*
X233536961Y-142633809D02*
X232679819Y-142633809D01*
X233632200Y-141729047D02*
X233679819Y-141824285D01*
X233679819Y-141824285D02*
X233679819Y-142014761D01*
X233679819Y-142014761D02*
X233632200Y-142109999D01*
X233632200Y-142109999D02*
X233536961Y-142157618D01*
X233536961Y-142157618D02*
X233156009Y-142157618D01*
X233156009Y-142157618D02*
X233060771Y-142109999D01*
X233060771Y-142109999D02*
X233013152Y-142014761D01*
X233013152Y-142014761D02*
X233013152Y-141824285D01*
X233013152Y-141824285D02*
X233060771Y-141729047D01*
X233060771Y-141729047D02*
X233156009Y-141681428D01*
X233156009Y-141681428D02*
X233251247Y-141681428D01*
X233251247Y-141681428D02*
X233346485Y-142157618D01*
X233013152Y-141252856D02*
X233679819Y-141252856D01*
X233108390Y-141252856D02*
X233060771Y-141205237D01*
X233060771Y-141205237D02*
X233013152Y-141109999D01*
X233013152Y-141109999D02*
X233013152Y-140967142D01*
X233013152Y-140967142D02*
X233060771Y-140871904D01*
X233060771Y-140871904D02*
X233156009Y-140824285D01*
X233156009Y-140824285D02*
X233679819Y-140824285D01*
X233013152Y-139919523D02*
X233679819Y-139919523D01*
X233013152Y-140348094D02*
X233536961Y-140348094D01*
X233536961Y-140348094D02*
X233632200Y-140300475D01*
X233632200Y-140300475D02*
X233679819Y-140205237D01*
X233679819Y-140205237D02*
X233679819Y-140062380D01*
X233679819Y-140062380D02*
X233632200Y-139967142D01*
X233632200Y-139967142D02*
X233584580Y-139919523D01*
X233679819Y-139443332D02*
X233013152Y-139443332D01*
X233108390Y-139443332D02*
X233060771Y-139395713D01*
X233060771Y-139395713D02*
X233013152Y-139300475D01*
X233013152Y-139300475D02*
X233013152Y-139157618D01*
X233013152Y-139157618D02*
X233060771Y-139062380D01*
X233060771Y-139062380D02*
X233156009Y-139014761D01*
X233156009Y-139014761D02*
X233679819Y-139014761D01*
X233156009Y-139014761D02*
X233060771Y-138967142D01*
X233060771Y-138967142D02*
X233013152Y-138871904D01*
X233013152Y-138871904D02*
X233013152Y-138729047D01*
X233013152Y-138729047D02*
X233060771Y-138633808D01*
X233060771Y-138633808D02*
X233156009Y-138586189D01*
X233156009Y-138586189D02*
X233679819Y-138586189D01*
X151219580Y-131162857D02*
X151267200Y-131210476D01*
X151267200Y-131210476D02*
X151314819Y-131353333D01*
X151314819Y-131353333D02*
X151314819Y-131448571D01*
X151314819Y-131448571D02*
X151267200Y-131591428D01*
X151267200Y-131591428D02*
X151171961Y-131686666D01*
X151171961Y-131686666D02*
X151076723Y-131734285D01*
X151076723Y-131734285D02*
X150886247Y-131781904D01*
X150886247Y-131781904D02*
X150743390Y-131781904D01*
X150743390Y-131781904D02*
X150552914Y-131734285D01*
X150552914Y-131734285D02*
X150457676Y-131686666D01*
X150457676Y-131686666D02*
X150362438Y-131591428D01*
X150362438Y-131591428D02*
X150314819Y-131448571D01*
X150314819Y-131448571D02*
X150314819Y-131353333D01*
X150314819Y-131353333D02*
X150362438Y-131210476D01*
X150362438Y-131210476D02*
X150410057Y-131162857D01*
X151314819Y-130210476D02*
X151314819Y-130781904D01*
X151314819Y-130496190D02*
X150314819Y-130496190D01*
X150314819Y-130496190D02*
X150457676Y-130591428D01*
X150457676Y-130591428D02*
X150552914Y-130686666D01*
X150552914Y-130686666D02*
X150600533Y-130781904D01*
X150410057Y-129829523D02*
X150362438Y-129781904D01*
X150362438Y-129781904D02*
X150314819Y-129686666D01*
X150314819Y-129686666D02*
X150314819Y-129448571D01*
X150314819Y-129448571D02*
X150362438Y-129353333D01*
X150362438Y-129353333D02*
X150410057Y-129305714D01*
X150410057Y-129305714D02*
X150505295Y-129258095D01*
X150505295Y-129258095D02*
X150600533Y-129258095D01*
X150600533Y-129258095D02*
X150743390Y-129305714D01*
X150743390Y-129305714D02*
X151314819Y-129877142D01*
X151314819Y-129877142D02*
X151314819Y-129258095D01*
X92594819Y-98201504D02*
X93404342Y-98201504D01*
X93404342Y-98201504D02*
X93499580Y-98153885D01*
X93499580Y-98153885D02*
X93547200Y-98106266D01*
X93547200Y-98106266D02*
X93594819Y-98011028D01*
X93594819Y-98011028D02*
X93594819Y-97820552D01*
X93594819Y-97820552D02*
X93547200Y-97725314D01*
X93547200Y-97725314D02*
X93499580Y-97677695D01*
X93499580Y-97677695D02*
X93404342Y-97630076D01*
X93404342Y-97630076D02*
X92594819Y-97630076D01*
X92594819Y-97249123D02*
X92594819Y-96582457D01*
X92594819Y-96582457D02*
X93594819Y-97011028D01*
X146667438Y-111550744D02*
X146667438Y-110407887D01*
X148667438Y-110979316D02*
X146667438Y-110979316D01*
X147619819Y-109074553D02*
X147619819Y-109741220D01*
X148667438Y-109741220D02*
X146667438Y-109741220D01*
X146667438Y-109741220D02*
X146667438Y-108788839D01*
X146667438Y-108312648D02*
X146667438Y-107169791D01*
X148667438Y-107741220D02*
X146667438Y-107741220D01*
X146667438Y-105169790D02*
X146667438Y-103931695D01*
X146667438Y-103931695D02*
X147429342Y-104598362D01*
X147429342Y-104598362D02*
X147429342Y-104312647D01*
X147429342Y-104312647D02*
X147524580Y-104122171D01*
X147524580Y-104122171D02*
X147619819Y-104026933D01*
X147619819Y-104026933D02*
X147810295Y-103931695D01*
X147810295Y-103931695D02*
X148286485Y-103931695D01*
X148286485Y-103931695D02*
X148476961Y-104026933D01*
X148476961Y-104026933D02*
X148572200Y-104122171D01*
X148572200Y-104122171D02*
X148667438Y-104312647D01*
X148667438Y-104312647D02*
X148667438Y-104884076D01*
X148667438Y-104884076D02*
X148572200Y-105074552D01*
X148572200Y-105074552D02*
X148476961Y-105169790D01*
X146857914Y-103169790D02*
X146762676Y-103074552D01*
X146762676Y-103074552D02*
X146667438Y-102884076D01*
X146667438Y-102884076D02*
X146667438Y-102407885D01*
X146667438Y-102407885D02*
X146762676Y-102217409D01*
X146762676Y-102217409D02*
X146857914Y-102122171D01*
X146857914Y-102122171D02*
X147048390Y-102026933D01*
X147048390Y-102026933D02*
X147238866Y-102026933D01*
X147238866Y-102026933D02*
X147524580Y-102122171D01*
X147524580Y-102122171D02*
X148667438Y-103265028D01*
X148667438Y-103265028D02*
X148667438Y-102026933D01*
X146667438Y-100788838D02*
X146667438Y-100598361D01*
X146667438Y-100598361D02*
X146762676Y-100407885D01*
X146762676Y-100407885D02*
X146857914Y-100312647D01*
X146857914Y-100312647D02*
X147048390Y-100217409D01*
X147048390Y-100217409D02*
X147429342Y-100122171D01*
X147429342Y-100122171D02*
X147905533Y-100122171D01*
X147905533Y-100122171D02*
X148286485Y-100217409D01*
X148286485Y-100217409D02*
X148476961Y-100312647D01*
X148476961Y-100312647D02*
X148572200Y-100407885D01*
X148572200Y-100407885D02*
X148667438Y-100598361D01*
X148667438Y-100598361D02*
X148667438Y-100788838D01*
X148667438Y-100788838D02*
X148572200Y-100979314D01*
X148572200Y-100979314D02*
X148476961Y-101074552D01*
X148476961Y-101074552D02*
X148286485Y-101169790D01*
X148286485Y-101169790D02*
X147905533Y-101265028D01*
X147905533Y-101265028D02*
X147429342Y-101265028D01*
X147429342Y-101265028D02*
X147048390Y-101169790D01*
X147048390Y-101169790D02*
X146857914Y-101074552D01*
X146857914Y-101074552D02*
X146762676Y-100979314D01*
X146762676Y-100979314D02*
X146667438Y-100788838D01*
X148667438Y-99455504D02*
X147334104Y-98407885D01*
X147334104Y-99455504D02*
X148667438Y-98407885D01*
X146857914Y-97741218D02*
X146762676Y-97645980D01*
X146762676Y-97645980D02*
X146667438Y-97455504D01*
X146667438Y-97455504D02*
X146667438Y-96979313D01*
X146667438Y-96979313D02*
X146762676Y-96788837D01*
X146762676Y-96788837D02*
X146857914Y-96693599D01*
X146857914Y-96693599D02*
X147048390Y-96598361D01*
X147048390Y-96598361D02*
X147238866Y-96598361D01*
X147238866Y-96598361D02*
X147524580Y-96693599D01*
X147524580Y-96693599D02*
X148667438Y-97836456D01*
X148667438Y-97836456D02*
X148667438Y-96598361D01*
X147334104Y-94884075D02*
X148667438Y-94884075D01*
X146572200Y-95360266D02*
X148000771Y-95836456D01*
X148000771Y-95836456D02*
X148000771Y-94598361D01*
X146667438Y-93455504D02*
X146667438Y-93265027D01*
X146667438Y-93265027D02*
X146762676Y-93074551D01*
X146762676Y-93074551D02*
X146857914Y-92979313D01*
X146857914Y-92979313D02*
X147048390Y-92884075D01*
X147048390Y-92884075D02*
X147429342Y-92788837D01*
X147429342Y-92788837D02*
X147905533Y-92788837D01*
X147905533Y-92788837D02*
X148286485Y-92884075D01*
X148286485Y-92884075D02*
X148476961Y-92979313D01*
X148476961Y-92979313D02*
X148572200Y-93074551D01*
X148572200Y-93074551D02*
X148667438Y-93265027D01*
X148667438Y-93265027D02*
X148667438Y-93455504D01*
X148667438Y-93455504D02*
X148572200Y-93645980D01*
X148572200Y-93645980D02*
X148476961Y-93741218D01*
X148476961Y-93741218D02*
X148286485Y-93836456D01*
X148286485Y-93836456D02*
X147905533Y-93931694D01*
X147905533Y-93931694D02*
X147429342Y-93931694D01*
X147429342Y-93931694D02*
X147048390Y-93836456D01*
X147048390Y-93836456D02*
X146857914Y-93741218D01*
X146857914Y-93741218D02*
X146762676Y-93645980D01*
X146762676Y-93645980D02*
X146667438Y-93455504D01*
X148572200Y-91836456D02*
X148667438Y-91836456D01*
X148667438Y-91836456D02*
X148857914Y-91931694D01*
X148857914Y-91931694D02*
X148953152Y-92026932D01*
X146857914Y-89550741D02*
X146762676Y-89455503D01*
X146762676Y-89455503D02*
X146667438Y-89265027D01*
X146667438Y-89265027D02*
X146667438Y-88788836D01*
X146667438Y-88788836D02*
X146762676Y-88598360D01*
X146762676Y-88598360D02*
X146857914Y-88503122D01*
X146857914Y-88503122D02*
X147048390Y-88407884D01*
X147048390Y-88407884D02*
X147238866Y-88407884D01*
X147238866Y-88407884D02*
X147524580Y-88503122D01*
X147524580Y-88503122D02*
X148667438Y-89645979D01*
X148667438Y-89645979D02*
X148667438Y-88407884D01*
X148476961Y-87550741D02*
X148572200Y-87455503D01*
X148572200Y-87455503D02*
X148667438Y-87550741D01*
X148667438Y-87550741D02*
X148572200Y-87645979D01*
X148572200Y-87645979D02*
X148476961Y-87550741D01*
X148476961Y-87550741D02*
X148667438Y-87550741D01*
X147524580Y-86312646D02*
X147429342Y-86503122D01*
X147429342Y-86503122D02*
X147334104Y-86598360D01*
X147334104Y-86598360D02*
X147143628Y-86693598D01*
X147143628Y-86693598D02*
X147048390Y-86693598D01*
X147048390Y-86693598D02*
X146857914Y-86598360D01*
X146857914Y-86598360D02*
X146762676Y-86503122D01*
X146762676Y-86503122D02*
X146667438Y-86312646D01*
X146667438Y-86312646D02*
X146667438Y-85931693D01*
X146667438Y-85931693D02*
X146762676Y-85741217D01*
X146762676Y-85741217D02*
X146857914Y-85645979D01*
X146857914Y-85645979D02*
X147048390Y-85550741D01*
X147048390Y-85550741D02*
X147143628Y-85550741D01*
X147143628Y-85550741D02*
X147334104Y-85645979D01*
X147334104Y-85645979D02*
X147429342Y-85741217D01*
X147429342Y-85741217D02*
X147524580Y-85931693D01*
X147524580Y-85931693D02*
X147524580Y-86312646D01*
X147524580Y-86312646D02*
X147619819Y-86503122D01*
X147619819Y-86503122D02*
X147715057Y-86598360D01*
X147715057Y-86598360D02*
X147905533Y-86693598D01*
X147905533Y-86693598D02*
X148286485Y-86693598D01*
X148286485Y-86693598D02*
X148476961Y-86598360D01*
X148476961Y-86598360D02*
X148572200Y-86503122D01*
X148572200Y-86503122D02*
X148667438Y-86312646D01*
X148667438Y-86312646D02*
X148667438Y-85931693D01*
X148667438Y-85931693D02*
X148572200Y-85741217D01*
X148572200Y-85741217D02*
X148476961Y-85645979D01*
X148476961Y-85645979D02*
X148286485Y-85550741D01*
X148286485Y-85550741D02*
X147905533Y-85550741D01*
X147905533Y-85550741D02*
X147715057Y-85645979D01*
X147715057Y-85645979D02*
X147619819Y-85741217D01*
X147619819Y-85741217D02*
X147524580Y-85931693D01*
X146667438Y-84788836D02*
X147048390Y-84788836D01*
X146667438Y-84026931D02*
X147048390Y-84026931D01*
X159014819Y-143708809D02*
X159014819Y-143042143D01*
X159014819Y-143042143D02*
X160014819Y-143708809D01*
X160014819Y-143708809D02*
X160014819Y-143042143D01*
X160014819Y-142518333D02*
X159967200Y-142613571D01*
X159967200Y-142613571D02*
X159919580Y-142661190D01*
X159919580Y-142661190D02*
X159824342Y-142708809D01*
X159824342Y-142708809D02*
X159538628Y-142708809D01*
X159538628Y-142708809D02*
X159443390Y-142661190D01*
X159443390Y-142661190D02*
X159395771Y-142613571D01*
X159395771Y-142613571D02*
X159348152Y-142518333D01*
X159348152Y-142518333D02*
X159348152Y-142375476D01*
X159348152Y-142375476D02*
X159395771Y-142280238D01*
X159395771Y-142280238D02*
X159443390Y-142232619D01*
X159443390Y-142232619D02*
X159538628Y-142185000D01*
X159538628Y-142185000D02*
X159824342Y-142185000D01*
X159824342Y-142185000D02*
X159919580Y-142232619D01*
X159919580Y-142232619D02*
X159967200Y-142280238D01*
X159967200Y-142280238D02*
X160014819Y-142375476D01*
X160014819Y-142375476D02*
X160014819Y-142518333D01*
X159348152Y-141756428D02*
X160014819Y-141756428D01*
X159443390Y-141756428D02*
X159395771Y-141708809D01*
X159395771Y-141708809D02*
X159348152Y-141613571D01*
X159348152Y-141613571D02*
X159348152Y-141470714D01*
X159348152Y-141470714D02*
X159395771Y-141375476D01*
X159395771Y-141375476D02*
X159491009Y-141327857D01*
X159491009Y-141327857D02*
X160014819Y-141327857D01*
X159967200Y-140470714D02*
X160014819Y-140565952D01*
X160014819Y-140565952D02*
X160014819Y-140756428D01*
X160014819Y-140756428D02*
X159967200Y-140851666D01*
X159967200Y-140851666D02*
X159871961Y-140899285D01*
X159871961Y-140899285D02*
X159491009Y-140899285D01*
X159491009Y-140899285D02*
X159395771Y-140851666D01*
X159395771Y-140851666D02*
X159348152Y-140756428D01*
X159348152Y-140756428D02*
X159348152Y-140565952D01*
X159348152Y-140565952D02*
X159395771Y-140470714D01*
X159395771Y-140470714D02*
X159491009Y-140423095D01*
X159491009Y-140423095D02*
X159586247Y-140423095D01*
X159586247Y-140423095D02*
X159681485Y-140899285D01*
X159110057Y-139280237D02*
X159062438Y-139232618D01*
X159062438Y-139232618D02*
X159014819Y-139137380D01*
X159014819Y-139137380D02*
X159014819Y-138899285D01*
X159014819Y-138899285D02*
X159062438Y-138804047D01*
X159062438Y-138804047D02*
X159110057Y-138756428D01*
X159110057Y-138756428D02*
X159205295Y-138708809D01*
X159205295Y-138708809D02*
X159300533Y-138708809D01*
X159300533Y-138708809D02*
X159443390Y-138756428D01*
X159443390Y-138756428D02*
X160014819Y-139327856D01*
X160014819Y-139327856D02*
X160014819Y-138708809D01*
X238236666Y-115234819D02*
X238236666Y-115949104D01*
X238236666Y-115949104D02*
X238189047Y-116091961D01*
X238189047Y-116091961D02*
X238093809Y-116187200D01*
X238093809Y-116187200D02*
X237950952Y-116234819D01*
X237950952Y-116234819D02*
X237855714Y-116234819D01*
X238855714Y-115663390D02*
X238760476Y-115615771D01*
X238760476Y-115615771D02*
X238712857Y-115568152D01*
X238712857Y-115568152D02*
X238665238Y-115472914D01*
X238665238Y-115472914D02*
X238665238Y-115425295D01*
X238665238Y-115425295D02*
X238712857Y-115330057D01*
X238712857Y-115330057D02*
X238760476Y-115282438D01*
X238760476Y-115282438D02*
X238855714Y-115234819D01*
X238855714Y-115234819D02*
X239046190Y-115234819D01*
X239046190Y-115234819D02*
X239141428Y-115282438D01*
X239141428Y-115282438D02*
X239189047Y-115330057D01*
X239189047Y-115330057D02*
X239236666Y-115425295D01*
X239236666Y-115425295D02*
X239236666Y-115472914D01*
X239236666Y-115472914D02*
X239189047Y-115568152D01*
X239189047Y-115568152D02*
X239141428Y-115615771D01*
X239141428Y-115615771D02*
X239046190Y-115663390D01*
X239046190Y-115663390D02*
X238855714Y-115663390D01*
X238855714Y-115663390D02*
X238760476Y-115711009D01*
X238760476Y-115711009D02*
X238712857Y-115758628D01*
X238712857Y-115758628D02*
X238665238Y-115853866D01*
X238665238Y-115853866D02*
X238665238Y-116044342D01*
X238665238Y-116044342D02*
X238712857Y-116139580D01*
X238712857Y-116139580D02*
X238760476Y-116187200D01*
X238760476Y-116187200D02*
X238855714Y-116234819D01*
X238855714Y-116234819D02*
X239046190Y-116234819D01*
X239046190Y-116234819D02*
X239141428Y-116187200D01*
X239141428Y-116187200D02*
X239189047Y-116139580D01*
X239189047Y-116139580D02*
X239236666Y-116044342D01*
X239236666Y-116044342D02*
X239236666Y-115853866D01*
X239236666Y-115853866D02*
X239189047Y-115758628D01*
X239189047Y-115758628D02*
X239141428Y-115711009D01*
X239141428Y-115711009D02*
X239046190Y-115663390D01*
X211559819Y-143653809D02*
X211559819Y-142987143D01*
X211559819Y-142987143D02*
X212559819Y-143653809D01*
X212559819Y-143653809D02*
X212559819Y-142987143D01*
X212559819Y-142463333D02*
X212512200Y-142558571D01*
X212512200Y-142558571D02*
X212464580Y-142606190D01*
X212464580Y-142606190D02*
X212369342Y-142653809D01*
X212369342Y-142653809D02*
X212083628Y-142653809D01*
X212083628Y-142653809D02*
X211988390Y-142606190D01*
X211988390Y-142606190D02*
X211940771Y-142558571D01*
X211940771Y-142558571D02*
X211893152Y-142463333D01*
X211893152Y-142463333D02*
X211893152Y-142320476D01*
X211893152Y-142320476D02*
X211940771Y-142225238D01*
X211940771Y-142225238D02*
X211988390Y-142177619D01*
X211988390Y-142177619D02*
X212083628Y-142130000D01*
X212083628Y-142130000D02*
X212369342Y-142130000D01*
X212369342Y-142130000D02*
X212464580Y-142177619D01*
X212464580Y-142177619D02*
X212512200Y-142225238D01*
X212512200Y-142225238D02*
X212559819Y-142320476D01*
X212559819Y-142320476D02*
X212559819Y-142463333D01*
X211893152Y-141701428D02*
X212559819Y-141701428D01*
X211988390Y-141701428D02*
X211940771Y-141653809D01*
X211940771Y-141653809D02*
X211893152Y-141558571D01*
X211893152Y-141558571D02*
X211893152Y-141415714D01*
X211893152Y-141415714D02*
X211940771Y-141320476D01*
X211940771Y-141320476D02*
X212036009Y-141272857D01*
X212036009Y-141272857D02*
X212559819Y-141272857D01*
X212512200Y-140415714D02*
X212559819Y-140510952D01*
X212559819Y-140510952D02*
X212559819Y-140701428D01*
X212559819Y-140701428D02*
X212512200Y-140796666D01*
X212512200Y-140796666D02*
X212416961Y-140844285D01*
X212416961Y-140844285D02*
X212036009Y-140844285D01*
X212036009Y-140844285D02*
X211940771Y-140796666D01*
X211940771Y-140796666D02*
X211893152Y-140701428D01*
X211893152Y-140701428D02*
X211893152Y-140510952D01*
X211893152Y-140510952D02*
X211940771Y-140415714D01*
X211940771Y-140415714D02*
X212036009Y-140368095D01*
X212036009Y-140368095D02*
X212131247Y-140368095D01*
X212131247Y-140368095D02*
X212226485Y-140844285D01*
X211559819Y-139272856D02*
X211559819Y-138606190D01*
X211559819Y-138606190D02*
X212559819Y-139034761D01*
X166588901Y-58080194D02*
X167256448Y-58080194D01*
X166455391Y-58480722D02*
X166922674Y-57078872D01*
X166922674Y-57078872D02*
X167389958Y-58480722D01*
X167857241Y-58480722D02*
X167857241Y-57546156D01*
X167857241Y-57078872D02*
X167790487Y-57145627D01*
X167790487Y-57145627D02*
X167857241Y-57212382D01*
X167857241Y-57212382D02*
X167923996Y-57145627D01*
X167923996Y-57145627D02*
X167857241Y-57078872D01*
X167857241Y-57078872D02*
X167857241Y-57212382D01*
X168524789Y-58480722D02*
X168524789Y-57546156D01*
X168524789Y-57813175D02*
X168591544Y-57679665D01*
X168591544Y-57679665D02*
X168658299Y-57612910D01*
X168658299Y-57612910D02*
X168791808Y-57546156D01*
X168791808Y-57546156D02*
X168925318Y-57546156D01*
X169192337Y-57546156D02*
X169726375Y-57546156D01*
X169392601Y-58480722D02*
X169392601Y-57279137D01*
X169392601Y-57279137D02*
X169459356Y-57145627D01*
X169459356Y-57145627D02*
X169592866Y-57078872D01*
X169592866Y-57078872D02*
X169726375Y-57078872D01*
X170393923Y-58480722D02*
X170260413Y-58413968D01*
X170260413Y-58413968D02*
X170193658Y-58280458D01*
X170193658Y-58280458D02*
X170193658Y-57078872D01*
X171128225Y-58480722D02*
X170994715Y-58413968D01*
X170994715Y-58413968D02*
X170927960Y-58347213D01*
X170927960Y-58347213D02*
X170861206Y-58213703D01*
X170861206Y-58213703D02*
X170861206Y-57813175D01*
X170861206Y-57813175D02*
X170927960Y-57679665D01*
X170927960Y-57679665D02*
X170994715Y-57612910D01*
X170994715Y-57612910D02*
X171128225Y-57546156D01*
X171128225Y-57546156D02*
X171328489Y-57546156D01*
X171328489Y-57546156D02*
X171461998Y-57612910D01*
X171461998Y-57612910D02*
X171528753Y-57679665D01*
X171528753Y-57679665D02*
X171595508Y-57813175D01*
X171595508Y-57813175D02*
X171595508Y-58213703D01*
X171595508Y-58213703D02*
X171528753Y-58347213D01*
X171528753Y-58347213D02*
X171461998Y-58413968D01*
X171461998Y-58413968D02*
X171328489Y-58480722D01*
X171328489Y-58480722D02*
X171128225Y-58480722D01*
X172062791Y-57546156D02*
X172329810Y-58480722D01*
X172329810Y-58480722D02*
X172596829Y-57813175D01*
X172596829Y-57813175D02*
X172863848Y-58480722D01*
X172863848Y-58480722D02*
X173130867Y-57546156D01*
X174666227Y-58413968D02*
X174799736Y-58480722D01*
X174799736Y-58480722D02*
X175066755Y-58480722D01*
X175066755Y-58480722D02*
X175200265Y-58413968D01*
X175200265Y-58413968D02*
X175267019Y-58280458D01*
X175267019Y-58280458D02*
X175267019Y-58213703D01*
X175267019Y-58213703D02*
X175200265Y-58080194D01*
X175200265Y-58080194D02*
X175066755Y-58013439D01*
X175066755Y-58013439D02*
X174866491Y-58013439D01*
X174866491Y-58013439D02*
X174732981Y-57946684D01*
X174732981Y-57946684D02*
X174666227Y-57813175D01*
X174666227Y-57813175D02*
X174666227Y-57746420D01*
X174666227Y-57746420D02*
X174732981Y-57612910D01*
X174732981Y-57612910D02*
X174866491Y-57546156D01*
X174866491Y-57546156D02*
X175066755Y-57546156D01*
X175066755Y-57546156D02*
X175200265Y-57612910D01*
X176401850Y-58413968D02*
X176268341Y-58480722D01*
X176268341Y-58480722D02*
X176001322Y-58480722D01*
X176001322Y-58480722D02*
X175867812Y-58413968D01*
X175867812Y-58413968D02*
X175801058Y-58280458D01*
X175801058Y-58280458D02*
X175801058Y-57746420D01*
X175801058Y-57746420D02*
X175867812Y-57612910D01*
X175867812Y-57612910D02*
X176001322Y-57546156D01*
X176001322Y-57546156D02*
X176268341Y-57546156D01*
X176268341Y-57546156D02*
X176401850Y-57612910D01*
X176401850Y-57612910D02*
X176468605Y-57746420D01*
X176468605Y-57746420D02*
X176468605Y-57879929D01*
X176468605Y-57879929D02*
X175801058Y-58013439D01*
X177069398Y-57546156D02*
X177069398Y-58480722D01*
X177069398Y-57679665D02*
X177136153Y-57612910D01*
X177136153Y-57612910D02*
X177269663Y-57546156D01*
X177269663Y-57546156D02*
X177469927Y-57546156D01*
X177469927Y-57546156D02*
X177603436Y-57612910D01*
X177603436Y-57612910D02*
X177670191Y-57746420D01*
X177670191Y-57746420D02*
X177670191Y-58480722D01*
X178270984Y-58413968D02*
X178404493Y-58480722D01*
X178404493Y-58480722D02*
X178671512Y-58480722D01*
X178671512Y-58480722D02*
X178805022Y-58413968D01*
X178805022Y-58413968D02*
X178871776Y-58280458D01*
X178871776Y-58280458D02*
X178871776Y-58213703D01*
X178871776Y-58213703D02*
X178805022Y-58080194D01*
X178805022Y-58080194D02*
X178671512Y-58013439D01*
X178671512Y-58013439D02*
X178471248Y-58013439D01*
X178471248Y-58013439D02*
X178337738Y-57946684D01*
X178337738Y-57946684D02*
X178270984Y-57813175D01*
X178270984Y-57813175D02*
X178270984Y-57746420D01*
X178270984Y-57746420D02*
X178337738Y-57612910D01*
X178337738Y-57612910D02*
X178471248Y-57546156D01*
X178471248Y-57546156D02*
X178671512Y-57546156D01*
X178671512Y-57546156D02*
X178805022Y-57612910D01*
X179672834Y-58480722D02*
X179539324Y-58413968D01*
X179539324Y-58413968D02*
X179472569Y-58347213D01*
X179472569Y-58347213D02*
X179405815Y-58213703D01*
X179405815Y-58213703D02*
X179405815Y-57813175D01*
X179405815Y-57813175D02*
X179472569Y-57679665D01*
X179472569Y-57679665D02*
X179539324Y-57612910D01*
X179539324Y-57612910D02*
X179672834Y-57546156D01*
X179672834Y-57546156D02*
X179873098Y-57546156D01*
X179873098Y-57546156D02*
X180006607Y-57612910D01*
X180006607Y-57612910D02*
X180073362Y-57679665D01*
X180073362Y-57679665D02*
X180140117Y-57813175D01*
X180140117Y-57813175D02*
X180140117Y-58213703D01*
X180140117Y-58213703D02*
X180073362Y-58347213D01*
X180073362Y-58347213D02*
X180006607Y-58413968D01*
X180006607Y-58413968D02*
X179873098Y-58480722D01*
X179873098Y-58480722D02*
X179672834Y-58480722D01*
X180740909Y-58480722D02*
X180740909Y-57546156D01*
X180740909Y-57813175D02*
X180807664Y-57679665D01*
X180807664Y-57679665D02*
X180874419Y-57612910D01*
X180874419Y-57612910D02*
X181007928Y-57546156D01*
X181007928Y-57546156D02*
X181141438Y-57546156D01*
X182610043Y-57212382D02*
X182676797Y-57145627D01*
X182676797Y-57145627D02*
X182810307Y-57078872D01*
X182810307Y-57078872D02*
X183144081Y-57078872D01*
X183144081Y-57078872D02*
X183277590Y-57145627D01*
X183277590Y-57145627D02*
X183344345Y-57212382D01*
X183344345Y-57212382D02*
X183411100Y-57345891D01*
X183411100Y-57345891D02*
X183411100Y-57479401D01*
X183411100Y-57479401D02*
X183344345Y-57679665D01*
X183344345Y-57679665D02*
X182543288Y-58480722D01*
X182543288Y-58480722D02*
X183411100Y-58480722D01*
X190846666Y-121940419D02*
X190894285Y-121892800D01*
X190894285Y-121892800D02*
X191037142Y-121845180D01*
X191037142Y-121845180D02*
X191132380Y-121845180D01*
X191132380Y-121845180D02*
X191275237Y-121892800D01*
X191275237Y-121892800D02*
X191370475Y-121988038D01*
X191370475Y-121988038D02*
X191418094Y-122083276D01*
X191418094Y-122083276D02*
X191465713Y-122273752D01*
X191465713Y-122273752D02*
X191465713Y-122416609D01*
X191465713Y-122416609D02*
X191418094Y-122607085D01*
X191418094Y-122607085D02*
X191370475Y-122702323D01*
X191370475Y-122702323D02*
X191275237Y-122797561D01*
X191275237Y-122797561D02*
X191132380Y-122845180D01*
X191132380Y-122845180D02*
X191037142Y-122845180D01*
X191037142Y-122845180D02*
X190894285Y-122797561D01*
X190894285Y-122797561D02*
X190846666Y-122749942D01*
X189941904Y-122845180D02*
X190418094Y-122845180D01*
X190418094Y-122845180D02*
X190465713Y-122368990D01*
X190465713Y-122368990D02*
X190418094Y-122416609D01*
X190418094Y-122416609D02*
X190322856Y-122464228D01*
X190322856Y-122464228D02*
X190084761Y-122464228D01*
X190084761Y-122464228D02*
X189989523Y-122416609D01*
X189989523Y-122416609D02*
X189941904Y-122368990D01*
X189941904Y-122368990D02*
X189894285Y-122273752D01*
X189894285Y-122273752D02*
X189894285Y-122035657D01*
X189894285Y-122035657D02*
X189941904Y-121940419D01*
X189941904Y-121940419D02*
X189989523Y-121892800D01*
X189989523Y-121892800D02*
X190084761Y-121845180D01*
X190084761Y-121845180D02*
X190322856Y-121845180D01*
X190322856Y-121845180D02*
X190418094Y-121892800D01*
X190418094Y-121892800D02*
X190465713Y-121940419D01*
X190549819Y-143643809D02*
X190549819Y-142977143D01*
X190549819Y-142977143D02*
X191549819Y-143643809D01*
X191549819Y-143643809D02*
X191549819Y-142977143D01*
X191549819Y-142453333D02*
X191502200Y-142548571D01*
X191502200Y-142548571D02*
X191454580Y-142596190D01*
X191454580Y-142596190D02*
X191359342Y-142643809D01*
X191359342Y-142643809D02*
X191073628Y-142643809D01*
X191073628Y-142643809D02*
X190978390Y-142596190D01*
X190978390Y-142596190D02*
X190930771Y-142548571D01*
X190930771Y-142548571D02*
X190883152Y-142453333D01*
X190883152Y-142453333D02*
X190883152Y-142310476D01*
X190883152Y-142310476D02*
X190930771Y-142215238D01*
X190930771Y-142215238D02*
X190978390Y-142167619D01*
X190978390Y-142167619D02*
X191073628Y-142120000D01*
X191073628Y-142120000D02*
X191359342Y-142120000D01*
X191359342Y-142120000D02*
X191454580Y-142167619D01*
X191454580Y-142167619D02*
X191502200Y-142215238D01*
X191502200Y-142215238D02*
X191549819Y-142310476D01*
X191549819Y-142310476D02*
X191549819Y-142453333D01*
X190883152Y-141691428D02*
X191549819Y-141691428D01*
X190978390Y-141691428D02*
X190930771Y-141643809D01*
X190930771Y-141643809D02*
X190883152Y-141548571D01*
X190883152Y-141548571D02*
X190883152Y-141405714D01*
X190883152Y-141405714D02*
X190930771Y-141310476D01*
X190930771Y-141310476D02*
X191026009Y-141262857D01*
X191026009Y-141262857D02*
X191549819Y-141262857D01*
X191502200Y-140405714D02*
X191549819Y-140500952D01*
X191549819Y-140500952D02*
X191549819Y-140691428D01*
X191549819Y-140691428D02*
X191502200Y-140786666D01*
X191502200Y-140786666D02*
X191406961Y-140834285D01*
X191406961Y-140834285D02*
X191026009Y-140834285D01*
X191026009Y-140834285D02*
X190930771Y-140786666D01*
X190930771Y-140786666D02*
X190883152Y-140691428D01*
X190883152Y-140691428D02*
X190883152Y-140500952D01*
X190883152Y-140500952D02*
X190930771Y-140405714D01*
X190930771Y-140405714D02*
X191026009Y-140358095D01*
X191026009Y-140358095D02*
X191121247Y-140358095D01*
X191121247Y-140358095D02*
X191216485Y-140834285D01*
X190549819Y-138691428D02*
X190549819Y-139167618D01*
X190549819Y-139167618D02*
X191026009Y-139215237D01*
X191026009Y-139215237D02*
X190978390Y-139167618D01*
X190978390Y-139167618D02*
X190930771Y-139072380D01*
X190930771Y-139072380D02*
X190930771Y-138834285D01*
X190930771Y-138834285D02*
X190978390Y-138739047D01*
X190978390Y-138739047D02*
X191026009Y-138691428D01*
X191026009Y-138691428D02*
X191121247Y-138643809D01*
X191121247Y-138643809D02*
X191359342Y-138643809D01*
X191359342Y-138643809D02*
X191454580Y-138691428D01*
X191454580Y-138691428D02*
X191502200Y-138739047D01*
X191502200Y-138739047D02*
X191549819Y-138834285D01*
X191549819Y-138834285D02*
X191549819Y-139072380D01*
X191549819Y-139072380D02*
X191502200Y-139167618D01*
X191502200Y-139167618D02*
X191454580Y-139215237D01*
X93003333Y-123384819D02*
X92670000Y-122908628D01*
X92431905Y-123384819D02*
X92431905Y-122384819D01*
X92431905Y-122384819D02*
X92812857Y-122384819D01*
X92812857Y-122384819D02*
X92908095Y-122432438D01*
X92908095Y-122432438D02*
X92955714Y-122480057D01*
X92955714Y-122480057D02*
X93003333Y-122575295D01*
X93003333Y-122575295D02*
X93003333Y-122718152D01*
X93003333Y-122718152D02*
X92955714Y-122813390D01*
X92955714Y-122813390D02*
X92908095Y-122861009D01*
X92908095Y-122861009D02*
X92812857Y-122908628D01*
X92812857Y-122908628D02*
X92431905Y-122908628D01*
X93908095Y-122384819D02*
X93431905Y-122384819D01*
X93431905Y-122384819D02*
X93384286Y-122861009D01*
X93384286Y-122861009D02*
X93431905Y-122813390D01*
X93431905Y-122813390D02*
X93527143Y-122765771D01*
X93527143Y-122765771D02*
X93765238Y-122765771D01*
X93765238Y-122765771D02*
X93860476Y-122813390D01*
X93860476Y-122813390D02*
X93908095Y-122861009D01*
X93908095Y-122861009D02*
X93955714Y-122956247D01*
X93955714Y-122956247D02*
X93955714Y-123194342D01*
X93955714Y-123194342D02*
X93908095Y-123289580D01*
X93908095Y-123289580D02*
X93860476Y-123337200D01*
X93860476Y-123337200D02*
X93765238Y-123384819D01*
X93765238Y-123384819D02*
X93527143Y-123384819D01*
X93527143Y-123384819D02*
X93431905Y-123337200D01*
X93431905Y-123337200D02*
X93384286Y-123289580D01*
X90917142Y-69379580D02*
X90869523Y-69427200D01*
X90869523Y-69427200D02*
X90726666Y-69474819D01*
X90726666Y-69474819D02*
X90631428Y-69474819D01*
X90631428Y-69474819D02*
X90488571Y-69427200D01*
X90488571Y-69427200D02*
X90393333Y-69331961D01*
X90393333Y-69331961D02*
X90345714Y-69236723D01*
X90345714Y-69236723D02*
X90298095Y-69046247D01*
X90298095Y-69046247D02*
X90298095Y-68903390D01*
X90298095Y-68903390D02*
X90345714Y-68712914D01*
X90345714Y-68712914D02*
X90393333Y-68617676D01*
X90393333Y-68617676D02*
X90488571Y-68522438D01*
X90488571Y-68522438D02*
X90631428Y-68474819D01*
X90631428Y-68474819D02*
X90726666Y-68474819D01*
X90726666Y-68474819D02*
X90869523Y-68522438D01*
X90869523Y-68522438D02*
X90917142Y-68570057D01*
X91869523Y-69474819D02*
X91298095Y-69474819D01*
X91583809Y-69474819D02*
X91583809Y-68474819D01*
X91583809Y-68474819D02*
X91488571Y-68617676D01*
X91488571Y-68617676D02*
X91393333Y-68712914D01*
X91393333Y-68712914D02*
X91298095Y-68760533D01*
X92440952Y-68903390D02*
X92345714Y-68855771D01*
X92345714Y-68855771D02*
X92298095Y-68808152D01*
X92298095Y-68808152D02*
X92250476Y-68712914D01*
X92250476Y-68712914D02*
X92250476Y-68665295D01*
X92250476Y-68665295D02*
X92298095Y-68570057D01*
X92298095Y-68570057D02*
X92345714Y-68522438D01*
X92345714Y-68522438D02*
X92440952Y-68474819D01*
X92440952Y-68474819D02*
X92631428Y-68474819D01*
X92631428Y-68474819D02*
X92726666Y-68522438D01*
X92726666Y-68522438D02*
X92774285Y-68570057D01*
X92774285Y-68570057D02*
X92821904Y-68665295D01*
X92821904Y-68665295D02*
X92821904Y-68712914D01*
X92821904Y-68712914D02*
X92774285Y-68808152D01*
X92774285Y-68808152D02*
X92726666Y-68855771D01*
X92726666Y-68855771D02*
X92631428Y-68903390D01*
X92631428Y-68903390D02*
X92440952Y-68903390D01*
X92440952Y-68903390D02*
X92345714Y-68951009D01*
X92345714Y-68951009D02*
X92298095Y-68998628D01*
X92298095Y-68998628D02*
X92250476Y-69093866D01*
X92250476Y-69093866D02*
X92250476Y-69284342D01*
X92250476Y-69284342D02*
X92298095Y-69379580D01*
X92298095Y-69379580D02*
X92345714Y-69427200D01*
X92345714Y-69427200D02*
X92440952Y-69474819D01*
X92440952Y-69474819D02*
X92631428Y-69474819D01*
X92631428Y-69474819D02*
X92726666Y-69427200D01*
X92726666Y-69427200D02*
X92774285Y-69379580D01*
X92774285Y-69379580D02*
X92821904Y-69284342D01*
X92821904Y-69284342D02*
X92821904Y-69093866D01*
X92821904Y-69093866D02*
X92774285Y-68998628D01*
X92774285Y-68998628D02*
X92726666Y-68951009D01*
X92726666Y-68951009D02*
X92631428Y-68903390D01*
X193899580Y-131392857D02*
X193947200Y-131440476D01*
X193947200Y-131440476D02*
X193994819Y-131583333D01*
X193994819Y-131583333D02*
X193994819Y-131678571D01*
X193994819Y-131678571D02*
X193947200Y-131821428D01*
X193947200Y-131821428D02*
X193851961Y-131916666D01*
X193851961Y-131916666D02*
X193756723Y-131964285D01*
X193756723Y-131964285D02*
X193566247Y-132011904D01*
X193566247Y-132011904D02*
X193423390Y-132011904D01*
X193423390Y-132011904D02*
X193232914Y-131964285D01*
X193232914Y-131964285D02*
X193137676Y-131916666D01*
X193137676Y-131916666D02*
X193042438Y-131821428D01*
X193042438Y-131821428D02*
X192994819Y-131678571D01*
X192994819Y-131678571D02*
X192994819Y-131583333D01*
X192994819Y-131583333D02*
X193042438Y-131440476D01*
X193042438Y-131440476D02*
X193090057Y-131392857D01*
X193994819Y-130440476D02*
X193994819Y-131011904D01*
X193994819Y-130726190D02*
X192994819Y-130726190D01*
X192994819Y-130726190D02*
X193137676Y-130821428D01*
X193137676Y-130821428D02*
X193232914Y-130916666D01*
X193232914Y-130916666D02*
X193280533Y-131011904D01*
X193328152Y-129583333D02*
X193994819Y-129583333D01*
X192947200Y-129821428D02*
X193661485Y-130059523D01*
X193661485Y-130059523D02*
X193661485Y-129440476D01*
X172989580Y-131102857D02*
X173037200Y-131150476D01*
X173037200Y-131150476D02*
X173084819Y-131293333D01*
X173084819Y-131293333D02*
X173084819Y-131388571D01*
X173084819Y-131388571D02*
X173037200Y-131531428D01*
X173037200Y-131531428D02*
X172941961Y-131626666D01*
X172941961Y-131626666D02*
X172846723Y-131674285D01*
X172846723Y-131674285D02*
X172656247Y-131721904D01*
X172656247Y-131721904D02*
X172513390Y-131721904D01*
X172513390Y-131721904D02*
X172322914Y-131674285D01*
X172322914Y-131674285D02*
X172227676Y-131626666D01*
X172227676Y-131626666D02*
X172132438Y-131531428D01*
X172132438Y-131531428D02*
X172084819Y-131388571D01*
X172084819Y-131388571D02*
X172084819Y-131293333D01*
X172084819Y-131293333D02*
X172132438Y-131150476D01*
X172132438Y-131150476D02*
X172180057Y-131102857D01*
X173084819Y-130150476D02*
X173084819Y-130721904D01*
X173084819Y-130436190D02*
X172084819Y-130436190D01*
X172084819Y-130436190D02*
X172227676Y-130531428D01*
X172227676Y-130531428D02*
X172322914Y-130626666D01*
X172322914Y-130626666D02*
X172370533Y-130721904D01*
X172084819Y-129817142D02*
X172084819Y-129198095D01*
X172084819Y-129198095D02*
X172465771Y-129531428D01*
X172465771Y-129531428D02*
X172465771Y-129388571D01*
X172465771Y-129388571D02*
X172513390Y-129293333D01*
X172513390Y-129293333D02*
X172561009Y-129245714D01*
X172561009Y-129245714D02*
X172656247Y-129198095D01*
X172656247Y-129198095D02*
X172894342Y-129198095D01*
X172894342Y-129198095D02*
X172989580Y-129245714D01*
X172989580Y-129245714D02*
X173037200Y-129293333D01*
X173037200Y-129293333D02*
X173084819Y-129388571D01*
X173084819Y-129388571D02*
X173084819Y-129674285D01*
X173084819Y-129674285D02*
X173037200Y-129769523D01*
X173037200Y-129769523D02*
X172989580Y-129817142D01*
X182248901Y-41420194D02*
X182916448Y-41420194D01*
X182115391Y-41820722D02*
X182582674Y-40418872D01*
X182582674Y-40418872D02*
X183049958Y-41820722D01*
X183517241Y-41820722D02*
X183517241Y-40886156D01*
X183517241Y-40418872D02*
X183450487Y-40485627D01*
X183450487Y-40485627D02*
X183517241Y-40552382D01*
X183517241Y-40552382D02*
X183583996Y-40485627D01*
X183583996Y-40485627D02*
X183517241Y-40418872D01*
X183517241Y-40418872D02*
X183517241Y-40552382D01*
X184184789Y-41820722D02*
X184184789Y-40886156D01*
X184184789Y-41153175D02*
X184251544Y-41019665D01*
X184251544Y-41019665D02*
X184318299Y-40952910D01*
X184318299Y-40952910D02*
X184451808Y-40886156D01*
X184451808Y-40886156D02*
X184585318Y-40886156D01*
X184852337Y-40886156D02*
X185386375Y-40886156D01*
X185052601Y-41820722D02*
X185052601Y-40619137D01*
X185052601Y-40619137D02*
X185119356Y-40485627D01*
X185119356Y-40485627D02*
X185252866Y-40418872D01*
X185252866Y-40418872D02*
X185386375Y-40418872D01*
X186053923Y-41820722D02*
X185920413Y-41753968D01*
X185920413Y-41753968D02*
X185853658Y-41620458D01*
X185853658Y-41620458D02*
X185853658Y-40418872D01*
X186788225Y-41820722D02*
X186654715Y-41753968D01*
X186654715Y-41753968D02*
X186587960Y-41687213D01*
X186587960Y-41687213D02*
X186521206Y-41553703D01*
X186521206Y-41553703D02*
X186521206Y-41153175D01*
X186521206Y-41153175D02*
X186587960Y-41019665D01*
X186587960Y-41019665D02*
X186654715Y-40952910D01*
X186654715Y-40952910D02*
X186788225Y-40886156D01*
X186788225Y-40886156D02*
X186988489Y-40886156D01*
X186988489Y-40886156D02*
X187121998Y-40952910D01*
X187121998Y-40952910D02*
X187188753Y-41019665D01*
X187188753Y-41019665D02*
X187255508Y-41153175D01*
X187255508Y-41153175D02*
X187255508Y-41553703D01*
X187255508Y-41553703D02*
X187188753Y-41687213D01*
X187188753Y-41687213D02*
X187121998Y-41753968D01*
X187121998Y-41753968D02*
X186988489Y-41820722D01*
X186988489Y-41820722D02*
X186788225Y-41820722D01*
X187722791Y-40886156D02*
X187989810Y-41820722D01*
X187989810Y-41820722D02*
X188256829Y-41153175D01*
X188256829Y-41153175D02*
X188523848Y-41820722D01*
X188523848Y-41820722D02*
X188790867Y-40886156D01*
X190326227Y-41753968D02*
X190459736Y-41820722D01*
X190459736Y-41820722D02*
X190726755Y-41820722D01*
X190726755Y-41820722D02*
X190860265Y-41753968D01*
X190860265Y-41753968D02*
X190927019Y-41620458D01*
X190927019Y-41620458D02*
X190927019Y-41553703D01*
X190927019Y-41553703D02*
X190860265Y-41420194D01*
X190860265Y-41420194D02*
X190726755Y-41353439D01*
X190726755Y-41353439D02*
X190526491Y-41353439D01*
X190526491Y-41353439D02*
X190392981Y-41286684D01*
X190392981Y-41286684D02*
X190326227Y-41153175D01*
X190326227Y-41153175D02*
X190326227Y-41086420D01*
X190326227Y-41086420D02*
X190392981Y-40952910D01*
X190392981Y-40952910D02*
X190526491Y-40886156D01*
X190526491Y-40886156D02*
X190726755Y-40886156D01*
X190726755Y-40886156D02*
X190860265Y-40952910D01*
X192061850Y-41753968D02*
X191928341Y-41820722D01*
X191928341Y-41820722D02*
X191661322Y-41820722D01*
X191661322Y-41820722D02*
X191527812Y-41753968D01*
X191527812Y-41753968D02*
X191461058Y-41620458D01*
X191461058Y-41620458D02*
X191461058Y-41086420D01*
X191461058Y-41086420D02*
X191527812Y-40952910D01*
X191527812Y-40952910D02*
X191661322Y-40886156D01*
X191661322Y-40886156D02*
X191928341Y-40886156D01*
X191928341Y-40886156D02*
X192061850Y-40952910D01*
X192061850Y-40952910D02*
X192128605Y-41086420D01*
X192128605Y-41086420D02*
X192128605Y-41219929D01*
X192128605Y-41219929D02*
X191461058Y-41353439D01*
X192729398Y-40886156D02*
X192729398Y-41820722D01*
X192729398Y-41019665D02*
X192796153Y-40952910D01*
X192796153Y-40952910D02*
X192929663Y-40886156D01*
X192929663Y-40886156D02*
X193129927Y-40886156D01*
X193129927Y-40886156D02*
X193263436Y-40952910D01*
X193263436Y-40952910D02*
X193330191Y-41086420D01*
X193330191Y-41086420D02*
X193330191Y-41820722D01*
X193930984Y-41753968D02*
X194064493Y-41820722D01*
X194064493Y-41820722D02*
X194331512Y-41820722D01*
X194331512Y-41820722D02*
X194465022Y-41753968D01*
X194465022Y-41753968D02*
X194531776Y-41620458D01*
X194531776Y-41620458D02*
X194531776Y-41553703D01*
X194531776Y-41553703D02*
X194465022Y-41420194D01*
X194465022Y-41420194D02*
X194331512Y-41353439D01*
X194331512Y-41353439D02*
X194131248Y-41353439D01*
X194131248Y-41353439D02*
X193997738Y-41286684D01*
X193997738Y-41286684D02*
X193930984Y-41153175D01*
X193930984Y-41153175D02*
X193930984Y-41086420D01*
X193930984Y-41086420D02*
X193997738Y-40952910D01*
X193997738Y-40952910D02*
X194131248Y-40886156D01*
X194131248Y-40886156D02*
X194331512Y-40886156D01*
X194331512Y-40886156D02*
X194465022Y-40952910D01*
X195332834Y-41820722D02*
X195199324Y-41753968D01*
X195199324Y-41753968D02*
X195132569Y-41687213D01*
X195132569Y-41687213D02*
X195065815Y-41553703D01*
X195065815Y-41553703D02*
X195065815Y-41153175D01*
X195065815Y-41153175D02*
X195132569Y-41019665D01*
X195132569Y-41019665D02*
X195199324Y-40952910D01*
X195199324Y-40952910D02*
X195332834Y-40886156D01*
X195332834Y-40886156D02*
X195533098Y-40886156D01*
X195533098Y-40886156D02*
X195666607Y-40952910D01*
X195666607Y-40952910D02*
X195733362Y-41019665D01*
X195733362Y-41019665D02*
X195800117Y-41153175D01*
X195800117Y-41153175D02*
X195800117Y-41553703D01*
X195800117Y-41553703D02*
X195733362Y-41687213D01*
X195733362Y-41687213D02*
X195666607Y-41753968D01*
X195666607Y-41753968D02*
X195533098Y-41820722D01*
X195533098Y-41820722D02*
X195332834Y-41820722D01*
X196400909Y-41820722D02*
X196400909Y-40886156D01*
X196400909Y-41153175D02*
X196467664Y-41019665D01*
X196467664Y-41019665D02*
X196534419Y-40952910D01*
X196534419Y-40952910D02*
X196667928Y-40886156D01*
X196667928Y-40886156D02*
X196801438Y-40886156D01*
X198203288Y-40418872D02*
X199071100Y-40418872D01*
X199071100Y-40418872D02*
X198603816Y-40952910D01*
X198603816Y-40952910D02*
X198804081Y-40952910D01*
X198804081Y-40952910D02*
X198937590Y-41019665D01*
X198937590Y-41019665D02*
X199004345Y-41086420D01*
X199004345Y-41086420D02*
X199071100Y-41219929D01*
X199071100Y-41219929D02*
X199071100Y-41553703D01*
X199071100Y-41553703D02*
X199004345Y-41687213D01*
X199004345Y-41687213D02*
X198937590Y-41753968D01*
X198937590Y-41753968D02*
X198804081Y-41820722D01*
X198804081Y-41820722D02*
X198403552Y-41820722D01*
X198403552Y-41820722D02*
X198270043Y-41753968D01*
X198270043Y-41753968D02*
X198203288Y-41687213D01*
X237518095Y-35574819D02*
X237518095Y-34574819D01*
X237518095Y-35051009D02*
X238089523Y-35051009D01*
X238089523Y-35574819D02*
X238089523Y-34574819D01*
X238994285Y-34908152D02*
X238994285Y-35574819D01*
X238756190Y-34527200D02*
X238518095Y-35241485D01*
X238518095Y-35241485D02*
X239137142Y-35241485D01*
X168396666Y-113430419D02*
X168444285Y-113382800D01*
X168444285Y-113382800D02*
X168587142Y-113335180D01*
X168587142Y-113335180D02*
X168682380Y-113335180D01*
X168682380Y-113335180D02*
X168825237Y-113382800D01*
X168825237Y-113382800D02*
X168920475Y-113478038D01*
X168920475Y-113478038D02*
X168968094Y-113573276D01*
X168968094Y-113573276D02*
X169015713Y-113763752D01*
X169015713Y-113763752D02*
X169015713Y-113906609D01*
X169015713Y-113906609D02*
X168968094Y-114097085D01*
X168968094Y-114097085D02*
X168920475Y-114192323D01*
X168920475Y-114192323D02*
X168825237Y-114287561D01*
X168825237Y-114287561D02*
X168682380Y-114335180D01*
X168682380Y-114335180D02*
X168587142Y-114335180D01*
X168587142Y-114335180D02*
X168444285Y-114287561D01*
X168444285Y-114287561D02*
X168396666Y-114239942D01*
X167539523Y-114001847D02*
X167539523Y-113335180D01*
X167777618Y-114382800D02*
X168015713Y-113668514D01*
X168015713Y-113668514D02*
X167396666Y-113668514D01*
X91011905Y-114414819D02*
X91011905Y-113414819D01*
X91011905Y-113414819D02*
X91250000Y-113414819D01*
X91250000Y-113414819D02*
X91392857Y-113462438D01*
X91392857Y-113462438D02*
X91488095Y-113557676D01*
X91488095Y-113557676D02*
X91535714Y-113652914D01*
X91535714Y-113652914D02*
X91583333Y-113843390D01*
X91583333Y-113843390D02*
X91583333Y-113986247D01*
X91583333Y-113986247D02*
X91535714Y-114176723D01*
X91535714Y-114176723D02*
X91488095Y-114271961D01*
X91488095Y-114271961D02*
X91392857Y-114367200D01*
X91392857Y-114367200D02*
X91250000Y-114414819D01*
X91250000Y-114414819D02*
X91011905Y-114414819D01*
X91964286Y-113510057D02*
X92011905Y-113462438D01*
X92011905Y-113462438D02*
X92107143Y-113414819D01*
X92107143Y-113414819D02*
X92345238Y-113414819D01*
X92345238Y-113414819D02*
X92440476Y-113462438D01*
X92440476Y-113462438D02*
X92488095Y-113510057D01*
X92488095Y-113510057D02*
X92535714Y-113605295D01*
X92535714Y-113605295D02*
X92535714Y-113700533D01*
X92535714Y-113700533D02*
X92488095Y-113843390D01*
X92488095Y-113843390D02*
X91916667Y-114414819D01*
X91916667Y-114414819D02*
X92535714Y-114414819D01*
X140979580Y-127986666D02*
X141027200Y-128034285D01*
X141027200Y-128034285D02*
X141074819Y-128177142D01*
X141074819Y-128177142D02*
X141074819Y-128272380D01*
X141074819Y-128272380D02*
X141027200Y-128415237D01*
X141027200Y-128415237D02*
X140931961Y-128510475D01*
X140931961Y-128510475D02*
X140836723Y-128558094D01*
X140836723Y-128558094D02*
X140646247Y-128605713D01*
X140646247Y-128605713D02*
X140503390Y-128605713D01*
X140503390Y-128605713D02*
X140312914Y-128558094D01*
X140312914Y-128558094D02*
X140217676Y-128510475D01*
X140217676Y-128510475D02*
X140122438Y-128415237D01*
X140122438Y-128415237D02*
X140074819Y-128272380D01*
X140074819Y-128272380D02*
X140074819Y-128177142D01*
X140074819Y-128177142D02*
X140122438Y-128034285D01*
X140122438Y-128034285D02*
X140170057Y-127986666D01*
X140074819Y-127653332D02*
X140074819Y-127034285D01*
X140074819Y-127034285D02*
X140455771Y-127367618D01*
X140455771Y-127367618D02*
X140455771Y-127224761D01*
X140455771Y-127224761D02*
X140503390Y-127129523D01*
X140503390Y-127129523D02*
X140551009Y-127081904D01*
X140551009Y-127081904D02*
X140646247Y-127034285D01*
X140646247Y-127034285D02*
X140884342Y-127034285D01*
X140884342Y-127034285D02*
X140979580Y-127081904D01*
X140979580Y-127081904D02*
X141027200Y-127129523D01*
X141027200Y-127129523D02*
X141074819Y-127224761D01*
X141074819Y-127224761D02*
X141074819Y-127510475D01*
X141074819Y-127510475D02*
X141027200Y-127605713D01*
X141027200Y-127605713D02*
X140979580Y-127653332D01*
X90749342Y-60591480D02*
X90701723Y-60639100D01*
X90701723Y-60639100D02*
X90558866Y-60686719D01*
X90558866Y-60686719D02*
X90463628Y-60686719D01*
X90463628Y-60686719D02*
X90320771Y-60639100D01*
X90320771Y-60639100D02*
X90225533Y-60543861D01*
X90225533Y-60543861D02*
X90177914Y-60448623D01*
X90177914Y-60448623D02*
X90130295Y-60258147D01*
X90130295Y-60258147D02*
X90130295Y-60115290D01*
X90130295Y-60115290D02*
X90177914Y-59924814D01*
X90177914Y-59924814D02*
X90225533Y-59829576D01*
X90225533Y-59829576D02*
X90320771Y-59734338D01*
X90320771Y-59734338D02*
X90463628Y-59686719D01*
X90463628Y-59686719D02*
X90558866Y-59686719D01*
X90558866Y-59686719D02*
X90701723Y-59734338D01*
X90701723Y-59734338D02*
X90749342Y-59781957D01*
X91701723Y-60686719D02*
X91130295Y-60686719D01*
X91416009Y-60686719D02*
X91416009Y-59686719D01*
X91416009Y-59686719D02*
X91320771Y-59829576D01*
X91320771Y-59829576D02*
X91225533Y-59924814D01*
X91225533Y-59924814D02*
X91130295Y-59972433D01*
X92035057Y-59686719D02*
X92701723Y-59686719D01*
X92701723Y-59686719D02*
X92273152Y-60686719D01*
D12*
%TO.C,C7*%
X234120000Y-135529800D02*
X234120000Y-134338540D01*
X233485000Y-134894800D02*
X234755000Y-134894800D01*
X231961000Y-134463000D02*
X236279000Y-134463000D01*
X236279000Y-134463000D02*
X236279000Y-127097000D01*
X231961000Y-127097000D02*
X231961000Y-134463000D01*
X236279000Y-127097000D02*
X231961000Y-127097000D01*
D13*
%TO.C,Zone 6*%
X200625000Y-135465000D02*
X200625000Y-136735000D01*
X199355000Y-135465000D02*
X200625000Y-135465000D01*
X197195000Y-137777929D02*
X197195000Y-138175000D01*
X196435000Y-137777929D02*
X196435000Y-138175000D01*
X194655000Y-137777929D02*
X194655000Y-138175000D01*
X193895000Y-137777929D02*
X193895000Y-138175000D01*
X199735000Y-137845000D02*
X199735000Y-138175000D01*
X198975000Y-137845000D02*
X198975000Y-138175000D01*
X200685000Y-138175000D02*
X192945000Y-138175000D01*
X198085000Y-138175000D02*
X198085000Y-140835000D01*
X195545000Y-138175000D02*
X195545000Y-140835000D01*
X192945000Y-138175000D02*
X192945000Y-140835000D01*
X200685000Y-140835000D02*
X200685000Y-138175000D01*
X199735000Y-140835000D02*
X199735000Y-146835000D01*
X199675000Y-140835000D02*
X199675000Y-146835000D01*
X199555000Y-140835000D02*
X199555000Y-146835000D01*
X199435000Y-140835000D02*
X199435000Y-146835000D01*
X199315000Y-140835000D02*
X199315000Y-146835000D01*
X199195000Y-140835000D02*
X199195000Y-146835000D01*
X199075000Y-140835000D02*
X199075000Y-146835000D01*
X197195000Y-140835000D02*
X197195000Y-146835000D01*
X194655000Y-140835000D02*
X194655000Y-146835000D01*
X192945000Y-140835000D02*
X200685000Y-140835000D01*
X199735000Y-146835000D02*
X198975000Y-146835000D01*
X198975000Y-146835000D02*
X198975000Y-140835000D01*
X197195000Y-146835000D02*
X196435000Y-146835000D01*
X196435000Y-146835000D02*
X196435000Y-140835000D01*
X194655000Y-146835000D02*
X193895000Y-146835000D01*
X193895000Y-146835000D02*
X193895000Y-140835000D01*
D12*
%TO.C,C10*%
X201910000Y-125870200D02*
X201910000Y-127061460D01*
X202545000Y-126505200D02*
X201275000Y-126505200D01*
X204069000Y-126937000D02*
X199751000Y-126937000D01*
X199751000Y-126937000D02*
X199751000Y-134303000D01*
X204069000Y-134303000D02*
X204069000Y-126937000D01*
X199751000Y-134303000D02*
X204069000Y-134303000D01*
D14*
%TO.C,J1*%
X83770000Y-41710000D02*
X134570000Y-41710000D01*
X135840000Y-42980000D02*
X135840000Y-139500000D01*
X82500000Y-42980000D02*
X82500000Y-139500000D01*
X134570000Y-59236000D02*
X132030000Y-59236000D01*
X132030000Y-59236000D02*
X132030000Y-64316000D01*
X134570000Y-64316000D02*
X134570000Y-59236000D01*
X132030000Y-64316000D02*
X134570000Y-64316000D01*
X83770000Y-68380000D02*
X86310000Y-68380000D01*
X83770000Y-68380000D02*
X83770000Y-88700000D01*
X134570000Y-84636000D02*
X134570000Y-64316000D01*
X132030000Y-84636000D02*
X132030000Y-64316000D01*
X132030000Y-84636000D02*
X134570000Y-84636000D01*
X134570000Y-86160000D02*
X134570000Y-106480000D01*
X132030000Y-86160000D02*
X134570000Y-86160000D01*
X86310000Y-88700000D02*
X86310000Y-68380000D01*
X86310000Y-88700000D02*
X83770000Y-88700000D01*
X86310000Y-91240000D02*
X83770000Y-91240000D01*
X83770000Y-91240000D02*
X83770000Y-111560000D01*
X134570000Y-106480000D02*
X132030000Y-106480000D01*
X132030000Y-106480000D02*
X132030000Y-86160000D01*
X134570000Y-109020000D02*
X132030000Y-109020000D01*
X132030000Y-109020000D02*
X132030000Y-129340000D01*
X86310000Y-111560000D02*
X86310000Y-91240000D01*
X83770000Y-111560000D02*
X86310000Y-111560000D01*
X86310000Y-114100000D02*
X86310000Y-134420000D01*
X83770000Y-114100000D02*
X86310000Y-114100000D01*
X134570000Y-129340000D02*
X134570000Y-109020000D01*
X132030000Y-129340000D02*
X134570000Y-129340000D01*
X134570000Y-134420000D02*
X88850000Y-134420000D01*
X88850000Y-134420000D02*
X88850000Y-139500000D01*
X86310000Y-134420000D02*
X83770000Y-134420000D01*
X83770000Y-134420000D02*
X83770000Y-114100000D01*
X135840000Y-139500000D02*
X134570000Y-140770000D01*
X134570000Y-139500000D02*
X134570000Y-134420000D01*
X88850000Y-139500000D02*
X134570000Y-139500000D01*
X134570000Y-140770000D02*
X123140000Y-140770000D01*
X123140000Y-140770000D02*
X121870000Y-142040000D01*
X85040000Y-140770000D02*
X83770000Y-140770000D01*
X121870000Y-142040000D02*
X86310000Y-142040000D01*
X86310000Y-142040000D02*
X85040000Y-140770000D01*
X135840000Y-42980000D02*
G75*
G03*
X134570000Y-41710000I-1269999J1D01*
G01*
X83770000Y-41710000D02*
G75*
G03*
X82500000Y-42980000I-1J-1269999D01*
G01*
X82500000Y-139500000D02*
G75*
G03*
X83770000Y-140770000I1270000J0D01*
G01*
X86945000Y-55680000D02*
G75*
G03*
X86945000Y-55680000I-1905000J0D01*
G01*
D12*
%TO.C,C11*%
X223080000Y-126040200D02*
X223080000Y-127231460D01*
X223715000Y-126675200D02*
X222445000Y-126675200D01*
X225239000Y-127107000D02*
X220921000Y-127107000D01*
X220921000Y-127107000D02*
X220921000Y-134473000D01*
X225239000Y-134473000D02*
X225239000Y-127107000D01*
X220921000Y-134473000D02*
X225239000Y-134473000D01*
D15*
%TO.C,Airflow sensor 8*%
X215560000Y-61560000D02*
X215560000Y-73460000D01*
X215560000Y-73460000D02*
X230510000Y-73460000D01*
X230510000Y-61560000D02*
X215560000Y-61560000D01*
X230510000Y-73460000D02*
X230510000Y-61560000D01*
D16*
X222630000Y-74109000D02*
G75*
G03*
X222630000Y-74109000I-100000J0D01*
G01*
D13*
%TO.C,Zone 4*%
X179680000Y-135430000D02*
X179680000Y-136700000D01*
X178410000Y-135430000D02*
X179680000Y-135430000D01*
X176250000Y-137742929D02*
X176250000Y-138140000D01*
X175490000Y-137742929D02*
X175490000Y-138140000D01*
X173710000Y-137742929D02*
X173710000Y-138140000D01*
X172950000Y-137742929D02*
X172950000Y-138140000D01*
X178790000Y-137810000D02*
X178790000Y-138140000D01*
X178030000Y-137810000D02*
X178030000Y-138140000D01*
X179740000Y-138140000D02*
X172000000Y-138140000D01*
X177140000Y-138140000D02*
X177140000Y-140800000D01*
X174600000Y-138140000D02*
X174600000Y-140800000D01*
X172000000Y-138140000D02*
X172000000Y-140800000D01*
X179740000Y-140800000D02*
X179740000Y-138140000D01*
X178790000Y-140800000D02*
X178790000Y-146800000D01*
X178730000Y-140800000D02*
X178730000Y-146800000D01*
X178610000Y-140800000D02*
X178610000Y-146800000D01*
X178490000Y-140800000D02*
X178490000Y-146800000D01*
X178370000Y-140800000D02*
X178370000Y-146800000D01*
X178250000Y-140800000D02*
X178250000Y-146800000D01*
X178130000Y-140800000D02*
X178130000Y-146800000D01*
X176250000Y-140800000D02*
X176250000Y-146800000D01*
X173710000Y-140800000D02*
X173710000Y-146800000D01*
X172000000Y-140800000D02*
X179740000Y-140800000D01*
X178790000Y-146800000D02*
X178030000Y-146800000D01*
X178030000Y-146800000D02*
X178030000Y-140800000D01*
X176250000Y-146800000D02*
X175490000Y-146800000D01*
X175490000Y-146800000D02*
X175490000Y-140800000D01*
X173710000Y-146800000D02*
X172950000Y-146800000D01*
X172950000Y-146800000D02*
X172950000Y-140800000D01*
D15*
%TO.C,Airflow sensor 7*%
X215580000Y-76120000D02*
X215580000Y-88020000D01*
X215580000Y-88020000D02*
X230530000Y-88020000D01*
X230530000Y-76120000D02*
X215580000Y-76120000D01*
X230530000Y-88020000D02*
X230530000Y-76120000D01*
D16*
X222650000Y-88669000D02*
G75*
G03*
X222650000Y-88669000I-100000J0D01*
G01*
D13*
%TO.C,Zone 8*%
X221555000Y-135465000D02*
X221555000Y-136735000D01*
X220285000Y-135465000D02*
X221555000Y-135465000D01*
X218125000Y-137777929D02*
X218125000Y-138175000D01*
X217365000Y-137777929D02*
X217365000Y-138175000D01*
X215585000Y-137777929D02*
X215585000Y-138175000D01*
X214825000Y-137777929D02*
X214825000Y-138175000D01*
X220665000Y-137845000D02*
X220665000Y-138175000D01*
X219905000Y-137845000D02*
X219905000Y-138175000D01*
X221615000Y-138175000D02*
X213875000Y-138175000D01*
X219015000Y-138175000D02*
X219015000Y-140835000D01*
X216475000Y-138175000D02*
X216475000Y-140835000D01*
X213875000Y-138175000D02*
X213875000Y-140835000D01*
X221615000Y-140835000D02*
X221615000Y-138175000D01*
X220665000Y-140835000D02*
X220665000Y-146835000D01*
X220605000Y-140835000D02*
X220605000Y-146835000D01*
X220485000Y-140835000D02*
X220485000Y-146835000D01*
X220365000Y-140835000D02*
X220365000Y-146835000D01*
X220245000Y-140835000D02*
X220245000Y-146835000D01*
X220125000Y-140835000D02*
X220125000Y-146835000D01*
X220005000Y-140835000D02*
X220005000Y-146835000D01*
X218125000Y-140835000D02*
X218125000Y-146835000D01*
X215585000Y-140835000D02*
X215585000Y-146835000D01*
X213875000Y-140835000D02*
X221615000Y-140835000D01*
X220665000Y-146835000D02*
X219905000Y-146835000D01*
X219905000Y-146835000D02*
X219905000Y-140835000D01*
X218125000Y-146835000D02*
X217365000Y-146835000D01*
X217365000Y-146835000D02*
X217365000Y-140835000D01*
X215585000Y-146835000D02*
X214825000Y-146835000D01*
X214825000Y-146835000D02*
X214825000Y-140835000D01*
D12*
%TO.C,U4*%
X224041000Y-123102900D02*
X224041000Y-118022900D01*
X224041000Y-118022900D02*
X213119000Y-118022900D01*
X223914000Y-121705900D02*
X213246000Y-121705900D01*
X213119000Y-123102900D02*
X224041000Y-123102900D01*
X213119000Y-118022900D02*
X213119000Y-123102900D01*
X226022200Y-120220000D02*
G75*
G03*
X226022200Y-120220000I-203200J0D01*
G01*
%TO.C,C8*%
X160060000Y-126010100D02*
X160060000Y-127201360D01*
X160695000Y-126645100D02*
X159425000Y-126645100D01*
X162219000Y-127076900D02*
X157901000Y-127076900D01*
X157901000Y-127076900D02*
X157901000Y-134442900D01*
X162219000Y-134442900D02*
X162219000Y-127076900D01*
X157901000Y-134442900D02*
X162219000Y-134442900D01*
D13*
%TO.C,Zone 3*%
X169340000Y-135460000D02*
X169340000Y-136730000D01*
X168070000Y-135460000D02*
X169340000Y-135460000D01*
X165910000Y-137772929D02*
X165910000Y-138170000D01*
X165150000Y-137772929D02*
X165150000Y-138170000D01*
X163370000Y-137772929D02*
X163370000Y-138170000D01*
X162610000Y-137772929D02*
X162610000Y-138170000D01*
X168450000Y-137840000D02*
X168450000Y-138170000D01*
X167690000Y-137840000D02*
X167690000Y-138170000D01*
X169400000Y-138170000D02*
X161660000Y-138170000D01*
X166800000Y-138170000D02*
X166800000Y-140830000D01*
X164260000Y-138170000D02*
X164260000Y-140830000D01*
X161660000Y-138170000D02*
X161660000Y-140830000D01*
X169400000Y-140830000D02*
X169400000Y-138170000D01*
X168450000Y-140830000D02*
X168450000Y-146830000D01*
X168390000Y-140830000D02*
X168390000Y-146830000D01*
X168270000Y-140830000D02*
X168270000Y-146830000D01*
X168150000Y-140830000D02*
X168150000Y-146830000D01*
X168030000Y-140830000D02*
X168030000Y-146830000D01*
X167910000Y-140830000D02*
X167910000Y-146830000D01*
X167790000Y-140830000D02*
X167790000Y-146830000D01*
X165910000Y-140830000D02*
X165910000Y-146830000D01*
X163370000Y-140830000D02*
X163370000Y-146830000D01*
X161660000Y-140830000D02*
X169400000Y-140830000D01*
X168450000Y-146830000D02*
X167690000Y-146830000D01*
X167690000Y-146830000D02*
X167690000Y-140830000D01*
X165910000Y-146830000D02*
X165150000Y-146830000D01*
X165150000Y-146830000D02*
X165150000Y-140830000D01*
X163370000Y-146830000D02*
X162610000Y-146830000D01*
X162610000Y-146830000D02*
X162610000Y-140830000D01*
D15*
%TO.C,Airflow sensor 1*%
X151620000Y-44250000D02*
X151620000Y-56150000D01*
X151620000Y-56150000D02*
X166570000Y-56150000D01*
X166570000Y-44250000D02*
X151620000Y-44250000D01*
X166570000Y-56150000D02*
X166570000Y-44250000D01*
D16*
X158690000Y-56799000D02*
G75*
G03*
X158690000Y-56799000I-100000J0D01*
G01*
D13*
%TO.C,R4*%
X89130000Y-129450000D02*
X89900000Y-129450000D01*
X89900000Y-128080000D02*
X89900000Y-130820000D01*
X89900000Y-130820000D02*
X96440000Y-130820000D01*
X96440000Y-128080000D02*
X89900000Y-128080000D01*
X96440000Y-130820000D02*
X96440000Y-128080000D01*
X97210000Y-129450000D02*
X96440000Y-129450000D01*
D12*
%TO.C,C1*%
X232270200Y-111760000D02*
X233461460Y-111760000D01*
X232905200Y-111125000D02*
X232905200Y-112395000D01*
X233337000Y-109601000D02*
X233337000Y-113919000D01*
X233337000Y-113919000D02*
X240703000Y-113919000D01*
X240703000Y-109601000D02*
X233337000Y-109601000D01*
X240703000Y-113919000D02*
X240703000Y-109601000D01*
D13*
%TO.C,U5*%
X192630000Y-61140000D02*
X208630000Y-61140000D01*
X192630000Y-77640000D02*
X192630000Y-61140000D01*
X208630000Y-61140000D02*
X208630000Y-77640000D01*
X208630000Y-77640000D02*
X192630000Y-77640000D01*
D15*
%TO.C,Airflow sensor 5*%
X215590000Y-104100000D02*
X215590000Y-116000000D01*
X215590000Y-116000000D02*
X230540000Y-116000000D01*
X230540000Y-104100000D02*
X215590000Y-104100000D01*
X230540000Y-116000000D02*
X230540000Y-104100000D01*
D16*
X222660000Y-116649000D02*
G75*
G03*
X222660000Y-116649000I-100000J0D01*
G01*
D13*
%TO.C,SW1*%
X105360000Y-58260000D02*
X105360000Y-59260000D01*
X104360000Y-58260000D02*
X105360000Y-58260000D01*
X103360000Y-60260000D02*
X100760000Y-60260000D01*
X105310000Y-66260000D02*
X105310000Y-60460000D01*
X98810000Y-66360000D02*
X98810000Y-60360000D01*
X103360000Y-66460000D02*
X100760000Y-66460000D01*
D15*
%TO.C,Airflow sensor 4*%
X199300000Y-44270000D02*
X199300000Y-56170000D01*
X199300000Y-56170000D02*
X214250000Y-56170000D01*
X214250000Y-44270000D02*
X199300000Y-44270000D01*
X214250000Y-56170000D02*
X214250000Y-44270000D01*
D16*
X206370000Y-56819000D02*
G75*
G03*
X206370000Y-56819000I-100000J0D01*
G01*
D13*
%TO.C,Zone 1*%
X147160000Y-135600000D02*
X147160000Y-136870000D01*
X145890000Y-135600000D02*
X147160000Y-135600000D01*
X143730000Y-137912929D02*
X143730000Y-138310000D01*
X142970000Y-137912929D02*
X142970000Y-138310000D01*
X141190000Y-137912929D02*
X141190000Y-138310000D01*
X140430000Y-137912929D02*
X140430000Y-138310000D01*
X146270000Y-137980000D02*
X146270000Y-138310000D01*
X145510000Y-137980000D02*
X145510000Y-138310000D01*
X147220000Y-138310000D02*
X139480000Y-138310000D01*
X144620000Y-138310000D02*
X144620000Y-140970000D01*
X142080000Y-138310000D02*
X142080000Y-140970000D01*
X139480000Y-138310000D02*
X139480000Y-140970000D01*
X147220000Y-140970000D02*
X147220000Y-138310000D01*
X146270000Y-140970000D02*
X146270000Y-146970000D01*
X146210000Y-140970000D02*
X146210000Y-146970000D01*
X146090000Y-140970000D02*
X146090000Y-146970000D01*
X145970000Y-140970000D02*
X145970000Y-146970000D01*
X145850000Y-140970000D02*
X145850000Y-146970000D01*
X145730000Y-140970000D02*
X145730000Y-146970000D01*
X145610000Y-140970000D02*
X145610000Y-146970000D01*
X143730000Y-140970000D02*
X143730000Y-146970000D01*
X141190000Y-140970000D02*
X141190000Y-146970000D01*
X139480000Y-140970000D02*
X147220000Y-140970000D01*
X146270000Y-146970000D02*
X145510000Y-146970000D01*
X145510000Y-146970000D02*
X145510000Y-140970000D01*
X143730000Y-146970000D02*
X142970000Y-146970000D01*
X142970000Y-146970000D02*
X142970000Y-140970000D01*
X141190000Y-146970000D02*
X140430000Y-146970000D01*
X140430000Y-146970000D02*
X140430000Y-140970000D01*
%TO.C,D1*%
X90175000Y-107934000D02*
X90175000Y-108090000D01*
X90175000Y-110250000D02*
X90175000Y-110406000D01*
X93407334Y-108091392D02*
G75*
G03*
X90175001Y-107934485I-1672334J-1078608D01*
G01*
X92776129Y-108090164D02*
G75*
G03*
X90694040Y-108090001I-1041129J-1079836D01*
G01*
X90694040Y-110249999D02*
G75*
G03*
X92776129Y-110249836I1040960J1079999D01*
G01*
X90175001Y-110405515D02*
G75*
G03*
X93407334Y-110248608I1559999J1235515D01*
G01*
D12*
%TO.C,C2*%
X230812400Y-104720000D02*
X232082400Y-104720000D01*
X231447400Y-104085000D02*
X231447400Y-105355000D01*
X239270600Y-104720000D02*
G75*
G03*
X239270600Y-104720000I-3530600J0D01*
G01*
%TO.C,C16*%
X213229900Y-120650000D02*
X212038640Y-120650000D01*
X212594900Y-121285000D02*
X212594900Y-120015000D01*
X212163100Y-122809000D02*
X212163100Y-118491000D01*
X212163100Y-118491000D02*
X204797100Y-118491000D01*
X204797100Y-122809000D02*
X212163100Y-122809000D01*
X204797100Y-118491000D02*
X204797100Y-122809000D01*
D13*
%TO.C,U6*%
X208061600Y-111375400D02*
X194574200Y-111375400D01*
X194574200Y-111375400D02*
X194574200Y-103755400D01*
X194574200Y-103755400D02*
X208061600Y-103755400D01*
X208061600Y-103755400D02*
X208061600Y-111375400D01*
%TO.C,U3*%
X209792800Y-84127900D02*
X190387200Y-84127900D01*
X190387200Y-84127900D02*
X190387200Y-97412100D01*
X190387200Y-97412100D02*
X209792800Y-97412100D01*
X209792800Y-97412100D02*
X209792800Y-84127900D01*
D12*
%TO.C,C15*%
X212580000Y-135577600D02*
X212580000Y-134307600D01*
X211945000Y-134942600D02*
X213215000Y-134942600D01*
X216110600Y-130650000D02*
G75*
G03*
X216110600Y-130650000I-3530600J0D01*
G01*
D15*
%TO.C,Airflow sensor 6*%
X215610000Y-89760000D02*
X215610000Y-101660000D01*
X215610000Y-101660000D02*
X230560000Y-101660000D01*
X230560000Y-89760000D02*
X215610000Y-89760000D01*
X230560000Y-101660000D02*
X230560000Y-89760000D01*
D16*
X222680000Y-102309000D02*
G75*
G03*
X222680000Y-102309000I-100000J0D01*
G01*
D12*
%TO.C,C9*%
X180930000Y-126000200D02*
X180930000Y-127191460D01*
X181565000Y-126635200D02*
X180295000Y-126635200D01*
X183089000Y-127067000D02*
X178771000Y-127067000D01*
X178771000Y-127067000D02*
X178771000Y-134433000D01*
X183089000Y-134433000D02*
X183089000Y-127067000D01*
X178771000Y-134433000D02*
X183089000Y-134433000D01*
D13*
%TO.C,Plenum*%
X232225000Y-135455000D02*
X232225000Y-136725000D01*
X230955000Y-135455000D02*
X232225000Y-135455000D01*
X228795000Y-137767929D02*
X228795000Y-138165000D01*
X228035000Y-137767929D02*
X228035000Y-138165000D01*
X226255000Y-137767929D02*
X226255000Y-138165000D01*
X225495000Y-137767929D02*
X225495000Y-138165000D01*
X231335000Y-137835000D02*
X231335000Y-138165000D01*
X230575000Y-137835000D02*
X230575000Y-138165000D01*
X232285000Y-138165000D02*
X224545000Y-138165000D01*
X229685000Y-138165000D02*
X229685000Y-140825000D01*
X227145000Y-138165000D02*
X227145000Y-140825000D01*
X224545000Y-138165000D02*
X224545000Y-140825000D01*
X232285000Y-140825000D02*
X232285000Y-138165000D01*
X231335000Y-140825000D02*
X231335000Y-146825000D01*
X231275000Y-140825000D02*
X231275000Y-146825000D01*
X231155000Y-140825000D02*
X231155000Y-146825000D01*
X231035000Y-140825000D02*
X231035000Y-146825000D01*
X230915000Y-140825000D02*
X230915000Y-146825000D01*
X230795000Y-140825000D02*
X230795000Y-146825000D01*
X230675000Y-140825000D02*
X230675000Y-146825000D01*
X228795000Y-140825000D02*
X228795000Y-146825000D01*
X226255000Y-140825000D02*
X226255000Y-146825000D01*
X224545000Y-140825000D02*
X232285000Y-140825000D01*
X231335000Y-146825000D02*
X230575000Y-146825000D01*
X230575000Y-146825000D02*
X230575000Y-140825000D01*
X228795000Y-146825000D02*
X228035000Y-146825000D01*
X228035000Y-146825000D02*
X228035000Y-140825000D01*
X226255000Y-146825000D02*
X225495000Y-146825000D01*
X225495000Y-146825000D02*
X225495000Y-140825000D01*
D12*
%TO.C,C12*%
X149130000Y-135537600D02*
X149130000Y-134267600D01*
X148495000Y-134902600D02*
X149765000Y-134902600D01*
X152660600Y-130610000D02*
G75*
G03*
X152660600Y-130610000I-3530600J0D01*
G01*
D13*
%TO.C,U7*%
X96950000Y-70845800D02*
X185850000Y-70845800D01*
X98753400Y-71430000D02*
X103020600Y-71430000D01*
X185850000Y-72039600D02*
X185850000Y-70845800D01*
X185850000Y-72039600D02*
X185850000Y-122839600D01*
X177976000Y-72039600D02*
X177976000Y-70845800D01*
X109650000Y-72039600D02*
X109650000Y-70820400D01*
X96950000Y-72039600D02*
X96950000Y-70845800D01*
X103014000Y-86639200D02*
X103020600Y-71430000D01*
X98760000Y-86639200D02*
X98753400Y-71430000D01*
X98760000Y-86639200D02*
X98760000Y-122159200D01*
X102760000Y-119639200D02*
X102995200Y-119639200D01*
X102760000Y-119639200D02*
X98760000Y-119639200D01*
X103014000Y-122159200D02*
X103014000Y-86639200D01*
X102760000Y-122159200D02*
X103014000Y-122159200D01*
X98760000Y-122159200D02*
X102760000Y-122159200D01*
X185850000Y-122839600D02*
X96950000Y-122839600D01*
X177976000Y-122839600D02*
X177976000Y-72039600D01*
X109650000Y-122839600D02*
X109650000Y-72039600D01*
X96950000Y-122839600D02*
X96950000Y-72039600D01*
X107255051Y-75214600D02*
G75*
G03*
X107255051Y-75214600I-1796051J0D01*
G01*
X183836051Y-75341600D02*
G75*
G03*
X183836051Y-75341600I-1796051J0D01*
G01*
X183836051Y-119283600D02*
G75*
G03*
X183836051Y-119283600I-1796051J0D01*
G01*
X107255051Y-119664600D02*
G75*
G03*
X107255051Y-119664600I-1796051J0D01*
G01*
%TO.C,Zone 2*%
X158560000Y-135530000D02*
X158560000Y-136800000D01*
X157290000Y-135530000D02*
X158560000Y-135530000D01*
X155130000Y-137842929D02*
X155130000Y-138240000D01*
X154370000Y-137842929D02*
X154370000Y-138240000D01*
X152590000Y-137842929D02*
X152590000Y-138240000D01*
X151830000Y-137842929D02*
X151830000Y-138240000D01*
X157670000Y-137910000D02*
X157670000Y-138240000D01*
X156910000Y-137910000D02*
X156910000Y-138240000D01*
X158620000Y-138240000D02*
X150880000Y-138240000D01*
X156020000Y-138240000D02*
X156020000Y-140900000D01*
X153480000Y-138240000D02*
X153480000Y-140900000D01*
X150880000Y-138240000D02*
X150880000Y-140900000D01*
X158620000Y-140900000D02*
X158620000Y-138240000D01*
X157670000Y-140900000D02*
X157670000Y-146900000D01*
X157610000Y-140900000D02*
X157610000Y-146900000D01*
X157490000Y-140900000D02*
X157490000Y-146900000D01*
X157370000Y-140900000D02*
X157370000Y-146900000D01*
X157250000Y-140900000D02*
X157250000Y-146900000D01*
X157130000Y-140900000D02*
X157130000Y-146900000D01*
X157010000Y-140900000D02*
X157010000Y-146900000D01*
X155130000Y-140900000D02*
X155130000Y-146900000D01*
X152590000Y-140900000D02*
X152590000Y-146900000D01*
X150880000Y-140900000D02*
X158620000Y-140900000D01*
X157670000Y-146900000D02*
X156910000Y-146900000D01*
X156910000Y-146900000D02*
X156910000Y-140900000D01*
X155130000Y-146900000D02*
X154370000Y-146900000D01*
X154370000Y-146900000D02*
X154370000Y-140900000D01*
X152590000Y-146900000D02*
X151830000Y-146900000D01*
X151830000Y-146900000D02*
X151830000Y-140900000D01*
%TO.C,J8*%
X243920000Y-126130000D02*
X229220000Y-126130000D01*
X243920000Y-116930000D02*
X243920000Y-126130000D01*
X235120000Y-116930000D02*
X243920000Y-116930000D01*
X230070000Y-126330000D02*
X229020000Y-126330000D01*
X229220000Y-126130000D02*
X229220000Y-123530000D01*
X229220000Y-119630000D02*
X229220000Y-116930000D01*
X229220000Y-116930000D02*
X231120000Y-116930000D01*
X229020000Y-125280000D02*
X229020000Y-126330000D01*
%TO.C,Zone 7*%
X211105000Y-135475000D02*
X211105000Y-136745000D01*
X209835000Y-135475000D02*
X211105000Y-135475000D01*
X207675000Y-137787929D02*
X207675000Y-138185000D01*
X206915000Y-137787929D02*
X206915000Y-138185000D01*
X205135000Y-137787929D02*
X205135000Y-138185000D01*
X204375000Y-137787929D02*
X204375000Y-138185000D01*
X210215000Y-137855000D02*
X210215000Y-138185000D01*
X209455000Y-137855000D02*
X209455000Y-138185000D01*
X211165000Y-138185000D02*
X203425000Y-138185000D01*
X208565000Y-138185000D02*
X208565000Y-140845000D01*
X206025000Y-138185000D02*
X206025000Y-140845000D01*
X203425000Y-138185000D02*
X203425000Y-140845000D01*
X211165000Y-140845000D02*
X211165000Y-138185000D01*
X210215000Y-140845000D02*
X210215000Y-146845000D01*
X210155000Y-140845000D02*
X210155000Y-146845000D01*
X210035000Y-140845000D02*
X210035000Y-146845000D01*
X209915000Y-140845000D02*
X209915000Y-146845000D01*
X209795000Y-140845000D02*
X209795000Y-146845000D01*
X209675000Y-140845000D02*
X209675000Y-146845000D01*
X209555000Y-140845000D02*
X209555000Y-146845000D01*
X207675000Y-140845000D02*
X207675000Y-146845000D01*
X205135000Y-140845000D02*
X205135000Y-146845000D01*
X203425000Y-140845000D02*
X211165000Y-140845000D01*
X210215000Y-146845000D02*
X209455000Y-146845000D01*
X209455000Y-146845000D02*
X209455000Y-140845000D01*
X207675000Y-146845000D02*
X206915000Y-146845000D01*
X206915000Y-146845000D02*
X206915000Y-140845000D01*
X205135000Y-146845000D02*
X204375000Y-146845000D01*
X204375000Y-146845000D02*
X204375000Y-140845000D01*
D15*
%TO.C,Airflow sensor 2*%
X167480000Y-44250000D02*
X167480000Y-56150000D01*
X167480000Y-56150000D02*
X182430000Y-56150000D01*
X182430000Y-44250000D02*
X167480000Y-44250000D01*
X182430000Y-56150000D02*
X182430000Y-44250000D01*
D16*
X174550000Y-56799000D02*
G75*
G03*
X174550000Y-56799000I-100000J0D01*
G01*
D12*
%TO.C,C5*%
X195429800Y-122300000D02*
X194238540Y-122300000D01*
X194794800Y-122935000D02*
X194794800Y-121665000D01*
X194363000Y-124459000D02*
X194363000Y-120141000D01*
X194363000Y-120141000D02*
X186997000Y-120141000D01*
X186997000Y-124459000D02*
X194363000Y-124459000D01*
X186997000Y-120141000D02*
X186997000Y-124459000D01*
D13*
%TO.C,Zone 5*%
X190095000Y-135465000D02*
X190095000Y-136735000D01*
X188825000Y-135465000D02*
X190095000Y-135465000D01*
X186665000Y-137777929D02*
X186665000Y-138175000D01*
X185905000Y-137777929D02*
X185905000Y-138175000D01*
X184125000Y-137777929D02*
X184125000Y-138175000D01*
X183365000Y-137777929D02*
X183365000Y-138175000D01*
X189205000Y-137845000D02*
X189205000Y-138175000D01*
X188445000Y-137845000D02*
X188445000Y-138175000D01*
X190155000Y-138175000D02*
X182415000Y-138175000D01*
X187555000Y-138175000D02*
X187555000Y-140835000D01*
X185015000Y-138175000D02*
X185015000Y-140835000D01*
X182415000Y-138175000D02*
X182415000Y-140835000D01*
X190155000Y-140835000D02*
X190155000Y-138175000D01*
X189205000Y-140835000D02*
X189205000Y-146835000D01*
X189145000Y-140835000D02*
X189145000Y-146835000D01*
X189025000Y-140835000D02*
X189025000Y-146835000D01*
X188905000Y-140835000D02*
X188905000Y-146835000D01*
X188785000Y-140835000D02*
X188785000Y-146835000D01*
X188665000Y-140835000D02*
X188665000Y-146835000D01*
X188545000Y-140835000D02*
X188545000Y-146835000D01*
X186665000Y-140835000D02*
X186665000Y-146835000D01*
X184125000Y-140835000D02*
X184125000Y-146835000D01*
X182415000Y-140835000D02*
X190155000Y-140835000D01*
X189205000Y-146835000D02*
X188445000Y-146835000D01*
X188445000Y-146835000D02*
X188445000Y-140835000D01*
X186665000Y-146835000D02*
X185905000Y-146835000D01*
X185905000Y-146835000D02*
X185905000Y-140835000D01*
X184125000Y-146835000D02*
X183365000Y-146835000D01*
X183365000Y-146835000D02*
X183365000Y-140835000D01*
%TO.C,R5*%
X89130000Y-125300000D02*
X89900000Y-125300000D01*
X89900000Y-123930000D02*
X89900000Y-126670000D01*
X89900000Y-126670000D02*
X96440000Y-126670000D01*
X96440000Y-123930000D02*
X89900000Y-123930000D01*
X96440000Y-126670000D02*
X96440000Y-123930000D01*
X97210000Y-125300000D02*
X96440000Y-125300000D01*
D12*
%TO.C,C18*%
X86642400Y-67260000D02*
X87912400Y-67260000D01*
X87277400Y-66625000D02*
X87277400Y-67895000D01*
X95100600Y-67260000D02*
G75*
G03*
X95100600Y-67260000I-3530600J0D01*
G01*
%TO.C,C14*%
X191590000Y-135647600D02*
X191590000Y-134377600D01*
X190955000Y-135012600D02*
X192225000Y-135012600D01*
X195120600Y-130720000D02*
G75*
G03*
X195120600Y-130720000I-3530600J0D01*
G01*
%TO.C,C13*%
X170730000Y-135317600D02*
X170730000Y-134047600D01*
X170095000Y-134682600D02*
X171365000Y-134682600D01*
X174260600Y-130390000D02*
G75*
G03*
X174260600Y-130390000I-3530600J0D01*
G01*
D15*
%TO.C,Airflow sensor 3*%
X183340000Y-44260000D02*
X183340000Y-56160000D01*
X183340000Y-56160000D02*
X198290000Y-56160000D01*
X198290000Y-44260000D02*
X183340000Y-44260000D01*
X198290000Y-56160000D02*
X198290000Y-44260000D01*
D16*
X190410000Y-56809000D02*
G75*
G03*
X190410000Y-56809000I-100000J0D01*
G01*
D12*
%TO.C,C4*%
X172979800Y-113790000D02*
X171788540Y-113790000D01*
X172344800Y-114425000D02*
X172344800Y-113155000D01*
X171913000Y-115949000D02*
X171913000Y-111631000D01*
X171913000Y-111631000D02*
X164547000Y-111631000D01*
X164547000Y-115949000D02*
X171913000Y-115949000D01*
X164547000Y-111631000D02*
X164547000Y-115949000D01*
D13*
%TO.C,D2*%
X90190000Y-115684000D02*
X90190000Y-115840000D01*
X90190000Y-118000000D02*
X90190000Y-118156000D01*
X93422334Y-115841392D02*
G75*
G03*
X90190001Y-115684485I-1672334J-1078608D01*
G01*
X92791129Y-115840164D02*
G75*
G03*
X90709040Y-115840001I-1041129J-1079836D01*
G01*
X90709040Y-117999999D02*
G75*
G03*
X92791129Y-117999836I1040960J1079999D01*
G01*
X90190001Y-118155515D02*
G75*
G03*
X93422334Y-117998608I1559999J1235515D01*
G01*
D12*
%TO.C,C3*%
X140620000Y-132569800D02*
X140620000Y-131378540D01*
X139985000Y-131934800D02*
X141255000Y-131934800D01*
X138461000Y-131503000D02*
X142779000Y-131503000D01*
X142779000Y-131503000D02*
X142779000Y-124137000D01*
X138461000Y-124137000D02*
X138461000Y-131503000D01*
X142779000Y-124137000D02*
X138461000Y-124137000D01*
%TO.C,C17*%
X86642400Y-60231900D02*
X87833660Y-60231900D01*
X87277400Y-59596900D02*
X87277400Y-60866900D01*
X87709200Y-58072900D02*
X87709200Y-62390900D01*
X87709200Y-62390900D02*
X95075200Y-62390900D01*
X95075200Y-58072900D02*
X87709200Y-58072900D01*
X95075200Y-62390900D02*
X95075200Y-58072900D01*
%TD*%
D17*
%TO.C,J1*%
X85040000Y-55680000D03*
D18*
X85040000Y-69650000D03*
X85040000Y-72190000D03*
X85040000Y-74730000D03*
X85040000Y-77270000D03*
X85040000Y-79810000D03*
X85040000Y-82350000D03*
X85040000Y-84890000D03*
X85040000Y-87430000D03*
X85040000Y-92510000D03*
X85040000Y-95050000D03*
X85040000Y-97590000D03*
X85040000Y-100130000D03*
X85040000Y-102670000D03*
X85040000Y-105210000D03*
X85040000Y-107750000D03*
X85040000Y-110290000D03*
X85040000Y-115370000D03*
X85040000Y-117910000D03*
X85040000Y-120450000D03*
D19*
X85040000Y-122990000D03*
X85040000Y-125530000D03*
X85040000Y-128070000D03*
X85040000Y-130610000D03*
X85040000Y-133150000D03*
D20*
X90120000Y-135441080D03*
X92660000Y-135441080D03*
X95200000Y-135441080D03*
X97740000Y-135441080D03*
X100280000Y-135441080D03*
X102820000Y-135441080D03*
X105360000Y-135441080D03*
X107900000Y-135441080D03*
X110440000Y-135441080D03*
X112980000Y-135441080D03*
X115520000Y-135441080D03*
X118060000Y-135441080D03*
X120600000Y-135441080D03*
X123140000Y-135441080D03*
X125680000Y-135441080D03*
X128220000Y-135441080D03*
X130760000Y-135441080D03*
X133300000Y-135441080D03*
D21*
X90120000Y-138476380D03*
X92660000Y-138476380D03*
X95200000Y-138476380D03*
X97740000Y-138476380D03*
X100280000Y-138476380D03*
X102820000Y-138476380D03*
X105360000Y-138476380D03*
X107900000Y-138476380D03*
X110440000Y-138476380D03*
X112980000Y-138476380D03*
X115520000Y-138476380D03*
X118060000Y-138476380D03*
X120600000Y-138476380D03*
X123140000Y-138476380D03*
X125680000Y-138476380D03*
X128220000Y-138476380D03*
X130760000Y-138476380D03*
X133300000Y-138476380D03*
D19*
X133300000Y-128070000D03*
X133300000Y-125530000D03*
X133300000Y-122990000D03*
X133300000Y-120450000D03*
X133300000Y-117910000D03*
X133300000Y-115370000D03*
X133300000Y-112830000D03*
X133300000Y-110290000D03*
X133300000Y-105210000D03*
X133300000Y-102670000D03*
X133300000Y-100130000D03*
X133300000Y-97590000D03*
X133300000Y-95050000D03*
X133300000Y-92510000D03*
X133300000Y-89970000D03*
X133300000Y-87430000D03*
X133300000Y-83366000D03*
X133300000Y-80826000D03*
X133300000Y-78286000D03*
X133300000Y-75746000D03*
X133300000Y-73206000D03*
X133300000Y-70666000D03*
X133300000Y-68126000D03*
X133300000Y-65586000D03*
X133300000Y-63046000D03*
X133300000Y-60506000D03*
%TD*%
M02*
