%TF.GenerationSoftware,KiCad,Pcbnew,7.0.7*%
%TF.CreationDate,2023-11-29T15:56:53-06:00*%
%TF.ProjectId,MDCM,4d44434d-2e6b-4696-9361-645f70636258,rev?*%
%TF.SameCoordinates,Original*%
%TF.FileFunction,Soldermask,Top*%
%TF.FilePolarity,Negative*%
%FSLAX46Y46*%
G04 Gerber Fmt 4.6, Leading zero omitted, Abs format (unit mm)*
G04 Created by KiCad (PCBNEW 7.0.7) date 2023-11-29 15:56:53*
%MOMM*%
%LPD*%
G01*
G04 APERTURE LIST*
G04 Aperture macros list*
%AMRoundRect*
0 Rectangle with rounded corners*
0 $1 Rounding radius*
0 $2 $3 $4 $5 $6 $7 $8 $9 X,Y pos of 4 corners*
0 Add a 4 corners polygon primitive as box body*
4,1,4,$2,$3,$4,$5,$6,$7,$8,$9,$2,$3,0*
0 Add four circle primitives for the rounded corners*
1,1,$1+$1,$2,$3*
1,1,$1+$1,$4,$5*
1,1,$1+$1,$6,$7*
1,1,$1+$1,$8,$9*
0 Add four rect primitives between the rounded corners*
20,1,$1+$1,$2,$3,$4,$5,0*
20,1,$1+$1,$4,$5,$6,$7,0*
20,1,$1+$1,$6,$7,$8,$9,0*
20,1,$1+$1,$8,$9,$2,$3,0*%
G04 Aperture macros list end*
%ADD10R,1.371600X1.371600*%
%ADD11C,1.371600*%
%ADD12R,1.700000X1.700000*%
%ADD13O,1.700000X1.700000*%
%ADD14C,3.197860*%
%ADD15O,2.199640X1.524000*%
%ADD16O,2.197100X1.524000*%
%ADD17O,1.539240X1.998980*%
%ADD18O,1.536700X1.998980*%
%ADD19C,3.180000*%
%ADD20R,2.100000X2.100000*%
%ADD21C,2.100000*%
%ADD22R,1.778000X1.778000*%
%ADD23C,1.778000*%
%ADD24C,7.000000*%
%ADD25C,1.600000*%
%ADD26O,1.600000X1.600000*%
%ADD27C,1.870000*%
%ADD28R,1.400000X1.600000*%
%ADD29R,1.800000X1.800000*%
%ADD30C,1.800000*%
%ADD31C,1.270000*%
%ADD32O,3.000000X1.500000*%
%ADD33R,3.500000X3.500000*%
%ADD34RoundRect,0.750000X0.750000X1.000000X-0.750000X1.000000X-0.750000X-1.000000X0.750000X-1.000000X0*%
%ADD35RoundRect,0.875000X0.875000X0.875000X-0.875000X0.875000X-0.875000X-0.875000X0.875000X-0.875000X0*%
G04 APERTURE END LIST*
D10*
%TO.C,C7*%
X234120000Y-133320000D03*
D11*
X234120000Y-128240000D03*
%TD*%
D12*
%TO.C,Zone 6*%
X199355000Y-136735000D03*
D13*
X196815000Y-136735000D03*
X194275000Y-136735000D03*
%TD*%
D10*
%TO.C,C10*%
X201910000Y-128080000D03*
D11*
X201910000Y-133160000D03*
%TD*%
D14*
%TO.C,J1*%
X85040000Y-55680000D03*
D15*
X85040000Y-69650000D03*
X85040000Y-72190000D03*
X85040000Y-74730000D03*
X85040000Y-77270000D03*
X85040000Y-79810000D03*
X85040000Y-82350000D03*
X85040000Y-84890000D03*
X85040000Y-87430000D03*
X85040000Y-92510000D03*
X85040000Y-95050000D03*
X85040000Y-97590000D03*
X85040000Y-100130000D03*
X85040000Y-102670000D03*
X85040000Y-105210000D03*
X85040000Y-107750000D03*
X85040000Y-110290000D03*
X85040000Y-115370000D03*
X85040000Y-117910000D03*
X85040000Y-120450000D03*
D16*
X85040000Y-122990000D03*
X85040000Y-125530000D03*
X85040000Y-128070000D03*
X85040000Y-130610000D03*
X85040000Y-133150000D03*
D17*
X90120000Y-135441080D03*
X92660000Y-135441080D03*
X95200000Y-135441080D03*
X97740000Y-135441080D03*
X100280000Y-135441080D03*
X102820000Y-135441080D03*
X105360000Y-135441080D03*
X107900000Y-135441080D03*
X110440000Y-135441080D03*
X112980000Y-135441080D03*
X115520000Y-135441080D03*
X118060000Y-135441080D03*
X120600000Y-135441080D03*
X123140000Y-135441080D03*
X125680000Y-135441080D03*
X128220000Y-135441080D03*
X130760000Y-135441080D03*
X133300000Y-135441080D03*
D18*
X90120000Y-138476380D03*
X92660000Y-138476380D03*
X95200000Y-138476380D03*
X97740000Y-138476380D03*
X100280000Y-138476380D03*
X102820000Y-138476380D03*
X105360000Y-138476380D03*
X107900000Y-138476380D03*
X110440000Y-138476380D03*
X112980000Y-138476380D03*
X115520000Y-138476380D03*
X118060000Y-138476380D03*
X120600000Y-138476380D03*
X123140000Y-138476380D03*
X125680000Y-138476380D03*
X128220000Y-138476380D03*
X130760000Y-138476380D03*
X133300000Y-138476380D03*
D16*
X133300000Y-128070000D03*
X133300000Y-125530000D03*
X133300000Y-122990000D03*
X133300000Y-120450000D03*
X133300000Y-117910000D03*
X133300000Y-115370000D03*
X133300000Y-112830000D03*
X133300000Y-110290000D03*
X133300000Y-105210000D03*
X133300000Y-102670000D03*
X133300000Y-100130000D03*
X133300000Y-97590000D03*
X133300000Y-95050000D03*
X133300000Y-92510000D03*
X133300000Y-89970000D03*
X133300000Y-87430000D03*
X133300000Y-83366000D03*
X133300000Y-80826000D03*
X133300000Y-78286000D03*
X133300000Y-75746000D03*
X133300000Y-73206000D03*
X133300000Y-70666000D03*
X133300000Y-68126000D03*
X133300000Y-65586000D03*
X133300000Y-63046000D03*
X133300000Y-60506000D03*
%TD*%
D10*
%TO.C,C11*%
X223080000Y-128250000D03*
D11*
X223080000Y-133330000D03*
%TD*%
D19*
%TO.C,Airflow sensor 8*%
X226980000Y-69580000D03*
D20*
X222530000Y-69580000D03*
D21*
X218390000Y-65440000D03*
X222530000Y-65440000D03*
X218390000Y-69580000D03*
%TD*%
D12*
%TO.C,Zone 4*%
X178410000Y-136700000D03*
D13*
X175870000Y-136700000D03*
X173330000Y-136700000D03*
%TD*%
D19*
%TO.C,Airflow sensor 7*%
X227000000Y-84140000D03*
D20*
X222550000Y-84140000D03*
D21*
X218410000Y-80000000D03*
X222550000Y-80000000D03*
X218410000Y-84140000D03*
%TD*%
D12*
%TO.C,Zone 8*%
X220285000Y-136735000D03*
D13*
X217745000Y-136735000D03*
X215205000Y-136735000D03*
%TD*%
D22*
%TO.C,U4*%
X221120000Y-120220000D03*
D23*
X218580000Y-120220000D03*
X216040000Y-120220000D03*
%TD*%
D10*
%TO.C,C8*%
X160060000Y-128219900D03*
D11*
X160060000Y-133299900D03*
%TD*%
D12*
%TO.C,Zone 3*%
X168070000Y-136730000D03*
D13*
X165530000Y-136730000D03*
X162990000Y-136730000D03*
%TD*%
D24*
%TO.C,H1*%
X76780000Y-39550000D03*
%TD*%
D19*
%TO.C,Airflow sensor 1*%
X163040000Y-52270000D03*
D20*
X158590000Y-52270000D03*
D21*
X154450000Y-48130000D03*
X158590000Y-48130000D03*
X154450000Y-52270000D03*
%TD*%
D25*
%TO.C,R4*%
X88090000Y-129450000D03*
D26*
X98250000Y-129450000D03*
%TD*%
D10*
%TO.C,C1*%
X234480000Y-111760000D03*
D11*
X239560000Y-111760000D03*
%TD*%
D27*
%TO.C,U5*%
X194260000Y-63060000D03*
X194260000Y-65600000D03*
X194260000Y-68140000D03*
X194260000Y-70680000D03*
X194260000Y-73220000D03*
X194260000Y-75760000D03*
X206960000Y-75760000D03*
X206960000Y-73220000D03*
X206960000Y-70680000D03*
X206960000Y-68140000D03*
X206960000Y-65600000D03*
X206960000Y-63060000D03*
%TD*%
D24*
%TO.C,H3*%
X238270000Y-143840000D03*
%TD*%
D19*
%TO.C,Airflow sensor 5*%
X227010000Y-112120000D03*
D20*
X222560000Y-112120000D03*
D21*
X218420000Y-107980000D03*
X222560000Y-107980000D03*
X218420000Y-112120000D03*
%TD*%
D28*
%TO.C,SW1*%
X104310000Y-59360000D03*
X104310000Y-67360000D03*
X99810000Y-59360000D03*
X99810000Y-67360000D03*
%TD*%
D19*
%TO.C,Airflow sensor 4*%
X210720000Y-52290000D03*
D20*
X206270000Y-52290000D03*
D21*
X202130000Y-48150000D03*
X206270000Y-48150000D03*
X202130000Y-52290000D03*
%TD*%
D24*
%TO.C,H2*%
X76780000Y-143830000D03*
%TD*%
D12*
%TO.C,Zone 1*%
X145890000Y-136870000D03*
D13*
X143350000Y-136870000D03*
X140810000Y-136870000D03*
%TD*%
D29*
%TO.C,D1*%
X90465000Y-109170000D03*
D30*
X93005000Y-109170000D03*
%TD*%
D31*
%TO.C,C2*%
X234490000Y-104720000D03*
X236990000Y-104720000D03*
%TD*%
D10*
%TO.C,C16*%
X211020100Y-120650000D03*
D11*
X205940100Y-120650000D03*
%TD*%
D27*
%TO.C,U6*%
X206690000Y-110080000D03*
X206690000Y-107540000D03*
X206690000Y-105000000D03*
X196022000Y-105025400D03*
X196022000Y-107565400D03*
X196022000Y-110105400D03*
%TD*%
%TO.C,U3*%
X191911200Y-88090300D03*
X191911200Y-90630300D03*
X191911200Y-93170300D03*
X191911200Y-95710300D03*
X208471200Y-95720300D03*
X208471200Y-93180300D03*
X208471200Y-90640300D03*
X208471200Y-88100300D03*
X208471200Y-85560300D03*
%TD*%
D31*
%TO.C,C15*%
X212580000Y-131900000D03*
X212580000Y-129400000D03*
%TD*%
D19*
%TO.C,Airflow sensor 6*%
X227030000Y-97780000D03*
D20*
X222580000Y-97780000D03*
D21*
X218440000Y-93640000D03*
X222580000Y-93640000D03*
X218440000Y-97780000D03*
%TD*%
D10*
%TO.C,C9*%
X180930000Y-128210000D03*
D11*
X180930000Y-133290000D03*
%TD*%
D12*
%TO.C,Plenum*%
X230955000Y-136725000D03*
D13*
X228415000Y-136725000D03*
X225875000Y-136725000D03*
%TD*%
D31*
%TO.C,C12*%
X149130000Y-131860000D03*
X149130000Y-129360000D03*
%TD*%
D32*
%TO.C,U7*%
X100760000Y-120909200D03*
X100760000Y-118369200D03*
X100760000Y-115829200D03*
X100760000Y-113289200D03*
X100760000Y-110749200D03*
X100760000Y-108209200D03*
X100760000Y-105669200D03*
X100760000Y-103129200D03*
X100760000Y-100589200D03*
X100760000Y-98049200D03*
X100760000Y-95509200D03*
X100760000Y-92969200D03*
X100760000Y-90429200D03*
X100760000Y-87889200D03*
X100734600Y-85349200D03*
X100734600Y-82809200D03*
X100734600Y-80269200D03*
X100734600Y-77729200D03*
X100734600Y-75189200D03*
X100734600Y-72649200D03*
%TD*%
D12*
%TO.C,Zone 2*%
X157290000Y-136800000D03*
D13*
X154750000Y-136800000D03*
X152210000Y-136800000D03*
%TD*%
D33*
%TO.C,J8*%
X230120000Y-121530000D03*
D34*
X236120000Y-121530000D03*
D35*
X233120000Y-116830000D03*
%TD*%
D12*
%TO.C,Zone 7*%
X209835000Y-136745000D03*
D13*
X207295000Y-136745000D03*
X204755000Y-136745000D03*
%TD*%
D19*
%TO.C,Airflow sensor 2*%
X178900000Y-52270000D03*
D20*
X174450000Y-52270000D03*
D21*
X170310000Y-48130000D03*
X174450000Y-48130000D03*
X170310000Y-52270000D03*
%TD*%
D10*
%TO.C,C5*%
X193220000Y-122300000D03*
D11*
X188140000Y-122300000D03*
%TD*%
D12*
%TO.C,Zone 5*%
X188825000Y-136735000D03*
D13*
X186285000Y-136735000D03*
X183745000Y-136735000D03*
%TD*%
D25*
%TO.C,R5*%
X88090000Y-125300000D03*
D26*
X98250000Y-125300000D03*
%TD*%
D31*
%TO.C,C18*%
X90320000Y-67260000D03*
X92820000Y-67260000D03*
%TD*%
%TO.C,C14*%
X191590000Y-131970000D03*
X191590000Y-129470000D03*
%TD*%
%TO.C,C13*%
X170730000Y-131640000D03*
X170730000Y-129140000D03*
%TD*%
D19*
%TO.C,Airflow sensor 3*%
X194760000Y-52280000D03*
D20*
X190310000Y-52280000D03*
D21*
X186170000Y-48140000D03*
X190310000Y-48140000D03*
X186170000Y-52280000D03*
%TD*%
D24*
%TO.C,H4*%
X238280000Y-39620000D03*
%TD*%
D10*
%TO.C,C4*%
X170770000Y-113790000D03*
D11*
X165690000Y-113790000D03*
%TD*%
D29*
%TO.C,D2*%
X90480000Y-116920000D03*
D30*
X93020000Y-116920000D03*
%TD*%
D10*
%TO.C,C3*%
X140620000Y-130360000D03*
D11*
X140620000Y-125280000D03*
%TD*%
D10*
%TO.C,C17*%
X88852200Y-60231900D03*
D11*
X93932200Y-60231900D03*
%TD*%
D25*
%TO.C,R3*%
X152920000Y-100140000D03*
D26*
X142760000Y-100140000D03*
%TD*%
D25*
%TO.C,R1*%
X152940000Y-91850000D03*
D26*
X142780000Y-91850000D03*
%TD*%
D25*
%TO.C,R2*%
X152930000Y-96030000D03*
D26*
X142770000Y-96030000D03*
%TD*%
M02*
