%TF.GenerationSoftware,KiCad,Pcbnew,7.0.7*%
%TF.CreationDate,2023-11-29T15:56:28-06:00*%
%TF.ProjectId,MDCM,4d44434d-2e6b-4696-9361-645f70636258,rev?*%
%TF.SameCoordinates,Original*%
%TF.FileFunction,Drillmap*%
%TF.FilePolarity,Positive*%
%FSLAX45Y45*%
G04 Gerber Fmt 4.5, Leading zero omitted, Abs format (unit mm)*
G04 Created by KiCad (PCBNEW 7.0.7) date 2023-11-29 15:56:28*
%MOMM*%
%LPD*%
G01*
G04 APERTURE LIST*
%ADD10C,0.100000*%
%ADD11C,0.200000*%
%ADD12C,0.040000*%
%ADD13C,0.076200*%
%ADD14C,0.080000*%
%ADD15C,0.086360*%
%ADD16C,0.090000*%
%ADD17C,0.100076*%
%ADD18C,0.101000*%
%ADD19C,0.127000*%
%ADD20C,0.140000*%
%ADD21C,0.350000*%
G04 APERTURE END LIST*
D10*
X7035000Y-3368000D02*
X24433000Y-3368000D01*
X24433000Y-14980000D01*
X7035000Y-14980000D01*
X7035000Y-3368000D01*
D11*
D12*
X7705000Y-9053000D02*
X7745000Y-9093000D01*
X7745000Y-9053000D02*
X7705000Y-9093000D01*
X7907000Y-8351000D02*
X7947000Y-8391000D01*
X7947000Y-8351000D02*
X7907000Y-8391000D01*
X9071000Y-8348000D02*
X9111000Y-8388000D01*
X9111000Y-8348000D02*
X9071000Y-8388000D01*
X11023000Y-14472000D02*
X11063000Y-14512000D01*
X11063000Y-14472000D02*
X11023000Y-14512000D01*
X11475000Y-9331000D02*
X11515000Y-9371000D01*
X11515000Y-9331000D02*
X11475000Y-9371000D01*
X11779770Y-9163230D02*
X11819770Y-9203230D01*
X11819770Y-9163230D02*
X11779770Y-9203230D01*
X11786000Y-11939000D02*
X11826000Y-11979000D01*
X11826000Y-11939000D02*
X11786000Y-11979000D01*
X12034000Y-12309000D02*
X12074000Y-12349000D01*
X12074000Y-12309000D02*
X12034000Y-12349000D01*
X12090000Y-7831000D02*
X12130000Y-7871000D01*
X12130000Y-7831000D02*
X12090000Y-7871000D01*
X12108000Y-8014000D02*
X12148000Y-8054000D01*
X12148000Y-8014000D02*
X12108000Y-8054000D01*
X12161000Y-9967000D02*
X12201000Y-10007000D01*
X12201000Y-9967000D02*
X12161000Y-10007000D01*
X12192000Y-8516000D02*
X12232000Y-8556000D01*
X12232000Y-8516000D02*
X12192000Y-8556000D01*
X12375000Y-7833000D02*
X12415000Y-7873000D01*
X12415000Y-7833000D02*
X12375000Y-7873000D01*
X12569000Y-8264000D02*
X12609000Y-8304000D01*
X12609000Y-8264000D02*
X12569000Y-8304000D01*
X12671000Y-8774000D02*
X12711000Y-8814000D01*
X12711000Y-8774000D02*
X12671000Y-8814000D01*
X12796000Y-8768000D02*
X12836000Y-8808000D01*
X12836000Y-8768000D02*
X12796000Y-8808000D01*
X12800000Y-8313000D02*
X12840000Y-8353000D01*
X12840000Y-8313000D02*
X12800000Y-8353000D01*
X12906000Y-10169000D02*
X12946000Y-10209000D01*
X12946000Y-10169000D02*
X12906000Y-10209000D01*
X12911000Y-9860000D02*
X12951000Y-9900000D01*
X12951000Y-9860000D02*
X12911000Y-9900000D01*
X13027770Y-9984230D02*
X13067770Y-10024230D01*
X13067770Y-9984230D02*
X13027770Y-10024230D01*
X14164050Y-7445900D02*
X14204050Y-7485900D01*
X14204050Y-7445900D02*
X14164050Y-7485900D01*
X14175050Y-8472000D02*
X14215050Y-8512000D01*
X14215050Y-8472000D02*
X14175050Y-8512000D01*
X14305050Y-8051000D02*
X14345050Y-8091000D01*
X14345050Y-8051000D02*
X14305050Y-8091000D01*
X14814000Y-8471000D02*
X14854000Y-8511000D01*
X14854000Y-8471000D02*
X14814000Y-8511000D01*
X14889000Y-7448000D02*
X14929000Y-7488000D01*
X14929000Y-7448000D02*
X14889000Y-7488000D01*
X14897436Y-8083323D02*
X14937436Y-8123323D01*
X14937436Y-8083323D02*
X14897436Y-8123323D01*
X14954000Y-8415000D02*
X14994000Y-8455000D01*
X14994000Y-8415000D02*
X14954000Y-8455000D01*
X15434000Y-12197000D02*
X15474000Y-12237000D01*
X15474000Y-12197000D02*
X15434000Y-12237000D01*
X15515000Y-12124000D02*
X15555000Y-12164000D01*
X15555000Y-12124000D02*
X15515000Y-12164000D01*
X15589000Y-12048000D02*
X15629000Y-12088000D01*
X15629000Y-12048000D02*
X15589000Y-12088000D01*
X15915000Y-7257000D02*
X15955000Y-7297000D01*
X15955000Y-7257000D02*
X15915000Y-7297000D01*
X16001000Y-7330000D02*
X16041000Y-7370000D01*
X16041000Y-7330000D02*
X16001000Y-7370000D01*
X16096000Y-7402450D02*
X16136000Y-7442450D01*
X16136000Y-7402450D02*
X16096000Y-7442450D01*
X16207000Y-7477000D02*
X16247000Y-7517000D01*
X16247000Y-7477000D02*
X16207000Y-7517000D01*
X18125000Y-8634000D02*
X18165000Y-8674000D01*
X18165000Y-8634000D02*
X18125000Y-8674000D01*
X18125000Y-9064000D02*
X18165000Y-9104000D01*
X18165000Y-9064000D02*
X18125000Y-9104000D01*
X18444000Y-8043000D02*
X18484000Y-8083000D01*
X18484000Y-8043000D02*
X18444000Y-8083000D01*
X18518000Y-9165000D02*
X18558000Y-9205000D01*
X18558000Y-9165000D02*
X18518000Y-9205000D01*
X18525000Y-8999000D02*
X18565000Y-9039000D01*
X18565000Y-8999000D02*
X18525000Y-9039000D01*
X18568450Y-7479000D02*
X18608450Y-7519000D01*
X18608450Y-7479000D02*
X18568450Y-7519000D01*
X18568450Y-7641000D02*
X18608450Y-7681000D01*
X18608450Y-7641000D02*
X18568450Y-7681000D01*
X18574000Y-7920000D02*
X18614000Y-7960000D01*
X18614000Y-7920000D02*
X18574000Y-7960000D01*
X18782950Y-8121000D02*
X18822950Y-8161000D01*
X18822950Y-8121000D02*
X18782950Y-8161000D01*
X18786000Y-8240000D02*
X18826000Y-8280000D01*
X18826000Y-8240000D02*
X18786000Y-8280000D01*
X18818000Y-9000000D02*
X18858000Y-9040000D01*
X18858000Y-9000000D02*
X18818000Y-9040000D01*
X18820000Y-9162000D02*
X18860000Y-9202000D01*
X18860000Y-9162000D02*
X18820000Y-9202000D01*
X18850000Y-8354000D02*
X18890000Y-8394000D01*
X18890000Y-8354000D02*
X18850000Y-8394000D01*
X20551000Y-8349000D02*
X20591000Y-8389000D01*
X20591000Y-8349000D02*
X20551000Y-8389000D01*
X20552000Y-8243000D02*
X20592000Y-8283000D01*
X20592000Y-8243000D02*
X20552000Y-8283000D01*
X20977000Y-11506000D02*
X21017000Y-11546000D01*
X21017000Y-11506000D02*
X20977000Y-11546000D01*
X21172000Y-9872000D02*
X21212000Y-9912000D01*
X21212000Y-9872000D02*
X21172000Y-9912000D01*
X21217000Y-11507000D02*
X21257000Y-11547000D01*
X21257000Y-11507000D02*
X21217000Y-11547000D01*
X21369000Y-7912000D02*
X21409000Y-7952000D01*
X21409000Y-7912000D02*
X21369000Y-7952000D01*
X21419000Y-6746000D02*
X21459000Y-6786000D01*
X21459000Y-6746000D02*
X21419000Y-6786000D01*
X21459000Y-9511000D02*
X21499000Y-9551000D01*
X21499000Y-9511000D02*
X21459000Y-9551000D01*
X21460000Y-9872000D02*
X21500000Y-9912000D01*
X21500000Y-9872000D02*
X21460000Y-9912000D01*
X21464000Y-8349000D02*
X21504000Y-8389000D01*
X21504000Y-8349000D02*
X21464000Y-8389000D01*
X21470000Y-7239000D02*
X21510000Y-7279000D01*
X21510000Y-7239000D02*
X21470000Y-7279000D01*
D13*
X9070100Y-6726000D02*
G75*
G03*
X9070100Y-6726000I-38100J0D01*
G01*
X9320100Y-6726000D02*
G75*
G03*
X9320100Y-6726000I-38100J0D01*
G01*
X14951100Y-12936000D02*
G75*
G03*
X14951100Y-12936000I-38100J0D01*
G01*
X14951100Y-13186000D02*
G75*
G03*
X14951100Y-13186000I-38100J0D01*
G01*
X17111100Y-12914000D02*
G75*
G03*
X17111100Y-12914000I-38100J0D01*
G01*
X17111100Y-13164000D02*
G75*
G03*
X17111100Y-13164000I-38100J0D01*
G01*
X19197100Y-12947000D02*
G75*
G03*
X19197100Y-12947000I-38100J0D01*
G01*
X19197100Y-13197000D02*
G75*
G03*
X19197100Y-13197000I-38100J0D01*
G01*
X21296100Y-12940000D02*
G75*
G03*
X21296100Y-12940000I-38100J0D01*
G01*
X21296100Y-13190000D02*
G75*
G03*
X21296100Y-13190000I-38100J0D01*
G01*
X23487100Y-10472000D02*
G75*
G03*
X23487100Y-10472000I-38100J0D01*
G01*
X23737100Y-10472000D02*
G75*
G03*
X23737100Y-10472000I-38100J0D01*
G01*
D14*
X8809000Y-12490000D02*
X8809000Y-12570000D01*
X8769000Y-12530000D02*
X8849000Y-12530000D01*
X8809000Y-12905000D02*
X8809000Y-12985000D01*
X8769000Y-12945000D02*
X8849000Y-12945000D01*
X9825000Y-12490000D02*
X9825000Y-12570000D01*
X9785000Y-12530000D02*
X9865000Y-12530000D01*
X9825000Y-12905000D02*
X9825000Y-12985000D01*
X9785000Y-12945000D02*
X9865000Y-12945000D01*
X10073460Y-7224920D02*
X10073460Y-7304920D01*
X10033460Y-7264920D02*
X10113460Y-7264920D01*
X10073460Y-7478920D02*
X10073460Y-7558920D01*
X10033460Y-7518920D02*
X10113460Y-7518920D01*
X10073460Y-7732920D02*
X10073460Y-7812920D01*
X10033460Y-7772920D02*
X10113460Y-7772920D01*
X10073460Y-7986920D02*
X10073460Y-8066920D01*
X10033460Y-8026920D02*
X10113460Y-8026920D01*
X10073460Y-8240920D02*
X10073460Y-8320920D01*
X10033460Y-8280920D02*
X10113460Y-8280920D01*
X10073460Y-8494920D02*
X10073460Y-8574920D01*
X10033460Y-8534920D02*
X10113460Y-8534920D01*
X10076000Y-8748920D02*
X10076000Y-8828920D01*
X10036000Y-8788920D02*
X10116000Y-8788920D01*
X10076000Y-9002920D02*
X10076000Y-9082920D01*
X10036000Y-9042920D02*
X10116000Y-9042920D01*
X10076000Y-9256920D02*
X10076000Y-9336920D01*
X10036000Y-9296920D02*
X10116000Y-9296920D01*
X10076000Y-9510920D02*
X10076000Y-9590920D01*
X10036000Y-9550920D02*
X10116000Y-9550920D01*
X10076000Y-9764920D02*
X10076000Y-9844920D01*
X10036000Y-9804920D02*
X10116000Y-9804920D01*
X10076000Y-10018920D02*
X10076000Y-10098920D01*
X10036000Y-10058920D02*
X10116000Y-10058920D01*
X10076000Y-10272920D02*
X10076000Y-10352920D01*
X10036000Y-10312920D02*
X10116000Y-10312920D01*
X10076000Y-10526920D02*
X10076000Y-10606920D01*
X10036000Y-10566920D02*
X10116000Y-10566920D01*
X10076000Y-10780920D02*
X10076000Y-10860920D01*
X10036000Y-10820920D02*
X10116000Y-10820920D01*
X10076000Y-11034920D02*
X10076000Y-11114920D01*
X10036000Y-11074920D02*
X10116000Y-11074920D01*
X10076000Y-11288920D02*
X10076000Y-11368920D01*
X10036000Y-11328920D02*
X10116000Y-11328920D01*
X10076000Y-11542920D02*
X10076000Y-11622920D01*
X10036000Y-11582920D02*
X10116000Y-11582920D01*
X10076000Y-11796920D02*
X10076000Y-11876920D01*
X10036000Y-11836920D02*
X10116000Y-11836920D01*
X10076000Y-12050920D02*
X10076000Y-12130920D01*
X10036000Y-12090920D02*
X10116000Y-12090920D01*
X14276000Y-9974000D02*
X14276000Y-10054000D01*
X14236000Y-10014000D02*
X14316000Y-10014000D01*
X14277000Y-9563000D02*
X14277000Y-9643000D01*
X14237000Y-9603000D02*
X14317000Y-9603000D01*
X14278000Y-9145000D02*
X14278000Y-9225000D01*
X14238000Y-9185000D02*
X14318000Y-9185000D01*
X15292000Y-9974000D02*
X15292000Y-10054000D01*
X15252000Y-10014000D02*
X15332000Y-10014000D01*
X15293000Y-9563000D02*
X15293000Y-9643000D01*
X15253000Y-9603000D02*
X15333000Y-9603000D01*
X15294000Y-9145000D02*
X15294000Y-9225000D01*
X15254000Y-9185000D02*
X15334000Y-9185000D01*
D15*
X8915753Y-6053723D02*
X8915753Y-5992657D01*
X8854687Y-5992657D01*
X8854687Y-6053723D01*
X8915753Y-6053723D01*
X9423753Y-6053723D02*
X9423753Y-5992657D01*
X9362687Y-5992657D01*
X9362687Y-6053723D01*
X9423753Y-6053723D01*
X14092533Y-12558533D02*
X14092533Y-12497467D01*
X14031467Y-12497467D01*
X14031467Y-12558533D01*
X14092533Y-12558533D01*
X14092533Y-13066533D02*
X14092533Y-13005467D01*
X14031467Y-13005467D01*
X14031467Y-13066533D01*
X14092533Y-13066533D01*
X16036533Y-12852523D02*
X16036533Y-12791457D01*
X15975467Y-12791457D01*
X15975467Y-12852523D01*
X16036533Y-12852523D01*
X16036533Y-13360523D02*
X16036533Y-13299457D01*
X15975467Y-13299457D01*
X15975467Y-13360523D01*
X16036533Y-13360523D01*
X16599533Y-11409533D02*
X16599533Y-11348467D01*
X16538467Y-11348467D01*
X16538467Y-11409533D01*
X16599533Y-11409533D01*
X17107533Y-11409533D02*
X17107533Y-11348467D01*
X17046467Y-11348467D01*
X17046467Y-11409533D01*
X17107533Y-11409533D01*
X18123533Y-12851533D02*
X18123533Y-12790467D01*
X18062467Y-12790467D01*
X18062467Y-12851533D01*
X18123533Y-12851533D01*
X18123533Y-13359533D02*
X18123533Y-13298467D01*
X18062467Y-13298467D01*
X18062467Y-13359533D01*
X18123533Y-13359533D01*
X18844533Y-12260533D02*
X18844533Y-12199467D01*
X18783467Y-12199467D01*
X18783467Y-12260533D01*
X18844533Y-12260533D01*
X19352533Y-12260533D02*
X19352533Y-12199467D01*
X19291467Y-12199467D01*
X19291467Y-12260533D01*
X19352533Y-12260533D01*
X20221533Y-12838533D02*
X20221533Y-12777467D01*
X20160467Y-12777467D01*
X20160467Y-12838533D01*
X20221533Y-12838533D01*
X20221533Y-13346533D02*
X20221533Y-13285467D01*
X20160467Y-13285467D01*
X20160467Y-13346533D01*
X20221533Y-13346533D01*
X20624543Y-12095533D02*
X20624543Y-12034467D01*
X20563477Y-12034467D01*
X20563477Y-12095533D01*
X20624543Y-12095533D01*
X21132543Y-12095533D02*
X21132543Y-12034467D01*
X21071477Y-12034467D01*
X21071477Y-12095533D01*
X21132543Y-12095533D01*
X22338533Y-12855533D02*
X22338533Y-12794467D01*
X22277467Y-12794467D01*
X22277467Y-12855533D01*
X22338533Y-12855533D01*
X22338533Y-13363533D02*
X22338533Y-13302467D01*
X22277467Y-13302467D01*
X22277467Y-13363533D01*
X22338533Y-13363533D01*
X23442533Y-12854533D02*
X23442533Y-12793467D01*
X23381467Y-12793467D01*
X23381467Y-12854533D01*
X23442533Y-12854533D01*
X23442533Y-13362533D02*
X23442533Y-13301467D01*
X23381467Y-13301467D01*
X23381467Y-13362533D01*
X23442533Y-13362533D01*
X23478533Y-11206533D02*
X23478533Y-11145467D01*
X23417467Y-11145467D01*
X23417467Y-11206533D01*
X23478533Y-11206533D01*
X23986533Y-11206533D02*
X23986533Y-11145467D01*
X23925467Y-11145467D01*
X23925467Y-11206533D01*
X23986533Y-11206533D01*
D16*
X9046500Y-10962000D02*
X9091500Y-10917000D01*
X9046500Y-10872000D01*
X9001500Y-10917000D01*
X9046500Y-10962000D01*
X9048000Y-11737000D02*
X9093000Y-11692000D01*
X9048000Y-11647000D01*
X9003000Y-11692000D01*
X9048000Y-11737000D01*
X9300500Y-10962000D02*
X9345500Y-10917000D01*
X9300500Y-10872000D01*
X9255500Y-10917000D01*
X9300500Y-10962000D01*
X9302000Y-11737000D02*
X9347000Y-11692000D01*
X9302000Y-11647000D01*
X9257000Y-11692000D01*
X9302000Y-11737000D01*
D10*
X14031000Y-13637000D02*
X14131000Y-13737000D01*
X14131000Y-13637000D02*
X14031000Y-13737000D01*
X14131000Y-13687000D02*
G75*
G03*
X14131000Y-13687000I-50000J0D01*
G01*
X14285000Y-13637000D02*
X14385000Y-13737000D01*
X14385000Y-13637000D02*
X14285000Y-13737000D01*
X14385000Y-13687000D02*
G75*
G03*
X14385000Y-13687000I-50000J0D01*
G01*
X14539000Y-13637000D02*
X14639000Y-13737000D01*
X14639000Y-13637000D02*
X14539000Y-13737000D01*
X14639000Y-13687000D02*
G75*
G03*
X14639000Y-13687000I-50000J0D01*
G01*
X15171000Y-13630000D02*
X15271000Y-13730000D01*
X15271000Y-13630000D02*
X15171000Y-13730000D01*
X15271000Y-13680000D02*
G75*
G03*
X15271000Y-13680000I-50000J0D01*
G01*
X15425000Y-13630000D02*
X15525000Y-13730000D01*
X15525000Y-13630000D02*
X15425000Y-13730000D01*
X15525000Y-13680000D02*
G75*
G03*
X15525000Y-13680000I-50000J0D01*
G01*
X15679000Y-13630000D02*
X15779000Y-13730000D01*
X15779000Y-13630000D02*
X15679000Y-13730000D01*
X15779000Y-13680000D02*
G75*
G03*
X15779000Y-13680000I-50000J0D01*
G01*
X16249000Y-13623000D02*
X16349000Y-13723000D01*
X16349000Y-13623000D02*
X16249000Y-13723000D01*
X16349000Y-13673000D02*
G75*
G03*
X16349000Y-13673000I-50000J0D01*
G01*
X16503000Y-13623000D02*
X16603000Y-13723000D01*
X16603000Y-13623000D02*
X16503000Y-13723000D01*
X16603000Y-13673000D02*
G75*
G03*
X16603000Y-13673000I-50000J0D01*
G01*
X16757000Y-13623000D02*
X16857000Y-13723000D01*
X16857000Y-13623000D02*
X16757000Y-13723000D01*
X16857000Y-13673000D02*
G75*
G03*
X16857000Y-13673000I-50000J0D01*
G01*
X17283000Y-13620000D02*
X17383000Y-13720000D01*
X17383000Y-13620000D02*
X17283000Y-13720000D01*
X17383000Y-13670000D02*
G75*
G03*
X17383000Y-13670000I-50000J0D01*
G01*
X17537000Y-13620000D02*
X17637000Y-13720000D01*
X17637000Y-13620000D02*
X17537000Y-13720000D01*
X17637000Y-13670000D02*
G75*
G03*
X17637000Y-13670000I-50000J0D01*
G01*
X17791000Y-13620000D02*
X17891000Y-13720000D01*
X17891000Y-13620000D02*
X17791000Y-13720000D01*
X17891000Y-13670000D02*
G75*
G03*
X17891000Y-13670000I-50000J0D01*
G01*
X18324500Y-13623500D02*
X18424500Y-13723500D01*
X18424500Y-13623500D02*
X18324500Y-13723500D01*
X18424500Y-13673500D02*
G75*
G03*
X18424500Y-13673500I-50000J0D01*
G01*
X18578500Y-13623500D02*
X18678500Y-13723500D01*
X18678500Y-13623500D02*
X18578500Y-13723500D01*
X18678500Y-13673500D02*
G75*
G03*
X18678500Y-13673500I-50000J0D01*
G01*
X18832500Y-13623500D02*
X18932500Y-13723500D01*
X18932500Y-13623500D02*
X18832500Y-13723500D01*
X18932500Y-13673500D02*
G75*
G03*
X18932500Y-13673500I-50000J0D01*
G01*
X19377500Y-13623500D02*
X19477500Y-13723500D01*
X19477500Y-13623500D02*
X19377500Y-13723500D01*
X19477500Y-13673500D02*
G75*
G03*
X19477500Y-13673500I-50000J0D01*
G01*
X19631500Y-13623500D02*
X19731500Y-13723500D01*
X19731500Y-13623500D02*
X19631500Y-13723500D01*
X19731500Y-13673500D02*
G75*
G03*
X19731500Y-13673500I-50000J0D01*
G01*
X19885500Y-13623500D02*
X19985500Y-13723500D01*
X19985500Y-13623500D02*
X19885500Y-13723500D01*
X19985500Y-13673500D02*
G75*
G03*
X19985500Y-13673500I-50000J0D01*
G01*
X20425500Y-13624500D02*
X20525500Y-13724500D01*
X20525500Y-13624500D02*
X20425500Y-13724500D01*
X20525500Y-13674500D02*
G75*
G03*
X20525500Y-13674500I-50000J0D01*
G01*
X20679500Y-13624500D02*
X20779500Y-13724500D01*
X20779500Y-13624500D02*
X20679500Y-13724500D01*
X20779500Y-13674500D02*
G75*
G03*
X20779500Y-13674500I-50000J0D01*
G01*
X20933500Y-13624500D02*
X21033500Y-13724500D01*
X21033500Y-13624500D02*
X20933500Y-13724500D01*
X21033500Y-13674500D02*
G75*
G03*
X21033500Y-13674500I-50000J0D01*
G01*
X21470500Y-13623500D02*
X21570500Y-13723500D01*
X21570500Y-13623500D02*
X21470500Y-13723500D01*
X21570500Y-13673500D02*
G75*
G03*
X21570500Y-13673500I-50000J0D01*
G01*
X21724500Y-13623500D02*
X21824500Y-13723500D01*
X21824500Y-13623500D02*
X21724500Y-13723500D01*
X21824500Y-13673500D02*
G75*
G03*
X21824500Y-13673500I-50000J0D01*
G01*
X21978500Y-13623500D02*
X22078500Y-13723500D01*
X22078500Y-13623500D02*
X21978500Y-13723500D01*
X22078500Y-13673500D02*
G75*
G03*
X22078500Y-13673500I-50000J0D01*
G01*
X22537500Y-13622500D02*
X22637500Y-13722500D01*
X22637500Y-13622500D02*
X22537500Y-13722500D01*
X22637500Y-13672500D02*
G75*
G03*
X22637500Y-13672500I-50000J0D01*
G01*
X22791500Y-13622500D02*
X22891500Y-13722500D01*
X22891500Y-13622500D02*
X22791500Y-13722500D01*
X22891500Y-13672500D02*
G75*
G03*
X22891500Y-13672500I-50000J0D01*
G01*
X22962000Y-12103000D02*
X23062000Y-12203000D01*
X23062000Y-12103000D02*
X22962000Y-12203000D01*
X23062000Y-12153000D02*
G75*
G03*
X23062000Y-12153000I-50000J0D01*
G01*
D11*
X23062000Y-12253000D02*
X23062000Y-12053000D01*
X23062000Y-12053000D02*
G75*
G03*
X22962000Y-12053000I-50000J0D01*
G01*
X22962000Y-12053000D02*
X22962000Y-12253000D01*
X22962000Y-12253000D02*
G75*
G03*
X23062000Y-12253000I50000J0D01*
G01*
D10*
X23045500Y-13622500D02*
X23145500Y-13722500D01*
X23145500Y-13622500D02*
X23045500Y-13722500D01*
X23145500Y-13672500D02*
G75*
G03*
X23145500Y-13672500I-50000J0D01*
G01*
X23262000Y-11633000D02*
X23362000Y-11733000D01*
X23362000Y-11633000D02*
X23262000Y-11733000D01*
X23362000Y-11683000D02*
G75*
G03*
X23362000Y-11683000I-50000J0D01*
G01*
D11*
X23412000Y-11633000D02*
X23212000Y-11633000D01*
X23212000Y-11633000D02*
G75*
G03*
X23212000Y-11733000I0J-50000D01*
G01*
X23212000Y-11733000D02*
X23412000Y-11733000D01*
X23412000Y-11733000D02*
G75*
G03*
X23412000Y-11633000I0J50000D01*
G01*
D10*
X23562000Y-12103000D02*
X23662000Y-12203000D01*
X23662000Y-12103000D02*
X23562000Y-12203000D01*
X23662000Y-12153000D02*
G75*
G03*
X23662000Y-12153000I-50000J0D01*
G01*
D11*
X23662000Y-12253000D02*
X23662000Y-12053000D01*
X23662000Y-12053000D02*
G75*
G03*
X23562000Y-12053000I-50000J0D01*
G01*
X23562000Y-12053000D02*
X23562000Y-12253000D01*
X23562000Y-12253000D02*
G75*
G03*
X23662000Y-12253000I50000J0D01*
G01*
D17*
X8453962Y-6914962D02*
X8554038Y-7015038D01*
X8554038Y-6914962D02*
X8453962Y-7015038D01*
X8504000Y-6914962D02*
X8504000Y-7015038D01*
X8453962Y-6965000D02*
X8554038Y-6965000D01*
X8453962Y-7168962D02*
X8554038Y-7269038D01*
X8554038Y-7168962D02*
X8453962Y-7269038D01*
X8504000Y-7168962D02*
X8504000Y-7269038D01*
X8453962Y-7219000D02*
X8554038Y-7219000D01*
X8453962Y-7422962D02*
X8554038Y-7523038D01*
X8554038Y-7422962D02*
X8453962Y-7523038D01*
X8504000Y-7422962D02*
X8504000Y-7523038D01*
X8453962Y-7473000D02*
X8554038Y-7473000D01*
X8453962Y-7676962D02*
X8554038Y-7777038D01*
X8554038Y-7676962D02*
X8453962Y-7777038D01*
X8504000Y-7676962D02*
X8504000Y-7777038D01*
X8453962Y-7727000D02*
X8554038Y-7727000D01*
X8453962Y-7930962D02*
X8554038Y-8031038D01*
X8554038Y-7930962D02*
X8453962Y-8031038D01*
X8504000Y-7930962D02*
X8504000Y-8031038D01*
X8453962Y-7981000D02*
X8554038Y-7981000D01*
X8453962Y-8184962D02*
X8554038Y-8285038D01*
X8554038Y-8184962D02*
X8453962Y-8285038D01*
X8504000Y-8184962D02*
X8504000Y-8285038D01*
X8453962Y-8235000D02*
X8554038Y-8235000D01*
X8453962Y-8438962D02*
X8554038Y-8539038D01*
X8554038Y-8438962D02*
X8453962Y-8539038D01*
X8504000Y-8438962D02*
X8504000Y-8539038D01*
X8453962Y-8489000D02*
X8554038Y-8489000D01*
X8453962Y-8692962D02*
X8554038Y-8793038D01*
X8554038Y-8692962D02*
X8453962Y-8793038D01*
X8504000Y-8692962D02*
X8504000Y-8793038D01*
X8453962Y-8743000D02*
X8554038Y-8743000D01*
X8453962Y-9200962D02*
X8554038Y-9301038D01*
X8554038Y-9200962D02*
X8453962Y-9301038D01*
X8504000Y-9200962D02*
X8504000Y-9301038D01*
X8453962Y-9251000D02*
X8554038Y-9251000D01*
X8453962Y-9454962D02*
X8554038Y-9555038D01*
X8554038Y-9454962D02*
X8453962Y-9555038D01*
X8504000Y-9454962D02*
X8504000Y-9555038D01*
X8453962Y-9505000D02*
X8554038Y-9505000D01*
X8453962Y-9708962D02*
X8554038Y-9809038D01*
X8554038Y-9708962D02*
X8453962Y-9809038D01*
X8504000Y-9708962D02*
X8504000Y-9809038D01*
X8453962Y-9759000D02*
X8554038Y-9759000D01*
X8453962Y-9962962D02*
X8554038Y-10063038D01*
X8554038Y-9962962D02*
X8453962Y-10063038D01*
X8504000Y-9962962D02*
X8504000Y-10063038D01*
X8453962Y-10013000D02*
X8554038Y-10013000D01*
X8453962Y-10216962D02*
X8554038Y-10317038D01*
X8554038Y-10216962D02*
X8453962Y-10317038D01*
X8504000Y-10216962D02*
X8504000Y-10317038D01*
X8453962Y-10267000D02*
X8554038Y-10267000D01*
X8453962Y-10470962D02*
X8554038Y-10571038D01*
X8554038Y-10470962D02*
X8453962Y-10571038D01*
X8504000Y-10470962D02*
X8504000Y-10571038D01*
X8453962Y-10521000D02*
X8554038Y-10521000D01*
X8453962Y-10724962D02*
X8554038Y-10825038D01*
X8554038Y-10724962D02*
X8453962Y-10825038D01*
X8504000Y-10724962D02*
X8504000Y-10825038D01*
X8453962Y-10775000D02*
X8554038Y-10775000D01*
X8453962Y-10978962D02*
X8554038Y-11079038D01*
X8554038Y-10978962D02*
X8453962Y-11079038D01*
X8504000Y-10978962D02*
X8504000Y-11079038D01*
X8453962Y-11029000D02*
X8554038Y-11029000D01*
X8453962Y-11486962D02*
X8554038Y-11587038D01*
X8554038Y-11486962D02*
X8453962Y-11587038D01*
X8504000Y-11486962D02*
X8504000Y-11587038D01*
X8453962Y-11537000D02*
X8554038Y-11537000D01*
X8453962Y-11740962D02*
X8554038Y-11841038D01*
X8554038Y-11740962D02*
X8453962Y-11841038D01*
X8504000Y-11740962D02*
X8504000Y-11841038D01*
X8453962Y-11791000D02*
X8554038Y-11791000D01*
X8453962Y-11994962D02*
X8554038Y-12095038D01*
X8554038Y-11994962D02*
X8453962Y-12095038D01*
X8504000Y-11994962D02*
X8504000Y-12095038D01*
X8453962Y-12045000D02*
X8554038Y-12045000D01*
X8453962Y-12248962D02*
X8554038Y-12349038D01*
X8554038Y-12248962D02*
X8453962Y-12349038D01*
X8504000Y-12248962D02*
X8504000Y-12349038D01*
X8453962Y-12299000D02*
X8554038Y-12299000D01*
X8453962Y-12502962D02*
X8554038Y-12603038D01*
X8554038Y-12502962D02*
X8453962Y-12603038D01*
X8504000Y-12502962D02*
X8504000Y-12603038D01*
X8453962Y-12553000D02*
X8554038Y-12553000D01*
X8453962Y-12756962D02*
X8554038Y-12857038D01*
X8554038Y-12756962D02*
X8453962Y-12857038D01*
X8504000Y-12756962D02*
X8504000Y-12857038D01*
X8453962Y-12807000D02*
X8554038Y-12807000D01*
X8453962Y-13010962D02*
X8554038Y-13111038D01*
X8554038Y-13010962D02*
X8453962Y-13111038D01*
X8504000Y-13010962D02*
X8504000Y-13111038D01*
X8453962Y-13061000D02*
X8554038Y-13061000D01*
X8453962Y-13264962D02*
X8554038Y-13365038D01*
X8554038Y-13264962D02*
X8453962Y-13365038D01*
X8504000Y-13264962D02*
X8504000Y-13365038D01*
X8453962Y-13315000D02*
X8554038Y-13315000D01*
X8961962Y-13518962D02*
X9062038Y-13619038D01*
X9062038Y-13518962D02*
X8961962Y-13619038D01*
X9012000Y-13518962D02*
X9012000Y-13619038D01*
X8961962Y-13569000D02*
X9062038Y-13569000D01*
X8961962Y-13772962D02*
X9062038Y-13873038D01*
X9062038Y-13772962D02*
X8961962Y-13873038D01*
X9012000Y-13772962D02*
X9012000Y-13873038D01*
X8961962Y-13823000D02*
X9062038Y-13823000D01*
X9215962Y-13518962D02*
X9316038Y-13619038D01*
X9316038Y-13518962D02*
X9215962Y-13619038D01*
X9266000Y-13518962D02*
X9266000Y-13619038D01*
X9215962Y-13569000D02*
X9316038Y-13569000D01*
X9215962Y-13772962D02*
X9316038Y-13873038D01*
X9316038Y-13772962D02*
X9215962Y-13873038D01*
X9266000Y-13772962D02*
X9266000Y-13873038D01*
X9215962Y-13823000D02*
X9316038Y-13823000D01*
X9469962Y-13518962D02*
X9570038Y-13619038D01*
X9570038Y-13518962D02*
X9469962Y-13619038D01*
X9520000Y-13518962D02*
X9520000Y-13619038D01*
X9469962Y-13569000D02*
X9570038Y-13569000D01*
X9469962Y-13772962D02*
X9570038Y-13873038D01*
X9570038Y-13772962D02*
X9469962Y-13873038D01*
X9520000Y-13772962D02*
X9520000Y-13873038D01*
X9469962Y-13823000D02*
X9570038Y-13823000D01*
X9723962Y-13518962D02*
X9824038Y-13619038D01*
X9824038Y-13518962D02*
X9723962Y-13619038D01*
X9774000Y-13518962D02*
X9774000Y-13619038D01*
X9723962Y-13569000D02*
X9824038Y-13569000D01*
X9723962Y-13772962D02*
X9824038Y-13873038D01*
X9824038Y-13772962D02*
X9723962Y-13873038D01*
X9774000Y-13772962D02*
X9774000Y-13873038D01*
X9723962Y-13823000D02*
X9824038Y-13823000D01*
X9977962Y-13518962D02*
X10078038Y-13619038D01*
X10078038Y-13518962D02*
X9977962Y-13619038D01*
X10028000Y-13518962D02*
X10028000Y-13619038D01*
X9977962Y-13569000D02*
X10078038Y-13569000D01*
X9977962Y-13772962D02*
X10078038Y-13873038D01*
X10078038Y-13772962D02*
X9977962Y-13873038D01*
X10028000Y-13772962D02*
X10028000Y-13873038D01*
X9977962Y-13823000D02*
X10078038Y-13823000D01*
X10231962Y-13518962D02*
X10332038Y-13619038D01*
X10332038Y-13518962D02*
X10231962Y-13619038D01*
X10282000Y-13518962D02*
X10282000Y-13619038D01*
X10231962Y-13569000D02*
X10332038Y-13569000D01*
X10231962Y-13772962D02*
X10332038Y-13873038D01*
X10332038Y-13772962D02*
X10231962Y-13873038D01*
X10282000Y-13772962D02*
X10282000Y-13873038D01*
X10231962Y-13823000D02*
X10332038Y-13823000D01*
X10485962Y-13518962D02*
X10586038Y-13619038D01*
X10586038Y-13518962D02*
X10485962Y-13619038D01*
X10536000Y-13518962D02*
X10536000Y-13619038D01*
X10485962Y-13569000D02*
X10586038Y-13569000D01*
X10485962Y-13772962D02*
X10586038Y-13873038D01*
X10586038Y-13772962D02*
X10485962Y-13873038D01*
X10536000Y-13772962D02*
X10536000Y-13873038D01*
X10485962Y-13823000D02*
X10586038Y-13823000D01*
X10739962Y-13518962D02*
X10840038Y-13619038D01*
X10840038Y-13518962D02*
X10739962Y-13619038D01*
X10790000Y-13518962D02*
X10790000Y-13619038D01*
X10739962Y-13569000D02*
X10840038Y-13569000D01*
X10739962Y-13772962D02*
X10840038Y-13873038D01*
X10840038Y-13772962D02*
X10739962Y-13873038D01*
X10790000Y-13772962D02*
X10790000Y-13873038D01*
X10739962Y-13823000D02*
X10840038Y-13823000D01*
X10993962Y-13518962D02*
X11094038Y-13619038D01*
X11094038Y-13518962D02*
X10993962Y-13619038D01*
X11044000Y-13518962D02*
X11044000Y-13619038D01*
X10993962Y-13569000D02*
X11094038Y-13569000D01*
X10993962Y-13772962D02*
X11094038Y-13873038D01*
X11094038Y-13772962D02*
X10993962Y-13873038D01*
X11044000Y-13772962D02*
X11044000Y-13873038D01*
X10993962Y-13823000D02*
X11094038Y-13823000D01*
X11247962Y-13518962D02*
X11348038Y-13619038D01*
X11348038Y-13518962D02*
X11247962Y-13619038D01*
X11298000Y-13518962D02*
X11298000Y-13619038D01*
X11247962Y-13569000D02*
X11348038Y-13569000D01*
X11247962Y-13772962D02*
X11348038Y-13873038D01*
X11348038Y-13772962D02*
X11247962Y-13873038D01*
X11298000Y-13772962D02*
X11298000Y-13873038D01*
X11247962Y-13823000D02*
X11348038Y-13823000D01*
X11501962Y-13518962D02*
X11602038Y-13619038D01*
X11602038Y-13518962D02*
X11501962Y-13619038D01*
X11552000Y-13518962D02*
X11552000Y-13619038D01*
X11501962Y-13569000D02*
X11602038Y-13569000D01*
X11501962Y-13772962D02*
X11602038Y-13873038D01*
X11602038Y-13772962D02*
X11501962Y-13873038D01*
X11552000Y-13772962D02*
X11552000Y-13873038D01*
X11501962Y-13823000D02*
X11602038Y-13823000D01*
X11755962Y-13518962D02*
X11856038Y-13619038D01*
X11856038Y-13518962D02*
X11755962Y-13619038D01*
X11806000Y-13518962D02*
X11806000Y-13619038D01*
X11755962Y-13569000D02*
X11856038Y-13569000D01*
X11755962Y-13772962D02*
X11856038Y-13873038D01*
X11856038Y-13772962D02*
X11755962Y-13873038D01*
X11806000Y-13772962D02*
X11806000Y-13873038D01*
X11755962Y-13823000D02*
X11856038Y-13823000D01*
X12009962Y-13518962D02*
X12110038Y-13619038D01*
X12110038Y-13518962D02*
X12009962Y-13619038D01*
X12060000Y-13518962D02*
X12060000Y-13619038D01*
X12009962Y-13569000D02*
X12110038Y-13569000D01*
X12009962Y-13772962D02*
X12110038Y-13873038D01*
X12110038Y-13772962D02*
X12009962Y-13873038D01*
X12060000Y-13772962D02*
X12060000Y-13873038D01*
X12009962Y-13823000D02*
X12110038Y-13823000D01*
X12263962Y-13518962D02*
X12364038Y-13619038D01*
X12364038Y-13518962D02*
X12263962Y-13619038D01*
X12314000Y-13518962D02*
X12314000Y-13619038D01*
X12263962Y-13569000D02*
X12364038Y-13569000D01*
X12263962Y-13772962D02*
X12364038Y-13873038D01*
X12364038Y-13772962D02*
X12263962Y-13873038D01*
X12314000Y-13772962D02*
X12314000Y-13873038D01*
X12263962Y-13823000D02*
X12364038Y-13823000D01*
X12517962Y-13518962D02*
X12618038Y-13619038D01*
X12618038Y-13518962D02*
X12517962Y-13619038D01*
X12568000Y-13518962D02*
X12568000Y-13619038D01*
X12517962Y-13569000D02*
X12618038Y-13569000D01*
X12517962Y-13772962D02*
X12618038Y-13873038D01*
X12618038Y-13772962D02*
X12517962Y-13873038D01*
X12568000Y-13772962D02*
X12568000Y-13873038D01*
X12517962Y-13823000D02*
X12618038Y-13823000D01*
X12771962Y-13518962D02*
X12872038Y-13619038D01*
X12872038Y-13518962D02*
X12771962Y-13619038D01*
X12822000Y-13518962D02*
X12822000Y-13619038D01*
X12771962Y-13569000D02*
X12872038Y-13569000D01*
X12771962Y-13772962D02*
X12872038Y-13873038D01*
X12872038Y-13772962D02*
X12771962Y-13873038D01*
X12822000Y-13772962D02*
X12822000Y-13873038D01*
X12771962Y-13823000D02*
X12872038Y-13823000D01*
X13025962Y-13518962D02*
X13126038Y-13619038D01*
X13126038Y-13518962D02*
X13025962Y-13619038D01*
X13076000Y-13518962D02*
X13076000Y-13619038D01*
X13025962Y-13569000D02*
X13126038Y-13569000D01*
X13025962Y-13772962D02*
X13126038Y-13873038D01*
X13126038Y-13772962D02*
X13025962Y-13873038D01*
X13076000Y-13772962D02*
X13076000Y-13873038D01*
X13025962Y-13823000D02*
X13126038Y-13823000D01*
X13279962Y-6000562D02*
X13380038Y-6100638D01*
X13380038Y-6000562D02*
X13279962Y-6100638D01*
X13330000Y-6000562D02*
X13330000Y-6100638D01*
X13279962Y-6050600D02*
X13380038Y-6050600D01*
X13279962Y-6254562D02*
X13380038Y-6354638D01*
X13380038Y-6254562D02*
X13279962Y-6354638D01*
X13330000Y-6254562D02*
X13330000Y-6354638D01*
X13279962Y-6304600D02*
X13380038Y-6304600D01*
X13279962Y-6508562D02*
X13380038Y-6608638D01*
X13380038Y-6508562D02*
X13279962Y-6608638D01*
X13330000Y-6508562D02*
X13330000Y-6608638D01*
X13279962Y-6558600D02*
X13380038Y-6558600D01*
X13279962Y-6762562D02*
X13380038Y-6862638D01*
X13380038Y-6762562D02*
X13279962Y-6862638D01*
X13330000Y-6762562D02*
X13330000Y-6862638D01*
X13279962Y-6812600D02*
X13380038Y-6812600D01*
X13279962Y-7016562D02*
X13380038Y-7116638D01*
X13380038Y-7016562D02*
X13279962Y-7116638D01*
X13330000Y-7016562D02*
X13330000Y-7116638D01*
X13279962Y-7066600D02*
X13380038Y-7066600D01*
X13279962Y-7270562D02*
X13380038Y-7370638D01*
X13380038Y-7270562D02*
X13279962Y-7370638D01*
X13330000Y-7270562D02*
X13330000Y-7370638D01*
X13279962Y-7320600D02*
X13380038Y-7320600D01*
X13279962Y-7524562D02*
X13380038Y-7624638D01*
X13380038Y-7524562D02*
X13279962Y-7624638D01*
X13330000Y-7524562D02*
X13330000Y-7624638D01*
X13279962Y-7574600D02*
X13380038Y-7574600D01*
X13279962Y-7778562D02*
X13380038Y-7878638D01*
X13380038Y-7778562D02*
X13279962Y-7878638D01*
X13330000Y-7778562D02*
X13330000Y-7878638D01*
X13279962Y-7828600D02*
X13380038Y-7828600D01*
X13279962Y-8032562D02*
X13380038Y-8132638D01*
X13380038Y-8032562D02*
X13279962Y-8132638D01*
X13330000Y-8032562D02*
X13330000Y-8132638D01*
X13279962Y-8082600D02*
X13380038Y-8082600D01*
X13279962Y-8286562D02*
X13380038Y-8386638D01*
X13380038Y-8286562D02*
X13279962Y-8386638D01*
X13330000Y-8286562D02*
X13330000Y-8386638D01*
X13279962Y-8336600D02*
X13380038Y-8336600D01*
X13279962Y-8692962D02*
X13380038Y-8793038D01*
X13380038Y-8692962D02*
X13279962Y-8793038D01*
X13330000Y-8692962D02*
X13330000Y-8793038D01*
X13279962Y-8743000D02*
X13380038Y-8743000D01*
X13279962Y-8946962D02*
X13380038Y-9047038D01*
X13380038Y-8946962D02*
X13279962Y-9047038D01*
X13330000Y-8946962D02*
X13330000Y-9047038D01*
X13279962Y-8997000D02*
X13380038Y-8997000D01*
X13279962Y-9200962D02*
X13380038Y-9301038D01*
X13380038Y-9200962D02*
X13279962Y-9301038D01*
X13330000Y-9200962D02*
X13330000Y-9301038D01*
X13279962Y-9251000D02*
X13380038Y-9251000D01*
X13279962Y-9454962D02*
X13380038Y-9555038D01*
X13380038Y-9454962D02*
X13279962Y-9555038D01*
X13330000Y-9454962D02*
X13330000Y-9555038D01*
X13279962Y-9505000D02*
X13380038Y-9505000D01*
X13279962Y-9708962D02*
X13380038Y-9809038D01*
X13380038Y-9708962D02*
X13279962Y-9809038D01*
X13330000Y-9708962D02*
X13330000Y-9809038D01*
X13279962Y-9759000D02*
X13380038Y-9759000D01*
X13279962Y-9962962D02*
X13380038Y-10063038D01*
X13380038Y-9962962D02*
X13279962Y-10063038D01*
X13330000Y-9962962D02*
X13330000Y-10063038D01*
X13279962Y-10013000D02*
X13380038Y-10013000D01*
X13279962Y-10216962D02*
X13380038Y-10317038D01*
X13380038Y-10216962D02*
X13279962Y-10317038D01*
X13330000Y-10216962D02*
X13330000Y-10317038D01*
X13279962Y-10267000D02*
X13380038Y-10267000D01*
X13279962Y-10470962D02*
X13380038Y-10571038D01*
X13380038Y-10470962D02*
X13279962Y-10571038D01*
X13330000Y-10470962D02*
X13330000Y-10571038D01*
X13279962Y-10521000D02*
X13380038Y-10521000D01*
X13279962Y-10978962D02*
X13380038Y-11079038D01*
X13380038Y-10978962D02*
X13279962Y-11079038D01*
X13330000Y-10978962D02*
X13330000Y-11079038D01*
X13279962Y-11029000D02*
X13380038Y-11029000D01*
X13279962Y-11232962D02*
X13380038Y-11333038D01*
X13380038Y-11232962D02*
X13279962Y-11333038D01*
X13330000Y-11232962D02*
X13330000Y-11333038D01*
X13279962Y-11283000D02*
X13380038Y-11283000D01*
X13279962Y-11486962D02*
X13380038Y-11587038D01*
X13380038Y-11486962D02*
X13279962Y-11587038D01*
X13330000Y-11486962D02*
X13330000Y-11587038D01*
X13279962Y-11537000D02*
X13380038Y-11537000D01*
X13279962Y-11740962D02*
X13380038Y-11841038D01*
X13380038Y-11740962D02*
X13279962Y-11841038D01*
X13330000Y-11740962D02*
X13330000Y-11841038D01*
X13279962Y-11791000D02*
X13380038Y-11791000D01*
X13279962Y-11994962D02*
X13380038Y-12095038D01*
X13380038Y-11994962D02*
X13279962Y-12095038D01*
X13330000Y-11994962D02*
X13330000Y-12095038D01*
X13279962Y-12045000D02*
X13380038Y-12045000D01*
X13279962Y-12248962D02*
X13380038Y-12349038D01*
X13380038Y-12248962D02*
X13279962Y-12349038D01*
X13330000Y-12248962D02*
X13330000Y-12349038D01*
X13279962Y-12299000D02*
X13380038Y-12299000D01*
X13279962Y-12502962D02*
X13380038Y-12603038D01*
X13380038Y-12502962D02*
X13279962Y-12603038D01*
X13330000Y-12502962D02*
X13330000Y-12603038D01*
X13279962Y-12553000D02*
X13380038Y-12553000D01*
X13279962Y-12756962D02*
X13380038Y-12857038D01*
X13380038Y-12756962D02*
X13279962Y-12857038D01*
X13330000Y-12756962D02*
X13330000Y-12857038D01*
X13279962Y-12807000D02*
X13380038Y-12807000D01*
X13279962Y-13518962D02*
X13380038Y-13619038D01*
X13380038Y-13518962D02*
X13279962Y-13619038D01*
X13330000Y-13518962D02*
X13330000Y-13619038D01*
X13279962Y-13569000D02*
X13380038Y-13569000D01*
X13279962Y-13772962D02*
X13380038Y-13873038D01*
X13380038Y-13772962D02*
X13279962Y-13873038D01*
X13330000Y-13772962D02*
X13330000Y-13873038D01*
X13279962Y-13823000D02*
X13380038Y-13823000D01*
D18*
X19140620Y-8758530D02*
X19241620Y-8859530D01*
X19241620Y-8758530D02*
X19140620Y-8859530D01*
X19226829Y-8844739D02*
X19226829Y-8773321D01*
X19155411Y-8773321D01*
X19155411Y-8844739D01*
X19226829Y-8844739D01*
X19140620Y-9012530D02*
X19241620Y-9113530D01*
X19241620Y-9012530D02*
X19140620Y-9113530D01*
X19226829Y-9098739D02*
X19226829Y-9027321D01*
X19155411Y-9027321D01*
X19155411Y-9098739D01*
X19226829Y-9098739D01*
X19140620Y-9266530D02*
X19241620Y-9367530D01*
X19241620Y-9266530D02*
X19140620Y-9367530D01*
X19226829Y-9352739D02*
X19226829Y-9281321D01*
X19155411Y-9281321D01*
X19155411Y-9352739D01*
X19226829Y-9352739D01*
X19140620Y-9520530D02*
X19241620Y-9621530D01*
X19241620Y-9520530D02*
X19140620Y-9621530D01*
X19226829Y-9606739D02*
X19226829Y-9535321D01*
X19155411Y-9535321D01*
X19155411Y-9606739D01*
X19226829Y-9606739D01*
X19375500Y-6255500D02*
X19476500Y-6356500D01*
X19476500Y-6255500D02*
X19375500Y-6356500D01*
X19461709Y-6341709D02*
X19461709Y-6270291D01*
X19390291Y-6270291D01*
X19390291Y-6341709D01*
X19461709Y-6341709D01*
X19375500Y-6509500D02*
X19476500Y-6610500D01*
X19476500Y-6509500D02*
X19375500Y-6610500D01*
X19461709Y-6595709D02*
X19461709Y-6524291D01*
X19390291Y-6524291D01*
X19390291Y-6595709D01*
X19461709Y-6595709D01*
X19375500Y-6763500D02*
X19476500Y-6864500D01*
X19476500Y-6763500D02*
X19375500Y-6864500D01*
X19461709Y-6849709D02*
X19461709Y-6778291D01*
X19390291Y-6778291D01*
X19390291Y-6849709D01*
X19461709Y-6849709D01*
X19375500Y-7017500D02*
X19476500Y-7118500D01*
X19476500Y-7017500D02*
X19375500Y-7118500D01*
X19461709Y-7103709D02*
X19461709Y-7032291D01*
X19390291Y-7032291D01*
X19390291Y-7103709D01*
X19461709Y-7103709D01*
X19375500Y-7271500D02*
X19476500Y-7372500D01*
X19476500Y-7271500D02*
X19375500Y-7372500D01*
X19461709Y-7357709D02*
X19461709Y-7286291D01*
X19390291Y-7286291D01*
X19390291Y-7357709D01*
X19461709Y-7357709D01*
X19375500Y-7525500D02*
X19476500Y-7626500D01*
X19476500Y-7525500D02*
X19375500Y-7626500D01*
X19461709Y-7611709D02*
X19461709Y-7540291D01*
X19390291Y-7540291D01*
X19390291Y-7611709D01*
X19461709Y-7611709D01*
X19551700Y-10452040D02*
X19652700Y-10553040D01*
X19652700Y-10452040D02*
X19551700Y-10553040D01*
X19637909Y-10538249D02*
X19637909Y-10466831D01*
X19566491Y-10466831D01*
X19566491Y-10538249D01*
X19637909Y-10538249D01*
X19551700Y-10706040D02*
X19652700Y-10807040D01*
X19652700Y-10706040D02*
X19551700Y-10807040D01*
X19637909Y-10792249D02*
X19637909Y-10720831D01*
X19566491Y-10720831D01*
X19566491Y-10792249D01*
X19637909Y-10792249D01*
X19551700Y-10960040D02*
X19652700Y-11061040D01*
X19652700Y-10960040D02*
X19551700Y-11061040D01*
X19637909Y-11046249D02*
X19637909Y-10974831D01*
X19566491Y-10974831D01*
X19566491Y-11046249D01*
X19637909Y-11046249D01*
X20618500Y-10449500D02*
X20719500Y-10550500D01*
X20719500Y-10449500D02*
X20618500Y-10550500D01*
X20704709Y-10535709D02*
X20704709Y-10464291D01*
X20633291Y-10464291D01*
X20633291Y-10535709D01*
X20704709Y-10535709D01*
X20618500Y-10703500D02*
X20719500Y-10804500D01*
X20719500Y-10703500D02*
X20618500Y-10804500D01*
X20704709Y-10789709D02*
X20704709Y-10718291D01*
X20633291Y-10718291D01*
X20633291Y-10789709D01*
X20704709Y-10789709D01*
X20618500Y-10957500D02*
X20719500Y-11058500D01*
X20719500Y-10957500D02*
X20618500Y-11058500D01*
X20704709Y-11043709D02*
X20704709Y-10972291D01*
X20633291Y-10972291D01*
X20633291Y-11043709D01*
X20704709Y-11043709D01*
X20645500Y-6255500D02*
X20746500Y-6356500D01*
X20746500Y-6255500D02*
X20645500Y-6356500D01*
X20731709Y-6341709D02*
X20731709Y-6270291D01*
X20660291Y-6270291D01*
X20660291Y-6341709D01*
X20731709Y-6341709D01*
X20645500Y-6509500D02*
X20746500Y-6610500D01*
X20746500Y-6509500D02*
X20645500Y-6610500D01*
X20731709Y-6595709D02*
X20731709Y-6524291D01*
X20660291Y-6524291D01*
X20660291Y-6595709D01*
X20731709Y-6595709D01*
X20645500Y-6763500D02*
X20746500Y-6864500D01*
X20746500Y-6763500D02*
X20645500Y-6864500D01*
X20731709Y-6849709D02*
X20731709Y-6778291D01*
X20660291Y-6778291D01*
X20660291Y-6849709D01*
X20731709Y-6849709D01*
X20645500Y-7017500D02*
X20746500Y-7118500D01*
X20746500Y-7017500D02*
X20645500Y-7118500D01*
X20731709Y-7103709D02*
X20731709Y-7032291D01*
X20660291Y-7032291D01*
X20660291Y-7103709D01*
X20731709Y-7103709D01*
X20645500Y-7271500D02*
X20746500Y-7372500D01*
X20746500Y-7271500D02*
X20645500Y-7372500D01*
X20731709Y-7357709D02*
X20731709Y-7286291D01*
X20660291Y-7286291D01*
X20660291Y-7357709D01*
X20731709Y-7357709D01*
X20645500Y-7525500D02*
X20746500Y-7626500D01*
X20746500Y-7525500D02*
X20645500Y-7626500D01*
X20731709Y-7611709D02*
X20731709Y-7540291D01*
X20660291Y-7540291D01*
X20660291Y-7611709D01*
X20731709Y-7611709D01*
X20796620Y-8505530D02*
X20897620Y-8606530D01*
X20897620Y-8505530D02*
X20796620Y-8606530D01*
X20882829Y-8591739D02*
X20882829Y-8520321D01*
X20811411Y-8520321D01*
X20811411Y-8591739D01*
X20882829Y-8591739D01*
X20796620Y-8759530D02*
X20897620Y-8860530D01*
X20897620Y-8759530D02*
X20796620Y-8860530D01*
X20882829Y-8845739D02*
X20882829Y-8774321D01*
X20811411Y-8774321D01*
X20811411Y-8845739D01*
X20882829Y-8845739D01*
X20796620Y-9013530D02*
X20897620Y-9114530D01*
X20897620Y-9013530D02*
X20796620Y-9114530D01*
X20882829Y-9099739D02*
X20882829Y-9028321D01*
X20811411Y-9028321D01*
X20811411Y-9099739D01*
X20882829Y-9099739D01*
X20796620Y-9267530D02*
X20897620Y-9368530D01*
X20897620Y-9267530D02*
X20796620Y-9368530D01*
X20882829Y-9353739D02*
X20882829Y-9282321D01*
X20811411Y-9282321D01*
X20811411Y-9353739D01*
X20882829Y-9353739D01*
X20796620Y-9521530D02*
X20897620Y-9622530D01*
X20897620Y-9521530D02*
X20796620Y-9622530D01*
X20882829Y-9607739D02*
X20882829Y-9536321D01*
X20811411Y-9536321D01*
X20811411Y-9607739D01*
X20882829Y-9607739D01*
D19*
X21540500Y-11958500D02*
X21667500Y-12085500D01*
X21667500Y-11958500D02*
X21540500Y-12085500D01*
X21604000Y-12085500D02*
X21667500Y-12022000D01*
X21604000Y-11958500D01*
X21540500Y-12022000D01*
X21604000Y-12085500D01*
X21794500Y-11958500D02*
X21921500Y-12085500D01*
X21921500Y-11958500D02*
X21794500Y-12085500D01*
X21858000Y-12085500D02*
X21921500Y-12022000D01*
X21858000Y-11958500D01*
X21794500Y-12022000D01*
X21858000Y-12085500D01*
X22048500Y-11958500D02*
X22175500Y-12085500D01*
X22175500Y-11958500D02*
X22048500Y-12085500D01*
X22112000Y-12085500D02*
X22175500Y-12022000D01*
X22112000Y-11958500D01*
X22048500Y-12022000D01*
X22112000Y-12085500D01*
D20*
X15445000Y-4743000D02*
X15445000Y-4883000D01*
X15375000Y-4813000D02*
X15515000Y-4813000D01*
X15515000Y-4813000D02*
G75*
G03*
X15515000Y-4813000I-70000J0D01*
G01*
X15445000Y-5157000D02*
X15445000Y-5297000D01*
X15375000Y-5227000D02*
X15515000Y-5227000D01*
X15515000Y-5227000D02*
G75*
G03*
X15515000Y-5227000I-70000J0D01*
G01*
X15859000Y-4743000D02*
X15859000Y-4883000D01*
X15789000Y-4813000D02*
X15929000Y-4813000D01*
X15929000Y-4813000D02*
G75*
G03*
X15929000Y-4813000I-70000J0D01*
G01*
X15859000Y-5157000D02*
X15859000Y-5297000D01*
X15789000Y-5227000D02*
X15929000Y-5227000D01*
X15929000Y-5227000D02*
G75*
G03*
X15929000Y-5227000I-70000J0D01*
G01*
X17031000Y-4743000D02*
X17031000Y-4883000D01*
X16961000Y-4813000D02*
X17101000Y-4813000D01*
X17101000Y-4813000D02*
G75*
G03*
X17101000Y-4813000I-70000J0D01*
G01*
X17031000Y-5157000D02*
X17031000Y-5297000D01*
X16961000Y-5227000D02*
X17101000Y-5227000D01*
X17101000Y-5227000D02*
G75*
G03*
X17101000Y-5227000I-70000J0D01*
G01*
X17445000Y-4743000D02*
X17445000Y-4883000D01*
X17375000Y-4813000D02*
X17515000Y-4813000D01*
X17515000Y-4813000D02*
G75*
G03*
X17515000Y-4813000I-70000J0D01*
G01*
X17445000Y-5157000D02*
X17445000Y-5297000D01*
X17375000Y-5227000D02*
X17515000Y-5227000D01*
X17515000Y-5227000D02*
G75*
G03*
X17515000Y-5227000I-70000J0D01*
G01*
X18617000Y-4744000D02*
X18617000Y-4884000D01*
X18547000Y-4814000D02*
X18687000Y-4814000D01*
X18687000Y-4814000D02*
G75*
G03*
X18687000Y-4814000I-70000J0D01*
G01*
X18617000Y-5158000D02*
X18617000Y-5298000D01*
X18547000Y-5228000D02*
X18687000Y-5228000D01*
X18687000Y-5228000D02*
G75*
G03*
X18687000Y-5228000I-70000J0D01*
G01*
X19031000Y-4744000D02*
X19031000Y-4884000D01*
X18961000Y-4814000D02*
X19101000Y-4814000D01*
X19101000Y-4814000D02*
G75*
G03*
X19101000Y-4814000I-70000J0D01*
G01*
X19031000Y-5158000D02*
X19031000Y-5298000D01*
X18961000Y-5228000D02*
X19101000Y-5228000D01*
X19101000Y-5228000D02*
G75*
G03*
X19101000Y-5228000I-70000J0D01*
G01*
X20213000Y-4745000D02*
X20213000Y-4885000D01*
X20143000Y-4815000D02*
X20283000Y-4815000D01*
X20283000Y-4815000D02*
G75*
G03*
X20283000Y-4815000I-70000J0D01*
G01*
X20213000Y-5159000D02*
X20213000Y-5299000D01*
X20143000Y-5229000D02*
X20283000Y-5229000D01*
X20283000Y-5229000D02*
G75*
G03*
X20283000Y-5229000I-70000J0D01*
G01*
X20627000Y-4745000D02*
X20627000Y-4885000D01*
X20557000Y-4815000D02*
X20697000Y-4815000D01*
X20697000Y-4815000D02*
G75*
G03*
X20697000Y-4815000I-70000J0D01*
G01*
X20627000Y-5159000D02*
X20627000Y-5299000D01*
X20557000Y-5229000D02*
X20697000Y-5229000D01*
X20697000Y-5229000D02*
G75*
G03*
X20697000Y-5229000I-70000J0D01*
G01*
X21839000Y-6474000D02*
X21839000Y-6614000D01*
X21769000Y-6544000D02*
X21909000Y-6544000D01*
X21909000Y-6544000D02*
G75*
G03*
X21909000Y-6544000I-70000J0D01*
G01*
X21839000Y-6888000D02*
X21839000Y-7028000D01*
X21769000Y-6958000D02*
X21909000Y-6958000D01*
X21909000Y-6958000D02*
G75*
G03*
X21909000Y-6958000I-70000J0D01*
G01*
X21841000Y-7930000D02*
X21841000Y-8070000D01*
X21771000Y-8000000D02*
X21911000Y-8000000D01*
X21911000Y-8000000D02*
G75*
G03*
X21911000Y-8000000I-70000J0D01*
G01*
X21841000Y-8344000D02*
X21841000Y-8484000D01*
X21771000Y-8414000D02*
X21911000Y-8414000D01*
X21911000Y-8414000D02*
G75*
G03*
X21911000Y-8414000I-70000J0D01*
G01*
X21842000Y-10728000D02*
X21842000Y-10868000D01*
X21772000Y-10798000D02*
X21912000Y-10798000D01*
X21912000Y-10798000D02*
G75*
G03*
X21912000Y-10798000I-70000J0D01*
G01*
X21842000Y-11142000D02*
X21842000Y-11282000D01*
X21772000Y-11212000D02*
X21912000Y-11212000D01*
X21912000Y-11212000D02*
G75*
G03*
X21912000Y-11212000I-70000J0D01*
G01*
X21844000Y-9294000D02*
X21844000Y-9434000D01*
X21774000Y-9364000D02*
X21914000Y-9364000D01*
X21914000Y-9364000D02*
G75*
G03*
X21914000Y-9364000I-70000J0D01*
G01*
X21844000Y-9708000D02*
X21844000Y-9848000D01*
X21774000Y-9778000D02*
X21914000Y-9778000D01*
X21914000Y-9778000D02*
G75*
G03*
X21914000Y-9778000I-70000J0D01*
G01*
X22253000Y-6474000D02*
X22253000Y-6614000D01*
X22183000Y-6544000D02*
X22323000Y-6544000D01*
X22323000Y-6544000D02*
G75*
G03*
X22323000Y-6544000I-70000J0D01*
G01*
X22253000Y-6888000D02*
X22253000Y-7028000D01*
X22183000Y-6958000D02*
X22323000Y-6958000D01*
X22323000Y-6958000D02*
G75*
G03*
X22323000Y-6958000I-70000J0D01*
G01*
X22255000Y-7930000D02*
X22255000Y-8070000D01*
X22185000Y-8000000D02*
X22325000Y-8000000D01*
X22325000Y-8000000D02*
G75*
G03*
X22325000Y-8000000I-70000J0D01*
G01*
X22255000Y-8344000D02*
X22255000Y-8484000D01*
X22185000Y-8414000D02*
X22325000Y-8414000D01*
X22325000Y-8414000D02*
G75*
G03*
X22325000Y-8414000I-70000J0D01*
G01*
X22256000Y-10728000D02*
X22256000Y-10868000D01*
X22186000Y-10798000D02*
X22326000Y-10798000D01*
X22326000Y-10798000D02*
G75*
G03*
X22326000Y-10798000I-70000J0D01*
G01*
X22256000Y-11142000D02*
X22256000Y-11282000D01*
X22186000Y-11212000D02*
X22326000Y-11212000D01*
X22326000Y-11212000D02*
G75*
G03*
X22326000Y-11212000I-70000J0D01*
G01*
X22258000Y-9294000D02*
X22258000Y-9434000D01*
X22188000Y-9364000D02*
X22328000Y-9364000D01*
X22328000Y-9364000D02*
G75*
G03*
X22328000Y-9364000I-70000J0D01*
G01*
X22258000Y-9708000D02*
X22258000Y-9848000D01*
X22188000Y-9778000D02*
X22328000Y-9778000D01*
X22328000Y-9778000D02*
G75*
G03*
X22328000Y-9778000I-70000J0D01*
G01*
D21*
X7801745Y-4078745D02*
X7801745Y-3831255D01*
X7554255Y-3831255D01*
X7554255Y-4078745D01*
X7801745Y-4078745D01*
X7853000Y-3955000D02*
G75*
G03*
X7853000Y-3955000I-175000J0D01*
G01*
X7801745Y-14506745D02*
X7801745Y-14259255D01*
X7554255Y-14259255D01*
X7554255Y-14506745D01*
X7801745Y-14506745D01*
X7853000Y-14383000D02*
G75*
G03*
X7853000Y-14383000I-175000J0D01*
G01*
X23950745Y-14507745D02*
X23950745Y-14260255D01*
X23703255Y-14260255D01*
X23703255Y-14507745D01*
X23950745Y-14507745D01*
X24002000Y-14384000D02*
G75*
G03*
X24002000Y-14384000I-175000J0D01*
G01*
X23951745Y-4085745D02*
X23951745Y-3838255D01*
X23704255Y-3838255D01*
X23704255Y-4085745D01*
X23951745Y-4085745D01*
X24003000Y-3962000D02*
G75*
G03*
X24003000Y-3962000I-175000J0D01*
G01*
D11*
X7290777Y-15296484D02*
X7290777Y-15096484D01*
X7290777Y-15096484D02*
X7338396Y-15096484D01*
X7338396Y-15096484D02*
X7366967Y-15106008D01*
X7366967Y-15106008D02*
X7386015Y-15125055D01*
X7386015Y-15125055D02*
X7395539Y-15144103D01*
X7395539Y-15144103D02*
X7405062Y-15182198D01*
X7405062Y-15182198D02*
X7405062Y-15210769D01*
X7405062Y-15210769D02*
X7395539Y-15248865D01*
X7395539Y-15248865D02*
X7386015Y-15267912D01*
X7386015Y-15267912D02*
X7366967Y-15286960D01*
X7366967Y-15286960D02*
X7338396Y-15296484D01*
X7338396Y-15296484D02*
X7290777Y-15296484D01*
X7490777Y-15296484D02*
X7490777Y-15163150D01*
X7490777Y-15201246D02*
X7500301Y-15182198D01*
X7500301Y-15182198D02*
X7509824Y-15172674D01*
X7509824Y-15172674D02*
X7528872Y-15163150D01*
X7528872Y-15163150D02*
X7547920Y-15163150D01*
X7614586Y-15296484D02*
X7614586Y-15163150D01*
X7614586Y-15096484D02*
X7605062Y-15106008D01*
X7605062Y-15106008D02*
X7614586Y-15115531D01*
X7614586Y-15115531D02*
X7624110Y-15106008D01*
X7624110Y-15106008D02*
X7614586Y-15096484D01*
X7614586Y-15096484D02*
X7614586Y-15115531D01*
X7738396Y-15296484D02*
X7719348Y-15286960D01*
X7719348Y-15286960D02*
X7709824Y-15267912D01*
X7709824Y-15267912D02*
X7709824Y-15096484D01*
X7843158Y-15296484D02*
X7824110Y-15286960D01*
X7824110Y-15286960D02*
X7814586Y-15267912D01*
X7814586Y-15267912D02*
X7814586Y-15096484D01*
X8071729Y-15296484D02*
X8071729Y-15096484D01*
X8071729Y-15096484D02*
X8138396Y-15239341D01*
X8138396Y-15239341D02*
X8205062Y-15096484D01*
X8205062Y-15096484D02*
X8205062Y-15296484D01*
X8386015Y-15296484D02*
X8386015Y-15191722D01*
X8386015Y-15191722D02*
X8376491Y-15172674D01*
X8376491Y-15172674D02*
X8357443Y-15163150D01*
X8357443Y-15163150D02*
X8319348Y-15163150D01*
X8319348Y-15163150D02*
X8300301Y-15172674D01*
X8386015Y-15286960D02*
X8366967Y-15296484D01*
X8366967Y-15296484D02*
X8319348Y-15296484D01*
X8319348Y-15296484D02*
X8300301Y-15286960D01*
X8300301Y-15286960D02*
X8290777Y-15267912D01*
X8290777Y-15267912D02*
X8290777Y-15248865D01*
X8290777Y-15248865D02*
X8300301Y-15229817D01*
X8300301Y-15229817D02*
X8319348Y-15220293D01*
X8319348Y-15220293D02*
X8366967Y-15220293D01*
X8366967Y-15220293D02*
X8386015Y-15210769D01*
X8481253Y-15163150D02*
X8481253Y-15363150D01*
X8481253Y-15172674D02*
X8500301Y-15163150D01*
X8500301Y-15163150D02*
X8538396Y-15163150D01*
X8538396Y-15163150D02*
X8557444Y-15172674D01*
X8557444Y-15172674D02*
X8566967Y-15182198D01*
X8566967Y-15182198D02*
X8576491Y-15201246D01*
X8576491Y-15201246D02*
X8576491Y-15258388D01*
X8576491Y-15258388D02*
X8566967Y-15277436D01*
X8566967Y-15277436D02*
X8557444Y-15286960D01*
X8557444Y-15286960D02*
X8538396Y-15296484D01*
X8538396Y-15296484D02*
X8500301Y-15296484D01*
X8500301Y-15296484D02*
X8481253Y-15286960D01*
X8662205Y-15277436D02*
X8671729Y-15286960D01*
X8671729Y-15286960D02*
X8662205Y-15296484D01*
X8662205Y-15296484D02*
X8652682Y-15286960D01*
X8652682Y-15286960D02*
X8662205Y-15277436D01*
X8662205Y-15277436D02*
X8662205Y-15296484D01*
X8662205Y-15172674D02*
X8671729Y-15182198D01*
X8671729Y-15182198D02*
X8662205Y-15191722D01*
X8662205Y-15191722D02*
X8652682Y-15182198D01*
X8652682Y-15182198D02*
X8662205Y-15172674D01*
X8662205Y-15172674D02*
X8662205Y-15191722D01*
D12*
X6990000Y-15605000D02*
X7030000Y-15645000D01*
X7030000Y-15605000D02*
X6990000Y-15645000D01*
D11*
X7328872Y-15516484D02*
X7347920Y-15516484D01*
X7347920Y-15516484D02*
X7366967Y-15526008D01*
X7366967Y-15526008D02*
X7376491Y-15535531D01*
X7376491Y-15535531D02*
X7386015Y-15554579D01*
X7386015Y-15554579D02*
X7395539Y-15592674D01*
X7395539Y-15592674D02*
X7395539Y-15640293D01*
X7395539Y-15640293D02*
X7386015Y-15678388D01*
X7386015Y-15678388D02*
X7376491Y-15697436D01*
X7376491Y-15697436D02*
X7366967Y-15706960D01*
X7366967Y-15706960D02*
X7347920Y-15716484D01*
X7347920Y-15716484D02*
X7328872Y-15716484D01*
X7328872Y-15716484D02*
X7309824Y-15706960D01*
X7309824Y-15706960D02*
X7300301Y-15697436D01*
X7300301Y-15697436D02*
X7290777Y-15678388D01*
X7290777Y-15678388D02*
X7281253Y-15640293D01*
X7281253Y-15640293D02*
X7281253Y-15592674D01*
X7281253Y-15592674D02*
X7290777Y-15554579D01*
X7290777Y-15554579D02*
X7300301Y-15535531D01*
X7300301Y-15535531D02*
X7309824Y-15526008D01*
X7309824Y-15526008D02*
X7328872Y-15516484D01*
X7481253Y-15697436D02*
X7490777Y-15706960D01*
X7490777Y-15706960D02*
X7481253Y-15716484D01*
X7481253Y-15716484D02*
X7471729Y-15706960D01*
X7471729Y-15706960D02*
X7481253Y-15697436D01*
X7481253Y-15697436D02*
X7481253Y-15716484D01*
X7662205Y-15583150D02*
X7662205Y-15716484D01*
X7614586Y-15506960D02*
X7566967Y-15649817D01*
X7566967Y-15649817D02*
X7690777Y-15649817D01*
X7805062Y-15516484D02*
X7824110Y-15516484D01*
X7824110Y-15516484D02*
X7843158Y-15526008D01*
X7843158Y-15526008D02*
X7852682Y-15535531D01*
X7852682Y-15535531D02*
X7862205Y-15554579D01*
X7862205Y-15554579D02*
X7871729Y-15592674D01*
X7871729Y-15592674D02*
X7871729Y-15640293D01*
X7871729Y-15640293D02*
X7862205Y-15678388D01*
X7862205Y-15678388D02*
X7852682Y-15697436D01*
X7852682Y-15697436D02*
X7843158Y-15706960D01*
X7843158Y-15706960D02*
X7824110Y-15716484D01*
X7824110Y-15716484D02*
X7805062Y-15716484D01*
X7805062Y-15716484D02*
X7786015Y-15706960D01*
X7786015Y-15706960D02*
X7776491Y-15697436D01*
X7776491Y-15697436D02*
X7766967Y-15678388D01*
X7766967Y-15678388D02*
X7757443Y-15640293D01*
X7757443Y-15640293D02*
X7757443Y-15592674D01*
X7757443Y-15592674D02*
X7766967Y-15554579D01*
X7766967Y-15554579D02*
X7776491Y-15535531D01*
X7776491Y-15535531D02*
X7786015Y-15526008D01*
X7786015Y-15526008D02*
X7805062Y-15516484D01*
X7995539Y-15516484D02*
X8014586Y-15516484D01*
X8014586Y-15516484D02*
X8033634Y-15526008D01*
X8033634Y-15526008D02*
X8043158Y-15535531D01*
X8043158Y-15535531D02*
X8052682Y-15554579D01*
X8052682Y-15554579D02*
X8062205Y-15592674D01*
X8062205Y-15592674D02*
X8062205Y-15640293D01*
X8062205Y-15640293D02*
X8052682Y-15678388D01*
X8052682Y-15678388D02*
X8043158Y-15697436D01*
X8043158Y-15697436D02*
X8033634Y-15706960D01*
X8033634Y-15706960D02*
X8014586Y-15716484D01*
X8014586Y-15716484D02*
X7995539Y-15716484D01*
X7995539Y-15716484D02*
X7976491Y-15706960D01*
X7976491Y-15706960D02*
X7966967Y-15697436D01*
X7966967Y-15697436D02*
X7957443Y-15678388D01*
X7957443Y-15678388D02*
X7947920Y-15640293D01*
X7947920Y-15640293D02*
X7947920Y-15592674D01*
X7947920Y-15592674D02*
X7957443Y-15554579D01*
X7957443Y-15554579D02*
X7966967Y-15535531D01*
X7966967Y-15535531D02*
X7976491Y-15526008D01*
X7976491Y-15526008D02*
X7995539Y-15516484D01*
X8147920Y-15716484D02*
X8147920Y-15583150D01*
X8147920Y-15602198D02*
X8157443Y-15592674D01*
X8157443Y-15592674D02*
X8176491Y-15583150D01*
X8176491Y-15583150D02*
X8205063Y-15583150D01*
X8205063Y-15583150D02*
X8224110Y-15592674D01*
X8224110Y-15592674D02*
X8233634Y-15611722D01*
X8233634Y-15611722D02*
X8233634Y-15716484D01*
X8233634Y-15611722D02*
X8243158Y-15592674D01*
X8243158Y-15592674D02*
X8262205Y-15583150D01*
X8262205Y-15583150D02*
X8290777Y-15583150D01*
X8290777Y-15583150D02*
X8309824Y-15592674D01*
X8309824Y-15592674D02*
X8319348Y-15611722D01*
X8319348Y-15611722D02*
X8319348Y-15716484D01*
X8414586Y-15716484D02*
X8414586Y-15583150D01*
X8414586Y-15602198D02*
X8424110Y-15592674D01*
X8424110Y-15592674D02*
X8443158Y-15583150D01*
X8443158Y-15583150D02*
X8471729Y-15583150D01*
X8471729Y-15583150D02*
X8490777Y-15592674D01*
X8490777Y-15592674D02*
X8500301Y-15611722D01*
X8500301Y-15611722D02*
X8500301Y-15716484D01*
X8500301Y-15611722D02*
X8509825Y-15592674D01*
X8509825Y-15592674D02*
X8528872Y-15583150D01*
X8528872Y-15583150D02*
X8557444Y-15583150D01*
X8557444Y-15583150D02*
X8576491Y-15592674D01*
X8576491Y-15592674D02*
X8586015Y-15611722D01*
X8586015Y-15611722D02*
X8586015Y-15716484D01*
X8976491Y-15506960D02*
X8805063Y-15764103D01*
X9233634Y-15516484D02*
X9252682Y-15516484D01*
X9252682Y-15516484D02*
X9271729Y-15526008D01*
X9271729Y-15526008D02*
X9281253Y-15535531D01*
X9281253Y-15535531D02*
X9290777Y-15554579D01*
X9290777Y-15554579D02*
X9300301Y-15592674D01*
X9300301Y-15592674D02*
X9300301Y-15640293D01*
X9300301Y-15640293D02*
X9290777Y-15678388D01*
X9290777Y-15678388D02*
X9281253Y-15697436D01*
X9281253Y-15697436D02*
X9271729Y-15706960D01*
X9271729Y-15706960D02*
X9252682Y-15716484D01*
X9252682Y-15716484D02*
X9233634Y-15716484D01*
X9233634Y-15716484D02*
X9214587Y-15706960D01*
X9214587Y-15706960D02*
X9205063Y-15697436D01*
X9205063Y-15697436D02*
X9195539Y-15678388D01*
X9195539Y-15678388D02*
X9186015Y-15640293D01*
X9186015Y-15640293D02*
X9186015Y-15592674D01*
X9186015Y-15592674D02*
X9195539Y-15554579D01*
X9195539Y-15554579D02*
X9205063Y-15535531D01*
X9205063Y-15535531D02*
X9214587Y-15526008D01*
X9214587Y-15526008D02*
X9233634Y-15516484D01*
X9386015Y-15697436D02*
X9395539Y-15706960D01*
X9395539Y-15706960D02*
X9386015Y-15716484D01*
X9386015Y-15716484D02*
X9376491Y-15706960D01*
X9376491Y-15706960D02*
X9386015Y-15697436D01*
X9386015Y-15697436D02*
X9386015Y-15716484D01*
X9519348Y-15516484D02*
X9538396Y-15516484D01*
X9538396Y-15516484D02*
X9557444Y-15526008D01*
X9557444Y-15526008D02*
X9566968Y-15535531D01*
X9566968Y-15535531D02*
X9576491Y-15554579D01*
X9576491Y-15554579D02*
X9586015Y-15592674D01*
X9586015Y-15592674D02*
X9586015Y-15640293D01*
X9586015Y-15640293D02*
X9576491Y-15678388D01*
X9576491Y-15678388D02*
X9566968Y-15697436D01*
X9566968Y-15697436D02*
X9557444Y-15706960D01*
X9557444Y-15706960D02*
X9538396Y-15716484D01*
X9538396Y-15716484D02*
X9519348Y-15716484D01*
X9519348Y-15716484D02*
X9500301Y-15706960D01*
X9500301Y-15706960D02*
X9490777Y-15697436D01*
X9490777Y-15697436D02*
X9481253Y-15678388D01*
X9481253Y-15678388D02*
X9471729Y-15640293D01*
X9471729Y-15640293D02*
X9471729Y-15592674D01*
X9471729Y-15592674D02*
X9481253Y-15554579D01*
X9481253Y-15554579D02*
X9490777Y-15535531D01*
X9490777Y-15535531D02*
X9500301Y-15526008D01*
X9500301Y-15526008D02*
X9519348Y-15516484D01*
X9776491Y-15716484D02*
X9662206Y-15716484D01*
X9719348Y-15716484D02*
X9719348Y-15516484D01*
X9719348Y-15516484D02*
X9700301Y-15545055D01*
X9700301Y-15545055D02*
X9681253Y-15564103D01*
X9681253Y-15564103D02*
X9662206Y-15573627D01*
X9957444Y-15516484D02*
X9862206Y-15516484D01*
X9862206Y-15516484D02*
X9852682Y-15611722D01*
X9852682Y-15611722D02*
X9862206Y-15602198D01*
X9862206Y-15602198D02*
X9881253Y-15592674D01*
X9881253Y-15592674D02*
X9928872Y-15592674D01*
X9928872Y-15592674D02*
X9947920Y-15602198D01*
X9947920Y-15602198D02*
X9957444Y-15611722D01*
X9957444Y-15611722D02*
X9966968Y-15630769D01*
X9966968Y-15630769D02*
X9966968Y-15678388D01*
X9966968Y-15678388D02*
X9957444Y-15697436D01*
X9957444Y-15697436D02*
X9947920Y-15706960D01*
X9947920Y-15706960D02*
X9928872Y-15716484D01*
X9928872Y-15716484D02*
X9881253Y-15716484D01*
X9881253Y-15716484D02*
X9862206Y-15706960D01*
X9862206Y-15706960D02*
X9852682Y-15697436D01*
X10033634Y-15516484D02*
X10166968Y-15516484D01*
X10166968Y-15516484D02*
X10081253Y-15716484D01*
X10233634Y-15516484D02*
X10233634Y-15554579D01*
X10309825Y-15516484D02*
X10309825Y-15554579D01*
X10605063Y-15792674D02*
X10595539Y-15783150D01*
X10595539Y-15783150D02*
X10576491Y-15754579D01*
X10576491Y-15754579D02*
X10566968Y-15735531D01*
X10566968Y-15735531D02*
X10557444Y-15706960D01*
X10557444Y-15706960D02*
X10547920Y-15659341D01*
X10547920Y-15659341D02*
X10547920Y-15621246D01*
X10547920Y-15621246D02*
X10557444Y-15573627D01*
X10557444Y-15573627D02*
X10566968Y-15545055D01*
X10566968Y-15545055D02*
X10576491Y-15526008D01*
X10576491Y-15526008D02*
X10595539Y-15497436D01*
X10595539Y-15497436D02*
X10605063Y-15487912D01*
X10776491Y-15516484D02*
X10681253Y-15516484D01*
X10681253Y-15516484D02*
X10671730Y-15611722D01*
X10671730Y-15611722D02*
X10681253Y-15602198D01*
X10681253Y-15602198D02*
X10700301Y-15592674D01*
X10700301Y-15592674D02*
X10747920Y-15592674D01*
X10747920Y-15592674D02*
X10766968Y-15602198D01*
X10766968Y-15602198D02*
X10776491Y-15611722D01*
X10776491Y-15611722D02*
X10786015Y-15630769D01*
X10786015Y-15630769D02*
X10786015Y-15678388D01*
X10786015Y-15678388D02*
X10776491Y-15697436D01*
X10776491Y-15697436D02*
X10766968Y-15706960D01*
X10766968Y-15706960D02*
X10747920Y-15716484D01*
X10747920Y-15716484D02*
X10700301Y-15716484D01*
X10700301Y-15716484D02*
X10681253Y-15706960D01*
X10681253Y-15706960D02*
X10671730Y-15697436D01*
X10900301Y-15602198D02*
X10881253Y-15592674D01*
X10881253Y-15592674D02*
X10871730Y-15583150D01*
X10871730Y-15583150D02*
X10862206Y-15564103D01*
X10862206Y-15564103D02*
X10862206Y-15554579D01*
X10862206Y-15554579D02*
X10871730Y-15535531D01*
X10871730Y-15535531D02*
X10881253Y-15526008D01*
X10881253Y-15526008D02*
X10900301Y-15516484D01*
X10900301Y-15516484D02*
X10938396Y-15516484D01*
X10938396Y-15516484D02*
X10957444Y-15526008D01*
X10957444Y-15526008D02*
X10966968Y-15535531D01*
X10966968Y-15535531D02*
X10976491Y-15554579D01*
X10976491Y-15554579D02*
X10976491Y-15564103D01*
X10976491Y-15564103D02*
X10966968Y-15583150D01*
X10966968Y-15583150D02*
X10957444Y-15592674D01*
X10957444Y-15592674D02*
X10938396Y-15602198D01*
X10938396Y-15602198D02*
X10900301Y-15602198D01*
X10900301Y-15602198D02*
X10881253Y-15611722D01*
X10881253Y-15611722D02*
X10871730Y-15621246D01*
X10871730Y-15621246D02*
X10862206Y-15640293D01*
X10862206Y-15640293D02*
X10862206Y-15678388D01*
X10862206Y-15678388D02*
X10871730Y-15697436D01*
X10871730Y-15697436D02*
X10881253Y-15706960D01*
X10881253Y-15706960D02*
X10900301Y-15716484D01*
X10900301Y-15716484D02*
X10938396Y-15716484D01*
X10938396Y-15716484D02*
X10957444Y-15706960D01*
X10957444Y-15706960D02*
X10966968Y-15697436D01*
X10966968Y-15697436D02*
X10976491Y-15678388D01*
X10976491Y-15678388D02*
X10976491Y-15640293D01*
X10976491Y-15640293D02*
X10966968Y-15621246D01*
X10966968Y-15621246D02*
X10957444Y-15611722D01*
X10957444Y-15611722D02*
X10938396Y-15602198D01*
X11214587Y-15716484D02*
X11214587Y-15516484D01*
X11300301Y-15716484D02*
X11300301Y-15611722D01*
X11300301Y-15611722D02*
X11290777Y-15592674D01*
X11290777Y-15592674D02*
X11271730Y-15583150D01*
X11271730Y-15583150D02*
X11243158Y-15583150D01*
X11243158Y-15583150D02*
X11224110Y-15592674D01*
X11224110Y-15592674D02*
X11214587Y-15602198D01*
X11424110Y-15716484D02*
X11405063Y-15706960D01*
X11405063Y-15706960D02*
X11395539Y-15697436D01*
X11395539Y-15697436D02*
X11386015Y-15678388D01*
X11386015Y-15678388D02*
X11386015Y-15621246D01*
X11386015Y-15621246D02*
X11395539Y-15602198D01*
X11395539Y-15602198D02*
X11405063Y-15592674D01*
X11405063Y-15592674D02*
X11424110Y-15583150D01*
X11424110Y-15583150D02*
X11452682Y-15583150D01*
X11452682Y-15583150D02*
X11471730Y-15592674D01*
X11471730Y-15592674D02*
X11481253Y-15602198D01*
X11481253Y-15602198D02*
X11490777Y-15621246D01*
X11490777Y-15621246D02*
X11490777Y-15678388D01*
X11490777Y-15678388D02*
X11481253Y-15697436D01*
X11481253Y-15697436D02*
X11471730Y-15706960D01*
X11471730Y-15706960D02*
X11452682Y-15716484D01*
X11452682Y-15716484D02*
X11424110Y-15716484D01*
X11605063Y-15716484D02*
X11586015Y-15706960D01*
X11586015Y-15706960D02*
X11576491Y-15687912D01*
X11576491Y-15687912D02*
X11576491Y-15516484D01*
X11757444Y-15706960D02*
X11738396Y-15716484D01*
X11738396Y-15716484D02*
X11700301Y-15716484D01*
X11700301Y-15716484D02*
X11681253Y-15706960D01*
X11681253Y-15706960D02*
X11671730Y-15687912D01*
X11671730Y-15687912D02*
X11671730Y-15611722D01*
X11671730Y-15611722D02*
X11681253Y-15592674D01*
X11681253Y-15592674D02*
X11700301Y-15583150D01*
X11700301Y-15583150D02*
X11738396Y-15583150D01*
X11738396Y-15583150D02*
X11757444Y-15592674D01*
X11757444Y-15592674D02*
X11766968Y-15611722D01*
X11766968Y-15611722D02*
X11766968Y-15630769D01*
X11766968Y-15630769D02*
X11671730Y-15649817D01*
X11843158Y-15706960D02*
X11862206Y-15716484D01*
X11862206Y-15716484D02*
X11900301Y-15716484D01*
X11900301Y-15716484D02*
X11919349Y-15706960D01*
X11919349Y-15706960D02*
X11928872Y-15687912D01*
X11928872Y-15687912D02*
X11928872Y-15678388D01*
X11928872Y-15678388D02*
X11919349Y-15659341D01*
X11919349Y-15659341D02*
X11900301Y-15649817D01*
X11900301Y-15649817D02*
X11871730Y-15649817D01*
X11871730Y-15649817D02*
X11852682Y-15640293D01*
X11852682Y-15640293D02*
X11843158Y-15621246D01*
X11843158Y-15621246D02*
X11843158Y-15611722D01*
X11843158Y-15611722D02*
X11852682Y-15592674D01*
X11852682Y-15592674D02*
X11871730Y-15583150D01*
X11871730Y-15583150D02*
X11900301Y-15583150D01*
X11900301Y-15583150D02*
X11919349Y-15592674D01*
X11995539Y-15792674D02*
X12005063Y-15783150D01*
X12005063Y-15783150D02*
X12024111Y-15754579D01*
X12024111Y-15754579D02*
X12033634Y-15735531D01*
X12033634Y-15735531D02*
X12043158Y-15706960D01*
X12043158Y-15706960D02*
X12052682Y-15659341D01*
X12052682Y-15659341D02*
X12052682Y-15621246D01*
X12052682Y-15621246D02*
X12043158Y-15573627D01*
X12043158Y-15573627D02*
X12033634Y-15545055D01*
X12033634Y-15545055D02*
X12024111Y-15526008D01*
X12024111Y-15526008D02*
X12005063Y-15497436D01*
X12005063Y-15497436D02*
X11995539Y-15487912D01*
D13*
X7030000Y-15889000D02*
G75*
G03*
X7030000Y-15889000I-38100J0D01*
G01*
D11*
X7328872Y-15780484D02*
X7347920Y-15780484D01*
X7347920Y-15780484D02*
X7366967Y-15790008D01*
X7366967Y-15790008D02*
X7376491Y-15799531D01*
X7376491Y-15799531D02*
X7386015Y-15818579D01*
X7386015Y-15818579D02*
X7395539Y-15856674D01*
X7395539Y-15856674D02*
X7395539Y-15904293D01*
X7395539Y-15904293D02*
X7386015Y-15942388D01*
X7386015Y-15942388D02*
X7376491Y-15961436D01*
X7376491Y-15961436D02*
X7366967Y-15970960D01*
X7366967Y-15970960D02*
X7347920Y-15980484D01*
X7347920Y-15980484D02*
X7328872Y-15980484D01*
X7328872Y-15980484D02*
X7309824Y-15970960D01*
X7309824Y-15970960D02*
X7300301Y-15961436D01*
X7300301Y-15961436D02*
X7290777Y-15942388D01*
X7290777Y-15942388D02*
X7281253Y-15904293D01*
X7281253Y-15904293D02*
X7281253Y-15856674D01*
X7281253Y-15856674D02*
X7290777Y-15818579D01*
X7290777Y-15818579D02*
X7300301Y-15799531D01*
X7300301Y-15799531D02*
X7309824Y-15790008D01*
X7309824Y-15790008D02*
X7328872Y-15780484D01*
X7481253Y-15961436D02*
X7490777Y-15970960D01*
X7490777Y-15970960D02*
X7481253Y-15980484D01*
X7481253Y-15980484D02*
X7471729Y-15970960D01*
X7471729Y-15970960D02*
X7481253Y-15961436D01*
X7481253Y-15961436D02*
X7481253Y-15980484D01*
X7557443Y-15780484D02*
X7690777Y-15780484D01*
X7690777Y-15780484D02*
X7605062Y-15980484D01*
X7852682Y-15780484D02*
X7814586Y-15780484D01*
X7814586Y-15780484D02*
X7795539Y-15790008D01*
X7795539Y-15790008D02*
X7786015Y-15799531D01*
X7786015Y-15799531D02*
X7766967Y-15828103D01*
X7766967Y-15828103D02*
X7757443Y-15866198D01*
X7757443Y-15866198D02*
X7757443Y-15942388D01*
X7757443Y-15942388D02*
X7766967Y-15961436D01*
X7766967Y-15961436D02*
X7776491Y-15970960D01*
X7776491Y-15970960D02*
X7795539Y-15980484D01*
X7795539Y-15980484D02*
X7833634Y-15980484D01*
X7833634Y-15980484D02*
X7852682Y-15970960D01*
X7852682Y-15970960D02*
X7862205Y-15961436D01*
X7862205Y-15961436D02*
X7871729Y-15942388D01*
X7871729Y-15942388D02*
X7871729Y-15894769D01*
X7871729Y-15894769D02*
X7862205Y-15875722D01*
X7862205Y-15875722D02*
X7852682Y-15866198D01*
X7852682Y-15866198D02*
X7833634Y-15856674D01*
X7833634Y-15856674D02*
X7795539Y-15856674D01*
X7795539Y-15856674D02*
X7776491Y-15866198D01*
X7776491Y-15866198D02*
X7766967Y-15875722D01*
X7766967Y-15875722D02*
X7757443Y-15894769D01*
X7947920Y-15799531D02*
X7957443Y-15790008D01*
X7957443Y-15790008D02*
X7976491Y-15780484D01*
X7976491Y-15780484D02*
X8024110Y-15780484D01*
X8024110Y-15780484D02*
X8043158Y-15790008D01*
X8043158Y-15790008D02*
X8052682Y-15799531D01*
X8052682Y-15799531D02*
X8062205Y-15818579D01*
X8062205Y-15818579D02*
X8062205Y-15837627D01*
X8062205Y-15837627D02*
X8052682Y-15866198D01*
X8052682Y-15866198D02*
X7938396Y-15980484D01*
X7938396Y-15980484D02*
X8062205Y-15980484D01*
X8147920Y-15980484D02*
X8147920Y-15847150D01*
X8147920Y-15866198D02*
X8157443Y-15856674D01*
X8157443Y-15856674D02*
X8176491Y-15847150D01*
X8176491Y-15847150D02*
X8205063Y-15847150D01*
X8205063Y-15847150D02*
X8224110Y-15856674D01*
X8224110Y-15856674D02*
X8233634Y-15875722D01*
X8233634Y-15875722D02*
X8233634Y-15980484D01*
X8233634Y-15875722D02*
X8243158Y-15856674D01*
X8243158Y-15856674D02*
X8262205Y-15847150D01*
X8262205Y-15847150D02*
X8290777Y-15847150D01*
X8290777Y-15847150D02*
X8309824Y-15856674D01*
X8309824Y-15856674D02*
X8319348Y-15875722D01*
X8319348Y-15875722D02*
X8319348Y-15980484D01*
X8414586Y-15980484D02*
X8414586Y-15847150D01*
X8414586Y-15866198D02*
X8424110Y-15856674D01*
X8424110Y-15856674D02*
X8443158Y-15847150D01*
X8443158Y-15847150D02*
X8471729Y-15847150D01*
X8471729Y-15847150D02*
X8490777Y-15856674D01*
X8490777Y-15856674D02*
X8500301Y-15875722D01*
X8500301Y-15875722D02*
X8500301Y-15980484D01*
X8500301Y-15875722D02*
X8509825Y-15856674D01*
X8509825Y-15856674D02*
X8528872Y-15847150D01*
X8528872Y-15847150D02*
X8557444Y-15847150D01*
X8557444Y-15847150D02*
X8576491Y-15856674D01*
X8576491Y-15856674D02*
X8586015Y-15875722D01*
X8586015Y-15875722D02*
X8586015Y-15980484D01*
X8976491Y-15770960D02*
X8805063Y-16028103D01*
X9233634Y-15780484D02*
X9252682Y-15780484D01*
X9252682Y-15780484D02*
X9271729Y-15790008D01*
X9271729Y-15790008D02*
X9281253Y-15799531D01*
X9281253Y-15799531D02*
X9290777Y-15818579D01*
X9290777Y-15818579D02*
X9300301Y-15856674D01*
X9300301Y-15856674D02*
X9300301Y-15904293D01*
X9300301Y-15904293D02*
X9290777Y-15942388D01*
X9290777Y-15942388D02*
X9281253Y-15961436D01*
X9281253Y-15961436D02*
X9271729Y-15970960D01*
X9271729Y-15970960D02*
X9252682Y-15980484D01*
X9252682Y-15980484D02*
X9233634Y-15980484D01*
X9233634Y-15980484D02*
X9214587Y-15970960D01*
X9214587Y-15970960D02*
X9205063Y-15961436D01*
X9205063Y-15961436D02*
X9195539Y-15942388D01*
X9195539Y-15942388D02*
X9186015Y-15904293D01*
X9186015Y-15904293D02*
X9186015Y-15856674D01*
X9186015Y-15856674D02*
X9195539Y-15818579D01*
X9195539Y-15818579D02*
X9205063Y-15799531D01*
X9205063Y-15799531D02*
X9214587Y-15790008D01*
X9214587Y-15790008D02*
X9233634Y-15780484D01*
X9386015Y-15961436D02*
X9395539Y-15970960D01*
X9395539Y-15970960D02*
X9386015Y-15980484D01*
X9386015Y-15980484D02*
X9376491Y-15970960D01*
X9376491Y-15970960D02*
X9386015Y-15961436D01*
X9386015Y-15961436D02*
X9386015Y-15980484D01*
X9519348Y-15780484D02*
X9538396Y-15780484D01*
X9538396Y-15780484D02*
X9557444Y-15790008D01*
X9557444Y-15790008D02*
X9566968Y-15799531D01*
X9566968Y-15799531D02*
X9576491Y-15818579D01*
X9576491Y-15818579D02*
X9586015Y-15856674D01*
X9586015Y-15856674D02*
X9586015Y-15904293D01*
X9586015Y-15904293D02*
X9576491Y-15942388D01*
X9576491Y-15942388D02*
X9566968Y-15961436D01*
X9566968Y-15961436D02*
X9557444Y-15970960D01*
X9557444Y-15970960D02*
X9538396Y-15980484D01*
X9538396Y-15980484D02*
X9519348Y-15980484D01*
X9519348Y-15980484D02*
X9500301Y-15970960D01*
X9500301Y-15970960D02*
X9490777Y-15961436D01*
X9490777Y-15961436D02*
X9481253Y-15942388D01*
X9481253Y-15942388D02*
X9471729Y-15904293D01*
X9471729Y-15904293D02*
X9471729Y-15856674D01*
X9471729Y-15856674D02*
X9481253Y-15818579D01*
X9481253Y-15818579D02*
X9490777Y-15799531D01*
X9490777Y-15799531D02*
X9500301Y-15790008D01*
X9500301Y-15790008D02*
X9519348Y-15780484D01*
X9652682Y-15780484D02*
X9776491Y-15780484D01*
X9776491Y-15780484D02*
X9709825Y-15856674D01*
X9709825Y-15856674D02*
X9738396Y-15856674D01*
X9738396Y-15856674D02*
X9757444Y-15866198D01*
X9757444Y-15866198D02*
X9766968Y-15875722D01*
X9766968Y-15875722D02*
X9776491Y-15894769D01*
X9776491Y-15894769D02*
X9776491Y-15942388D01*
X9776491Y-15942388D02*
X9766968Y-15961436D01*
X9766968Y-15961436D02*
X9757444Y-15970960D01*
X9757444Y-15970960D02*
X9738396Y-15980484D01*
X9738396Y-15980484D02*
X9681253Y-15980484D01*
X9681253Y-15980484D02*
X9662206Y-15970960D01*
X9662206Y-15970960D02*
X9652682Y-15961436D01*
X9900301Y-15780484D02*
X9919349Y-15780484D01*
X9919349Y-15780484D02*
X9938396Y-15790008D01*
X9938396Y-15790008D02*
X9947920Y-15799531D01*
X9947920Y-15799531D02*
X9957444Y-15818579D01*
X9957444Y-15818579D02*
X9966968Y-15856674D01*
X9966968Y-15856674D02*
X9966968Y-15904293D01*
X9966968Y-15904293D02*
X9957444Y-15942388D01*
X9957444Y-15942388D02*
X9947920Y-15961436D01*
X9947920Y-15961436D02*
X9938396Y-15970960D01*
X9938396Y-15970960D02*
X9919349Y-15980484D01*
X9919349Y-15980484D02*
X9900301Y-15980484D01*
X9900301Y-15980484D02*
X9881253Y-15970960D01*
X9881253Y-15970960D02*
X9871729Y-15961436D01*
X9871729Y-15961436D02*
X9862206Y-15942388D01*
X9862206Y-15942388D02*
X9852682Y-15904293D01*
X9852682Y-15904293D02*
X9852682Y-15856674D01*
X9852682Y-15856674D02*
X9862206Y-15818579D01*
X9862206Y-15818579D02*
X9871729Y-15799531D01*
X9871729Y-15799531D02*
X9881253Y-15790008D01*
X9881253Y-15790008D02*
X9900301Y-15780484D01*
X10090777Y-15780484D02*
X10109825Y-15780484D01*
X10109825Y-15780484D02*
X10128872Y-15790008D01*
X10128872Y-15790008D02*
X10138396Y-15799531D01*
X10138396Y-15799531D02*
X10147920Y-15818579D01*
X10147920Y-15818579D02*
X10157444Y-15856674D01*
X10157444Y-15856674D02*
X10157444Y-15904293D01*
X10157444Y-15904293D02*
X10147920Y-15942388D01*
X10147920Y-15942388D02*
X10138396Y-15961436D01*
X10138396Y-15961436D02*
X10128872Y-15970960D01*
X10128872Y-15970960D02*
X10109825Y-15980484D01*
X10109825Y-15980484D02*
X10090777Y-15980484D01*
X10090777Y-15980484D02*
X10071729Y-15970960D01*
X10071729Y-15970960D02*
X10062206Y-15961436D01*
X10062206Y-15961436D02*
X10052682Y-15942388D01*
X10052682Y-15942388D02*
X10043158Y-15904293D01*
X10043158Y-15904293D02*
X10043158Y-15856674D01*
X10043158Y-15856674D02*
X10052682Y-15818579D01*
X10052682Y-15818579D02*
X10062206Y-15799531D01*
X10062206Y-15799531D02*
X10071729Y-15790008D01*
X10071729Y-15790008D02*
X10090777Y-15780484D01*
X10233634Y-15780484D02*
X10233634Y-15818579D01*
X10309825Y-15780484D02*
X10309825Y-15818579D01*
X10605063Y-16056674D02*
X10595539Y-16047150D01*
X10595539Y-16047150D02*
X10576491Y-16018579D01*
X10576491Y-16018579D02*
X10566968Y-15999531D01*
X10566968Y-15999531D02*
X10557444Y-15970960D01*
X10557444Y-15970960D02*
X10547920Y-15923341D01*
X10547920Y-15923341D02*
X10547920Y-15885246D01*
X10547920Y-15885246D02*
X10557444Y-15837627D01*
X10557444Y-15837627D02*
X10566968Y-15809055D01*
X10566968Y-15809055D02*
X10576491Y-15790008D01*
X10576491Y-15790008D02*
X10595539Y-15761436D01*
X10595539Y-15761436D02*
X10605063Y-15751912D01*
X10786015Y-15980484D02*
X10671730Y-15980484D01*
X10728872Y-15980484D02*
X10728872Y-15780484D01*
X10728872Y-15780484D02*
X10709825Y-15809055D01*
X10709825Y-15809055D02*
X10690777Y-15828103D01*
X10690777Y-15828103D02*
X10671730Y-15837627D01*
X10862206Y-15799531D02*
X10871730Y-15790008D01*
X10871730Y-15790008D02*
X10890777Y-15780484D01*
X10890777Y-15780484D02*
X10938396Y-15780484D01*
X10938396Y-15780484D02*
X10957444Y-15790008D01*
X10957444Y-15790008D02*
X10966968Y-15799531D01*
X10966968Y-15799531D02*
X10976491Y-15818579D01*
X10976491Y-15818579D02*
X10976491Y-15837627D01*
X10976491Y-15837627D02*
X10966968Y-15866198D01*
X10966968Y-15866198D02*
X10852682Y-15980484D01*
X10852682Y-15980484D02*
X10976491Y-15980484D01*
X11214587Y-15980484D02*
X11214587Y-15780484D01*
X11300301Y-15980484D02*
X11300301Y-15875722D01*
X11300301Y-15875722D02*
X11290777Y-15856674D01*
X11290777Y-15856674D02*
X11271730Y-15847150D01*
X11271730Y-15847150D02*
X11243158Y-15847150D01*
X11243158Y-15847150D02*
X11224110Y-15856674D01*
X11224110Y-15856674D02*
X11214587Y-15866198D01*
X11424110Y-15980484D02*
X11405063Y-15970960D01*
X11405063Y-15970960D02*
X11395539Y-15961436D01*
X11395539Y-15961436D02*
X11386015Y-15942388D01*
X11386015Y-15942388D02*
X11386015Y-15885246D01*
X11386015Y-15885246D02*
X11395539Y-15866198D01*
X11395539Y-15866198D02*
X11405063Y-15856674D01*
X11405063Y-15856674D02*
X11424110Y-15847150D01*
X11424110Y-15847150D02*
X11452682Y-15847150D01*
X11452682Y-15847150D02*
X11471730Y-15856674D01*
X11471730Y-15856674D02*
X11481253Y-15866198D01*
X11481253Y-15866198D02*
X11490777Y-15885246D01*
X11490777Y-15885246D02*
X11490777Y-15942388D01*
X11490777Y-15942388D02*
X11481253Y-15961436D01*
X11481253Y-15961436D02*
X11471730Y-15970960D01*
X11471730Y-15970960D02*
X11452682Y-15980484D01*
X11452682Y-15980484D02*
X11424110Y-15980484D01*
X11605063Y-15980484D02*
X11586015Y-15970960D01*
X11586015Y-15970960D02*
X11576491Y-15951912D01*
X11576491Y-15951912D02*
X11576491Y-15780484D01*
X11757444Y-15970960D02*
X11738396Y-15980484D01*
X11738396Y-15980484D02*
X11700301Y-15980484D01*
X11700301Y-15980484D02*
X11681253Y-15970960D01*
X11681253Y-15970960D02*
X11671730Y-15951912D01*
X11671730Y-15951912D02*
X11671730Y-15875722D01*
X11671730Y-15875722D02*
X11681253Y-15856674D01*
X11681253Y-15856674D02*
X11700301Y-15847150D01*
X11700301Y-15847150D02*
X11738396Y-15847150D01*
X11738396Y-15847150D02*
X11757444Y-15856674D01*
X11757444Y-15856674D02*
X11766968Y-15875722D01*
X11766968Y-15875722D02*
X11766968Y-15894769D01*
X11766968Y-15894769D02*
X11671730Y-15913817D01*
X11843158Y-15970960D02*
X11862206Y-15980484D01*
X11862206Y-15980484D02*
X11900301Y-15980484D01*
X11900301Y-15980484D02*
X11919349Y-15970960D01*
X11919349Y-15970960D02*
X11928872Y-15951912D01*
X11928872Y-15951912D02*
X11928872Y-15942388D01*
X11928872Y-15942388D02*
X11919349Y-15923341D01*
X11919349Y-15923341D02*
X11900301Y-15913817D01*
X11900301Y-15913817D02*
X11871730Y-15913817D01*
X11871730Y-15913817D02*
X11852682Y-15904293D01*
X11852682Y-15904293D02*
X11843158Y-15885246D01*
X11843158Y-15885246D02*
X11843158Y-15875722D01*
X11843158Y-15875722D02*
X11852682Y-15856674D01*
X11852682Y-15856674D02*
X11871730Y-15847150D01*
X11871730Y-15847150D02*
X11900301Y-15847150D01*
X11900301Y-15847150D02*
X11919349Y-15856674D01*
X11995539Y-16056674D02*
X12005063Y-16047150D01*
X12005063Y-16047150D02*
X12024111Y-16018579D01*
X12024111Y-16018579D02*
X12033634Y-15999531D01*
X12033634Y-15999531D02*
X12043158Y-15970960D01*
X12043158Y-15970960D02*
X12052682Y-15923341D01*
X12052682Y-15923341D02*
X12052682Y-15885246D01*
X12052682Y-15885246D02*
X12043158Y-15837627D01*
X12043158Y-15837627D02*
X12033634Y-15809055D01*
X12033634Y-15809055D02*
X12024111Y-15790008D01*
X12024111Y-15790008D02*
X12005063Y-15761436D01*
X12005063Y-15761436D02*
X11995539Y-15751912D01*
D14*
X6990000Y-16113000D02*
X6990000Y-16193000D01*
X6950000Y-16153000D02*
X7030000Y-16153000D01*
D11*
X7328872Y-16044484D02*
X7347920Y-16044484D01*
X7347920Y-16044484D02*
X7366967Y-16054008D01*
X7366967Y-16054008D02*
X7376491Y-16063531D01*
X7376491Y-16063531D02*
X7386015Y-16082579D01*
X7386015Y-16082579D02*
X7395539Y-16120674D01*
X7395539Y-16120674D02*
X7395539Y-16168293D01*
X7395539Y-16168293D02*
X7386015Y-16206388D01*
X7386015Y-16206388D02*
X7376491Y-16225436D01*
X7376491Y-16225436D02*
X7366967Y-16234960D01*
X7366967Y-16234960D02*
X7347920Y-16244484D01*
X7347920Y-16244484D02*
X7328872Y-16244484D01*
X7328872Y-16244484D02*
X7309824Y-16234960D01*
X7309824Y-16234960D02*
X7300301Y-16225436D01*
X7300301Y-16225436D02*
X7290777Y-16206388D01*
X7290777Y-16206388D02*
X7281253Y-16168293D01*
X7281253Y-16168293D02*
X7281253Y-16120674D01*
X7281253Y-16120674D02*
X7290777Y-16082579D01*
X7290777Y-16082579D02*
X7300301Y-16063531D01*
X7300301Y-16063531D02*
X7309824Y-16054008D01*
X7309824Y-16054008D02*
X7328872Y-16044484D01*
X7481253Y-16225436D02*
X7490777Y-16234960D01*
X7490777Y-16234960D02*
X7481253Y-16244484D01*
X7481253Y-16244484D02*
X7471729Y-16234960D01*
X7471729Y-16234960D02*
X7481253Y-16225436D01*
X7481253Y-16225436D02*
X7481253Y-16244484D01*
X7605062Y-16130198D02*
X7586015Y-16120674D01*
X7586015Y-16120674D02*
X7576491Y-16111150D01*
X7576491Y-16111150D02*
X7566967Y-16092103D01*
X7566967Y-16092103D02*
X7566967Y-16082579D01*
X7566967Y-16082579D02*
X7576491Y-16063531D01*
X7576491Y-16063531D02*
X7586015Y-16054008D01*
X7586015Y-16054008D02*
X7605062Y-16044484D01*
X7605062Y-16044484D02*
X7643158Y-16044484D01*
X7643158Y-16044484D02*
X7662205Y-16054008D01*
X7662205Y-16054008D02*
X7671729Y-16063531D01*
X7671729Y-16063531D02*
X7681253Y-16082579D01*
X7681253Y-16082579D02*
X7681253Y-16092103D01*
X7681253Y-16092103D02*
X7671729Y-16111150D01*
X7671729Y-16111150D02*
X7662205Y-16120674D01*
X7662205Y-16120674D02*
X7643158Y-16130198D01*
X7643158Y-16130198D02*
X7605062Y-16130198D01*
X7605062Y-16130198D02*
X7586015Y-16139722D01*
X7586015Y-16139722D02*
X7576491Y-16149246D01*
X7576491Y-16149246D02*
X7566967Y-16168293D01*
X7566967Y-16168293D02*
X7566967Y-16206388D01*
X7566967Y-16206388D02*
X7576491Y-16225436D01*
X7576491Y-16225436D02*
X7586015Y-16234960D01*
X7586015Y-16234960D02*
X7605062Y-16244484D01*
X7605062Y-16244484D02*
X7643158Y-16244484D01*
X7643158Y-16244484D02*
X7662205Y-16234960D01*
X7662205Y-16234960D02*
X7671729Y-16225436D01*
X7671729Y-16225436D02*
X7681253Y-16206388D01*
X7681253Y-16206388D02*
X7681253Y-16168293D01*
X7681253Y-16168293D02*
X7671729Y-16149246D01*
X7671729Y-16149246D02*
X7662205Y-16139722D01*
X7662205Y-16139722D02*
X7643158Y-16130198D01*
X7805062Y-16044484D02*
X7824110Y-16044484D01*
X7824110Y-16044484D02*
X7843158Y-16054008D01*
X7843158Y-16054008D02*
X7852682Y-16063531D01*
X7852682Y-16063531D02*
X7862205Y-16082579D01*
X7862205Y-16082579D02*
X7871729Y-16120674D01*
X7871729Y-16120674D02*
X7871729Y-16168293D01*
X7871729Y-16168293D02*
X7862205Y-16206388D01*
X7862205Y-16206388D02*
X7852682Y-16225436D01*
X7852682Y-16225436D02*
X7843158Y-16234960D01*
X7843158Y-16234960D02*
X7824110Y-16244484D01*
X7824110Y-16244484D02*
X7805062Y-16244484D01*
X7805062Y-16244484D02*
X7786015Y-16234960D01*
X7786015Y-16234960D02*
X7776491Y-16225436D01*
X7776491Y-16225436D02*
X7766967Y-16206388D01*
X7766967Y-16206388D02*
X7757443Y-16168293D01*
X7757443Y-16168293D02*
X7757443Y-16120674D01*
X7757443Y-16120674D02*
X7766967Y-16082579D01*
X7766967Y-16082579D02*
X7776491Y-16063531D01*
X7776491Y-16063531D02*
X7786015Y-16054008D01*
X7786015Y-16054008D02*
X7805062Y-16044484D01*
X7995539Y-16044484D02*
X8014586Y-16044484D01*
X8014586Y-16044484D02*
X8033634Y-16054008D01*
X8033634Y-16054008D02*
X8043158Y-16063531D01*
X8043158Y-16063531D02*
X8052682Y-16082579D01*
X8052682Y-16082579D02*
X8062205Y-16120674D01*
X8062205Y-16120674D02*
X8062205Y-16168293D01*
X8062205Y-16168293D02*
X8052682Y-16206388D01*
X8052682Y-16206388D02*
X8043158Y-16225436D01*
X8043158Y-16225436D02*
X8033634Y-16234960D01*
X8033634Y-16234960D02*
X8014586Y-16244484D01*
X8014586Y-16244484D02*
X7995539Y-16244484D01*
X7995539Y-16244484D02*
X7976491Y-16234960D01*
X7976491Y-16234960D02*
X7966967Y-16225436D01*
X7966967Y-16225436D02*
X7957443Y-16206388D01*
X7957443Y-16206388D02*
X7947920Y-16168293D01*
X7947920Y-16168293D02*
X7947920Y-16120674D01*
X7947920Y-16120674D02*
X7957443Y-16082579D01*
X7957443Y-16082579D02*
X7966967Y-16063531D01*
X7966967Y-16063531D02*
X7976491Y-16054008D01*
X7976491Y-16054008D02*
X7995539Y-16044484D01*
X8147920Y-16244484D02*
X8147920Y-16111150D01*
X8147920Y-16130198D02*
X8157443Y-16120674D01*
X8157443Y-16120674D02*
X8176491Y-16111150D01*
X8176491Y-16111150D02*
X8205063Y-16111150D01*
X8205063Y-16111150D02*
X8224110Y-16120674D01*
X8224110Y-16120674D02*
X8233634Y-16139722D01*
X8233634Y-16139722D02*
X8233634Y-16244484D01*
X8233634Y-16139722D02*
X8243158Y-16120674D01*
X8243158Y-16120674D02*
X8262205Y-16111150D01*
X8262205Y-16111150D02*
X8290777Y-16111150D01*
X8290777Y-16111150D02*
X8309824Y-16120674D01*
X8309824Y-16120674D02*
X8319348Y-16139722D01*
X8319348Y-16139722D02*
X8319348Y-16244484D01*
X8414586Y-16244484D02*
X8414586Y-16111150D01*
X8414586Y-16130198D02*
X8424110Y-16120674D01*
X8424110Y-16120674D02*
X8443158Y-16111150D01*
X8443158Y-16111150D02*
X8471729Y-16111150D01*
X8471729Y-16111150D02*
X8490777Y-16120674D01*
X8490777Y-16120674D02*
X8500301Y-16139722D01*
X8500301Y-16139722D02*
X8500301Y-16244484D01*
X8500301Y-16139722D02*
X8509825Y-16120674D01*
X8509825Y-16120674D02*
X8528872Y-16111150D01*
X8528872Y-16111150D02*
X8557444Y-16111150D01*
X8557444Y-16111150D02*
X8576491Y-16120674D01*
X8576491Y-16120674D02*
X8586015Y-16139722D01*
X8586015Y-16139722D02*
X8586015Y-16244484D01*
X8976491Y-16034960D02*
X8805063Y-16292103D01*
X9233634Y-16044484D02*
X9252682Y-16044484D01*
X9252682Y-16044484D02*
X9271729Y-16054008D01*
X9271729Y-16054008D02*
X9281253Y-16063531D01*
X9281253Y-16063531D02*
X9290777Y-16082579D01*
X9290777Y-16082579D02*
X9300301Y-16120674D01*
X9300301Y-16120674D02*
X9300301Y-16168293D01*
X9300301Y-16168293D02*
X9290777Y-16206388D01*
X9290777Y-16206388D02*
X9281253Y-16225436D01*
X9281253Y-16225436D02*
X9271729Y-16234960D01*
X9271729Y-16234960D02*
X9252682Y-16244484D01*
X9252682Y-16244484D02*
X9233634Y-16244484D01*
X9233634Y-16244484D02*
X9214587Y-16234960D01*
X9214587Y-16234960D02*
X9205063Y-16225436D01*
X9205063Y-16225436D02*
X9195539Y-16206388D01*
X9195539Y-16206388D02*
X9186015Y-16168293D01*
X9186015Y-16168293D02*
X9186015Y-16120674D01*
X9186015Y-16120674D02*
X9195539Y-16082579D01*
X9195539Y-16082579D02*
X9205063Y-16063531D01*
X9205063Y-16063531D02*
X9214587Y-16054008D01*
X9214587Y-16054008D02*
X9233634Y-16044484D01*
X9386015Y-16225436D02*
X9395539Y-16234960D01*
X9395539Y-16234960D02*
X9386015Y-16244484D01*
X9386015Y-16244484D02*
X9376491Y-16234960D01*
X9376491Y-16234960D02*
X9386015Y-16225436D01*
X9386015Y-16225436D02*
X9386015Y-16244484D01*
X9519348Y-16044484D02*
X9538396Y-16044484D01*
X9538396Y-16044484D02*
X9557444Y-16054008D01*
X9557444Y-16054008D02*
X9566968Y-16063531D01*
X9566968Y-16063531D02*
X9576491Y-16082579D01*
X9576491Y-16082579D02*
X9586015Y-16120674D01*
X9586015Y-16120674D02*
X9586015Y-16168293D01*
X9586015Y-16168293D02*
X9576491Y-16206388D01*
X9576491Y-16206388D02*
X9566968Y-16225436D01*
X9566968Y-16225436D02*
X9557444Y-16234960D01*
X9557444Y-16234960D02*
X9538396Y-16244484D01*
X9538396Y-16244484D02*
X9519348Y-16244484D01*
X9519348Y-16244484D02*
X9500301Y-16234960D01*
X9500301Y-16234960D02*
X9490777Y-16225436D01*
X9490777Y-16225436D02*
X9481253Y-16206388D01*
X9481253Y-16206388D02*
X9471729Y-16168293D01*
X9471729Y-16168293D02*
X9471729Y-16120674D01*
X9471729Y-16120674D02*
X9481253Y-16082579D01*
X9481253Y-16082579D02*
X9490777Y-16063531D01*
X9490777Y-16063531D02*
X9500301Y-16054008D01*
X9500301Y-16054008D02*
X9519348Y-16044484D01*
X9652682Y-16044484D02*
X9776491Y-16044484D01*
X9776491Y-16044484D02*
X9709825Y-16120674D01*
X9709825Y-16120674D02*
X9738396Y-16120674D01*
X9738396Y-16120674D02*
X9757444Y-16130198D01*
X9757444Y-16130198D02*
X9766968Y-16139722D01*
X9766968Y-16139722D02*
X9776491Y-16158769D01*
X9776491Y-16158769D02*
X9776491Y-16206388D01*
X9776491Y-16206388D02*
X9766968Y-16225436D01*
X9766968Y-16225436D02*
X9757444Y-16234960D01*
X9757444Y-16234960D02*
X9738396Y-16244484D01*
X9738396Y-16244484D02*
X9681253Y-16244484D01*
X9681253Y-16244484D02*
X9662206Y-16234960D01*
X9662206Y-16234960D02*
X9652682Y-16225436D01*
X9966968Y-16244484D02*
X9852682Y-16244484D01*
X9909825Y-16244484D02*
X9909825Y-16044484D01*
X9909825Y-16044484D02*
X9890777Y-16073055D01*
X9890777Y-16073055D02*
X9871729Y-16092103D01*
X9871729Y-16092103D02*
X9852682Y-16101627D01*
X10147920Y-16044484D02*
X10052682Y-16044484D01*
X10052682Y-16044484D02*
X10043158Y-16139722D01*
X10043158Y-16139722D02*
X10052682Y-16130198D01*
X10052682Y-16130198D02*
X10071729Y-16120674D01*
X10071729Y-16120674D02*
X10119349Y-16120674D01*
X10119349Y-16120674D02*
X10138396Y-16130198D01*
X10138396Y-16130198D02*
X10147920Y-16139722D01*
X10147920Y-16139722D02*
X10157444Y-16158769D01*
X10157444Y-16158769D02*
X10157444Y-16206388D01*
X10157444Y-16206388D02*
X10147920Y-16225436D01*
X10147920Y-16225436D02*
X10138396Y-16234960D01*
X10138396Y-16234960D02*
X10119349Y-16244484D01*
X10119349Y-16244484D02*
X10071729Y-16244484D01*
X10071729Y-16244484D02*
X10052682Y-16234960D01*
X10052682Y-16234960D02*
X10043158Y-16225436D01*
X10233634Y-16044484D02*
X10233634Y-16082579D01*
X10309825Y-16044484D02*
X10309825Y-16082579D01*
X10605063Y-16320674D02*
X10595539Y-16311150D01*
X10595539Y-16311150D02*
X10576491Y-16282579D01*
X10576491Y-16282579D02*
X10566968Y-16263531D01*
X10566968Y-16263531D02*
X10557444Y-16234960D01*
X10557444Y-16234960D02*
X10547920Y-16187341D01*
X10547920Y-16187341D02*
X10547920Y-16149246D01*
X10547920Y-16149246D02*
X10557444Y-16101627D01*
X10557444Y-16101627D02*
X10566968Y-16073055D01*
X10566968Y-16073055D02*
X10576491Y-16054008D01*
X10576491Y-16054008D02*
X10595539Y-16025436D01*
X10595539Y-16025436D02*
X10605063Y-16015912D01*
X10662206Y-16044484D02*
X10786015Y-16044484D01*
X10786015Y-16044484D02*
X10719349Y-16120674D01*
X10719349Y-16120674D02*
X10747920Y-16120674D01*
X10747920Y-16120674D02*
X10766968Y-16130198D01*
X10766968Y-16130198D02*
X10776491Y-16139722D01*
X10776491Y-16139722D02*
X10786015Y-16158769D01*
X10786015Y-16158769D02*
X10786015Y-16206388D01*
X10786015Y-16206388D02*
X10776491Y-16225436D01*
X10776491Y-16225436D02*
X10766968Y-16234960D01*
X10766968Y-16234960D02*
X10747920Y-16244484D01*
X10747920Y-16244484D02*
X10690777Y-16244484D01*
X10690777Y-16244484D02*
X10671730Y-16234960D01*
X10671730Y-16234960D02*
X10662206Y-16225436D01*
X10909825Y-16044484D02*
X10928872Y-16044484D01*
X10928872Y-16044484D02*
X10947920Y-16054008D01*
X10947920Y-16054008D02*
X10957444Y-16063531D01*
X10957444Y-16063531D02*
X10966968Y-16082579D01*
X10966968Y-16082579D02*
X10976491Y-16120674D01*
X10976491Y-16120674D02*
X10976491Y-16168293D01*
X10976491Y-16168293D02*
X10966968Y-16206388D01*
X10966968Y-16206388D02*
X10957444Y-16225436D01*
X10957444Y-16225436D02*
X10947920Y-16234960D01*
X10947920Y-16234960D02*
X10928872Y-16244484D01*
X10928872Y-16244484D02*
X10909825Y-16244484D01*
X10909825Y-16244484D02*
X10890777Y-16234960D01*
X10890777Y-16234960D02*
X10881253Y-16225436D01*
X10881253Y-16225436D02*
X10871730Y-16206388D01*
X10871730Y-16206388D02*
X10862206Y-16168293D01*
X10862206Y-16168293D02*
X10862206Y-16120674D01*
X10862206Y-16120674D02*
X10871730Y-16082579D01*
X10871730Y-16082579D02*
X10881253Y-16063531D01*
X10881253Y-16063531D02*
X10890777Y-16054008D01*
X10890777Y-16054008D02*
X10909825Y-16044484D01*
X11214587Y-16244484D02*
X11214587Y-16044484D01*
X11300301Y-16244484D02*
X11300301Y-16139722D01*
X11300301Y-16139722D02*
X11290777Y-16120674D01*
X11290777Y-16120674D02*
X11271730Y-16111150D01*
X11271730Y-16111150D02*
X11243158Y-16111150D01*
X11243158Y-16111150D02*
X11224110Y-16120674D01*
X11224110Y-16120674D02*
X11214587Y-16130198D01*
X11424110Y-16244484D02*
X11405063Y-16234960D01*
X11405063Y-16234960D02*
X11395539Y-16225436D01*
X11395539Y-16225436D02*
X11386015Y-16206388D01*
X11386015Y-16206388D02*
X11386015Y-16149246D01*
X11386015Y-16149246D02*
X11395539Y-16130198D01*
X11395539Y-16130198D02*
X11405063Y-16120674D01*
X11405063Y-16120674D02*
X11424110Y-16111150D01*
X11424110Y-16111150D02*
X11452682Y-16111150D01*
X11452682Y-16111150D02*
X11471730Y-16120674D01*
X11471730Y-16120674D02*
X11481253Y-16130198D01*
X11481253Y-16130198D02*
X11490777Y-16149246D01*
X11490777Y-16149246D02*
X11490777Y-16206388D01*
X11490777Y-16206388D02*
X11481253Y-16225436D01*
X11481253Y-16225436D02*
X11471730Y-16234960D01*
X11471730Y-16234960D02*
X11452682Y-16244484D01*
X11452682Y-16244484D02*
X11424110Y-16244484D01*
X11605063Y-16244484D02*
X11586015Y-16234960D01*
X11586015Y-16234960D02*
X11576491Y-16215912D01*
X11576491Y-16215912D02*
X11576491Y-16044484D01*
X11757444Y-16234960D02*
X11738396Y-16244484D01*
X11738396Y-16244484D02*
X11700301Y-16244484D01*
X11700301Y-16244484D02*
X11681253Y-16234960D01*
X11681253Y-16234960D02*
X11671730Y-16215912D01*
X11671730Y-16215912D02*
X11671730Y-16139722D01*
X11671730Y-16139722D02*
X11681253Y-16120674D01*
X11681253Y-16120674D02*
X11700301Y-16111150D01*
X11700301Y-16111150D02*
X11738396Y-16111150D01*
X11738396Y-16111150D02*
X11757444Y-16120674D01*
X11757444Y-16120674D02*
X11766968Y-16139722D01*
X11766968Y-16139722D02*
X11766968Y-16158769D01*
X11766968Y-16158769D02*
X11671730Y-16177817D01*
X11843158Y-16234960D02*
X11862206Y-16244484D01*
X11862206Y-16244484D02*
X11900301Y-16244484D01*
X11900301Y-16244484D02*
X11919349Y-16234960D01*
X11919349Y-16234960D02*
X11928872Y-16215912D01*
X11928872Y-16215912D02*
X11928872Y-16206388D01*
X11928872Y-16206388D02*
X11919349Y-16187341D01*
X11919349Y-16187341D02*
X11900301Y-16177817D01*
X11900301Y-16177817D02*
X11871730Y-16177817D01*
X11871730Y-16177817D02*
X11852682Y-16168293D01*
X11852682Y-16168293D02*
X11843158Y-16149246D01*
X11843158Y-16149246D02*
X11843158Y-16139722D01*
X11843158Y-16139722D02*
X11852682Y-16120674D01*
X11852682Y-16120674D02*
X11871730Y-16111150D01*
X11871730Y-16111150D02*
X11900301Y-16111150D01*
X11900301Y-16111150D02*
X11919349Y-16120674D01*
X11995539Y-16320674D02*
X12005063Y-16311150D01*
X12005063Y-16311150D02*
X12024111Y-16282579D01*
X12024111Y-16282579D02*
X12033634Y-16263531D01*
X12033634Y-16263531D02*
X12043158Y-16234960D01*
X12043158Y-16234960D02*
X12052682Y-16187341D01*
X12052682Y-16187341D02*
X12052682Y-16149246D01*
X12052682Y-16149246D02*
X12043158Y-16101627D01*
X12043158Y-16101627D02*
X12033634Y-16073055D01*
X12033634Y-16073055D02*
X12024111Y-16054008D01*
X12024111Y-16054008D02*
X12005063Y-16025436D01*
X12005063Y-16025436D02*
X11995539Y-16015912D01*
D15*
X7017353Y-16447533D02*
X7017353Y-16386467D01*
X6956287Y-16386467D01*
X6956287Y-16447533D01*
X7017353Y-16447533D01*
D11*
X7328872Y-16308484D02*
X7347920Y-16308484D01*
X7347920Y-16308484D02*
X7366967Y-16318008D01*
X7366967Y-16318008D02*
X7376491Y-16327531D01*
X7376491Y-16327531D02*
X7386015Y-16346579D01*
X7386015Y-16346579D02*
X7395539Y-16384674D01*
X7395539Y-16384674D02*
X7395539Y-16432293D01*
X7395539Y-16432293D02*
X7386015Y-16470388D01*
X7386015Y-16470388D02*
X7376491Y-16489436D01*
X7376491Y-16489436D02*
X7366967Y-16498960D01*
X7366967Y-16498960D02*
X7347920Y-16508484D01*
X7347920Y-16508484D02*
X7328872Y-16508484D01*
X7328872Y-16508484D02*
X7309824Y-16498960D01*
X7309824Y-16498960D02*
X7300301Y-16489436D01*
X7300301Y-16489436D02*
X7290777Y-16470388D01*
X7290777Y-16470388D02*
X7281253Y-16432293D01*
X7281253Y-16432293D02*
X7281253Y-16384674D01*
X7281253Y-16384674D02*
X7290777Y-16346579D01*
X7290777Y-16346579D02*
X7300301Y-16327531D01*
X7300301Y-16327531D02*
X7309824Y-16318008D01*
X7309824Y-16318008D02*
X7328872Y-16308484D01*
X7481253Y-16489436D02*
X7490777Y-16498960D01*
X7490777Y-16498960D02*
X7481253Y-16508484D01*
X7481253Y-16508484D02*
X7471729Y-16498960D01*
X7471729Y-16498960D02*
X7481253Y-16489436D01*
X7481253Y-16489436D02*
X7481253Y-16508484D01*
X7605062Y-16394198D02*
X7586015Y-16384674D01*
X7586015Y-16384674D02*
X7576491Y-16375150D01*
X7576491Y-16375150D02*
X7566967Y-16356103D01*
X7566967Y-16356103D02*
X7566967Y-16346579D01*
X7566967Y-16346579D02*
X7576491Y-16327531D01*
X7576491Y-16327531D02*
X7586015Y-16318008D01*
X7586015Y-16318008D02*
X7605062Y-16308484D01*
X7605062Y-16308484D02*
X7643158Y-16308484D01*
X7643158Y-16308484D02*
X7662205Y-16318008D01*
X7662205Y-16318008D02*
X7671729Y-16327531D01*
X7671729Y-16327531D02*
X7681253Y-16346579D01*
X7681253Y-16346579D02*
X7681253Y-16356103D01*
X7681253Y-16356103D02*
X7671729Y-16375150D01*
X7671729Y-16375150D02*
X7662205Y-16384674D01*
X7662205Y-16384674D02*
X7643158Y-16394198D01*
X7643158Y-16394198D02*
X7605062Y-16394198D01*
X7605062Y-16394198D02*
X7586015Y-16403722D01*
X7586015Y-16403722D02*
X7576491Y-16413246D01*
X7576491Y-16413246D02*
X7566967Y-16432293D01*
X7566967Y-16432293D02*
X7566967Y-16470388D01*
X7566967Y-16470388D02*
X7576491Y-16489436D01*
X7576491Y-16489436D02*
X7586015Y-16498960D01*
X7586015Y-16498960D02*
X7605062Y-16508484D01*
X7605062Y-16508484D02*
X7643158Y-16508484D01*
X7643158Y-16508484D02*
X7662205Y-16498960D01*
X7662205Y-16498960D02*
X7671729Y-16489436D01*
X7671729Y-16489436D02*
X7681253Y-16470388D01*
X7681253Y-16470388D02*
X7681253Y-16432293D01*
X7681253Y-16432293D02*
X7671729Y-16413246D01*
X7671729Y-16413246D02*
X7662205Y-16403722D01*
X7662205Y-16403722D02*
X7643158Y-16394198D01*
X7852682Y-16308484D02*
X7814586Y-16308484D01*
X7814586Y-16308484D02*
X7795539Y-16318008D01*
X7795539Y-16318008D02*
X7786015Y-16327531D01*
X7786015Y-16327531D02*
X7766967Y-16356103D01*
X7766967Y-16356103D02*
X7757443Y-16394198D01*
X7757443Y-16394198D02*
X7757443Y-16470388D01*
X7757443Y-16470388D02*
X7766967Y-16489436D01*
X7766967Y-16489436D02*
X7776491Y-16498960D01*
X7776491Y-16498960D02*
X7795539Y-16508484D01*
X7795539Y-16508484D02*
X7833634Y-16508484D01*
X7833634Y-16508484D02*
X7852682Y-16498960D01*
X7852682Y-16498960D02*
X7862205Y-16489436D01*
X7862205Y-16489436D02*
X7871729Y-16470388D01*
X7871729Y-16470388D02*
X7871729Y-16422769D01*
X7871729Y-16422769D02*
X7862205Y-16403722D01*
X7862205Y-16403722D02*
X7852682Y-16394198D01*
X7852682Y-16394198D02*
X7833634Y-16384674D01*
X7833634Y-16384674D02*
X7795539Y-16384674D01*
X7795539Y-16384674D02*
X7776491Y-16394198D01*
X7776491Y-16394198D02*
X7766967Y-16403722D01*
X7766967Y-16403722D02*
X7757443Y-16422769D01*
X8043158Y-16375150D02*
X8043158Y-16508484D01*
X7995539Y-16298960D02*
X7947920Y-16441817D01*
X7947920Y-16441817D02*
X8071729Y-16441817D01*
X8147920Y-16508484D02*
X8147920Y-16375150D01*
X8147920Y-16394198D02*
X8157443Y-16384674D01*
X8157443Y-16384674D02*
X8176491Y-16375150D01*
X8176491Y-16375150D02*
X8205063Y-16375150D01*
X8205063Y-16375150D02*
X8224110Y-16384674D01*
X8224110Y-16384674D02*
X8233634Y-16403722D01*
X8233634Y-16403722D02*
X8233634Y-16508484D01*
X8233634Y-16403722D02*
X8243158Y-16384674D01*
X8243158Y-16384674D02*
X8262205Y-16375150D01*
X8262205Y-16375150D02*
X8290777Y-16375150D01*
X8290777Y-16375150D02*
X8309824Y-16384674D01*
X8309824Y-16384674D02*
X8319348Y-16403722D01*
X8319348Y-16403722D02*
X8319348Y-16508484D01*
X8414586Y-16508484D02*
X8414586Y-16375150D01*
X8414586Y-16394198D02*
X8424110Y-16384674D01*
X8424110Y-16384674D02*
X8443158Y-16375150D01*
X8443158Y-16375150D02*
X8471729Y-16375150D01*
X8471729Y-16375150D02*
X8490777Y-16384674D01*
X8490777Y-16384674D02*
X8500301Y-16403722D01*
X8500301Y-16403722D02*
X8500301Y-16508484D01*
X8500301Y-16403722D02*
X8509825Y-16384674D01*
X8509825Y-16384674D02*
X8528872Y-16375150D01*
X8528872Y-16375150D02*
X8557444Y-16375150D01*
X8557444Y-16375150D02*
X8576491Y-16384674D01*
X8576491Y-16384674D02*
X8586015Y-16403722D01*
X8586015Y-16403722D02*
X8586015Y-16508484D01*
X8976491Y-16298960D02*
X8805063Y-16556103D01*
X9233634Y-16308484D02*
X9252682Y-16308484D01*
X9252682Y-16308484D02*
X9271729Y-16318008D01*
X9271729Y-16318008D02*
X9281253Y-16327531D01*
X9281253Y-16327531D02*
X9290777Y-16346579D01*
X9290777Y-16346579D02*
X9300301Y-16384674D01*
X9300301Y-16384674D02*
X9300301Y-16432293D01*
X9300301Y-16432293D02*
X9290777Y-16470388D01*
X9290777Y-16470388D02*
X9281253Y-16489436D01*
X9281253Y-16489436D02*
X9271729Y-16498960D01*
X9271729Y-16498960D02*
X9252682Y-16508484D01*
X9252682Y-16508484D02*
X9233634Y-16508484D01*
X9233634Y-16508484D02*
X9214587Y-16498960D01*
X9214587Y-16498960D02*
X9205063Y-16489436D01*
X9205063Y-16489436D02*
X9195539Y-16470388D01*
X9195539Y-16470388D02*
X9186015Y-16432293D01*
X9186015Y-16432293D02*
X9186015Y-16384674D01*
X9186015Y-16384674D02*
X9195539Y-16346579D01*
X9195539Y-16346579D02*
X9205063Y-16327531D01*
X9205063Y-16327531D02*
X9214587Y-16318008D01*
X9214587Y-16318008D02*
X9233634Y-16308484D01*
X9386015Y-16489436D02*
X9395539Y-16498960D01*
X9395539Y-16498960D02*
X9386015Y-16508484D01*
X9386015Y-16508484D02*
X9376491Y-16498960D01*
X9376491Y-16498960D02*
X9386015Y-16489436D01*
X9386015Y-16489436D02*
X9386015Y-16508484D01*
X9519348Y-16308484D02*
X9538396Y-16308484D01*
X9538396Y-16308484D02*
X9557444Y-16318008D01*
X9557444Y-16318008D02*
X9566968Y-16327531D01*
X9566968Y-16327531D02*
X9576491Y-16346579D01*
X9576491Y-16346579D02*
X9586015Y-16384674D01*
X9586015Y-16384674D02*
X9586015Y-16432293D01*
X9586015Y-16432293D02*
X9576491Y-16470388D01*
X9576491Y-16470388D02*
X9566968Y-16489436D01*
X9566968Y-16489436D02*
X9557444Y-16498960D01*
X9557444Y-16498960D02*
X9538396Y-16508484D01*
X9538396Y-16508484D02*
X9519348Y-16508484D01*
X9519348Y-16508484D02*
X9500301Y-16498960D01*
X9500301Y-16498960D02*
X9490777Y-16489436D01*
X9490777Y-16489436D02*
X9481253Y-16470388D01*
X9481253Y-16470388D02*
X9471729Y-16432293D01*
X9471729Y-16432293D02*
X9471729Y-16384674D01*
X9471729Y-16384674D02*
X9481253Y-16346579D01*
X9481253Y-16346579D02*
X9490777Y-16327531D01*
X9490777Y-16327531D02*
X9500301Y-16318008D01*
X9500301Y-16318008D02*
X9519348Y-16308484D01*
X9652682Y-16308484D02*
X9776491Y-16308484D01*
X9776491Y-16308484D02*
X9709825Y-16384674D01*
X9709825Y-16384674D02*
X9738396Y-16384674D01*
X9738396Y-16384674D02*
X9757444Y-16394198D01*
X9757444Y-16394198D02*
X9766968Y-16403722D01*
X9766968Y-16403722D02*
X9776491Y-16422769D01*
X9776491Y-16422769D02*
X9776491Y-16470388D01*
X9776491Y-16470388D02*
X9766968Y-16489436D01*
X9766968Y-16489436D02*
X9757444Y-16498960D01*
X9757444Y-16498960D02*
X9738396Y-16508484D01*
X9738396Y-16508484D02*
X9681253Y-16508484D01*
X9681253Y-16508484D02*
X9662206Y-16498960D01*
X9662206Y-16498960D02*
X9652682Y-16489436D01*
X9947920Y-16375150D02*
X9947920Y-16508484D01*
X9900301Y-16298960D02*
X9852682Y-16441817D01*
X9852682Y-16441817D02*
X9976491Y-16441817D01*
X10090777Y-16308484D02*
X10109825Y-16308484D01*
X10109825Y-16308484D02*
X10128872Y-16318008D01*
X10128872Y-16318008D02*
X10138396Y-16327531D01*
X10138396Y-16327531D02*
X10147920Y-16346579D01*
X10147920Y-16346579D02*
X10157444Y-16384674D01*
X10157444Y-16384674D02*
X10157444Y-16432293D01*
X10157444Y-16432293D02*
X10147920Y-16470388D01*
X10147920Y-16470388D02*
X10138396Y-16489436D01*
X10138396Y-16489436D02*
X10128872Y-16498960D01*
X10128872Y-16498960D02*
X10109825Y-16508484D01*
X10109825Y-16508484D02*
X10090777Y-16508484D01*
X10090777Y-16508484D02*
X10071729Y-16498960D01*
X10071729Y-16498960D02*
X10062206Y-16489436D01*
X10062206Y-16489436D02*
X10052682Y-16470388D01*
X10052682Y-16470388D02*
X10043158Y-16432293D01*
X10043158Y-16432293D02*
X10043158Y-16384674D01*
X10043158Y-16384674D02*
X10052682Y-16346579D01*
X10052682Y-16346579D02*
X10062206Y-16327531D01*
X10062206Y-16327531D02*
X10071729Y-16318008D01*
X10071729Y-16318008D02*
X10090777Y-16308484D01*
X10233634Y-16308484D02*
X10233634Y-16346579D01*
X10309825Y-16308484D02*
X10309825Y-16346579D01*
X10605063Y-16584674D02*
X10595539Y-16575150D01*
X10595539Y-16575150D02*
X10576491Y-16546579D01*
X10576491Y-16546579D02*
X10566968Y-16527531D01*
X10566968Y-16527531D02*
X10557444Y-16498960D01*
X10557444Y-16498960D02*
X10547920Y-16451341D01*
X10547920Y-16451341D02*
X10547920Y-16413246D01*
X10547920Y-16413246D02*
X10557444Y-16365627D01*
X10557444Y-16365627D02*
X10566968Y-16337055D01*
X10566968Y-16337055D02*
X10576491Y-16318008D01*
X10576491Y-16318008D02*
X10595539Y-16289436D01*
X10595539Y-16289436D02*
X10605063Y-16279912D01*
X10671730Y-16327531D02*
X10681253Y-16318008D01*
X10681253Y-16318008D02*
X10700301Y-16308484D01*
X10700301Y-16308484D02*
X10747920Y-16308484D01*
X10747920Y-16308484D02*
X10766968Y-16318008D01*
X10766968Y-16318008D02*
X10776491Y-16327531D01*
X10776491Y-16327531D02*
X10786015Y-16346579D01*
X10786015Y-16346579D02*
X10786015Y-16365627D01*
X10786015Y-16365627D02*
X10776491Y-16394198D01*
X10776491Y-16394198D02*
X10662206Y-16508484D01*
X10662206Y-16508484D02*
X10786015Y-16508484D01*
X10862206Y-16327531D02*
X10871730Y-16318008D01*
X10871730Y-16318008D02*
X10890777Y-16308484D01*
X10890777Y-16308484D02*
X10938396Y-16308484D01*
X10938396Y-16308484D02*
X10957444Y-16318008D01*
X10957444Y-16318008D02*
X10966968Y-16327531D01*
X10966968Y-16327531D02*
X10976491Y-16346579D01*
X10976491Y-16346579D02*
X10976491Y-16365627D01*
X10976491Y-16365627D02*
X10966968Y-16394198D01*
X10966968Y-16394198D02*
X10852682Y-16508484D01*
X10852682Y-16508484D02*
X10976491Y-16508484D01*
X11214587Y-16508484D02*
X11214587Y-16308484D01*
X11300301Y-16508484D02*
X11300301Y-16403722D01*
X11300301Y-16403722D02*
X11290777Y-16384674D01*
X11290777Y-16384674D02*
X11271730Y-16375150D01*
X11271730Y-16375150D02*
X11243158Y-16375150D01*
X11243158Y-16375150D02*
X11224110Y-16384674D01*
X11224110Y-16384674D02*
X11214587Y-16394198D01*
X11424110Y-16508484D02*
X11405063Y-16498960D01*
X11405063Y-16498960D02*
X11395539Y-16489436D01*
X11395539Y-16489436D02*
X11386015Y-16470388D01*
X11386015Y-16470388D02*
X11386015Y-16413246D01*
X11386015Y-16413246D02*
X11395539Y-16394198D01*
X11395539Y-16394198D02*
X11405063Y-16384674D01*
X11405063Y-16384674D02*
X11424110Y-16375150D01*
X11424110Y-16375150D02*
X11452682Y-16375150D01*
X11452682Y-16375150D02*
X11471730Y-16384674D01*
X11471730Y-16384674D02*
X11481253Y-16394198D01*
X11481253Y-16394198D02*
X11490777Y-16413246D01*
X11490777Y-16413246D02*
X11490777Y-16470388D01*
X11490777Y-16470388D02*
X11481253Y-16489436D01*
X11481253Y-16489436D02*
X11471730Y-16498960D01*
X11471730Y-16498960D02*
X11452682Y-16508484D01*
X11452682Y-16508484D02*
X11424110Y-16508484D01*
X11605063Y-16508484D02*
X11586015Y-16498960D01*
X11586015Y-16498960D02*
X11576491Y-16479912D01*
X11576491Y-16479912D02*
X11576491Y-16308484D01*
X11757444Y-16498960D02*
X11738396Y-16508484D01*
X11738396Y-16508484D02*
X11700301Y-16508484D01*
X11700301Y-16508484D02*
X11681253Y-16498960D01*
X11681253Y-16498960D02*
X11671730Y-16479912D01*
X11671730Y-16479912D02*
X11671730Y-16403722D01*
X11671730Y-16403722D02*
X11681253Y-16384674D01*
X11681253Y-16384674D02*
X11700301Y-16375150D01*
X11700301Y-16375150D02*
X11738396Y-16375150D01*
X11738396Y-16375150D02*
X11757444Y-16384674D01*
X11757444Y-16384674D02*
X11766968Y-16403722D01*
X11766968Y-16403722D02*
X11766968Y-16422769D01*
X11766968Y-16422769D02*
X11671730Y-16441817D01*
X11843158Y-16498960D02*
X11862206Y-16508484D01*
X11862206Y-16508484D02*
X11900301Y-16508484D01*
X11900301Y-16508484D02*
X11919349Y-16498960D01*
X11919349Y-16498960D02*
X11928872Y-16479912D01*
X11928872Y-16479912D02*
X11928872Y-16470388D01*
X11928872Y-16470388D02*
X11919349Y-16451341D01*
X11919349Y-16451341D02*
X11900301Y-16441817D01*
X11900301Y-16441817D02*
X11871730Y-16441817D01*
X11871730Y-16441817D02*
X11852682Y-16432293D01*
X11852682Y-16432293D02*
X11843158Y-16413246D01*
X11843158Y-16413246D02*
X11843158Y-16403722D01*
X11843158Y-16403722D02*
X11852682Y-16384674D01*
X11852682Y-16384674D02*
X11871730Y-16375150D01*
X11871730Y-16375150D02*
X11900301Y-16375150D01*
X11900301Y-16375150D02*
X11919349Y-16384674D01*
X11995539Y-16584674D02*
X12005063Y-16575150D01*
X12005063Y-16575150D02*
X12024111Y-16546579D01*
X12024111Y-16546579D02*
X12033634Y-16527531D01*
X12033634Y-16527531D02*
X12043158Y-16498960D01*
X12043158Y-16498960D02*
X12052682Y-16451341D01*
X12052682Y-16451341D02*
X12052682Y-16413246D01*
X12052682Y-16413246D02*
X12043158Y-16365627D01*
X12043158Y-16365627D02*
X12033634Y-16337055D01*
X12033634Y-16337055D02*
X12024111Y-16318008D01*
X12024111Y-16318008D02*
X12005063Y-16289436D01*
X12005063Y-16289436D02*
X11995539Y-16279912D01*
D16*
X6985000Y-16726000D02*
X7030000Y-16681000D01*
X6985000Y-16636000D01*
X6940000Y-16681000D01*
X6985000Y-16726000D01*
D11*
X7328872Y-16572484D02*
X7347920Y-16572484D01*
X7347920Y-16572484D02*
X7366967Y-16582008D01*
X7366967Y-16582008D02*
X7376491Y-16591531D01*
X7376491Y-16591531D02*
X7386015Y-16610579D01*
X7386015Y-16610579D02*
X7395539Y-16648674D01*
X7395539Y-16648674D02*
X7395539Y-16696293D01*
X7395539Y-16696293D02*
X7386015Y-16734388D01*
X7386015Y-16734388D02*
X7376491Y-16753436D01*
X7376491Y-16753436D02*
X7366967Y-16762960D01*
X7366967Y-16762960D02*
X7347920Y-16772484D01*
X7347920Y-16772484D02*
X7328872Y-16772484D01*
X7328872Y-16772484D02*
X7309824Y-16762960D01*
X7309824Y-16762960D02*
X7300301Y-16753436D01*
X7300301Y-16753436D02*
X7290777Y-16734388D01*
X7290777Y-16734388D02*
X7281253Y-16696293D01*
X7281253Y-16696293D02*
X7281253Y-16648674D01*
X7281253Y-16648674D02*
X7290777Y-16610579D01*
X7290777Y-16610579D02*
X7300301Y-16591531D01*
X7300301Y-16591531D02*
X7309824Y-16582008D01*
X7309824Y-16582008D02*
X7328872Y-16572484D01*
X7481253Y-16753436D02*
X7490777Y-16762960D01*
X7490777Y-16762960D02*
X7481253Y-16772484D01*
X7481253Y-16772484D02*
X7471729Y-16762960D01*
X7471729Y-16762960D02*
X7481253Y-16753436D01*
X7481253Y-16753436D02*
X7481253Y-16772484D01*
X7586015Y-16772484D02*
X7624110Y-16772484D01*
X7624110Y-16772484D02*
X7643158Y-16762960D01*
X7643158Y-16762960D02*
X7652682Y-16753436D01*
X7652682Y-16753436D02*
X7671729Y-16724865D01*
X7671729Y-16724865D02*
X7681253Y-16686769D01*
X7681253Y-16686769D02*
X7681253Y-16610579D01*
X7681253Y-16610579D02*
X7671729Y-16591531D01*
X7671729Y-16591531D02*
X7662205Y-16582008D01*
X7662205Y-16582008D02*
X7643158Y-16572484D01*
X7643158Y-16572484D02*
X7605062Y-16572484D01*
X7605062Y-16572484D02*
X7586015Y-16582008D01*
X7586015Y-16582008D02*
X7576491Y-16591531D01*
X7576491Y-16591531D02*
X7566967Y-16610579D01*
X7566967Y-16610579D02*
X7566967Y-16658198D01*
X7566967Y-16658198D02*
X7576491Y-16677246D01*
X7576491Y-16677246D02*
X7586015Y-16686769D01*
X7586015Y-16686769D02*
X7605062Y-16696293D01*
X7605062Y-16696293D02*
X7643158Y-16696293D01*
X7643158Y-16696293D02*
X7662205Y-16686769D01*
X7662205Y-16686769D02*
X7671729Y-16677246D01*
X7671729Y-16677246D02*
X7681253Y-16658198D01*
X7805062Y-16572484D02*
X7824110Y-16572484D01*
X7824110Y-16572484D02*
X7843158Y-16582008D01*
X7843158Y-16582008D02*
X7852682Y-16591531D01*
X7852682Y-16591531D02*
X7862205Y-16610579D01*
X7862205Y-16610579D02*
X7871729Y-16648674D01*
X7871729Y-16648674D02*
X7871729Y-16696293D01*
X7871729Y-16696293D02*
X7862205Y-16734388D01*
X7862205Y-16734388D02*
X7852682Y-16753436D01*
X7852682Y-16753436D02*
X7843158Y-16762960D01*
X7843158Y-16762960D02*
X7824110Y-16772484D01*
X7824110Y-16772484D02*
X7805062Y-16772484D01*
X7805062Y-16772484D02*
X7786015Y-16762960D01*
X7786015Y-16762960D02*
X7776491Y-16753436D01*
X7776491Y-16753436D02*
X7766967Y-16734388D01*
X7766967Y-16734388D02*
X7757443Y-16696293D01*
X7757443Y-16696293D02*
X7757443Y-16648674D01*
X7757443Y-16648674D02*
X7766967Y-16610579D01*
X7766967Y-16610579D02*
X7776491Y-16591531D01*
X7776491Y-16591531D02*
X7786015Y-16582008D01*
X7786015Y-16582008D02*
X7805062Y-16572484D01*
X7995539Y-16572484D02*
X8014586Y-16572484D01*
X8014586Y-16572484D02*
X8033634Y-16582008D01*
X8033634Y-16582008D02*
X8043158Y-16591531D01*
X8043158Y-16591531D02*
X8052682Y-16610579D01*
X8052682Y-16610579D02*
X8062205Y-16648674D01*
X8062205Y-16648674D02*
X8062205Y-16696293D01*
X8062205Y-16696293D02*
X8052682Y-16734388D01*
X8052682Y-16734388D02*
X8043158Y-16753436D01*
X8043158Y-16753436D02*
X8033634Y-16762960D01*
X8033634Y-16762960D02*
X8014586Y-16772484D01*
X8014586Y-16772484D02*
X7995539Y-16772484D01*
X7995539Y-16772484D02*
X7976491Y-16762960D01*
X7976491Y-16762960D02*
X7966967Y-16753436D01*
X7966967Y-16753436D02*
X7957443Y-16734388D01*
X7957443Y-16734388D02*
X7947920Y-16696293D01*
X7947920Y-16696293D02*
X7947920Y-16648674D01*
X7947920Y-16648674D02*
X7957443Y-16610579D01*
X7957443Y-16610579D02*
X7966967Y-16591531D01*
X7966967Y-16591531D02*
X7976491Y-16582008D01*
X7976491Y-16582008D02*
X7995539Y-16572484D01*
X8147920Y-16772484D02*
X8147920Y-16639150D01*
X8147920Y-16658198D02*
X8157443Y-16648674D01*
X8157443Y-16648674D02*
X8176491Y-16639150D01*
X8176491Y-16639150D02*
X8205063Y-16639150D01*
X8205063Y-16639150D02*
X8224110Y-16648674D01*
X8224110Y-16648674D02*
X8233634Y-16667722D01*
X8233634Y-16667722D02*
X8233634Y-16772484D01*
X8233634Y-16667722D02*
X8243158Y-16648674D01*
X8243158Y-16648674D02*
X8262205Y-16639150D01*
X8262205Y-16639150D02*
X8290777Y-16639150D01*
X8290777Y-16639150D02*
X8309824Y-16648674D01*
X8309824Y-16648674D02*
X8319348Y-16667722D01*
X8319348Y-16667722D02*
X8319348Y-16772484D01*
X8414586Y-16772484D02*
X8414586Y-16639150D01*
X8414586Y-16658198D02*
X8424110Y-16648674D01*
X8424110Y-16648674D02*
X8443158Y-16639150D01*
X8443158Y-16639150D02*
X8471729Y-16639150D01*
X8471729Y-16639150D02*
X8490777Y-16648674D01*
X8490777Y-16648674D02*
X8500301Y-16667722D01*
X8500301Y-16667722D02*
X8500301Y-16772484D01*
X8500301Y-16667722D02*
X8509825Y-16648674D01*
X8509825Y-16648674D02*
X8528872Y-16639150D01*
X8528872Y-16639150D02*
X8557444Y-16639150D01*
X8557444Y-16639150D02*
X8576491Y-16648674D01*
X8576491Y-16648674D02*
X8586015Y-16667722D01*
X8586015Y-16667722D02*
X8586015Y-16772484D01*
X8976491Y-16562960D02*
X8805063Y-16820103D01*
X9233634Y-16572484D02*
X9252682Y-16572484D01*
X9252682Y-16572484D02*
X9271729Y-16582008D01*
X9271729Y-16582008D02*
X9281253Y-16591531D01*
X9281253Y-16591531D02*
X9290777Y-16610579D01*
X9290777Y-16610579D02*
X9300301Y-16648674D01*
X9300301Y-16648674D02*
X9300301Y-16696293D01*
X9300301Y-16696293D02*
X9290777Y-16734388D01*
X9290777Y-16734388D02*
X9281253Y-16753436D01*
X9281253Y-16753436D02*
X9271729Y-16762960D01*
X9271729Y-16762960D02*
X9252682Y-16772484D01*
X9252682Y-16772484D02*
X9233634Y-16772484D01*
X9233634Y-16772484D02*
X9214587Y-16762960D01*
X9214587Y-16762960D02*
X9205063Y-16753436D01*
X9205063Y-16753436D02*
X9195539Y-16734388D01*
X9195539Y-16734388D02*
X9186015Y-16696293D01*
X9186015Y-16696293D02*
X9186015Y-16648674D01*
X9186015Y-16648674D02*
X9195539Y-16610579D01*
X9195539Y-16610579D02*
X9205063Y-16591531D01*
X9205063Y-16591531D02*
X9214587Y-16582008D01*
X9214587Y-16582008D02*
X9233634Y-16572484D01*
X9386015Y-16753436D02*
X9395539Y-16762960D01*
X9395539Y-16762960D02*
X9386015Y-16772484D01*
X9386015Y-16772484D02*
X9376491Y-16762960D01*
X9376491Y-16762960D02*
X9386015Y-16753436D01*
X9386015Y-16753436D02*
X9386015Y-16772484D01*
X9519348Y-16572484D02*
X9538396Y-16572484D01*
X9538396Y-16572484D02*
X9557444Y-16582008D01*
X9557444Y-16582008D02*
X9566968Y-16591531D01*
X9566968Y-16591531D02*
X9576491Y-16610579D01*
X9576491Y-16610579D02*
X9586015Y-16648674D01*
X9586015Y-16648674D02*
X9586015Y-16696293D01*
X9586015Y-16696293D02*
X9576491Y-16734388D01*
X9576491Y-16734388D02*
X9566968Y-16753436D01*
X9566968Y-16753436D02*
X9557444Y-16762960D01*
X9557444Y-16762960D02*
X9538396Y-16772484D01*
X9538396Y-16772484D02*
X9519348Y-16772484D01*
X9519348Y-16772484D02*
X9500301Y-16762960D01*
X9500301Y-16762960D02*
X9490777Y-16753436D01*
X9490777Y-16753436D02*
X9481253Y-16734388D01*
X9481253Y-16734388D02*
X9471729Y-16696293D01*
X9471729Y-16696293D02*
X9471729Y-16648674D01*
X9471729Y-16648674D02*
X9481253Y-16610579D01*
X9481253Y-16610579D02*
X9490777Y-16591531D01*
X9490777Y-16591531D02*
X9500301Y-16582008D01*
X9500301Y-16582008D02*
X9519348Y-16572484D01*
X9652682Y-16572484D02*
X9776491Y-16572484D01*
X9776491Y-16572484D02*
X9709825Y-16648674D01*
X9709825Y-16648674D02*
X9738396Y-16648674D01*
X9738396Y-16648674D02*
X9757444Y-16658198D01*
X9757444Y-16658198D02*
X9766968Y-16667722D01*
X9766968Y-16667722D02*
X9776491Y-16686769D01*
X9776491Y-16686769D02*
X9776491Y-16734388D01*
X9776491Y-16734388D02*
X9766968Y-16753436D01*
X9766968Y-16753436D02*
X9757444Y-16762960D01*
X9757444Y-16762960D02*
X9738396Y-16772484D01*
X9738396Y-16772484D02*
X9681253Y-16772484D01*
X9681253Y-16772484D02*
X9662206Y-16762960D01*
X9662206Y-16762960D02*
X9652682Y-16753436D01*
X9957444Y-16572484D02*
X9862206Y-16572484D01*
X9862206Y-16572484D02*
X9852682Y-16667722D01*
X9852682Y-16667722D02*
X9862206Y-16658198D01*
X9862206Y-16658198D02*
X9881253Y-16648674D01*
X9881253Y-16648674D02*
X9928872Y-16648674D01*
X9928872Y-16648674D02*
X9947920Y-16658198D01*
X9947920Y-16658198D02*
X9957444Y-16667722D01*
X9957444Y-16667722D02*
X9966968Y-16686769D01*
X9966968Y-16686769D02*
X9966968Y-16734388D01*
X9966968Y-16734388D02*
X9957444Y-16753436D01*
X9957444Y-16753436D02*
X9947920Y-16762960D01*
X9947920Y-16762960D02*
X9928872Y-16772484D01*
X9928872Y-16772484D02*
X9881253Y-16772484D01*
X9881253Y-16772484D02*
X9862206Y-16762960D01*
X9862206Y-16762960D02*
X9852682Y-16753436D01*
X10138396Y-16639150D02*
X10138396Y-16772484D01*
X10090777Y-16562960D02*
X10043158Y-16705817D01*
X10043158Y-16705817D02*
X10166968Y-16705817D01*
X10233634Y-16572484D02*
X10233634Y-16610579D01*
X10309825Y-16572484D02*
X10309825Y-16610579D01*
X10605063Y-16848674D02*
X10595539Y-16839150D01*
X10595539Y-16839150D02*
X10576491Y-16810579D01*
X10576491Y-16810579D02*
X10566968Y-16791531D01*
X10566968Y-16791531D02*
X10557444Y-16762960D01*
X10557444Y-16762960D02*
X10547920Y-16715341D01*
X10547920Y-16715341D02*
X10547920Y-16677246D01*
X10547920Y-16677246D02*
X10557444Y-16629627D01*
X10557444Y-16629627D02*
X10566968Y-16601055D01*
X10566968Y-16601055D02*
X10576491Y-16582008D01*
X10576491Y-16582008D02*
X10595539Y-16553436D01*
X10595539Y-16553436D02*
X10605063Y-16543912D01*
X10766968Y-16639150D02*
X10766968Y-16772484D01*
X10719349Y-16562960D02*
X10671730Y-16705817D01*
X10671730Y-16705817D02*
X10795539Y-16705817D01*
X11024111Y-16772484D02*
X11024111Y-16572484D01*
X11109825Y-16772484D02*
X11109825Y-16667722D01*
X11109825Y-16667722D02*
X11100301Y-16648674D01*
X11100301Y-16648674D02*
X11081253Y-16639150D01*
X11081253Y-16639150D02*
X11052682Y-16639150D01*
X11052682Y-16639150D02*
X11033634Y-16648674D01*
X11033634Y-16648674D02*
X11024111Y-16658198D01*
X11233634Y-16772484D02*
X11214587Y-16762960D01*
X11214587Y-16762960D02*
X11205063Y-16753436D01*
X11205063Y-16753436D02*
X11195539Y-16734388D01*
X11195539Y-16734388D02*
X11195539Y-16677246D01*
X11195539Y-16677246D02*
X11205063Y-16658198D01*
X11205063Y-16658198D02*
X11214587Y-16648674D01*
X11214587Y-16648674D02*
X11233634Y-16639150D01*
X11233634Y-16639150D02*
X11262206Y-16639150D01*
X11262206Y-16639150D02*
X11281253Y-16648674D01*
X11281253Y-16648674D02*
X11290777Y-16658198D01*
X11290777Y-16658198D02*
X11300301Y-16677246D01*
X11300301Y-16677246D02*
X11300301Y-16734388D01*
X11300301Y-16734388D02*
X11290777Y-16753436D01*
X11290777Y-16753436D02*
X11281253Y-16762960D01*
X11281253Y-16762960D02*
X11262206Y-16772484D01*
X11262206Y-16772484D02*
X11233634Y-16772484D01*
X11414587Y-16772484D02*
X11395539Y-16762960D01*
X11395539Y-16762960D02*
X11386015Y-16743912D01*
X11386015Y-16743912D02*
X11386015Y-16572484D01*
X11566968Y-16762960D02*
X11547920Y-16772484D01*
X11547920Y-16772484D02*
X11509825Y-16772484D01*
X11509825Y-16772484D02*
X11490777Y-16762960D01*
X11490777Y-16762960D02*
X11481253Y-16743912D01*
X11481253Y-16743912D02*
X11481253Y-16667722D01*
X11481253Y-16667722D02*
X11490777Y-16648674D01*
X11490777Y-16648674D02*
X11509825Y-16639150D01*
X11509825Y-16639150D02*
X11547920Y-16639150D01*
X11547920Y-16639150D02*
X11566968Y-16648674D01*
X11566968Y-16648674D02*
X11576491Y-16667722D01*
X11576491Y-16667722D02*
X11576491Y-16686769D01*
X11576491Y-16686769D02*
X11481253Y-16705817D01*
X11652682Y-16762960D02*
X11671730Y-16772484D01*
X11671730Y-16772484D02*
X11709825Y-16772484D01*
X11709825Y-16772484D02*
X11728872Y-16762960D01*
X11728872Y-16762960D02*
X11738396Y-16743912D01*
X11738396Y-16743912D02*
X11738396Y-16734388D01*
X11738396Y-16734388D02*
X11728872Y-16715341D01*
X11728872Y-16715341D02*
X11709825Y-16705817D01*
X11709825Y-16705817D02*
X11681253Y-16705817D01*
X11681253Y-16705817D02*
X11662206Y-16696293D01*
X11662206Y-16696293D02*
X11652682Y-16677246D01*
X11652682Y-16677246D02*
X11652682Y-16667722D01*
X11652682Y-16667722D02*
X11662206Y-16648674D01*
X11662206Y-16648674D02*
X11681253Y-16639150D01*
X11681253Y-16639150D02*
X11709825Y-16639150D01*
X11709825Y-16639150D02*
X11728872Y-16648674D01*
X11805063Y-16848674D02*
X11814587Y-16839150D01*
X11814587Y-16839150D02*
X11833634Y-16810579D01*
X11833634Y-16810579D02*
X11843158Y-16791531D01*
X11843158Y-16791531D02*
X11852682Y-16762960D01*
X11852682Y-16762960D02*
X11862206Y-16715341D01*
X11862206Y-16715341D02*
X11862206Y-16677246D01*
X11862206Y-16677246D02*
X11852682Y-16629627D01*
X11852682Y-16629627D02*
X11843158Y-16601055D01*
X11843158Y-16601055D02*
X11833634Y-16582008D01*
X11833634Y-16582008D02*
X11814587Y-16553436D01*
X11814587Y-16553436D02*
X11805063Y-16543912D01*
D10*
X6930000Y-16895000D02*
X7030000Y-16995000D01*
X7030000Y-16895000D02*
X6930000Y-16995000D01*
X7030000Y-16945000D02*
G75*
G03*
X7030000Y-16945000I-50000J0D01*
G01*
D11*
X7395539Y-17036484D02*
X7281253Y-17036484D01*
X7338396Y-17036484D02*
X7338396Y-16836484D01*
X7338396Y-16836484D02*
X7319348Y-16865055D01*
X7319348Y-16865055D02*
X7300301Y-16884103D01*
X7300301Y-16884103D02*
X7281253Y-16893627D01*
X7481253Y-17017436D02*
X7490777Y-17026960D01*
X7490777Y-17026960D02*
X7481253Y-17036484D01*
X7481253Y-17036484D02*
X7471729Y-17026960D01*
X7471729Y-17026960D02*
X7481253Y-17017436D01*
X7481253Y-17017436D02*
X7481253Y-17036484D01*
X7614586Y-16836484D02*
X7633634Y-16836484D01*
X7633634Y-16836484D02*
X7652682Y-16846008D01*
X7652682Y-16846008D02*
X7662205Y-16855531D01*
X7662205Y-16855531D02*
X7671729Y-16874579D01*
X7671729Y-16874579D02*
X7681253Y-16912674D01*
X7681253Y-16912674D02*
X7681253Y-16960293D01*
X7681253Y-16960293D02*
X7671729Y-16998389D01*
X7671729Y-16998389D02*
X7662205Y-17017436D01*
X7662205Y-17017436D02*
X7652682Y-17026960D01*
X7652682Y-17026960D02*
X7633634Y-17036484D01*
X7633634Y-17036484D02*
X7614586Y-17036484D01*
X7614586Y-17036484D02*
X7595539Y-17026960D01*
X7595539Y-17026960D02*
X7586015Y-17017436D01*
X7586015Y-17017436D02*
X7576491Y-16998389D01*
X7576491Y-16998389D02*
X7566967Y-16960293D01*
X7566967Y-16960293D02*
X7566967Y-16912674D01*
X7566967Y-16912674D02*
X7576491Y-16874579D01*
X7576491Y-16874579D02*
X7586015Y-16855531D01*
X7586015Y-16855531D02*
X7595539Y-16846008D01*
X7595539Y-16846008D02*
X7614586Y-16836484D01*
X7805062Y-16836484D02*
X7824110Y-16836484D01*
X7824110Y-16836484D02*
X7843158Y-16846008D01*
X7843158Y-16846008D02*
X7852682Y-16855531D01*
X7852682Y-16855531D02*
X7862205Y-16874579D01*
X7862205Y-16874579D02*
X7871729Y-16912674D01*
X7871729Y-16912674D02*
X7871729Y-16960293D01*
X7871729Y-16960293D02*
X7862205Y-16998389D01*
X7862205Y-16998389D02*
X7852682Y-17017436D01*
X7852682Y-17017436D02*
X7843158Y-17026960D01*
X7843158Y-17026960D02*
X7824110Y-17036484D01*
X7824110Y-17036484D02*
X7805062Y-17036484D01*
X7805062Y-17036484D02*
X7786015Y-17026960D01*
X7786015Y-17026960D02*
X7776491Y-17017436D01*
X7776491Y-17017436D02*
X7766967Y-16998389D01*
X7766967Y-16998389D02*
X7757443Y-16960293D01*
X7757443Y-16960293D02*
X7757443Y-16912674D01*
X7757443Y-16912674D02*
X7766967Y-16874579D01*
X7766967Y-16874579D02*
X7776491Y-16855531D01*
X7776491Y-16855531D02*
X7786015Y-16846008D01*
X7786015Y-16846008D02*
X7805062Y-16836484D01*
X7995539Y-16836484D02*
X8014586Y-16836484D01*
X8014586Y-16836484D02*
X8033634Y-16846008D01*
X8033634Y-16846008D02*
X8043158Y-16855531D01*
X8043158Y-16855531D02*
X8052682Y-16874579D01*
X8052682Y-16874579D02*
X8062205Y-16912674D01*
X8062205Y-16912674D02*
X8062205Y-16960293D01*
X8062205Y-16960293D02*
X8052682Y-16998389D01*
X8052682Y-16998389D02*
X8043158Y-17017436D01*
X8043158Y-17017436D02*
X8033634Y-17026960D01*
X8033634Y-17026960D02*
X8014586Y-17036484D01*
X8014586Y-17036484D02*
X7995539Y-17036484D01*
X7995539Y-17036484D02*
X7976491Y-17026960D01*
X7976491Y-17026960D02*
X7966967Y-17017436D01*
X7966967Y-17017436D02*
X7957443Y-16998389D01*
X7957443Y-16998389D02*
X7947920Y-16960293D01*
X7947920Y-16960293D02*
X7947920Y-16912674D01*
X7947920Y-16912674D02*
X7957443Y-16874579D01*
X7957443Y-16874579D02*
X7966967Y-16855531D01*
X7966967Y-16855531D02*
X7976491Y-16846008D01*
X7976491Y-16846008D02*
X7995539Y-16836484D01*
X8147920Y-17036484D02*
X8147920Y-16903150D01*
X8147920Y-16922198D02*
X8157443Y-16912674D01*
X8157443Y-16912674D02*
X8176491Y-16903150D01*
X8176491Y-16903150D02*
X8205063Y-16903150D01*
X8205063Y-16903150D02*
X8224110Y-16912674D01*
X8224110Y-16912674D02*
X8233634Y-16931722D01*
X8233634Y-16931722D02*
X8233634Y-17036484D01*
X8233634Y-16931722D02*
X8243158Y-16912674D01*
X8243158Y-16912674D02*
X8262205Y-16903150D01*
X8262205Y-16903150D02*
X8290777Y-16903150D01*
X8290777Y-16903150D02*
X8309824Y-16912674D01*
X8309824Y-16912674D02*
X8319348Y-16931722D01*
X8319348Y-16931722D02*
X8319348Y-17036484D01*
X8414586Y-17036484D02*
X8414586Y-16903150D01*
X8414586Y-16922198D02*
X8424110Y-16912674D01*
X8424110Y-16912674D02*
X8443158Y-16903150D01*
X8443158Y-16903150D02*
X8471729Y-16903150D01*
X8471729Y-16903150D02*
X8490777Y-16912674D01*
X8490777Y-16912674D02*
X8500301Y-16931722D01*
X8500301Y-16931722D02*
X8500301Y-17036484D01*
X8500301Y-16931722D02*
X8509825Y-16912674D01*
X8509825Y-16912674D02*
X8528872Y-16903150D01*
X8528872Y-16903150D02*
X8557444Y-16903150D01*
X8557444Y-16903150D02*
X8576491Y-16912674D01*
X8576491Y-16912674D02*
X8586015Y-16931722D01*
X8586015Y-16931722D02*
X8586015Y-17036484D01*
X8976491Y-16826960D02*
X8805063Y-17084103D01*
X9233634Y-16836484D02*
X9252682Y-16836484D01*
X9252682Y-16836484D02*
X9271729Y-16846008D01*
X9271729Y-16846008D02*
X9281253Y-16855531D01*
X9281253Y-16855531D02*
X9290777Y-16874579D01*
X9290777Y-16874579D02*
X9300301Y-16912674D01*
X9300301Y-16912674D02*
X9300301Y-16960293D01*
X9300301Y-16960293D02*
X9290777Y-16998389D01*
X9290777Y-16998389D02*
X9281253Y-17017436D01*
X9281253Y-17017436D02*
X9271729Y-17026960D01*
X9271729Y-17026960D02*
X9252682Y-17036484D01*
X9252682Y-17036484D02*
X9233634Y-17036484D01*
X9233634Y-17036484D02*
X9214587Y-17026960D01*
X9214587Y-17026960D02*
X9205063Y-17017436D01*
X9205063Y-17017436D02*
X9195539Y-16998389D01*
X9195539Y-16998389D02*
X9186015Y-16960293D01*
X9186015Y-16960293D02*
X9186015Y-16912674D01*
X9186015Y-16912674D02*
X9195539Y-16874579D01*
X9195539Y-16874579D02*
X9205063Y-16855531D01*
X9205063Y-16855531D02*
X9214587Y-16846008D01*
X9214587Y-16846008D02*
X9233634Y-16836484D01*
X9386015Y-17017436D02*
X9395539Y-17026960D01*
X9395539Y-17026960D02*
X9386015Y-17036484D01*
X9386015Y-17036484D02*
X9376491Y-17026960D01*
X9376491Y-17026960D02*
X9386015Y-17017436D01*
X9386015Y-17017436D02*
X9386015Y-17036484D01*
X9519348Y-16836484D02*
X9538396Y-16836484D01*
X9538396Y-16836484D02*
X9557444Y-16846008D01*
X9557444Y-16846008D02*
X9566968Y-16855531D01*
X9566968Y-16855531D02*
X9576491Y-16874579D01*
X9576491Y-16874579D02*
X9586015Y-16912674D01*
X9586015Y-16912674D02*
X9586015Y-16960293D01*
X9586015Y-16960293D02*
X9576491Y-16998389D01*
X9576491Y-16998389D02*
X9566968Y-17017436D01*
X9566968Y-17017436D02*
X9557444Y-17026960D01*
X9557444Y-17026960D02*
X9538396Y-17036484D01*
X9538396Y-17036484D02*
X9519348Y-17036484D01*
X9519348Y-17036484D02*
X9500301Y-17026960D01*
X9500301Y-17026960D02*
X9490777Y-17017436D01*
X9490777Y-17017436D02*
X9481253Y-16998389D01*
X9481253Y-16998389D02*
X9471729Y-16960293D01*
X9471729Y-16960293D02*
X9471729Y-16912674D01*
X9471729Y-16912674D02*
X9481253Y-16874579D01*
X9481253Y-16874579D02*
X9490777Y-16855531D01*
X9490777Y-16855531D02*
X9500301Y-16846008D01*
X9500301Y-16846008D02*
X9519348Y-16836484D01*
X9652682Y-16836484D02*
X9776491Y-16836484D01*
X9776491Y-16836484D02*
X9709825Y-16912674D01*
X9709825Y-16912674D02*
X9738396Y-16912674D01*
X9738396Y-16912674D02*
X9757444Y-16922198D01*
X9757444Y-16922198D02*
X9766968Y-16931722D01*
X9766968Y-16931722D02*
X9776491Y-16950770D01*
X9776491Y-16950770D02*
X9776491Y-16998389D01*
X9776491Y-16998389D02*
X9766968Y-17017436D01*
X9766968Y-17017436D02*
X9757444Y-17026960D01*
X9757444Y-17026960D02*
X9738396Y-17036484D01*
X9738396Y-17036484D02*
X9681253Y-17036484D01*
X9681253Y-17036484D02*
X9662206Y-17026960D01*
X9662206Y-17026960D02*
X9652682Y-17017436D01*
X9871729Y-17036484D02*
X9909825Y-17036484D01*
X9909825Y-17036484D02*
X9928872Y-17026960D01*
X9928872Y-17026960D02*
X9938396Y-17017436D01*
X9938396Y-17017436D02*
X9957444Y-16988865D01*
X9957444Y-16988865D02*
X9966968Y-16950770D01*
X9966968Y-16950770D02*
X9966968Y-16874579D01*
X9966968Y-16874579D02*
X9957444Y-16855531D01*
X9957444Y-16855531D02*
X9947920Y-16846008D01*
X9947920Y-16846008D02*
X9928872Y-16836484D01*
X9928872Y-16836484D02*
X9890777Y-16836484D01*
X9890777Y-16836484D02*
X9871729Y-16846008D01*
X9871729Y-16846008D02*
X9862206Y-16855531D01*
X9862206Y-16855531D02*
X9852682Y-16874579D01*
X9852682Y-16874579D02*
X9852682Y-16922198D01*
X9852682Y-16922198D02*
X9862206Y-16941246D01*
X9862206Y-16941246D02*
X9871729Y-16950770D01*
X9871729Y-16950770D02*
X9890777Y-16960293D01*
X9890777Y-16960293D02*
X9928872Y-16960293D01*
X9928872Y-16960293D02*
X9947920Y-16950770D01*
X9947920Y-16950770D02*
X9957444Y-16941246D01*
X9957444Y-16941246D02*
X9966968Y-16922198D01*
X10138396Y-16903150D02*
X10138396Y-17036484D01*
X10090777Y-16826960D02*
X10043158Y-16969817D01*
X10043158Y-16969817D02*
X10166968Y-16969817D01*
X10233634Y-16836484D02*
X10233634Y-16874579D01*
X10309825Y-16836484D02*
X10309825Y-16874579D01*
X10605063Y-17112674D02*
X10595539Y-17103150D01*
X10595539Y-17103150D02*
X10576491Y-17074579D01*
X10576491Y-17074579D02*
X10566968Y-17055531D01*
X10566968Y-17055531D02*
X10557444Y-17026960D01*
X10557444Y-17026960D02*
X10547920Y-16979341D01*
X10547920Y-16979341D02*
X10547920Y-16941246D01*
X10547920Y-16941246D02*
X10557444Y-16893627D01*
X10557444Y-16893627D02*
X10566968Y-16865055D01*
X10566968Y-16865055D02*
X10576491Y-16846008D01*
X10576491Y-16846008D02*
X10595539Y-16817436D01*
X10595539Y-16817436D02*
X10605063Y-16807912D01*
X10671730Y-16855531D02*
X10681253Y-16846008D01*
X10681253Y-16846008D02*
X10700301Y-16836484D01*
X10700301Y-16836484D02*
X10747920Y-16836484D01*
X10747920Y-16836484D02*
X10766968Y-16846008D01*
X10766968Y-16846008D02*
X10776491Y-16855531D01*
X10776491Y-16855531D02*
X10786015Y-16874579D01*
X10786015Y-16874579D02*
X10786015Y-16893627D01*
X10786015Y-16893627D02*
X10776491Y-16922198D01*
X10776491Y-16922198D02*
X10662206Y-17036484D01*
X10662206Y-17036484D02*
X10786015Y-17036484D01*
X10852682Y-16836484D02*
X10986015Y-16836484D01*
X10986015Y-16836484D02*
X10900301Y-17036484D01*
X11214587Y-17036484D02*
X11214587Y-16836484D01*
X11300301Y-17036484D02*
X11300301Y-16931722D01*
X11300301Y-16931722D02*
X11290777Y-16912674D01*
X11290777Y-16912674D02*
X11271730Y-16903150D01*
X11271730Y-16903150D02*
X11243158Y-16903150D01*
X11243158Y-16903150D02*
X11224110Y-16912674D01*
X11224110Y-16912674D02*
X11214587Y-16922198D01*
X11424110Y-17036484D02*
X11405063Y-17026960D01*
X11405063Y-17026960D02*
X11395539Y-17017436D01*
X11395539Y-17017436D02*
X11386015Y-16998389D01*
X11386015Y-16998389D02*
X11386015Y-16941246D01*
X11386015Y-16941246D02*
X11395539Y-16922198D01*
X11395539Y-16922198D02*
X11405063Y-16912674D01*
X11405063Y-16912674D02*
X11424110Y-16903150D01*
X11424110Y-16903150D02*
X11452682Y-16903150D01*
X11452682Y-16903150D02*
X11471730Y-16912674D01*
X11471730Y-16912674D02*
X11481253Y-16922198D01*
X11481253Y-16922198D02*
X11490777Y-16941246D01*
X11490777Y-16941246D02*
X11490777Y-16998389D01*
X11490777Y-16998389D02*
X11481253Y-17017436D01*
X11481253Y-17017436D02*
X11471730Y-17026960D01*
X11471730Y-17026960D02*
X11452682Y-17036484D01*
X11452682Y-17036484D02*
X11424110Y-17036484D01*
X11605063Y-17036484D02*
X11586015Y-17026960D01*
X11586015Y-17026960D02*
X11576491Y-17007912D01*
X11576491Y-17007912D02*
X11576491Y-16836484D01*
X11757444Y-17026960D02*
X11738396Y-17036484D01*
X11738396Y-17036484D02*
X11700301Y-17036484D01*
X11700301Y-17036484D02*
X11681253Y-17026960D01*
X11681253Y-17026960D02*
X11671730Y-17007912D01*
X11671730Y-17007912D02*
X11671730Y-16931722D01*
X11671730Y-16931722D02*
X11681253Y-16912674D01*
X11681253Y-16912674D02*
X11700301Y-16903150D01*
X11700301Y-16903150D02*
X11738396Y-16903150D01*
X11738396Y-16903150D02*
X11757444Y-16912674D01*
X11757444Y-16912674D02*
X11766968Y-16931722D01*
X11766968Y-16931722D02*
X11766968Y-16950770D01*
X11766968Y-16950770D02*
X11671730Y-16969817D01*
X11843158Y-17026960D02*
X11862206Y-17036484D01*
X11862206Y-17036484D02*
X11900301Y-17036484D01*
X11900301Y-17036484D02*
X11919349Y-17026960D01*
X11919349Y-17026960D02*
X11928872Y-17007912D01*
X11928872Y-17007912D02*
X11928872Y-16998389D01*
X11928872Y-16998389D02*
X11919349Y-16979341D01*
X11919349Y-16979341D02*
X11900301Y-16969817D01*
X11900301Y-16969817D02*
X11871730Y-16969817D01*
X11871730Y-16969817D02*
X11852682Y-16960293D01*
X11852682Y-16960293D02*
X11843158Y-16941246D01*
X11843158Y-16941246D02*
X11843158Y-16931722D01*
X11843158Y-16931722D02*
X11852682Y-16912674D01*
X11852682Y-16912674D02*
X11871730Y-16903150D01*
X11871730Y-16903150D02*
X11900301Y-16903150D01*
X11900301Y-16903150D02*
X11919349Y-16912674D01*
X12166968Y-16960293D02*
X12319349Y-16960293D01*
X12243158Y-17036484D02*
X12243158Y-16884103D01*
X12547920Y-16836484D02*
X12671730Y-16836484D01*
X12671730Y-16836484D02*
X12605063Y-16912674D01*
X12605063Y-16912674D02*
X12633634Y-16912674D01*
X12633634Y-16912674D02*
X12652682Y-16922198D01*
X12652682Y-16922198D02*
X12662206Y-16931722D01*
X12662206Y-16931722D02*
X12671730Y-16950770D01*
X12671730Y-16950770D02*
X12671730Y-16998389D01*
X12671730Y-16998389D02*
X12662206Y-17017436D01*
X12662206Y-17017436D02*
X12652682Y-17026960D01*
X12652682Y-17026960D02*
X12633634Y-17036484D01*
X12633634Y-17036484D02*
X12576492Y-17036484D01*
X12576492Y-17036484D02*
X12557444Y-17026960D01*
X12557444Y-17026960D02*
X12547920Y-17017436D01*
X12900301Y-17026960D02*
X12919349Y-17036484D01*
X12919349Y-17036484D02*
X12957444Y-17036484D01*
X12957444Y-17036484D02*
X12976492Y-17026960D01*
X12976492Y-17026960D02*
X12986015Y-17007912D01*
X12986015Y-17007912D02*
X12986015Y-16998389D01*
X12986015Y-16998389D02*
X12976492Y-16979341D01*
X12976492Y-16979341D02*
X12957444Y-16969817D01*
X12957444Y-16969817D02*
X12928873Y-16969817D01*
X12928873Y-16969817D02*
X12909825Y-16960293D01*
X12909825Y-16960293D02*
X12900301Y-16941246D01*
X12900301Y-16941246D02*
X12900301Y-16931722D01*
X12900301Y-16931722D02*
X12909825Y-16912674D01*
X12909825Y-16912674D02*
X12928873Y-16903150D01*
X12928873Y-16903150D02*
X12957444Y-16903150D01*
X12957444Y-16903150D02*
X12976492Y-16912674D01*
X13100301Y-17036484D02*
X13081254Y-17026960D01*
X13081254Y-17026960D02*
X13071730Y-17007912D01*
X13071730Y-17007912D02*
X13071730Y-16836484D01*
X13205063Y-17036484D02*
X13186015Y-17026960D01*
X13186015Y-17026960D02*
X13176492Y-17017436D01*
X13176492Y-17017436D02*
X13166968Y-16998389D01*
X13166968Y-16998389D02*
X13166968Y-16941246D01*
X13166968Y-16941246D02*
X13176492Y-16922198D01*
X13176492Y-16922198D02*
X13186015Y-16912674D01*
X13186015Y-16912674D02*
X13205063Y-16903150D01*
X13205063Y-16903150D02*
X13233635Y-16903150D01*
X13233635Y-16903150D02*
X13252682Y-16912674D01*
X13252682Y-16912674D02*
X13262206Y-16922198D01*
X13262206Y-16922198D02*
X13271730Y-16941246D01*
X13271730Y-16941246D02*
X13271730Y-16998389D01*
X13271730Y-16998389D02*
X13262206Y-17017436D01*
X13262206Y-17017436D02*
X13252682Y-17026960D01*
X13252682Y-17026960D02*
X13233635Y-17036484D01*
X13233635Y-17036484D02*
X13205063Y-17036484D01*
X13328873Y-16903150D02*
X13405063Y-16903150D01*
X13357444Y-16836484D02*
X13357444Y-17007912D01*
X13357444Y-17007912D02*
X13366968Y-17026960D01*
X13366968Y-17026960D02*
X13386015Y-17036484D01*
X13386015Y-17036484D02*
X13405063Y-17036484D01*
X13462206Y-17026960D02*
X13481254Y-17036484D01*
X13481254Y-17036484D02*
X13519349Y-17036484D01*
X13519349Y-17036484D02*
X13538396Y-17026960D01*
X13538396Y-17026960D02*
X13547920Y-17007912D01*
X13547920Y-17007912D02*
X13547920Y-16998389D01*
X13547920Y-16998389D02*
X13538396Y-16979341D01*
X13538396Y-16979341D02*
X13519349Y-16969817D01*
X13519349Y-16969817D02*
X13490777Y-16969817D01*
X13490777Y-16969817D02*
X13471730Y-16960293D01*
X13471730Y-16960293D02*
X13462206Y-16941246D01*
X13462206Y-16941246D02*
X13462206Y-16931722D01*
X13462206Y-16931722D02*
X13471730Y-16912674D01*
X13471730Y-16912674D02*
X13490777Y-16903150D01*
X13490777Y-16903150D02*
X13519349Y-16903150D01*
X13519349Y-16903150D02*
X13538396Y-16912674D01*
X13614587Y-17112674D02*
X13624111Y-17103150D01*
X13624111Y-17103150D02*
X13643158Y-17074579D01*
X13643158Y-17074579D02*
X13652682Y-17055531D01*
X13652682Y-17055531D02*
X13662206Y-17026960D01*
X13662206Y-17026960D02*
X13671730Y-16979341D01*
X13671730Y-16979341D02*
X13671730Y-16941246D01*
X13671730Y-16941246D02*
X13662206Y-16893627D01*
X13662206Y-16893627D02*
X13652682Y-16865055D01*
X13652682Y-16865055D02*
X13643158Y-16846008D01*
X13643158Y-16846008D02*
X13624111Y-16817436D01*
X13624111Y-16817436D02*
X13614587Y-16807912D01*
D17*
X6929924Y-17158962D02*
X7030000Y-17259038D01*
X7030000Y-17158962D02*
X6929924Y-17259038D01*
X6979962Y-17158962D02*
X6979962Y-17259038D01*
X6929924Y-17209000D02*
X7030000Y-17209000D01*
D11*
X7395539Y-17300484D02*
X7281253Y-17300484D01*
X7338396Y-17300484D02*
X7338396Y-17100484D01*
X7338396Y-17100484D02*
X7319348Y-17129055D01*
X7319348Y-17129055D02*
X7300301Y-17148103D01*
X7300301Y-17148103D02*
X7281253Y-17157627D01*
X7481253Y-17281436D02*
X7490777Y-17290960D01*
X7490777Y-17290960D02*
X7481253Y-17300484D01*
X7481253Y-17300484D02*
X7471729Y-17290960D01*
X7471729Y-17290960D02*
X7481253Y-17281436D01*
X7481253Y-17281436D02*
X7481253Y-17300484D01*
X7614586Y-17100484D02*
X7633634Y-17100484D01*
X7633634Y-17100484D02*
X7652682Y-17110008D01*
X7652682Y-17110008D02*
X7662205Y-17119531D01*
X7662205Y-17119531D02*
X7671729Y-17138579D01*
X7671729Y-17138579D02*
X7681253Y-17176674D01*
X7681253Y-17176674D02*
X7681253Y-17224293D01*
X7681253Y-17224293D02*
X7671729Y-17262389D01*
X7671729Y-17262389D02*
X7662205Y-17281436D01*
X7662205Y-17281436D02*
X7652682Y-17290960D01*
X7652682Y-17290960D02*
X7633634Y-17300484D01*
X7633634Y-17300484D02*
X7614586Y-17300484D01*
X7614586Y-17300484D02*
X7595539Y-17290960D01*
X7595539Y-17290960D02*
X7586015Y-17281436D01*
X7586015Y-17281436D02*
X7576491Y-17262389D01*
X7576491Y-17262389D02*
X7566967Y-17224293D01*
X7566967Y-17224293D02*
X7566967Y-17176674D01*
X7566967Y-17176674D02*
X7576491Y-17138579D01*
X7576491Y-17138579D02*
X7586015Y-17119531D01*
X7586015Y-17119531D02*
X7595539Y-17110008D01*
X7595539Y-17110008D02*
X7614586Y-17100484D01*
X7805062Y-17100484D02*
X7824110Y-17100484D01*
X7824110Y-17100484D02*
X7843158Y-17110008D01*
X7843158Y-17110008D02*
X7852682Y-17119531D01*
X7852682Y-17119531D02*
X7862205Y-17138579D01*
X7862205Y-17138579D02*
X7871729Y-17176674D01*
X7871729Y-17176674D02*
X7871729Y-17224293D01*
X7871729Y-17224293D02*
X7862205Y-17262389D01*
X7862205Y-17262389D02*
X7852682Y-17281436D01*
X7852682Y-17281436D02*
X7843158Y-17290960D01*
X7843158Y-17290960D02*
X7824110Y-17300484D01*
X7824110Y-17300484D02*
X7805062Y-17300484D01*
X7805062Y-17300484D02*
X7786015Y-17290960D01*
X7786015Y-17290960D02*
X7776491Y-17281436D01*
X7776491Y-17281436D02*
X7766967Y-17262389D01*
X7766967Y-17262389D02*
X7757443Y-17224293D01*
X7757443Y-17224293D02*
X7757443Y-17176674D01*
X7757443Y-17176674D02*
X7766967Y-17138579D01*
X7766967Y-17138579D02*
X7776491Y-17119531D01*
X7776491Y-17119531D02*
X7786015Y-17110008D01*
X7786015Y-17110008D02*
X7805062Y-17100484D01*
X8062205Y-17300484D02*
X7947920Y-17300484D01*
X8005062Y-17300484D02*
X8005062Y-17100484D01*
X8005062Y-17100484D02*
X7986015Y-17129055D01*
X7986015Y-17129055D02*
X7966967Y-17148103D01*
X7966967Y-17148103D02*
X7947920Y-17157627D01*
X8147920Y-17300484D02*
X8147920Y-17167150D01*
X8147920Y-17186198D02*
X8157443Y-17176674D01*
X8157443Y-17176674D02*
X8176491Y-17167150D01*
X8176491Y-17167150D02*
X8205063Y-17167150D01*
X8205063Y-17167150D02*
X8224110Y-17176674D01*
X8224110Y-17176674D02*
X8233634Y-17195722D01*
X8233634Y-17195722D02*
X8233634Y-17300484D01*
X8233634Y-17195722D02*
X8243158Y-17176674D01*
X8243158Y-17176674D02*
X8262205Y-17167150D01*
X8262205Y-17167150D02*
X8290777Y-17167150D01*
X8290777Y-17167150D02*
X8309824Y-17176674D01*
X8309824Y-17176674D02*
X8319348Y-17195722D01*
X8319348Y-17195722D02*
X8319348Y-17300484D01*
X8414586Y-17300484D02*
X8414586Y-17167150D01*
X8414586Y-17186198D02*
X8424110Y-17176674D01*
X8424110Y-17176674D02*
X8443158Y-17167150D01*
X8443158Y-17167150D02*
X8471729Y-17167150D01*
X8471729Y-17167150D02*
X8490777Y-17176674D01*
X8490777Y-17176674D02*
X8500301Y-17195722D01*
X8500301Y-17195722D02*
X8500301Y-17300484D01*
X8500301Y-17195722D02*
X8509825Y-17176674D01*
X8509825Y-17176674D02*
X8528872Y-17167150D01*
X8528872Y-17167150D02*
X8557444Y-17167150D01*
X8557444Y-17167150D02*
X8576491Y-17176674D01*
X8576491Y-17176674D02*
X8586015Y-17195722D01*
X8586015Y-17195722D02*
X8586015Y-17300484D01*
X8976491Y-17090960D02*
X8805063Y-17348103D01*
X9233634Y-17100484D02*
X9252682Y-17100484D01*
X9252682Y-17100484D02*
X9271729Y-17110008D01*
X9271729Y-17110008D02*
X9281253Y-17119531D01*
X9281253Y-17119531D02*
X9290777Y-17138579D01*
X9290777Y-17138579D02*
X9300301Y-17176674D01*
X9300301Y-17176674D02*
X9300301Y-17224293D01*
X9300301Y-17224293D02*
X9290777Y-17262389D01*
X9290777Y-17262389D02*
X9281253Y-17281436D01*
X9281253Y-17281436D02*
X9271729Y-17290960D01*
X9271729Y-17290960D02*
X9252682Y-17300484D01*
X9252682Y-17300484D02*
X9233634Y-17300484D01*
X9233634Y-17300484D02*
X9214587Y-17290960D01*
X9214587Y-17290960D02*
X9205063Y-17281436D01*
X9205063Y-17281436D02*
X9195539Y-17262389D01*
X9195539Y-17262389D02*
X9186015Y-17224293D01*
X9186015Y-17224293D02*
X9186015Y-17176674D01*
X9186015Y-17176674D02*
X9195539Y-17138579D01*
X9195539Y-17138579D02*
X9205063Y-17119531D01*
X9205063Y-17119531D02*
X9214587Y-17110008D01*
X9214587Y-17110008D02*
X9233634Y-17100484D01*
X9386015Y-17281436D02*
X9395539Y-17290960D01*
X9395539Y-17290960D02*
X9386015Y-17300484D01*
X9386015Y-17300484D02*
X9376491Y-17290960D01*
X9376491Y-17290960D02*
X9386015Y-17281436D01*
X9386015Y-17281436D02*
X9386015Y-17300484D01*
X9519348Y-17100484D02*
X9538396Y-17100484D01*
X9538396Y-17100484D02*
X9557444Y-17110008D01*
X9557444Y-17110008D02*
X9566968Y-17119531D01*
X9566968Y-17119531D02*
X9576491Y-17138579D01*
X9576491Y-17138579D02*
X9586015Y-17176674D01*
X9586015Y-17176674D02*
X9586015Y-17224293D01*
X9586015Y-17224293D02*
X9576491Y-17262389D01*
X9576491Y-17262389D02*
X9566968Y-17281436D01*
X9566968Y-17281436D02*
X9557444Y-17290960D01*
X9557444Y-17290960D02*
X9538396Y-17300484D01*
X9538396Y-17300484D02*
X9519348Y-17300484D01*
X9519348Y-17300484D02*
X9500301Y-17290960D01*
X9500301Y-17290960D02*
X9490777Y-17281436D01*
X9490777Y-17281436D02*
X9481253Y-17262389D01*
X9481253Y-17262389D02*
X9471729Y-17224293D01*
X9471729Y-17224293D02*
X9471729Y-17176674D01*
X9471729Y-17176674D02*
X9481253Y-17138579D01*
X9481253Y-17138579D02*
X9490777Y-17119531D01*
X9490777Y-17119531D02*
X9500301Y-17110008D01*
X9500301Y-17110008D02*
X9519348Y-17100484D01*
X9652682Y-17100484D02*
X9776491Y-17100484D01*
X9776491Y-17100484D02*
X9709825Y-17176674D01*
X9709825Y-17176674D02*
X9738396Y-17176674D01*
X9738396Y-17176674D02*
X9757444Y-17186198D01*
X9757444Y-17186198D02*
X9766968Y-17195722D01*
X9766968Y-17195722D02*
X9776491Y-17214770D01*
X9776491Y-17214770D02*
X9776491Y-17262389D01*
X9776491Y-17262389D02*
X9766968Y-17281436D01*
X9766968Y-17281436D02*
X9757444Y-17290960D01*
X9757444Y-17290960D02*
X9738396Y-17300484D01*
X9738396Y-17300484D02*
X9681253Y-17300484D01*
X9681253Y-17300484D02*
X9662206Y-17290960D01*
X9662206Y-17290960D02*
X9652682Y-17281436D01*
X9871729Y-17300484D02*
X9909825Y-17300484D01*
X9909825Y-17300484D02*
X9928872Y-17290960D01*
X9928872Y-17290960D02*
X9938396Y-17281436D01*
X9938396Y-17281436D02*
X9957444Y-17252865D01*
X9957444Y-17252865D02*
X9966968Y-17214770D01*
X9966968Y-17214770D02*
X9966968Y-17138579D01*
X9966968Y-17138579D02*
X9957444Y-17119531D01*
X9957444Y-17119531D02*
X9947920Y-17110008D01*
X9947920Y-17110008D02*
X9928872Y-17100484D01*
X9928872Y-17100484D02*
X9890777Y-17100484D01*
X9890777Y-17100484D02*
X9871729Y-17110008D01*
X9871729Y-17110008D02*
X9862206Y-17119531D01*
X9862206Y-17119531D02*
X9852682Y-17138579D01*
X9852682Y-17138579D02*
X9852682Y-17186198D01*
X9852682Y-17186198D02*
X9862206Y-17205246D01*
X9862206Y-17205246D02*
X9871729Y-17214770D01*
X9871729Y-17214770D02*
X9890777Y-17224293D01*
X9890777Y-17224293D02*
X9928872Y-17224293D01*
X9928872Y-17224293D02*
X9947920Y-17214770D01*
X9947920Y-17214770D02*
X9957444Y-17205246D01*
X9957444Y-17205246D02*
X9966968Y-17186198D01*
X10138396Y-17167150D02*
X10138396Y-17300484D01*
X10090777Y-17090960D02*
X10043158Y-17233817D01*
X10043158Y-17233817D02*
X10166968Y-17233817D01*
X10233634Y-17100484D02*
X10233634Y-17138579D01*
X10309825Y-17100484D02*
X10309825Y-17138579D01*
X10605063Y-17376674D02*
X10595539Y-17367150D01*
X10595539Y-17367150D02*
X10576491Y-17338579D01*
X10576491Y-17338579D02*
X10566968Y-17319531D01*
X10566968Y-17319531D02*
X10557444Y-17290960D01*
X10557444Y-17290960D02*
X10547920Y-17243341D01*
X10547920Y-17243341D02*
X10547920Y-17205246D01*
X10547920Y-17205246D02*
X10557444Y-17157627D01*
X10557444Y-17157627D02*
X10566968Y-17129055D01*
X10566968Y-17129055D02*
X10576491Y-17110008D01*
X10576491Y-17110008D02*
X10595539Y-17081436D01*
X10595539Y-17081436D02*
X10605063Y-17071912D01*
X10709825Y-17186198D02*
X10690777Y-17176674D01*
X10690777Y-17176674D02*
X10681253Y-17167150D01*
X10681253Y-17167150D02*
X10671730Y-17148103D01*
X10671730Y-17148103D02*
X10671730Y-17138579D01*
X10671730Y-17138579D02*
X10681253Y-17119531D01*
X10681253Y-17119531D02*
X10690777Y-17110008D01*
X10690777Y-17110008D02*
X10709825Y-17100484D01*
X10709825Y-17100484D02*
X10747920Y-17100484D01*
X10747920Y-17100484D02*
X10766968Y-17110008D01*
X10766968Y-17110008D02*
X10776491Y-17119531D01*
X10776491Y-17119531D02*
X10786015Y-17138579D01*
X10786015Y-17138579D02*
X10786015Y-17148103D01*
X10786015Y-17148103D02*
X10776491Y-17167150D01*
X10776491Y-17167150D02*
X10766968Y-17176674D01*
X10766968Y-17176674D02*
X10747920Y-17186198D01*
X10747920Y-17186198D02*
X10709825Y-17186198D01*
X10709825Y-17186198D02*
X10690777Y-17195722D01*
X10690777Y-17195722D02*
X10681253Y-17205246D01*
X10681253Y-17205246D02*
X10671730Y-17224293D01*
X10671730Y-17224293D02*
X10671730Y-17262389D01*
X10671730Y-17262389D02*
X10681253Y-17281436D01*
X10681253Y-17281436D02*
X10690777Y-17290960D01*
X10690777Y-17290960D02*
X10709825Y-17300484D01*
X10709825Y-17300484D02*
X10747920Y-17300484D01*
X10747920Y-17300484D02*
X10766968Y-17290960D01*
X10766968Y-17290960D02*
X10776491Y-17281436D01*
X10776491Y-17281436D02*
X10786015Y-17262389D01*
X10786015Y-17262389D02*
X10786015Y-17224293D01*
X10786015Y-17224293D02*
X10776491Y-17205246D01*
X10776491Y-17205246D02*
X10766968Y-17195722D01*
X10766968Y-17195722D02*
X10747920Y-17186198D01*
X10957444Y-17100484D02*
X10919349Y-17100484D01*
X10919349Y-17100484D02*
X10900301Y-17110008D01*
X10900301Y-17110008D02*
X10890777Y-17119531D01*
X10890777Y-17119531D02*
X10871730Y-17148103D01*
X10871730Y-17148103D02*
X10862206Y-17186198D01*
X10862206Y-17186198D02*
X10862206Y-17262389D01*
X10862206Y-17262389D02*
X10871730Y-17281436D01*
X10871730Y-17281436D02*
X10881253Y-17290960D01*
X10881253Y-17290960D02*
X10900301Y-17300484D01*
X10900301Y-17300484D02*
X10938396Y-17300484D01*
X10938396Y-17300484D02*
X10957444Y-17290960D01*
X10957444Y-17290960D02*
X10966968Y-17281436D01*
X10966968Y-17281436D02*
X10976491Y-17262389D01*
X10976491Y-17262389D02*
X10976491Y-17214770D01*
X10976491Y-17214770D02*
X10966968Y-17195722D01*
X10966968Y-17195722D02*
X10957444Y-17186198D01*
X10957444Y-17186198D02*
X10938396Y-17176674D01*
X10938396Y-17176674D02*
X10900301Y-17176674D01*
X10900301Y-17176674D02*
X10881253Y-17186198D01*
X10881253Y-17186198D02*
X10871730Y-17195722D01*
X10871730Y-17195722D02*
X10862206Y-17214770D01*
X11214587Y-17300484D02*
X11214587Y-17100484D01*
X11300301Y-17300484D02*
X11300301Y-17195722D01*
X11300301Y-17195722D02*
X11290777Y-17176674D01*
X11290777Y-17176674D02*
X11271730Y-17167150D01*
X11271730Y-17167150D02*
X11243158Y-17167150D01*
X11243158Y-17167150D02*
X11224110Y-17176674D01*
X11224110Y-17176674D02*
X11214587Y-17186198D01*
X11424110Y-17300484D02*
X11405063Y-17290960D01*
X11405063Y-17290960D02*
X11395539Y-17281436D01*
X11395539Y-17281436D02*
X11386015Y-17262389D01*
X11386015Y-17262389D02*
X11386015Y-17205246D01*
X11386015Y-17205246D02*
X11395539Y-17186198D01*
X11395539Y-17186198D02*
X11405063Y-17176674D01*
X11405063Y-17176674D02*
X11424110Y-17167150D01*
X11424110Y-17167150D02*
X11452682Y-17167150D01*
X11452682Y-17167150D02*
X11471730Y-17176674D01*
X11471730Y-17176674D02*
X11481253Y-17186198D01*
X11481253Y-17186198D02*
X11490777Y-17205246D01*
X11490777Y-17205246D02*
X11490777Y-17262389D01*
X11490777Y-17262389D02*
X11481253Y-17281436D01*
X11481253Y-17281436D02*
X11471730Y-17290960D01*
X11471730Y-17290960D02*
X11452682Y-17300484D01*
X11452682Y-17300484D02*
X11424110Y-17300484D01*
X11605063Y-17300484D02*
X11586015Y-17290960D01*
X11586015Y-17290960D02*
X11576491Y-17271912D01*
X11576491Y-17271912D02*
X11576491Y-17100484D01*
X11757444Y-17290960D02*
X11738396Y-17300484D01*
X11738396Y-17300484D02*
X11700301Y-17300484D01*
X11700301Y-17300484D02*
X11681253Y-17290960D01*
X11681253Y-17290960D02*
X11671730Y-17271912D01*
X11671730Y-17271912D02*
X11671730Y-17195722D01*
X11671730Y-17195722D02*
X11681253Y-17176674D01*
X11681253Y-17176674D02*
X11700301Y-17167150D01*
X11700301Y-17167150D02*
X11738396Y-17167150D01*
X11738396Y-17167150D02*
X11757444Y-17176674D01*
X11757444Y-17176674D02*
X11766968Y-17195722D01*
X11766968Y-17195722D02*
X11766968Y-17214770D01*
X11766968Y-17214770D02*
X11671730Y-17233817D01*
X11843158Y-17290960D02*
X11862206Y-17300484D01*
X11862206Y-17300484D02*
X11900301Y-17300484D01*
X11900301Y-17300484D02*
X11919349Y-17290960D01*
X11919349Y-17290960D02*
X11928872Y-17271912D01*
X11928872Y-17271912D02*
X11928872Y-17262389D01*
X11928872Y-17262389D02*
X11919349Y-17243341D01*
X11919349Y-17243341D02*
X11900301Y-17233817D01*
X11900301Y-17233817D02*
X11871730Y-17233817D01*
X11871730Y-17233817D02*
X11852682Y-17224293D01*
X11852682Y-17224293D02*
X11843158Y-17205246D01*
X11843158Y-17205246D02*
X11843158Y-17195722D01*
X11843158Y-17195722D02*
X11852682Y-17176674D01*
X11852682Y-17176674D02*
X11871730Y-17167150D01*
X11871730Y-17167150D02*
X11900301Y-17167150D01*
X11900301Y-17167150D02*
X11919349Y-17176674D01*
X11995539Y-17376674D02*
X12005063Y-17367150D01*
X12005063Y-17367150D02*
X12024111Y-17338579D01*
X12024111Y-17338579D02*
X12033634Y-17319531D01*
X12033634Y-17319531D02*
X12043158Y-17290960D01*
X12043158Y-17290960D02*
X12052682Y-17243341D01*
X12052682Y-17243341D02*
X12052682Y-17205246D01*
X12052682Y-17205246D02*
X12043158Y-17157627D01*
X12043158Y-17157627D02*
X12033634Y-17129055D01*
X12033634Y-17129055D02*
X12024111Y-17110008D01*
X12024111Y-17110008D02*
X12005063Y-17081436D01*
X12005063Y-17081436D02*
X11995539Y-17071912D01*
D18*
X6929000Y-17422500D02*
X7030000Y-17523500D01*
X7030000Y-17422500D02*
X6929000Y-17523500D01*
X7015209Y-17508709D02*
X7015209Y-17437291D01*
X6943791Y-17437291D01*
X6943791Y-17508709D01*
X7015209Y-17508709D01*
D11*
X7395539Y-17564484D02*
X7281253Y-17564484D01*
X7338396Y-17564484D02*
X7338396Y-17364484D01*
X7338396Y-17364484D02*
X7319348Y-17393055D01*
X7319348Y-17393055D02*
X7300301Y-17412103D01*
X7300301Y-17412103D02*
X7281253Y-17421627D01*
X7481253Y-17545436D02*
X7490777Y-17554960D01*
X7490777Y-17554960D02*
X7481253Y-17564484D01*
X7481253Y-17564484D02*
X7471729Y-17554960D01*
X7471729Y-17554960D02*
X7481253Y-17545436D01*
X7481253Y-17545436D02*
X7481253Y-17564484D01*
X7614586Y-17364484D02*
X7633634Y-17364484D01*
X7633634Y-17364484D02*
X7652682Y-17374008D01*
X7652682Y-17374008D02*
X7662205Y-17383531D01*
X7662205Y-17383531D02*
X7671729Y-17402579D01*
X7671729Y-17402579D02*
X7681253Y-17440674D01*
X7681253Y-17440674D02*
X7681253Y-17488293D01*
X7681253Y-17488293D02*
X7671729Y-17526389D01*
X7671729Y-17526389D02*
X7662205Y-17545436D01*
X7662205Y-17545436D02*
X7652682Y-17554960D01*
X7652682Y-17554960D02*
X7633634Y-17564484D01*
X7633634Y-17564484D02*
X7614586Y-17564484D01*
X7614586Y-17564484D02*
X7595539Y-17554960D01*
X7595539Y-17554960D02*
X7586015Y-17545436D01*
X7586015Y-17545436D02*
X7576491Y-17526389D01*
X7576491Y-17526389D02*
X7566967Y-17488293D01*
X7566967Y-17488293D02*
X7566967Y-17440674D01*
X7566967Y-17440674D02*
X7576491Y-17402579D01*
X7576491Y-17402579D02*
X7586015Y-17383531D01*
X7586015Y-17383531D02*
X7595539Y-17374008D01*
X7595539Y-17374008D02*
X7614586Y-17364484D01*
X7871729Y-17564484D02*
X7757443Y-17564484D01*
X7814586Y-17564484D02*
X7814586Y-17364484D01*
X7814586Y-17364484D02*
X7795539Y-17393055D01*
X7795539Y-17393055D02*
X7776491Y-17412103D01*
X7776491Y-17412103D02*
X7757443Y-17421627D01*
X7995539Y-17364484D02*
X8014586Y-17364484D01*
X8014586Y-17364484D02*
X8033634Y-17374008D01*
X8033634Y-17374008D02*
X8043158Y-17383531D01*
X8043158Y-17383531D02*
X8052682Y-17402579D01*
X8052682Y-17402579D02*
X8062205Y-17440674D01*
X8062205Y-17440674D02*
X8062205Y-17488293D01*
X8062205Y-17488293D02*
X8052682Y-17526389D01*
X8052682Y-17526389D02*
X8043158Y-17545436D01*
X8043158Y-17545436D02*
X8033634Y-17554960D01*
X8033634Y-17554960D02*
X8014586Y-17564484D01*
X8014586Y-17564484D02*
X7995539Y-17564484D01*
X7995539Y-17564484D02*
X7976491Y-17554960D01*
X7976491Y-17554960D02*
X7966967Y-17545436D01*
X7966967Y-17545436D02*
X7957443Y-17526389D01*
X7957443Y-17526389D02*
X7947920Y-17488293D01*
X7947920Y-17488293D02*
X7947920Y-17440674D01*
X7947920Y-17440674D02*
X7957443Y-17402579D01*
X7957443Y-17402579D02*
X7966967Y-17383531D01*
X7966967Y-17383531D02*
X7976491Y-17374008D01*
X7976491Y-17374008D02*
X7995539Y-17364484D01*
X8147920Y-17564484D02*
X8147920Y-17431150D01*
X8147920Y-17450198D02*
X8157443Y-17440674D01*
X8157443Y-17440674D02*
X8176491Y-17431150D01*
X8176491Y-17431150D02*
X8205063Y-17431150D01*
X8205063Y-17431150D02*
X8224110Y-17440674D01*
X8224110Y-17440674D02*
X8233634Y-17459722D01*
X8233634Y-17459722D02*
X8233634Y-17564484D01*
X8233634Y-17459722D02*
X8243158Y-17440674D01*
X8243158Y-17440674D02*
X8262205Y-17431150D01*
X8262205Y-17431150D02*
X8290777Y-17431150D01*
X8290777Y-17431150D02*
X8309824Y-17440674D01*
X8309824Y-17440674D02*
X8319348Y-17459722D01*
X8319348Y-17459722D02*
X8319348Y-17564484D01*
X8414586Y-17564484D02*
X8414586Y-17431150D01*
X8414586Y-17450198D02*
X8424110Y-17440674D01*
X8424110Y-17440674D02*
X8443158Y-17431150D01*
X8443158Y-17431150D02*
X8471729Y-17431150D01*
X8471729Y-17431150D02*
X8490777Y-17440674D01*
X8490777Y-17440674D02*
X8500301Y-17459722D01*
X8500301Y-17459722D02*
X8500301Y-17564484D01*
X8500301Y-17459722D02*
X8509825Y-17440674D01*
X8509825Y-17440674D02*
X8528872Y-17431150D01*
X8528872Y-17431150D02*
X8557444Y-17431150D01*
X8557444Y-17431150D02*
X8576491Y-17440674D01*
X8576491Y-17440674D02*
X8586015Y-17459722D01*
X8586015Y-17459722D02*
X8586015Y-17564484D01*
X8976491Y-17354960D02*
X8805063Y-17612103D01*
X9233634Y-17364484D02*
X9252682Y-17364484D01*
X9252682Y-17364484D02*
X9271729Y-17374008D01*
X9271729Y-17374008D02*
X9281253Y-17383531D01*
X9281253Y-17383531D02*
X9290777Y-17402579D01*
X9290777Y-17402579D02*
X9300301Y-17440674D01*
X9300301Y-17440674D02*
X9300301Y-17488293D01*
X9300301Y-17488293D02*
X9290777Y-17526389D01*
X9290777Y-17526389D02*
X9281253Y-17545436D01*
X9281253Y-17545436D02*
X9271729Y-17554960D01*
X9271729Y-17554960D02*
X9252682Y-17564484D01*
X9252682Y-17564484D02*
X9233634Y-17564484D01*
X9233634Y-17564484D02*
X9214587Y-17554960D01*
X9214587Y-17554960D02*
X9205063Y-17545436D01*
X9205063Y-17545436D02*
X9195539Y-17526389D01*
X9195539Y-17526389D02*
X9186015Y-17488293D01*
X9186015Y-17488293D02*
X9186015Y-17440674D01*
X9186015Y-17440674D02*
X9195539Y-17402579D01*
X9195539Y-17402579D02*
X9205063Y-17383531D01*
X9205063Y-17383531D02*
X9214587Y-17374008D01*
X9214587Y-17374008D02*
X9233634Y-17364484D01*
X9386015Y-17545436D02*
X9395539Y-17554960D01*
X9395539Y-17554960D02*
X9386015Y-17564484D01*
X9386015Y-17564484D02*
X9376491Y-17554960D01*
X9376491Y-17554960D02*
X9386015Y-17545436D01*
X9386015Y-17545436D02*
X9386015Y-17564484D01*
X9519348Y-17364484D02*
X9538396Y-17364484D01*
X9538396Y-17364484D02*
X9557444Y-17374008D01*
X9557444Y-17374008D02*
X9566968Y-17383531D01*
X9566968Y-17383531D02*
X9576491Y-17402579D01*
X9576491Y-17402579D02*
X9586015Y-17440674D01*
X9586015Y-17440674D02*
X9586015Y-17488293D01*
X9586015Y-17488293D02*
X9576491Y-17526389D01*
X9576491Y-17526389D02*
X9566968Y-17545436D01*
X9566968Y-17545436D02*
X9557444Y-17554960D01*
X9557444Y-17554960D02*
X9538396Y-17564484D01*
X9538396Y-17564484D02*
X9519348Y-17564484D01*
X9519348Y-17564484D02*
X9500301Y-17554960D01*
X9500301Y-17554960D02*
X9490777Y-17545436D01*
X9490777Y-17545436D02*
X9481253Y-17526389D01*
X9481253Y-17526389D02*
X9471729Y-17488293D01*
X9471729Y-17488293D02*
X9471729Y-17440674D01*
X9471729Y-17440674D02*
X9481253Y-17402579D01*
X9481253Y-17402579D02*
X9490777Y-17383531D01*
X9490777Y-17383531D02*
X9500301Y-17374008D01*
X9500301Y-17374008D02*
X9519348Y-17364484D01*
X9652682Y-17364484D02*
X9776491Y-17364484D01*
X9776491Y-17364484D02*
X9709825Y-17440674D01*
X9709825Y-17440674D02*
X9738396Y-17440674D01*
X9738396Y-17440674D02*
X9757444Y-17450198D01*
X9757444Y-17450198D02*
X9766968Y-17459722D01*
X9766968Y-17459722D02*
X9776491Y-17478770D01*
X9776491Y-17478770D02*
X9776491Y-17526389D01*
X9776491Y-17526389D02*
X9766968Y-17545436D01*
X9766968Y-17545436D02*
X9757444Y-17554960D01*
X9757444Y-17554960D02*
X9738396Y-17564484D01*
X9738396Y-17564484D02*
X9681253Y-17564484D01*
X9681253Y-17564484D02*
X9662206Y-17554960D01*
X9662206Y-17554960D02*
X9652682Y-17545436D01*
X9871729Y-17564484D02*
X9909825Y-17564484D01*
X9909825Y-17564484D02*
X9928872Y-17554960D01*
X9928872Y-17554960D02*
X9938396Y-17545436D01*
X9938396Y-17545436D02*
X9957444Y-17516865D01*
X9957444Y-17516865D02*
X9966968Y-17478770D01*
X9966968Y-17478770D02*
X9966968Y-17402579D01*
X9966968Y-17402579D02*
X9957444Y-17383531D01*
X9957444Y-17383531D02*
X9947920Y-17374008D01*
X9947920Y-17374008D02*
X9928872Y-17364484D01*
X9928872Y-17364484D02*
X9890777Y-17364484D01*
X9890777Y-17364484D02*
X9871729Y-17374008D01*
X9871729Y-17374008D02*
X9862206Y-17383531D01*
X9862206Y-17383531D02*
X9852682Y-17402579D01*
X9852682Y-17402579D02*
X9852682Y-17450198D01*
X9852682Y-17450198D02*
X9862206Y-17469246D01*
X9862206Y-17469246D02*
X9871729Y-17478770D01*
X9871729Y-17478770D02*
X9890777Y-17488293D01*
X9890777Y-17488293D02*
X9928872Y-17488293D01*
X9928872Y-17488293D02*
X9947920Y-17478770D01*
X9947920Y-17478770D02*
X9957444Y-17469246D01*
X9957444Y-17469246D02*
X9966968Y-17450198D01*
X10081253Y-17450198D02*
X10062206Y-17440674D01*
X10062206Y-17440674D02*
X10052682Y-17431150D01*
X10052682Y-17431150D02*
X10043158Y-17412103D01*
X10043158Y-17412103D02*
X10043158Y-17402579D01*
X10043158Y-17402579D02*
X10052682Y-17383531D01*
X10052682Y-17383531D02*
X10062206Y-17374008D01*
X10062206Y-17374008D02*
X10081253Y-17364484D01*
X10081253Y-17364484D02*
X10119349Y-17364484D01*
X10119349Y-17364484D02*
X10138396Y-17374008D01*
X10138396Y-17374008D02*
X10147920Y-17383531D01*
X10147920Y-17383531D02*
X10157444Y-17402579D01*
X10157444Y-17402579D02*
X10157444Y-17412103D01*
X10157444Y-17412103D02*
X10147920Y-17431150D01*
X10147920Y-17431150D02*
X10138396Y-17440674D01*
X10138396Y-17440674D02*
X10119349Y-17450198D01*
X10119349Y-17450198D02*
X10081253Y-17450198D01*
X10081253Y-17450198D02*
X10062206Y-17459722D01*
X10062206Y-17459722D02*
X10052682Y-17469246D01*
X10052682Y-17469246D02*
X10043158Y-17488293D01*
X10043158Y-17488293D02*
X10043158Y-17526389D01*
X10043158Y-17526389D02*
X10052682Y-17545436D01*
X10052682Y-17545436D02*
X10062206Y-17554960D01*
X10062206Y-17554960D02*
X10081253Y-17564484D01*
X10081253Y-17564484D02*
X10119349Y-17564484D01*
X10119349Y-17564484D02*
X10138396Y-17554960D01*
X10138396Y-17554960D02*
X10147920Y-17545436D01*
X10147920Y-17545436D02*
X10157444Y-17526389D01*
X10157444Y-17526389D02*
X10157444Y-17488293D01*
X10157444Y-17488293D02*
X10147920Y-17469246D01*
X10147920Y-17469246D02*
X10138396Y-17459722D01*
X10138396Y-17459722D02*
X10119349Y-17450198D01*
X10233634Y-17364484D02*
X10233634Y-17402579D01*
X10309825Y-17364484D02*
X10309825Y-17402579D01*
X10605063Y-17640674D02*
X10595539Y-17631150D01*
X10595539Y-17631150D02*
X10576491Y-17602579D01*
X10576491Y-17602579D02*
X10566968Y-17583531D01*
X10566968Y-17583531D02*
X10557444Y-17554960D01*
X10557444Y-17554960D02*
X10547920Y-17507341D01*
X10547920Y-17507341D02*
X10547920Y-17469246D01*
X10547920Y-17469246D02*
X10557444Y-17421627D01*
X10557444Y-17421627D02*
X10566968Y-17393055D01*
X10566968Y-17393055D02*
X10576491Y-17374008D01*
X10576491Y-17374008D02*
X10595539Y-17345436D01*
X10595539Y-17345436D02*
X10605063Y-17335912D01*
X10671730Y-17383531D02*
X10681253Y-17374008D01*
X10681253Y-17374008D02*
X10700301Y-17364484D01*
X10700301Y-17364484D02*
X10747920Y-17364484D01*
X10747920Y-17364484D02*
X10766968Y-17374008D01*
X10766968Y-17374008D02*
X10776491Y-17383531D01*
X10776491Y-17383531D02*
X10786015Y-17402579D01*
X10786015Y-17402579D02*
X10786015Y-17421627D01*
X10786015Y-17421627D02*
X10776491Y-17450198D01*
X10776491Y-17450198D02*
X10662206Y-17564484D01*
X10662206Y-17564484D02*
X10786015Y-17564484D01*
X10852682Y-17364484D02*
X10986015Y-17364484D01*
X10986015Y-17364484D02*
X10900301Y-17564484D01*
X11214587Y-17564484D02*
X11214587Y-17364484D01*
X11300301Y-17564484D02*
X11300301Y-17459722D01*
X11300301Y-17459722D02*
X11290777Y-17440674D01*
X11290777Y-17440674D02*
X11271730Y-17431150D01*
X11271730Y-17431150D02*
X11243158Y-17431150D01*
X11243158Y-17431150D02*
X11224110Y-17440674D01*
X11224110Y-17440674D02*
X11214587Y-17450198D01*
X11424110Y-17564484D02*
X11405063Y-17554960D01*
X11405063Y-17554960D02*
X11395539Y-17545436D01*
X11395539Y-17545436D02*
X11386015Y-17526389D01*
X11386015Y-17526389D02*
X11386015Y-17469246D01*
X11386015Y-17469246D02*
X11395539Y-17450198D01*
X11395539Y-17450198D02*
X11405063Y-17440674D01*
X11405063Y-17440674D02*
X11424110Y-17431150D01*
X11424110Y-17431150D02*
X11452682Y-17431150D01*
X11452682Y-17431150D02*
X11471730Y-17440674D01*
X11471730Y-17440674D02*
X11481253Y-17450198D01*
X11481253Y-17450198D02*
X11490777Y-17469246D01*
X11490777Y-17469246D02*
X11490777Y-17526389D01*
X11490777Y-17526389D02*
X11481253Y-17545436D01*
X11481253Y-17545436D02*
X11471730Y-17554960D01*
X11471730Y-17554960D02*
X11452682Y-17564484D01*
X11452682Y-17564484D02*
X11424110Y-17564484D01*
X11605063Y-17564484D02*
X11586015Y-17554960D01*
X11586015Y-17554960D02*
X11576491Y-17535912D01*
X11576491Y-17535912D02*
X11576491Y-17364484D01*
X11757444Y-17554960D02*
X11738396Y-17564484D01*
X11738396Y-17564484D02*
X11700301Y-17564484D01*
X11700301Y-17564484D02*
X11681253Y-17554960D01*
X11681253Y-17554960D02*
X11671730Y-17535912D01*
X11671730Y-17535912D02*
X11671730Y-17459722D01*
X11671730Y-17459722D02*
X11681253Y-17440674D01*
X11681253Y-17440674D02*
X11700301Y-17431150D01*
X11700301Y-17431150D02*
X11738396Y-17431150D01*
X11738396Y-17431150D02*
X11757444Y-17440674D01*
X11757444Y-17440674D02*
X11766968Y-17459722D01*
X11766968Y-17459722D02*
X11766968Y-17478770D01*
X11766968Y-17478770D02*
X11671730Y-17497817D01*
X11843158Y-17554960D02*
X11862206Y-17564484D01*
X11862206Y-17564484D02*
X11900301Y-17564484D01*
X11900301Y-17564484D02*
X11919349Y-17554960D01*
X11919349Y-17554960D02*
X11928872Y-17535912D01*
X11928872Y-17535912D02*
X11928872Y-17526389D01*
X11928872Y-17526389D02*
X11919349Y-17507341D01*
X11919349Y-17507341D02*
X11900301Y-17497817D01*
X11900301Y-17497817D02*
X11871730Y-17497817D01*
X11871730Y-17497817D02*
X11852682Y-17488293D01*
X11852682Y-17488293D02*
X11843158Y-17469246D01*
X11843158Y-17469246D02*
X11843158Y-17459722D01*
X11843158Y-17459722D02*
X11852682Y-17440674D01*
X11852682Y-17440674D02*
X11871730Y-17431150D01*
X11871730Y-17431150D02*
X11900301Y-17431150D01*
X11900301Y-17431150D02*
X11919349Y-17440674D01*
X11995539Y-17640674D02*
X12005063Y-17631150D01*
X12005063Y-17631150D02*
X12024111Y-17602579D01*
X12024111Y-17602579D02*
X12033634Y-17583531D01*
X12033634Y-17583531D02*
X12043158Y-17554960D01*
X12043158Y-17554960D02*
X12052682Y-17507341D01*
X12052682Y-17507341D02*
X12052682Y-17469246D01*
X12052682Y-17469246D02*
X12043158Y-17421627D01*
X12043158Y-17421627D02*
X12033634Y-17393055D01*
X12033634Y-17393055D02*
X12024111Y-17374008D01*
X12024111Y-17374008D02*
X12005063Y-17345436D01*
X12005063Y-17345436D02*
X11995539Y-17335912D01*
D19*
X6903000Y-17673500D02*
X7030000Y-17800500D01*
X7030000Y-17673500D02*
X6903000Y-17800500D01*
X6966500Y-17800500D02*
X7030000Y-17737000D01*
X6966500Y-17673500D01*
X6903000Y-17737000D01*
X6966500Y-17800500D01*
D11*
X7395539Y-17828484D02*
X7281253Y-17828484D01*
X7338396Y-17828484D02*
X7338396Y-17628484D01*
X7338396Y-17628484D02*
X7319348Y-17657055D01*
X7319348Y-17657055D02*
X7300301Y-17676103D01*
X7300301Y-17676103D02*
X7281253Y-17685627D01*
X7481253Y-17809436D02*
X7490777Y-17818960D01*
X7490777Y-17818960D02*
X7481253Y-17828484D01*
X7481253Y-17828484D02*
X7471729Y-17818960D01*
X7471729Y-17818960D02*
X7481253Y-17809436D01*
X7481253Y-17809436D02*
X7481253Y-17828484D01*
X7566967Y-17647531D02*
X7576491Y-17638008D01*
X7576491Y-17638008D02*
X7595539Y-17628484D01*
X7595539Y-17628484D02*
X7643158Y-17628484D01*
X7643158Y-17628484D02*
X7662205Y-17638008D01*
X7662205Y-17638008D02*
X7671729Y-17647531D01*
X7671729Y-17647531D02*
X7681253Y-17666579D01*
X7681253Y-17666579D02*
X7681253Y-17685627D01*
X7681253Y-17685627D02*
X7671729Y-17714198D01*
X7671729Y-17714198D02*
X7557443Y-17828484D01*
X7557443Y-17828484D02*
X7681253Y-17828484D01*
X7747920Y-17628484D02*
X7881253Y-17628484D01*
X7881253Y-17628484D02*
X7795539Y-17828484D01*
X7995539Y-17628484D02*
X8014586Y-17628484D01*
X8014586Y-17628484D02*
X8033634Y-17638008D01*
X8033634Y-17638008D02*
X8043158Y-17647531D01*
X8043158Y-17647531D02*
X8052682Y-17666579D01*
X8052682Y-17666579D02*
X8062205Y-17704674D01*
X8062205Y-17704674D02*
X8062205Y-17752293D01*
X8062205Y-17752293D02*
X8052682Y-17790389D01*
X8052682Y-17790389D02*
X8043158Y-17809436D01*
X8043158Y-17809436D02*
X8033634Y-17818960D01*
X8033634Y-17818960D02*
X8014586Y-17828484D01*
X8014586Y-17828484D02*
X7995539Y-17828484D01*
X7995539Y-17828484D02*
X7976491Y-17818960D01*
X7976491Y-17818960D02*
X7966967Y-17809436D01*
X7966967Y-17809436D02*
X7957443Y-17790389D01*
X7957443Y-17790389D02*
X7947920Y-17752293D01*
X7947920Y-17752293D02*
X7947920Y-17704674D01*
X7947920Y-17704674D02*
X7957443Y-17666579D01*
X7957443Y-17666579D02*
X7966967Y-17647531D01*
X7966967Y-17647531D02*
X7976491Y-17638008D01*
X7976491Y-17638008D02*
X7995539Y-17628484D01*
X8147920Y-17828484D02*
X8147920Y-17695150D01*
X8147920Y-17714198D02*
X8157443Y-17704674D01*
X8157443Y-17704674D02*
X8176491Y-17695150D01*
X8176491Y-17695150D02*
X8205063Y-17695150D01*
X8205063Y-17695150D02*
X8224110Y-17704674D01*
X8224110Y-17704674D02*
X8233634Y-17723722D01*
X8233634Y-17723722D02*
X8233634Y-17828484D01*
X8233634Y-17723722D02*
X8243158Y-17704674D01*
X8243158Y-17704674D02*
X8262205Y-17695150D01*
X8262205Y-17695150D02*
X8290777Y-17695150D01*
X8290777Y-17695150D02*
X8309824Y-17704674D01*
X8309824Y-17704674D02*
X8319348Y-17723722D01*
X8319348Y-17723722D02*
X8319348Y-17828484D01*
X8414586Y-17828484D02*
X8414586Y-17695150D01*
X8414586Y-17714198D02*
X8424110Y-17704674D01*
X8424110Y-17704674D02*
X8443158Y-17695150D01*
X8443158Y-17695150D02*
X8471729Y-17695150D01*
X8471729Y-17695150D02*
X8490777Y-17704674D01*
X8490777Y-17704674D02*
X8500301Y-17723722D01*
X8500301Y-17723722D02*
X8500301Y-17828484D01*
X8500301Y-17723722D02*
X8509825Y-17704674D01*
X8509825Y-17704674D02*
X8528872Y-17695150D01*
X8528872Y-17695150D02*
X8557444Y-17695150D01*
X8557444Y-17695150D02*
X8576491Y-17704674D01*
X8576491Y-17704674D02*
X8586015Y-17723722D01*
X8586015Y-17723722D02*
X8586015Y-17828484D01*
X8976491Y-17618960D02*
X8805063Y-17876103D01*
X9233634Y-17628484D02*
X9252682Y-17628484D01*
X9252682Y-17628484D02*
X9271729Y-17638008D01*
X9271729Y-17638008D02*
X9281253Y-17647531D01*
X9281253Y-17647531D02*
X9290777Y-17666579D01*
X9290777Y-17666579D02*
X9300301Y-17704674D01*
X9300301Y-17704674D02*
X9300301Y-17752293D01*
X9300301Y-17752293D02*
X9290777Y-17790389D01*
X9290777Y-17790389D02*
X9281253Y-17809436D01*
X9281253Y-17809436D02*
X9271729Y-17818960D01*
X9271729Y-17818960D02*
X9252682Y-17828484D01*
X9252682Y-17828484D02*
X9233634Y-17828484D01*
X9233634Y-17828484D02*
X9214587Y-17818960D01*
X9214587Y-17818960D02*
X9205063Y-17809436D01*
X9205063Y-17809436D02*
X9195539Y-17790389D01*
X9195539Y-17790389D02*
X9186015Y-17752293D01*
X9186015Y-17752293D02*
X9186015Y-17704674D01*
X9186015Y-17704674D02*
X9195539Y-17666579D01*
X9195539Y-17666579D02*
X9205063Y-17647531D01*
X9205063Y-17647531D02*
X9214587Y-17638008D01*
X9214587Y-17638008D02*
X9233634Y-17628484D01*
X9386015Y-17809436D02*
X9395539Y-17818960D01*
X9395539Y-17818960D02*
X9386015Y-17828484D01*
X9386015Y-17828484D02*
X9376491Y-17818960D01*
X9376491Y-17818960D02*
X9386015Y-17809436D01*
X9386015Y-17809436D02*
X9386015Y-17828484D01*
X9519348Y-17628484D02*
X9538396Y-17628484D01*
X9538396Y-17628484D02*
X9557444Y-17638008D01*
X9557444Y-17638008D02*
X9566968Y-17647531D01*
X9566968Y-17647531D02*
X9576491Y-17666579D01*
X9576491Y-17666579D02*
X9586015Y-17704674D01*
X9586015Y-17704674D02*
X9586015Y-17752293D01*
X9586015Y-17752293D02*
X9576491Y-17790389D01*
X9576491Y-17790389D02*
X9566968Y-17809436D01*
X9566968Y-17809436D02*
X9557444Y-17818960D01*
X9557444Y-17818960D02*
X9538396Y-17828484D01*
X9538396Y-17828484D02*
X9519348Y-17828484D01*
X9519348Y-17828484D02*
X9500301Y-17818960D01*
X9500301Y-17818960D02*
X9490777Y-17809436D01*
X9490777Y-17809436D02*
X9481253Y-17790389D01*
X9481253Y-17790389D02*
X9471729Y-17752293D01*
X9471729Y-17752293D02*
X9471729Y-17704674D01*
X9471729Y-17704674D02*
X9481253Y-17666579D01*
X9481253Y-17666579D02*
X9490777Y-17647531D01*
X9490777Y-17647531D02*
X9500301Y-17638008D01*
X9500301Y-17638008D02*
X9519348Y-17628484D01*
X9766968Y-17628484D02*
X9671729Y-17628484D01*
X9671729Y-17628484D02*
X9662206Y-17723722D01*
X9662206Y-17723722D02*
X9671729Y-17714198D01*
X9671729Y-17714198D02*
X9690777Y-17704674D01*
X9690777Y-17704674D02*
X9738396Y-17704674D01*
X9738396Y-17704674D02*
X9757444Y-17714198D01*
X9757444Y-17714198D02*
X9766968Y-17723722D01*
X9766968Y-17723722D02*
X9776491Y-17742770D01*
X9776491Y-17742770D02*
X9776491Y-17790389D01*
X9776491Y-17790389D02*
X9766968Y-17809436D01*
X9766968Y-17809436D02*
X9757444Y-17818960D01*
X9757444Y-17818960D02*
X9738396Y-17828484D01*
X9738396Y-17828484D02*
X9690777Y-17828484D01*
X9690777Y-17828484D02*
X9671729Y-17818960D01*
X9671729Y-17818960D02*
X9662206Y-17809436D01*
X9900301Y-17628484D02*
X9919349Y-17628484D01*
X9919349Y-17628484D02*
X9938396Y-17638008D01*
X9938396Y-17638008D02*
X9947920Y-17647531D01*
X9947920Y-17647531D02*
X9957444Y-17666579D01*
X9957444Y-17666579D02*
X9966968Y-17704674D01*
X9966968Y-17704674D02*
X9966968Y-17752293D01*
X9966968Y-17752293D02*
X9957444Y-17790389D01*
X9957444Y-17790389D02*
X9947920Y-17809436D01*
X9947920Y-17809436D02*
X9938396Y-17818960D01*
X9938396Y-17818960D02*
X9919349Y-17828484D01*
X9919349Y-17828484D02*
X9900301Y-17828484D01*
X9900301Y-17828484D02*
X9881253Y-17818960D01*
X9881253Y-17818960D02*
X9871729Y-17809436D01*
X9871729Y-17809436D02*
X9862206Y-17790389D01*
X9862206Y-17790389D02*
X9852682Y-17752293D01*
X9852682Y-17752293D02*
X9852682Y-17704674D01*
X9852682Y-17704674D02*
X9862206Y-17666579D01*
X9862206Y-17666579D02*
X9871729Y-17647531D01*
X9871729Y-17647531D02*
X9881253Y-17638008D01*
X9881253Y-17638008D02*
X9900301Y-17628484D01*
X10090777Y-17628484D02*
X10109825Y-17628484D01*
X10109825Y-17628484D02*
X10128872Y-17638008D01*
X10128872Y-17638008D02*
X10138396Y-17647531D01*
X10138396Y-17647531D02*
X10147920Y-17666579D01*
X10147920Y-17666579D02*
X10157444Y-17704674D01*
X10157444Y-17704674D02*
X10157444Y-17752293D01*
X10157444Y-17752293D02*
X10147920Y-17790389D01*
X10147920Y-17790389D02*
X10138396Y-17809436D01*
X10138396Y-17809436D02*
X10128872Y-17818960D01*
X10128872Y-17818960D02*
X10109825Y-17828484D01*
X10109825Y-17828484D02*
X10090777Y-17828484D01*
X10090777Y-17828484D02*
X10071729Y-17818960D01*
X10071729Y-17818960D02*
X10062206Y-17809436D01*
X10062206Y-17809436D02*
X10052682Y-17790389D01*
X10052682Y-17790389D02*
X10043158Y-17752293D01*
X10043158Y-17752293D02*
X10043158Y-17704674D01*
X10043158Y-17704674D02*
X10052682Y-17666579D01*
X10052682Y-17666579D02*
X10062206Y-17647531D01*
X10062206Y-17647531D02*
X10071729Y-17638008D01*
X10071729Y-17638008D02*
X10090777Y-17628484D01*
X10233634Y-17628484D02*
X10233634Y-17666579D01*
X10309825Y-17628484D02*
X10309825Y-17666579D01*
X10605063Y-17904674D02*
X10595539Y-17895150D01*
X10595539Y-17895150D02*
X10576491Y-17866579D01*
X10576491Y-17866579D02*
X10566968Y-17847531D01*
X10566968Y-17847531D02*
X10557444Y-17818960D01*
X10557444Y-17818960D02*
X10547920Y-17771341D01*
X10547920Y-17771341D02*
X10547920Y-17733246D01*
X10547920Y-17733246D02*
X10557444Y-17685627D01*
X10557444Y-17685627D02*
X10566968Y-17657055D01*
X10566968Y-17657055D02*
X10576491Y-17638008D01*
X10576491Y-17638008D02*
X10595539Y-17609436D01*
X10595539Y-17609436D02*
X10605063Y-17599912D01*
X10662206Y-17628484D02*
X10786015Y-17628484D01*
X10786015Y-17628484D02*
X10719349Y-17704674D01*
X10719349Y-17704674D02*
X10747920Y-17704674D01*
X10747920Y-17704674D02*
X10766968Y-17714198D01*
X10766968Y-17714198D02*
X10776491Y-17723722D01*
X10776491Y-17723722D02*
X10786015Y-17742770D01*
X10786015Y-17742770D02*
X10786015Y-17790389D01*
X10786015Y-17790389D02*
X10776491Y-17809436D01*
X10776491Y-17809436D02*
X10766968Y-17818960D01*
X10766968Y-17818960D02*
X10747920Y-17828484D01*
X10747920Y-17828484D02*
X10690777Y-17828484D01*
X10690777Y-17828484D02*
X10671730Y-17818960D01*
X10671730Y-17818960D02*
X10662206Y-17809436D01*
X11024111Y-17828484D02*
X11024111Y-17628484D01*
X11109825Y-17828484D02*
X11109825Y-17723722D01*
X11109825Y-17723722D02*
X11100301Y-17704674D01*
X11100301Y-17704674D02*
X11081253Y-17695150D01*
X11081253Y-17695150D02*
X11052682Y-17695150D01*
X11052682Y-17695150D02*
X11033634Y-17704674D01*
X11033634Y-17704674D02*
X11024111Y-17714198D01*
X11233634Y-17828484D02*
X11214587Y-17818960D01*
X11214587Y-17818960D02*
X11205063Y-17809436D01*
X11205063Y-17809436D02*
X11195539Y-17790389D01*
X11195539Y-17790389D02*
X11195539Y-17733246D01*
X11195539Y-17733246D02*
X11205063Y-17714198D01*
X11205063Y-17714198D02*
X11214587Y-17704674D01*
X11214587Y-17704674D02*
X11233634Y-17695150D01*
X11233634Y-17695150D02*
X11262206Y-17695150D01*
X11262206Y-17695150D02*
X11281253Y-17704674D01*
X11281253Y-17704674D02*
X11290777Y-17714198D01*
X11290777Y-17714198D02*
X11300301Y-17733246D01*
X11300301Y-17733246D02*
X11300301Y-17790389D01*
X11300301Y-17790389D02*
X11290777Y-17809436D01*
X11290777Y-17809436D02*
X11281253Y-17818960D01*
X11281253Y-17818960D02*
X11262206Y-17828484D01*
X11262206Y-17828484D02*
X11233634Y-17828484D01*
X11414587Y-17828484D02*
X11395539Y-17818960D01*
X11395539Y-17818960D02*
X11386015Y-17799912D01*
X11386015Y-17799912D02*
X11386015Y-17628484D01*
X11566968Y-17818960D02*
X11547920Y-17828484D01*
X11547920Y-17828484D02*
X11509825Y-17828484D01*
X11509825Y-17828484D02*
X11490777Y-17818960D01*
X11490777Y-17818960D02*
X11481253Y-17799912D01*
X11481253Y-17799912D02*
X11481253Y-17723722D01*
X11481253Y-17723722D02*
X11490777Y-17704674D01*
X11490777Y-17704674D02*
X11509825Y-17695150D01*
X11509825Y-17695150D02*
X11547920Y-17695150D01*
X11547920Y-17695150D02*
X11566968Y-17704674D01*
X11566968Y-17704674D02*
X11576491Y-17723722D01*
X11576491Y-17723722D02*
X11576491Y-17742770D01*
X11576491Y-17742770D02*
X11481253Y-17761817D01*
X11652682Y-17818960D02*
X11671730Y-17828484D01*
X11671730Y-17828484D02*
X11709825Y-17828484D01*
X11709825Y-17828484D02*
X11728872Y-17818960D01*
X11728872Y-17818960D02*
X11738396Y-17799912D01*
X11738396Y-17799912D02*
X11738396Y-17790389D01*
X11738396Y-17790389D02*
X11728872Y-17771341D01*
X11728872Y-17771341D02*
X11709825Y-17761817D01*
X11709825Y-17761817D02*
X11681253Y-17761817D01*
X11681253Y-17761817D02*
X11662206Y-17752293D01*
X11662206Y-17752293D02*
X11652682Y-17733246D01*
X11652682Y-17733246D02*
X11652682Y-17723722D01*
X11652682Y-17723722D02*
X11662206Y-17704674D01*
X11662206Y-17704674D02*
X11681253Y-17695150D01*
X11681253Y-17695150D02*
X11709825Y-17695150D01*
X11709825Y-17695150D02*
X11728872Y-17704674D01*
X11805063Y-17904674D02*
X11814587Y-17895150D01*
X11814587Y-17895150D02*
X11833634Y-17866579D01*
X11833634Y-17866579D02*
X11843158Y-17847531D01*
X11843158Y-17847531D02*
X11852682Y-17818960D01*
X11852682Y-17818960D02*
X11862206Y-17771341D01*
X11862206Y-17771341D02*
X11862206Y-17733246D01*
X11862206Y-17733246D02*
X11852682Y-17685627D01*
X11852682Y-17685627D02*
X11843158Y-17657055D01*
X11843158Y-17657055D02*
X11833634Y-17638008D01*
X11833634Y-17638008D02*
X11814587Y-17609436D01*
X11814587Y-17609436D02*
X11805063Y-17599912D01*
D20*
X6960000Y-17931000D02*
X6960000Y-18071000D01*
X6890000Y-18001000D02*
X7030000Y-18001000D01*
X7030000Y-18001000D02*
G75*
G03*
X7030000Y-18001000I-70000J0D01*
G01*
D11*
X7395539Y-18092484D02*
X7281253Y-18092484D01*
X7338396Y-18092484D02*
X7338396Y-17892484D01*
X7338396Y-17892484D02*
X7319348Y-17921055D01*
X7319348Y-17921055D02*
X7300301Y-17940103D01*
X7300301Y-17940103D02*
X7281253Y-17949627D01*
X7481253Y-18073436D02*
X7490777Y-18082960D01*
X7490777Y-18082960D02*
X7481253Y-18092484D01*
X7481253Y-18092484D02*
X7471729Y-18082960D01*
X7471729Y-18082960D02*
X7481253Y-18073436D01*
X7481253Y-18073436D02*
X7481253Y-18092484D01*
X7662205Y-17959150D02*
X7662205Y-18092484D01*
X7614586Y-17882960D02*
X7566967Y-18025817D01*
X7566967Y-18025817D02*
X7690777Y-18025817D01*
X7805062Y-17892484D02*
X7824110Y-17892484D01*
X7824110Y-17892484D02*
X7843158Y-17902008D01*
X7843158Y-17902008D02*
X7852682Y-17911531D01*
X7852682Y-17911531D02*
X7862205Y-17930579D01*
X7862205Y-17930579D02*
X7871729Y-17968674D01*
X7871729Y-17968674D02*
X7871729Y-18016293D01*
X7871729Y-18016293D02*
X7862205Y-18054389D01*
X7862205Y-18054389D02*
X7852682Y-18073436D01*
X7852682Y-18073436D02*
X7843158Y-18082960D01*
X7843158Y-18082960D02*
X7824110Y-18092484D01*
X7824110Y-18092484D02*
X7805062Y-18092484D01*
X7805062Y-18092484D02*
X7786015Y-18082960D01*
X7786015Y-18082960D02*
X7776491Y-18073436D01*
X7776491Y-18073436D02*
X7766967Y-18054389D01*
X7766967Y-18054389D02*
X7757443Y-18016293D01*
X7757443Y-18016293D02*
X7757443Y-17968674D01*
X7757443Y-17968674D02*
X7766967Y-17930579D01*
X7766967Y-17930579D02*
X7776491Y-17911531D01*
X7776491Y-17911531D02*
X7786015Y-17902008D01*
X7786015Y-17902008D02*
X7805062Y-17892484D01*
X7995539Y-17892484D02*
X8014586Y-17892484D01*
X8014586Y-17892484D02*
X8033634Y-17902008D01*
X8033634Y-17902008D02*
X8043158Y-17911531D01*
X8043158Y-17911531D02*
X8052682Y-17930579D01*
X8052682Y-17930579D02*
X8062205Y-17968674D01*
X8062205Y-17968674D02*
X8062205Y-18016293D01*
X8062205Y-18016293D02*
X8052682Y-18054389D01*
X8052682Y-18054389D02*
X8043158Y-18073436D01*
X8043158Y-18073436D02*
X8033634Y-18082960D01*
X8033634Y-18082960D02*
X8014586Y-18092484D01*
X8014586Y-18092484D02*
X7995539Y-18092484D01*
X7995539Y-18092484D02*
X7976491Y-18082960D01*
X7976491Y-18082960D02*
X7966967Y-18073436D01*
X7966967Y-18073436D02*
X7957443Y-18054389D01*
X7957443Y-18054389D02*
X7947920Y-18016293D01*
X7947920Y-18016293D02*
X7947920Y-17968674D01*
X7947920Y-17968674D02*
X7957443Y-17930579D01*
X7957443Y-17930579D02*
X7966967Y-17911531D01*
X7966967Y-17911531D02*
X7976491Y-17902008D01*
X7976491Y-17902008D02*
X7995539Y-17892484D01*
X8147920Y-18092484D02*
X8147920Y-17959150D01*
X8147920Y-17978198D02*
X8157443Y-17968674D01*
X8157443Y-17968674D02*
X8176491Y-17959150D01*
X8176491Y-17959150D02*
X8205063Y-17959150D01*
X8205063Y-17959150D02*
X8224110Y-17968674D01*
X8224110Y-17968674D02*
X8233634Y-17987722D01*
X8233634Y-17987722D02*
X8233634Y-18092484D01*
X8233634Y-17987722D02*
X8243158Y-17968674D01*
X8243158Y-17968674D02*
X8262205Y-17959150D01*
X8262205Y-17959150D02*
X8290777Y-17959150D01*
X8290777Y-17959150D02*
X8309824Y-17968674D01*
X8309824Y-17968674D02*
X8319348Y-17987722D01*
X8319348Y-17987722D02*
X8319348Y-18092484D01*
X8414586Y-18092484D02*
X8414586Y-17959150D01*
X8414586Y-17978198D02*
X8424110Y-17968674D01*
X8424110Y-17968674D02*
X8443158Y-17959150D01*
X8443158Y-17959150D02*
X8471729Y-17959150D01*
X8471729Y-17959150D02*
X8490777Y-17968674D01*
X8490777Y-17968674D02*
X8500301Y-17987722D01*
X8500301Y-17987722D02*
X8500301Y-18092484D01*
X8500301Y-17987722D02*
X8509825Y-17968674D01*
X8509825Y-17968674D02*
X8528872Y-17959150D01*
X8528872Y-17959150D02*
X8557444Y-17959150D01*
X8557444Y-17959150D02*
X8576491Y-17968674D01*
X8576491Y-17968674D02*
X8586015Y-17987722D01*
X8586015Y-17987722D02*
X8586015Y-18092484D01*
X8976491Y-17882960D02*
X8805063Y-18140103D01*
X9233634Y-17892484D02*
X9252682Y-17892484D01*
X9252682Y-17892484D02*
X9271729Y-17902008D01*
X9271729Y-17902008D02*
X9281253Y-17911531D01*
X9281253Y-17911531D02*
X9290777Y-17930579D01*
X9290777Y-17930579D02*
X9300301Y-17968674D01*
X9300301Y-17968674D02*
X9300301Y-18016293D01*
X9300301Y-18016293D02*
X9290777Y-18054389D01*
X9290777Y-18054389D02*
X9281253Y-18073436D01*
X9281253Y-18073436D02*
X9271729Y-18082960D01*
X9271729Y-18082960D02*
X9252682Y-18092484D01*
X9252682Y-18092484D02*
X9233634Y-18092484D01*
X9233634Y-18092484D02*
X9214587Y-18082960D01*
X9214587Y-18082960D02*
X9205063Y-18073436D01*
X9205063Y-18073436D02*
X9195539Y-18054389D01*
X9195539Y-18054389D02*
X9186015Y-18016293D01*
X9186015Y-18016293D02*
X9186015Y-17968674D01*
X9186015Y-17968674D02*
X9195539Y-17930579D01*
X9195539Y-17930579D02*
X9205063Y-17911531D01*
X9205063Y-17911531D02*
X9214587Y-17902008D01*
X9214587Y-17902008D02*
X9233634Y-17892484D01*
X9386015Y-18073436D02*
X9395539Y-18082960D01*
X9395539Y-18082960D02*
X9386015Y-18092484D01*
X9386015Y-18092484D02*
X9376491Y-18082960D01*
X9376491Y-18082960D02*
X9386015Y-18073436D01*
X9386015Y-18073436D02*
X9386015Y-18092484D01*
X9519348Y-17892484D02*
X9538396Y-17892484D01*
X9538396Y-17892484D02*
X9557444Y-17902008D01*
X9557444Y-17902008D02*
X9566968Y-17911531D01*
X9566968Y-17911531D02*
X9576491Y-17930579D01*
X9576491Y-17930579D02*
X9586015Y-17968674D01*
X9586015Y-17968674D02*
X9586015Y-18016293D01*
X9586015Y-18016293D02*
X9576491Y-18054389D01*
X9576491Y-18054389D02*
X9566968Y-18073436D01*
X9566968Y-18073436D02*
X9557444Y-18082960D01*
X9557444Y-18082960D02*
X9538396Y-18092484D01*
X9538396Y-18092484D02*
X9519348Y-18092484D01*
X9519348Y-18092484D02*
X9500301Y-18082960D01*
X9500301Y-18082960D02*
X9490777Y-18073436D01*
X9490777Y-18073436D02*
X9481253Y-18054389D01*
X9481253Y-18054389D02*
X9471729Y-18016293D01*
X9471729Y-18016293D02*
X9471729Y-17968674D01*
X9471729Y-17968674D02*
X9481253Y-17930579D01*
X9481253Y-17930579D02*
X9490777Y-17911531D01*
X9490777Y-17911531D02*
X9500301Y-17902008D01*
X9500301Y-17902008D02*
X9519348Y-17892484D01*
X9766968Y-17892484D02*
X9671729Y-17892484D01*
X9671729Y-17892484D02*
X9662206Y-17987722D01*
X9662206Y-17987722D02*
X9671729Y-17978198D01*
X9671729Y-17978198D02*
X9690777Y-17968674D01*
X9690777Y-17968674D02*
X9738396Y-17968674D01*
X9738396Y-17968674D02*
X9757444Y-17978198D01*
X9757444Y-17978198D02*
X9766968Y-17987722D01*
X9766968Y-17987722D02*
X9776491Y-18006770D01*
X9776491Y-18006770D02*
X9776491Y-18054389D01*
X9776491Y-18054389D02*
X9766968Y-18073436D01*
X9766968Y-18073436D02*
X9757444Y-18082960D01*
X9757444Y-18082960D02*
X9738396Y-18092484D01*
X9738396Y-18092484D02*
X9690777Y-18092484D01*
X9690777Y-18092484D02*
X9671729Y-18082960D01*
X9671729Y-18082960D02*
X9662206Y-18073436D01*
X9957444Y-17892484D02*
X9862206Y-17892484D01*
X9862206Y-17892484D02*
X9852682Y-17987722D01*
X9852682Y-17987722D02*
X9862206Y-17978198D01*
X9862206Y-17978198D02*
X9881253Y-17968674D01*
X9881253Y-17968674D02*
X9928872Y-17968674D01*
X9928872Y-17968674D02*
X9947920Y-17978198D01*
X9947920Y-17978198D02*
X9957444Y-17987722D01*
X9957444Y-17987722D02*
X9966968Y-18006770D01*
X9966968Y-18006770D02*
X9966968Y-18054389D01*
X9966968Y-18054389D02*
X9957444Y-18073436D01*
X9957444Y-18073436D02*
X9947920Y-18082960D01*
X9947920Y-18082960D02*
X9928872Y-18092484D01*
X9928872Y-18092484D02*
X9881253Y-18092484D01*
X9881253Y-18092484D02*
X9862206Y-18082960D01*
X9862206Y-18082960D02*
X9852682Y-18073436D01*
X10157444Y-18092484D02*
X10043158Y-18092484D01*
X10100301Y-18092484D02*
X10100301Y-17892484D01*
X10100301Y-17892484D02*
X10081253Y-17921055D01*
X10081253Y-17921055D02*
X10062206Y-17940103D01*
X10062206Y-17940103D02*
X10043158Y-17949627D01*
X10233634Y-17892484D02*
X10233634Y-17930579D01*
X10309825Y-17892484D02*
X10309825Y-17930579D01*
X10605063Y-18168674D02*
X10595539Y-18159150D01*
X10595539Y-18159150D02*
X10576491Y-18130579D01*
X10576491Y-18130579D02*
X10566968Y-18111531D01*
X10566968Y-18111531D02*
X10557444Y-18082960D01*
X10557444Y-18082960D02*
X10547920Y-18035341D01*
X10547920Y-18035341D02*
X10547920Y-17997246D01*
X10547920Y-17997246D02*
X10557444Y-17949627D01*
X10557444Y-17949627D02*
X10566968Y-17921055D01*
X10566968Y-17921055D02*
X10576491Y-17902008D01*
X10576491Y-17902008D02*
X10595539Y-17873436D01*
X10595539Y-17873436D02*
X10605063Y-17863912D01*
X10662206Y-17892484D02*
X10786015Y-17892484D01*
X10786015Y-17892484D02*
X10719349Y-17968674D01*
X10719349Y-17968674D02*
X10747920Y-17968674D01*
X10747920Y-17968674D02*
X10766968Y-17978198D01*
X10766968Y-17978198D02*
X10776491Y-17987722D01*
X10776491Y-17987722D02*
X10786015Y-18006770D01*
X10786015Y-18006770D02*
X10786015Y-18054389D01*
X10786015Y-18054389D02*
X10776491Y-18073436D01*
X10776491Y-18073436D02*
X10766968Y-18082960D01*
X10766968Y-18082960D02*
X10747920Y-18092484D01*
X10747920Y-18092484D02*
X10690777Y-18092484D01*
X10690777Y-18092484D02*
X10671730Y-18082960D01*
X10671730Y-18082960D02*
X10662206Y-18073436D01*
X10862206Y-17911531D02*
X10871730Y-17902008D01*
X10871730Y-17902008D02*
X10890777Y-17892484D01*
X10890777Y-17892484D02*
X10938396Y-17892484D01*
X10938396Y-17892484D02*
X10957444Y-17902008D01*
X10957444Y-17902008D02*
X10966968Y-17911531D01*
X10966968Y-17911531D02*
X10976491Y-17930579D01*
X10976491Y-17930579D02*
X10976491Y-17949627D01*
X10976491Y-17949627D02*
X10966968Y-17978198D01*
X10966968Y-17978198D02*
X10852682Y-18092484D01*
X10852682Y-18092484D02*
X10976491Y-18092484D01*
X11214587Y-18092484D02*
X11214587Y-17892484D01*
X11300301Y-18092484D02*
X11300301Y-17987722D01*
X11300301Y-17987722D02*
X11290777Y-17968674D01*
X11290777Y-17968674D02*
X11271730Y-17959150D01*
X11271730Y-17959150D02*
X11243158Y-17959150D01*
X11243158Y-17959150D02*
X11224110Y-17968674D01*
X11224110Y-17968674D02*
X11214587Y-17978198D01*
X11424110Y-18092484D02*
X11405063Y-18082960D01*
X11405063Y-18082960D02*
X11395539Y-18073436D01*
X11395539Y-18073436D02*
X11386015Y-18054389D01*
X11386015Y-18054389D02*
X11386015Y-17997246D01*
X11386015Y-17997246D02*
X11395539Y-17978198D01*
X11395539Y-17978198D02*
X11405063Y-17968674D01*
X11405063Y-17968674D02*
X11424110Y-17959150D01*
X11424110Y-17959150D02*
X11452682Y-17959150D01*
X11452682Y-17959150D02*
X11471730Y-17968674D01*
X11471730Y-17968674D02*
X11481253Y-17978198D01*
X11481253Y-17978198D02*
X11490777Y-17997246D01*
X11490777Y-17997246D02*
X11490777Y-18054389D01*
X11490777Y-18054389D02*
X11481253Y-18073436D01*
X11481253Y-18073436D02*
X11471730Y-18082960D01*
X11471730Y-18082960D02*
X11452682Y-18092484D01*
X11452682Y-18092484D02*
X11424110Y-18092484D01*
X11605063Y-18092484D02*
X11586015Y-18082960D01*
X11586015Y-18082960D02*
X11576491Y-18063912D01*
X11576491Y-18063912D02*
X11576491Y-17892484D01*
X11757444Y-18082960D02*
X11738396Y-18092484D01*
X11738396Y-18092484D02*
X11700301Y-18092484D01*
X11700301Y-18092484D02*
X11681253Y-18082960D01*
X11681253Y-18082960D02*
X11671730Y-18063912D01*
X11671730Y-18063912D02*
X11671730Y-17987722D01*
X11671730Y-17987722D02*
X11681253Y-17968674D01*
X11681253Y-17968674D02*
X11700301Y-17959150D01*
X11700301Y-17959150D02*
X11738396Y-17959150D01*
X11738396Y-17959150D02*
X11757444Y-17968674D01*
X11757444Y-17968674D02*
X11766968Y-17987722D01*
X11766968Y-17987722D02*
X11766968Y-18006770D01*
X11766968Y-18006770D02*
X11671730Y-18025817D01*
X11843158Y-18082960D02*
X11862206Y-18092484D01*
X11862206Y-18092484D02*
X11900301Y-18092484D01*
X11900301Y-18092484D02*
X11919349Y-18082960D01*
X11919349Y-18082960D02*
X11928872Y-18063912D01*
X11928872Y-18063912D02*
X11928872Y-18054389D01*
X11928872Y-18054389D02*
X11919349Y-18035341D01*
X11919349Y-18035341D02*
X11900301Y-18025817D01*
X11900301Y-18025817D02*
X11871730Y-18025817D01*
X11871730Y-18025817D02*
X11852682Y-18016293D01*
X11852682Y-18016293D02*
X11843158Y-17997246D01*
X11843158Y-17997246D02*
X11843158Y-17987722D01*
X11843158Y-17987722D02*
X11852682Y-17968674D01*
X11852682Y-17968674D02*
X11871730Y-17959150D01*
X11871730Y-17959150D02*
X11900301Y-17959150D01*
X11900301Y-17959150D02*
X11919349Y-17968674D01*
X11995539Y-18168674D02*
X12005063Y-18159150D01*
X12005063Y-18159150D02*
X12024111Y-18130579D01*
X12024111Y-18130579D02*
X12033634Y-18111531D01*
X12033634Y-18111531D02*
X12043158Y-18082960D01*
X12043158Y-18082960D02*
X12052682Y-18035341D01*
X12052682Y-18035341D02*
X12052682Y-17997246D01*
X12052682Y-17997246D02*
X12043158Y-17949627D01*
X12043158Y-17949627D02*
X12033634Y-17921055D01*
X12033634Y-17921055D02*
X12024111Y-17902008D01*
X12024111Y-17902008D02*
X12005063Y-17873436D01*
X12005063Y-17873436D02*
X11995539Y-17863912D01*
X7000711Y-18335711D02*
X7000711Y-18194289D01*
X6859289Y-18194289D01*
X6859289Y-18335711D01*
X7000711Y-18335711D01*
X7030000Y-18265000D02*
G75*
G03*
X7030000Y-18265000I-100000J0D01*
G01*
X7271729Y-18156484D02*
X7395539Y-18156484D01*
X7395539Y-18156484D02*
X7328872Y-18232674D01*
X7328872Y-18232674D02*
X7357443Y-18232674D01*
X7357443Y-18232674D02*
X7376491Y-18242198D01*
X7376491Y-18242198D02*
X7386015Y-18251722D01*
X7386015Y-18251722D02*
X7395539Y-18270770D01*
X7395539Y-18270770D02*
X7395539Y-18318389D01*
X7395539Y-18318389D02*
X7386015Y-18337436D01*
X7386015Y-18337436D02*
X7376491Y-18346960D01*
X7376491Y-18346960D02*
X7357443Y-18356484D01*
X7357443Y-18356484D02*
X7300301Y-18356484D01*
X7300301Y-18356484D02*
X7281253Y-18346960D01*
X7281253Y-18346960D02*
X7271729Y-18337436D01*
X7481253Y-18337436D02*
X7490777Y-18346960D01*
X7490777Y-18346960D02*
X7481253Y-18356484D01*
X7481253Y-18356484D02*
X7471729Y-18346960D01*
X7471729Y-18346960D02*
X7481253Y-18337436D01*
X7481253Y-18337436D02*
X7481253Y-18356484D01*
X7671729Y-18156484D02*
X7576491Y-18156484D01*
X7576491Y-18156484D02*
X7566967Y-18251722D01*
X7566967Y-18251722D02*
X7576491Y-18242198D01*
X7576491Y-18242198D02*
X7595539Y-18232674D01*
X7595539Y-18232674D02*
X7643158Y-18232674D01*
X7643158Y-18232674D02*
X7662205Y-18242198D01*
X7662205Y-18242198D02*
X7671729Y-18251722D01*
X7671729Y-18251722D02*
X7681253Y-18270770D01*
X7681253Y-18270770D02*
X7681253Y-18318389D01*
X7681253Y-18318389D02*
X7671729Y-18337436D01*
X7671729Y-18337436D02*
X7662205Y-18346960D01*
X7662205Y-18346960D02*
X7643158Y-18356484D01*
X7643158Y-18356484D02*
X7595539Y-18356484D01*
X7595539Y-18356484D02*
X7576491Y-18346960D01*
X7576491Y-18346960D02*
X7566967Y-18337436D01*
X7805062Y-18156484D02*
X7824110Y-18156484D01*
X7824110Y-18156484D02*
X7843158Y-18166008D01*
X7843158Y-18166008D02*
X7852682Y-18175531D01*
X7852682Y-18175531D02*
X7862205Y-18194579D01*
X7862205Y-18194579D02*
X7871729Y-18232674D01*
X7871729Y-18232674D02*
X7871729Y-18280293D01*
X7871729Y-18280293D02*
X7862205Y-18318389D01*
X7862205Y-18318389D02*
X7852682Y-18337436D01*
X7852682Y-18337436D02*
X7843158Y-18346960D01*
X7843158Y-18346960D02*
X7824110Y-18356484D01*
X7824110Y-18356484D02*
X7805062Y-18356484D01*
X7805062Y-18356484D02*
X7786015Y-18346960D01*
X7786015Y-18346960D02*
X7776491Y-18337436D01*
X7776491Y-18337436D02*
X7766967Y-18318389D01*
X7766967Y-18318389D02*
X7757443Y-18280293D01*
X7757443Y-18280293D02*
X7757443Y-18232674D01*
X7757443Y-18232674D02*
X7766967Y-18194579D01*
X7766967Y-18194579D02*
X7776491Y-18175531D01*
X7776491Y-18175531D02*
X7786015Y-18166008D01*
X7786015Y-18166008D02*
X7805062Y-18156484D01*
X7995539Y-18156484D02*
X8014586Y-18156484D01*
X8014586Y-18156484D02*
X8033634Y-18166008D01*
X8033634Y-18166008D02*
X8043158Y-18175531D01*
X8043158Y-18175531D02*
X8052682Y-18194579D01*
X8052682Y-18194579D02*
X8062205Y-18232674D01*
X8062205Y-18232674D02*
X8062205Y-18280293D01*
X8062205Y-18280293D02*
X8052682Y-18318389D01*
X8052682Y-18318389D02*
X8043158Y-18337436D01*
X8043158Y-18337436D02*
X8033634Y-18346960D01*
X8033634Y-18346960D02*
X8014586Y-18356484D01*
X8014586Y-18356484D02*
X7995539Y-18356484D01*
X7995539Y-18356484D02*
X7976491Y-18346960D01*
X7976491Y-18346960D02*
X7966967Y-18337436D01*
X7966967Y-18337436D02*
X7957443Y-18318389D01*
X7957443Y-18318389D02*
X7947920Y-18280293D01*
X7947920Y-18280293D02*
X7947920Y-18232674D01*
X7947920Y-18232674D02*
X7957443Y-18194579D01*
X7957443Y-18194579D02*
X7966967Y-18175531D01*
X7966967Y-18175531D02*
X7976491Y-18166008D01*
X7976491Y-18166008D02*
X7995539Y-18156484D01*
X8147920Y-18356484D02*
X8147920Y-18223150D01*
X8147920Y-18242198D02*
X8157443Y-18232674D01*
X8157443Y-18232674D02*
X8176491Y-18223150D01*
X8176491Y-18223150D02*
X8205063Y-18223150D01*
X8205063Y-18223150D02*
X8224110Y-18232674D01*
X8224110Y-18232674D02*
X8233634Y-18251722D01*
X8233634Y-18251722D02*
X8233634Y-18356484D01*
X8233634Y-18251722D02*
X8243158Y-18232674D01*
X8243158Y-18232674D02*
X8262205Y-18223150D01*
X8262205Y-18223150D02*
X8290777Y-18223150D01*
X8290777Y-18223150D02*
X8309824Y-18232674D01*
X8309824Y-18232674D02*
X8319348Y-18251722D01*
X8319348Y-18251722D02*
X8319348Y-18356484D01*
X8414586Y-18356484D02*
X8414586Y-18223150D01*
X8414586Y-18242198D02*
X8424110Y-18232674D01*
X8424110Y-18232674D02*
X8443158Y-18223150D01*
X8443158Y-18223150D02*
X8471729Y-18223150D01*
X8471729Y-18223150D02*
X8490777Y-18232674D01*
X8490777Y-18232674D02*
X8500301Y-18251722D01*
X8500301Y-18251722D02*
X8500301Y-18356484D01*
X8500301Y-18251722D02*
X8509825Y-18232674D01*
X8509825Y-18232674D02*
X8528872Y-18223150D01*
X8528872Y-18223150D02*
X8557444Y-18223150D01*
X8557444Y-18223150D02*
X8576491Y-18232674D01*
X8576491Y-18232674D02*
X8586015Y-18251722D01*
X8586015Y-18251722D02*
X8586015Y-18356484D01*
X8976491Y-18146960D02*
X8805063Y-18404103D01*
X9233634Y-18156484D02*
X9252682Y-18156484D01*
X9252682Y-18156484D02*
X9271729Y-18166008D01*
X9271729Y-18166008D02*
X9281253Y-18175531D01*
X9281253Y-18175531D02*
X9290777Y-18194579D01*
X9290777Y-18194579D02*
X9300301Y-18232674D01*
X9300301Y-18232674D02*
X9300301Y-18280293D01*
X9300301Y-18280293D02*
X9290777Y-18318389D01*
X9290777Y-18318389D02*
X9281253Y-18337436D01*
X9281253Y-18337436D02*
X9271729Y-18346960D01*
X9271729Y-18346960D02*
X9252682Y-18356484D01*
X9252682Y-18356484D02*
X9233634Y-18356484D01*
X9233634Y-18356484D02*
X9214587Y-18346960D01*
X9214587Y-18346960D02*
X9205063Y-18337436D01*
X9205063Y-18337436D02*
X9195539Y-18318389D01*
X9195539Y-18318389D02*
X9186015Y-18280293D01*
X9186015Y-18280293D02*
X9186015Y-18232674D01*
X9186015Y-18232674D02*
X9195539Y-18194579D01*
X9195539Y-18194579D02*
X9205063Y-18175531D01*
X9205063Y-18175531D02*
X9214587Y-18166008D01*
X9214587Y-18166008D02*
X9233634Y-18156484D01*
X9386015Y-18337436D02*
X9395539Y-18346960D01*
X9395539Y-18346960D02*
X9386015Y-18356484D01*
X9386015Y-18356484D02*
X9376491Y-18346960D01*
X9376491Y-18346960D02*
X9386015Y-18337436D01*
X9386015Y-18337436D02*
X9386015Y-18356484D01*
X9586015Y-18356484D02*
X9471729Y-18356484D01*
X9528872Y-18356484D02*
X9528872Y-18156484D01*
X9528872Y-18156484D02*
X9509825Y-18185055D01*
X9509825Y-18185055D02*
X9490777Y-18204103D01*
X9490777Y-18204103D02*
X9471729Y-18213627D01*
X9652682Y-18156484D02*
X9776491Y-18156484D01*
X9776491Y-18156484D02*
X9709825Y-18232674D01*
X9709825Y-18232674D02*
X9738396Y-18232674D01*
X9738396Y-18232674D02*
X9757444Y-18242198D01*
X9757444Y-18242198D02*
X9766968Y-18251722D01*
X9766968Y-18251722D02*
X9776491Y-18270770D01*
X9776491Y-18270770D02*
X9776491Y-18318389D01*
X9776491Y-18318389D02*
X9766968Y-18337436D01*
X9766968Y-18337436D02*
X9757444Y-18346960D01*
X9757444Y-18346960D02*
X9738396Y-18356484D01*
X9738396Y-18356484D02*
X9681253Y-18356484D01*
X9681253Y-18356484D02*
X9662206Y-18346960D01*
X9662206Y-18346960D02*
X9652682Y-18337436D01*
X9843158Y-18156484D02*
X9976491Y-18156484D01*
X9976491Y-18156484D02*
X9890777Y-18356484D01*
X10081253Y-18242198D02*
X10062206Y-18232674D01*
X10062206Y-18232674D02*
X10052682Y-18223150D01*
X10052682Y-18223150D02*
X10043158Y-18204103D01*
X10043158Y-18204103D02*
X10043158Y-18194579D01*
X10043158Y-18194579D02*
X10052682Y-18175531D01*
X10052682Y-18175531D02*
X10062206Y-18166008D01*
X10062206Y-18166008D02*
X10081253Y-18156484D01*
X10081253Y-18156484D02*
X10119349Y-18156484D01*
X10119349Y-18156484D02*
X10138396Y-18166008D01*
X10138396Y-18166008D02*
X10147920Y-18175531D01*
X10147920Y-18175531D02*
X10157444Y-18194579D01*
X10157444Y-18194579D02*
X10157444Y-18204103D01*
X10157444Y-18204103D02*
X10147920Y-18223150D01*
X10147920Y-18223150D02*
X10138396Y-18232674D01*
X10138396Y-18232674D02*
X10119349Y-18242198D01*
X10119349Y-18242198D02*
X10081253Y-18242198D01*
X10081253Y-18242198D02*
X10062206Y-18251722D01*
X10062206Y-18251722D02*
X10052682Y-18261246D01*
X10052682Y-18261246D02*
X10043158Y-18280293D01*
X10043158Y-18280293D02*
X10043158Y-18318389D01*
X10043158Y-18318389D02*
X10052682Y-18337436D01*
X10052682Y-18337436D02*
X10062206Y-18346960D01*
X10062206Y-18346960D02*
X10081253Y-18356484D01*
X10081253Y-18356484D02*
X10119349Y-18356484D01*
X10119349Y-18356484D02*
X10138396Y-18346960D01*
X10138396Y-18346960D02*
X10147920Y-18337436D01*
X10147920Y-18337436D02*
X10157444Y-18318389D01*
X10157444Y-18318389D02*
X10157444Y-18280293D01*
X10157444Y-18280293D02*
X10147920Y-18261246D01*
X10147920Y-18261246D02*
X10138396Y-18251722D01*
X10138396Y-18251722D02*
X10119349Y-18242198D01*
X10233634Y-18156484D02*
X10233634Y-18194579D01*
X10309825Y-18156484D02*
X10309825Y-18194579D01*
X10605063Y-18432674D02*
X10595539Y-18423150D01*
X10595539Y-18423150D02*
X10576491Y-18394579D01*
X10576491Y-18394579D02*
X10566968Y-18375531D01*
X10566968Y-18375531D02*
X10557444Y-18346960D01*
X10557444Y-18346960D02*
X10547920Y-18299341D01*
X10547920Y-18299341D02*
X10547920Y-18261246D01*
X10547920Y-18261246D02*
X10557444Y-18213627D01*
X10557444Y-18213627D02*
X10566968Y-18185055D01*
X10566968Y-18185055D02*
X10576491Y-18166008D01*
X10576491Y-18166008D02*
X10595539Y-18137436D01*
X10595539Y-18137436D02*
X10605063Y-18127912D01*
X10766968Y-18223150D02*
X10766968Y-18356484D01*
X10719349Y-18146960D02*
X10671730Y-18289817D01*
X10671730Y-18289817D02*
X10795539Y-18289817D01*
X11024111Y-18356484D02*
X11024111Y-18156484D01*
X11109825Y-18356484D02*
X11109825Y-18251722D01*
X11109825Y-18251722D02*
X11100301Y-18232674D01*
X11100301Y-18232674D02*
X11081253Y-18223150D01*
X11081253Y-18223150D02*
X11052682Y-18223150D01*
X11052682Y-18223150D02*
X11033634Y-18232674D01*
X11033634Y-18232674D02*
X11024111Y-18242198D01*
X11233634Y-18356484D02*
X11214587Y-18346960D01*
X11214587Y-18346960D02*
X11205063Y-18337436D01*
X11205063Y-18337436D02*
X11195539Y-18318389D01*
X11195539Y-18318389D02*
X11195539Y-18261246D01*
X11195539Y-18261246D02*
X11205063Y-18242198D01*
X11205063Y-18242198D02*
X11214587Y-18232674D01*
X11214587Y-18232674D02*
X11233634Y-18223150D01*
X11233634Y-18223150D02*
X11262206Y-18223150D01*
X11262206Y-18223150D02*
X11281253Y-18232674D01*
X11281253Y-18232674D02*
X11290777Y-18242198D01*
X11290777Y-18242198D02*
X11300301Y-18261246D01*
X11300301Y-18261246D02*
X11300301Y-18318389D01*
X11300301Y-18318389D02*
X11290777Y-18337436D01*
X11290777Y-18337436D02*
X11281253Y-18346960D01*
X11281253Y-18346960D02*
X11262206Y-18356484D01*
X11262206Y-18356484D02*
X11233634Y-18356484D01*
X11414587Y-18356484D02*
X11395539Y-18346960D01*
X11395539Y-18346960D02*
X11386015Y-18327912D01*
X11386015Y-18327912D02*
X11386015Y-18156484D01*
X11566968Y-18346960D02*
X11547920Y-18356484D01*
X11547920Y-18356484D02*
X11509825Y-18356484D01*
X11509825Y-18356484D02*
X11490777Y-18346960D01*
X11490777Y-18346960D02*
X11481253Y-18327912D01*
X11481253Y-18327912D02*
X11481253Y-18251722D01*
X11481253Y-18251722D02*
X11490777Y-18232674D01*
X11490777Y-18232674D02*
X11509825Y-18223150D01*
X11509825Y-18223150D02*
X11547920Y-18223150D01*
X11547920Y-18223150D02*
X11566968Y-18232674D01*
X11566968Y-18232674D02*
X11576491Y-18251722D01*
X11576491Y-18251722D02*
X11576491Y-18270770D01*
X11576491Y-18270770D02*
X11481253Y-18289817D01*
X11652682Y-18346960D02*
X11671730Y-18356484D01*
X11671730Y-18356484D02*
X11709825Y-18356484D01*
X11709825Y-18356484D02*
X11728872Y-18346960D01*
X11728872Y-18346960D02*
X11738396Y-18327912D01*
X11738396Y-18327912D02*
X11738396Y-18318389D01*
X11738396Y-18318389D02*
X11728872Y-18299341D01*
X11728872Y-18299341D02*
X11709825Y-18289817D01*
X11709825Y-18289817D02*
X11681253Y-18289817D01*
X11681253Y-18289817D02*
X11662206Y-18280293D01*
X11662206Y-18280293D02*
X11652682Y-18261246D01*
X11652682Y-18261246D02*
X11652682Y-18251722D01*
X11652682Y-18251722D02*
X11662206Y-18232674D01*
X11662206Y-18232674D02*
X11681253Y-18223150D01*
X11681253Y-18223150D02*
X11709825Y-18223150D01*
X11709825Y-18223150D02*
X11728872Y-18232674D01*
X11805063Y-18432674D02*
X11814587Y-18423150D01*
X11814587Y-18423150D02*
X11833634Y-18394579D01*
X11833634Y-18394579D02*
X11843158Y-18375531D01*
X11843158Y-18375531D02*
X11852682Y-18346960D01*
X11852682Y-18346960D02*
X11862206Y-18299341D01*
X11862206Y-18299341D02*
X11862206Y-18261246D01*
X11862206Y-18261246D02*
X11852682Y-18213627D01*
X11852682Y-18213627D02*
X11843158Y-18185055D01*
X11843158Y-18185055D02*
X11833634Y-18166008D01*
X11833634Y-18166008D02*
X11814587Y-18137436D01*
X11814587Y-18137436D02*
X11805063Y-18127912D01*
M02*
