M48
; DRILL file {KiCad 7.0.7} date Wed Nov 29 15:56:19 2023
; FORMAT={-:-/ absolute / inch / decimal}
; #@! TF.CreationDate,2023-11-29T15:56:19-06:00
; #@! TF.GenerationSoftware,Kicad,Pcbnew,7.0.7
; #@! TF.FileFunction,Plated,1,2,PTH
FMAT,2
INCH
; #@! TA.AperFunction,Plated,PTH,ViaDrill
T1C0.0157
; #@! TA.AperFunction,Plated,PTH,ComponentDrill
T2C0.0300
; #@! TA.AperFunction,Plated,PTH,ComponentDrill
T3C0.0315
; #@! TA.AperFunction,Plated,PTH,ComponentDrill
T4C0.0340
; #@! TA.AperFunction,Plated,PTH,ComponentDrill
T5C0.0354
; #@! TA.AperFunction,Plated,PTH,ComponentDrill
T6C0.0394
; #@! TA.AperFunction,Plated,PTH,ComponentDrill
T7C0.0394
; #@! TA.AperFunction,Plated,PTH,ComponentDrill
T8C0.0398
; #@! TA.AperFunction,Plated,PTH,ComponentDrill
T9C0.0500
; #@! TA.AperFunction,Plated,PTH,ComponentDrill
T10C0.0551
; #@! TA.AperFunction,Plated,PTH,ComponentDrill
T11C0.1378
%
G90
G05
T1
X3.0413Y-3.572
X3.1209Y-3.2957
X3.5791Y-3.2945
X4.3476Y-5.7055
X4.5256Y-3.6815
X4.6456Y-3.6154
X4.648Y-4.7083
X4.7457Y-4.8539
X4.7677Y-3.0909
X4.7748Y-3.163
X4.7957Y-3.9319
X4.8079Y-3.3606
X4.8799Y-3.0917
X4.9563Y-3.2614
X4.9965Y-3.4622
X5.0457Y-3.4598
X5.0472Y-3.2807
X5.089Y-4.0114
X5.0909Y-3.8898
X5.1369Y-3.9387
X5.5843Y-2.9393
X5.5886Y-3.3433
X5.6398Y-3.1776
X5.8402Y-3.3429
X5.8697Y-2.9402
X5.873Y-3.1903
X5.8953Y-3.3209
X6.0843Y-4.8098
X6.1161Y-4.7811
X6.1453Y-4.7512
X6.2736Y-2.865
X6.3075Y-2.8937
X6.3449Y-2.9222
X6.3886Y-2.9516
X7.1437Y-3.4071
X7.1437Y-3.5764
X7.2693Y-3.1744
X7.2984Y-3.6161
X7.3012Y-3.5508
X7.3183Y-2.9524
X7.3183Y-3.0161
X7.3205Y-3.126
X7.4027Y-3.2051
X7.4039Y-3.252
X7.4165Y-3.5512
X7.4173Y-3.615
X7.4291Y-3.2969
X8.0988Y-3.2949
X8.0992Y-3.2531
X8.2665Y-4.5378
X8.3433Y-3.8945
X8.361Y-4.5382
X8.4209Y-3.1228
X8.4406Y-2.6638
X8.4563Y-3.7524
X8.4567Y-3.8945
X8.4583Y-3.2949
X8.4606Y-2.8579
T2
X3.5559Y-2.648
X3.6543Y-2.648
X5.8713Y-5.0929
X5.8713Y-5.1913
X6.7217Y-5.0843
X6.7217Y-5.1827
X7.5429Y-5.0972
X7.5429Y-5.1957
X8.3693Y-5.0945
X8.3693Y-5.1929
X9.2319Y-4.1228
X9.3303Y-4.1228
T3
X3.4681Y-4.9331
X3.4681Y-5.0965
X3.8681Y-4.9331
X3.8681Y-5.0965
X3.9659Y-2.8602
X3.9659Y-2.9602
X3.9659Y-3.0602
X3.9659Y-3.1602
X3.9659Y-3.2602
X3.9659Y-3.3602
X3.9669Y-3.4602
X3.9669Y-3.5602
X3.9669Y-3.6602
X3.9669Y-3.7602
X3.9669Y-3.8602
X3.9669Y-3.9602
X3.9669Y-4.0602
X3.9669Y-4.1602
X3.9669Y-4.2602
X3.9669Y-4.3602
X3.9669Y-4.4602
X3.9669Y-4.5602
X3.9669Y-4.6602
X3.9669Y-4.7602
X5.6205Y-3.9425
X5.6209Y-3.7807
X5.6213Y-3.6161
X6.0205Y-3.9425
X6.0209Y-3.7807
X6.0213Y-3.6161
T4
X3.4981Y-2.3713
X3.6981Y-2.3713
X5.5362Y-4.9323
X5.5362Y-5.1323
X6.3016Y-5.048
X6.3016Y-5.248
X6.5232Y-4.4799
X6.7232Y-4.4799
X7.1232Y-5.0476
X7.1232Y-5.2476
X7.4071Y-4.815
X7.6071Y-4.815
X7.9492Y-5.0425
X7.9492Y-5.2425
X8.1079Y-4.75
X8.3079Y-4.75
X8.7827Y-5.0492
X8.7827Y-5.2492
X9.2173Y-5.0488
X9.2173Y-5.2488
X9.2315Y-4.4
X9.4315Y-4.4
T5
X3.5616Y-4.298
X3.5622Y-4.6031
X3.6616Y-4.298
X3.6622Y-4.6031
T6
X5.5437Y-5.3886
X5.6437Y-5.3886
X5.7437Y-5.3886
X5.9925Y-5.3858
X6.0925Y-5.3858
X6.1925Y-5.3858
X6.4169Y-5.3831
X6.5169Y-5.3831
X6.6169Y-5.3831
X6.824Y-5.3819
X6.924Y-5.3819
X7.024Y-5.3819
X7.2341Y-5.3833
X7.3341Y-5.3833
X7.4341Y-5.3833
X7.6486Y-5.3833
X7.7486Y-5.3833
X7.8486Y-5.3833
X8.0612Y-5.3837
X8.1612Y-5.3837
X8.2612Y-5.3837
X8.4726Y-5.3833
X8.5726Y-5.3833
X8.6726Y-5.3833
X8.8927Y-5.3829
X8.9927Y-5.3829
X9.0927Y-5.3829
T7
X3.348Y-2.7421
X3.348Y-2.8421
X3.348Y-2.9421
X3.348Y-3.0421
X3.348Y-3.1421
X3.348Y-3.2421
X3.348Y-3.3421
X3.348Y-3.4421
X3.348Y-3.6421
X3.348Y-3.7421
X3.348Y-3.8421
X3.348Y-3.9421
X3.348Y-4.0421
X3.348Y-4.1421
X3.348Y-4.2421
X3.348Y-4.3421
X3.348Y-4.5421
X3.348Y-4.6421
X3.348Y-4.7421
X3.348Y-4.8421
X3.348Y-4.9421
X3.348Y-5.0421
X3.348Y-5.1421
X3.348Y-5.2421
X3.548Y-5.3421
X3.548Y-5.4421
X3.648Y-5.3421
X3.648Y-5.4421
X3.748Y-5.3421
X3.748Y-5.4421
X3.848Y-5.3421
X3.848Y-5.4421
X3.948Y-5.3421
X3.948Y-5.4421
X4.048Y-5.3421
X4.048Y-5.4421
X4.148Y-5.3421
X4.148Y-5.4421
X4.248Y-5.3421
X4.248Y-5.4421
X4.348Y-5.3421
X4.348Y-5.4421
X4.448Y-5.3421
X4.448Y-5.4421
X4.548Y-5.3421
X4.548Y-5.4421
X4.648Y-5.3421
X4.648Y-5.4421
X4.748Y-5.3421
X4.748Y-5.4421
X4.848Y-5.3421
X4.848Y-5.4421
X4.948Y-5.3421
X4.948Y-5.4421
X5.048Y-5.3421
X5.048Y-5.4421
X5.148Y-5.3421
X5.148Y-5.4421
X5.248Y-2.3821
X5.248Y-2.4821
X5.248Y-2.5821
X5.248Y-2.6821
X5.248Y-2.7821
X5.248Y-2.8821
X5.248Y-2.9821
X5.248Y-3.0821
X5.248Y-3.1821
X5.248Y-3.2821
X5.248Y-3.4421
X5.248Y-3.5421
X5.248Y-3.6421
X5.248Y-3.7421
X5.248Y-3.8421
X5.248Y-3.9421
X5.248Y-4.0421
X5.248Y-4.1421
X5.248Y-4.3421
X5.248Y-4.4421
X5.248Y-4.5421
X5.248Y-4.6421
X5.248Y-4.7421
X5.248Y-4.8421
X5.248Y-4.9421
X5.248Y-5.0421
X5.248Y-5.3421
X5.248Y-5.4421
T8
X7.5556Y-3.4681
X7.5556Y-3.5681
X7.5556Y-3.6681
X7.5556Y-3.7681
X7.648Y-2.4827
X7.648Y-2.5827
X7.648Y-2.6827
X7.648Y-2.7827
X7.648Y-2.8827
X7.648Y-2.9827
X7.7174Y-4.1349
X7.7174Y-4.2349
X7.7174Y-4.3349
X8.1374Y-4.1339
X8.1374Y-4.2339
X8.1374Y-4.3339
X8.148Y-2.4827
X8.148Y-2.5827
X8.148Y-2.6827
X8.148Y-2.7827
X8.148Y-2.8827
X8.148Y-2.9827
X8.2075Y-3.3685
X8.2075Y-3.4685
X8.2075Y-3.5685
X8.2075Y-3.6685
X8.2075Y-3.7685
T9
X8.5055Y-4.7331
X8.6055Y-4.7331
X8.7055Y-4.7331
T10
X6.0807Y-1.8949
X6.0807Y-2.0579
X6.2437Y-1.8949
X6.2437Y-2.0579
X6.7051Y-1.8949
X6.7051Y-2.0579
X6.8681Y-1.8949
X6.8681Y-2.0579
X7.3295Y-1.8953
X7.3295Y-2.0583
X7.4925Y-1.8953
X7.4925Y-2.0583
X7.9579Y-1.8957
X7.9579Y-2.0587
X8.1209Y-1.8957
X8.1209Y-2.0587
X8.598Y-2.5764
X8.598Y-2.7394
X8.5988Y-3.1496
X8.5988Y-3.3126
X8.5992Y-4.2512
X8.5992Y-4.4142
X8.6Y-3.6866
X8.6Y-3.8496
X8.761Y-2.5764
X8.761Y-2.7394
X8.7618Y-3.1496
X8.7618Y-3.3126
X8.7622Y-4.2512
X8.7622Y-4.4142
X8.763Y-3.6866
X8.763Y-3.8496
T11
X3.0228Y-1.5571
X3.0228Y-5.6626
X9.3807Y-5.663
X9.3811Y-1.5598
T6
G00X9.0598Y-4.824
M15
G01X9.0598Y-4.7453
M16
G05
G00X9.2173Y-4.5996
M15
G01X9.1386Y-4.5996
M16
G05
G00X9.2961Y-4.824
M15
G01X9.2961Y-4.7453
M16
G05
T0
M30
